<svg xmlns="http://www.w3.org/2000/svg" xmlns:xlink="http://www.w3.org/1999/xlink" width="103" height="103" viewBox="0 0 103 103">
  <defs>
    <filter id="Trazado_978624" x="0" y="0" width="103" height="103" filterUnits="userSpaceOnUse">
      <feOffset dy="3" input="SourceAlpha"/>
      <feGaussianBlur stdDeviation="3" result="blur"/>
      <feFlood flood-opacity="0.161"/>
      <feComposite operator="in" in2="blur"/>
      <feComposite in="SourceGraphic"/>
    </filter>
  </defs>
  <g id="Grupo_1210557" data-name="Grupo 1210557" transform="translate(-611 -7537)">
    <g id="Grupo_1209468" data-name="Grupo 1209468" transform="translate(419 7223)">
      <g id="Grupo_1180764" data-name="Grupo 1180764" transform="translate(1 -4144)">
        <g id="Grupo_1179463" data-name="Grupo 1179463" transform="translate(200 4464)">
          <g id="Grupo_1144531" data-name="Grupo 1144531">
            <g transform="matrix(1, 0, 0, 1, -9, -6)" filter="url(#Trazado_978624)">
              <g id="Trazado_978624-2" data-name="Trazado 978624" transform="translate(9 6)" fill="#fef8e9">
                <path d="M 42.5 83.5 C 36.96437835693359 83.5 31.59512901306152 82.41617584228516 26.54141235351562 80.27863311767578 C 21.65934181213379 78.21369171142578 17.27447128295898 75.25723266601562 13.50862312316895 71.49137878417969 C 9.742764472961426 67.72553253173828 6.786305904388428 63.34066009521484 4.721364498138428 58.45858764648438 C 2.583823442459106 53.40486907958984 1.5 48.03562164306641 1.5 42.5 C 1.5 36.96437835693359 2.583823442459106 31.59512901306152 4.721364498138428 26.54141235351562 C 6.786305904388428 21.65934181213379 9.742764472961426 17.27447128295898 13.50862312316895 13.50862312316895 C 17.27447128295898 9.742764472961426 21.65934181213379 6.786305904388428 26.54141235351562 4.721364498138428 C 31.59512901306152 2.583823442459106 36.96437835693359 1.5 42.5 1.5 C 48.03562164306641 1.5 53.40486907958984 2.583823442459106 58.45858764648438 4.721364498138428 C 63.34066009521484 6.786305904388428 67.72553253173828 9.742764472961426 71.49137878417969 13.50862312316895 C 75.25723266601562 17.27447128295898 78.21369171142578 21.65934181213379 80.27863311767578 26.54141235351562 C 82.41617584228516 31.59512901306152 83.5 36.96437835693359 83.5 42.5 C 83.5 48.03562164306641 82.41617584228516 53.40486907958984 80.27863311767578 58.45858764648438 C 78.21369171142578 63.34066009521484 75.25723266601562 67.72553253173828 71.49137878417969 71.49137878417969 C 67.72553253173828 75.25723266601562 63.34066009521484 78.21369171142578 58.45858764648438 80.27863311767578 C 53.40486907958984 82.41617584228516 48.03562164306641 83.5 42.5 83.5 Z" stroke="none"/>
                <path d="M 42.5 3 C 37.16621398925781 3 31.99356079101562 4.043960571289062 27.125732421875 6.102882385253906 C 22.42246627807617 8.092185974121094 18.19785308837891 10.94070434570312 14.56928253173828 14.56928253173828 C 10.94070434570312 18.19785308837891 8.092185974121094 22.42246627807617 6.102882385253906 27.125732421875 C 4.043960571289062 31.99356079101562 3 37.16621398925781 3 42.5 C 3 47.83378601074219 4.043960571289062 53.00643920898438 6.102882385253906 57.87425231933594 C 8.092185974121094 62.57753372192383 10.94070434570312 66.80213165283203 14.56928253173828 70.43071746826172 C 18.19786834716797 74.05929565429688 22.42246627807617 76.90781402587891 27.125732421875 78.89711761474609 C 31.99356079101562 80.95603942871094 37.16621398925781 82 42.5 82 C 47.83378601074219 82 53.00642395019531 80.95603942871094 57.87425231933594 78.89711761474609 C 62.57753372192383 76.90781402587891 66.80213165283203 74.05929565429688 70.43071746826172 70.43071746826172 C 74.05929565429688 66.80213165283203 76.90781402587891 62.57753372192383 78.89711761474609 57.87425231933594 C 80.95603942871094 53.00642395019531 82 47.83378601074219 82 42.5 C 82 37.16621398925781 80.95603942871094 31.99356079101562 78.89711761474609 27.125732421875 C 76.90781402587891 22.42246627807617 74.05929565429688 18.19786834716797 70.43071746826172 14.56928253173828 C 66.80213165283203 10.94070434570312 62.57753372192383 8.092185974121094 57.87425231933594 6.102882385253906 C 53.00643920898438 4.043960571289062 47.83378601074219 3 42.5 3 M 42.5 0 C 65.97209167480469 0 85 19.02789306640625 85 42.5 C 85 65.97209167480469 65.97209167480469 85 42.5 85 C 19.02789306640625 85 0 65.97209167480469 0 42.5 C 0 19.02789306640625 19.02789306640625 0 42.5 0 Z" stroke="none" fill="#f8c234"/>
              </g>
            </g>
          </g>
        </g>
      </g>
    </g>
    <g id="servicios" transform="translate(624.457 7538)">
      <path id="Trazado_1078989" data-name="Trazado 1078989" d="M99.553,303.838,83.433,314.626l-4.8-.27-.188-1.891a6.139,6.139,0,0,0-5.248-5.47L60.32,305.513a23.062,23.062,0,0,1-8.417-2.929,23.076,23.076,0,0,0-11.65-3.157H30.972v21.185L55.5,329.9a6.67,6.67,0,0,0,2.852.19l.017,0,24.695-3.56a10.92,10.92,0,0,0,5.183-2.323l15.961-14.355a3.811,3.811,0,0,0-4.656-6.012Zm0,0" transform="translate(-26.1 -252.323)" fill="#ffe8c2"/>
      <path id="Trazado_1078990" data-name="Trazado 1078990" d="M104.479,331.137,88.248,342.6a10.926,10.926,0,0,1-5.183,2.322l-24.695,3.56-.017,0a6.679,6.679,0,0,1-2.852-.19L30.973,339v8.33L55.5,356.622a6.67,6.67,0,0,0,2.852.19l.017,0,24.695-3.56a10.919,10.919,0,0,0,5.183-2.323l15.961-14.355a3.811,3.811,0,0,0,.62-4.993,3.884,3.884,0,0,0-.351-.442Zm0,0" transform="translate(-26.1 -279.046)" fill="#efd5af"/>
      <path id="Trazado_1078991" data-name="Trazado 1078991" d="M15.813,305.026H8.654a1.3,1.3,0,0,1-1.3-1.3v-28.89a1.3,1.3,0,0,1,1.3-1.3h7.159a1.3,1.3,0,0,1,1.3,1.3v28.89A1.3,1.3,0,0,1,15.813,305.026Zm0,0" transform="translate(-6.198 -230.508)" fill="#ff9248"/>
      <path id="Trazado_1078992" data-name="Trazado 1078992" d="M7.355,427.774a1.3,1.3,0,0,0,1.3,1.3h7.159a1.3,1.3,0,0,0,1.3-1.3v-7.032H7.355Zm0,0" transform="translate(-6.198 -354.555)" fill="#f97c28"/>
      <path id="Trazado_1078993" data-name="Trazado 1078993" d="M153.236,30.1A22.741,22.741,0,1,1,130.494,7.355,22.741,22.741,0,0,1,153.236,30.1Zm0,0" transform="translate(-90.802 -6.198)" fill="#88dbfd"/>
      <path id="Trazado_1078994" data-name="Trazado 1078994" d="M230,7.355a22.848,22.848,0,0,0-4.165.382,22.744,22.744,0,0,1,0,44.718A22.742,22.742,0,1,0,230,7.355Zm0,0" transform="translate(-190.312 -6.198)" fill="#5abfe9"/>
      <path id="Trazado_1078995" data-name="Trazado 1078995" d="M124.3,47.8a23.9,23.9,0,1,0-23.9-23.9A23.925,23.925,0,0,0,124.3,47.8ZM104.374,32.205h9.246a34.557,34.557,0,0,0,2.406,8.247,18.2,18.2,0,0,0,2.591,4.272,21.683,21.683,0,0,1-14.243-12.519ZM124.3,2.314c2.209,0,4.453,2.178,6.157,5.977a31.8,31.8,0,0,1,2.17,7.3H115.968a31.8,31.8,0,0,1,2.17-7.3c1.7-3.8,3.948-5.977,6.158-5.977Zm8.68,15.592a49.457,49.457,0,0,1,0,11.985h-17.36a49.539,49.539,0,0,1,0-11.985Zm12.9,5.993a21.513,21.513,0,0,1-.846,5.993h-9.727a51.7,51.7,0,0,0,0-11.985h9.727A21.508,21.508,0,0,1,145.88,23.9ZM124.3,45.482c-2.21,0-4.454-2.179-6.158-5.977a31.8,31.8,0,0,1-2.17-7.3h16.656a31.8,31.8,0,0,1-2.17,7.3c-1.7,3.8-3.948,5.977-6.157,5.977ZM113.286,29.891h-9.727a21.641,21.641,0,0,1,0-11.985h9.727a51.7,51.7,0,0,0,0,11.985Zm16.689,14.833a18.172,18.172,0,0,0,2.591-4.272,34.556,34.556,0,0,0,2.406-8.247h9.246a21.681,21.681,0,0,1-14.243,12.519Zm14.243-29.133h-9.246a34.565,34.565,0,0,0-2.406-8.247,18.172,18.172,0,0,0-2.591-4.272,21.683,21.683,0,0,1,14.243,12.519Zm-25.6-12.519a18.186,18.186,0,0,0-2.591,4.272,34.565,34.565,0,0,0-2.407,8.247h-9.245A21.681,21.681,0,0,1,118.618,3.073Zm0,0" transform="translate(-84.604)"/>
      <path id="Trazado_1078996" data-name="Trazado 1078996" d="M9.614,266.184H2.456A2.458,2.458,0,0,0,0,268.639v28.89a2.458,2.458,0,0,0,2.456,2.456H9.614a2.458,2.458,0,0,0,2.456-2.456v-28.89a2.458,2.458,0,0,0-2.456-2.455Zm.141,31.346a.141.141,0,0,1-.141.141H2.456a.141.141,0,0,1-.141-.141V268.639a.141.141,0,0,1,.141-.141H9.614a.141.141,0,0,1,.141.141Zm0,0" transform="translate(0 -224.31)"/>
      <path id="Trazado_1078997" data-name="Trazado 1078997" d="M156.852,298.239a4.979,4.979,0,0,0-6.876-1.33l-15.8,10.574-3.43-.192-.09-.906a7.277,7.277,0,0,0-6.238-6.5l-.03,0-12.858-1.48a21.806,21.806,0,0,1-7.98-2.781,24.354,24.354,0,0,0-10.754-3.27,1.157,1.157,0,0,0-.141,2.31,22.02,22.02,0,0,1,9.726,2.958,24.115,24.115,0,0,0,8.839,3.077l.03,0,12.856,1.48a4.969,4.969,0,0,1,4.245,4.437l.081.808-18.228,2.95-7.912-1.942a1.157,1.157,0,0,0-.551,2.248l8.141,2a1.164,1.164,0,0,0,.46.018l19.411-3.141,4.679.262a1.154,1.154,0,0,0,.709-.194l16.122-10.79a2.654,2.654,0,0,1,3.237,4.191l-15.939,14.335a9.776,9.776,0,0,1-4.606,2.059l-24.685,3.559-.016,0-.017,0a5.458,5.458,0,0,1-2.311-.147l-12.987-4.918a1.157,1.157,0,1,0-.82,2.164l13.037,4.937a.866.866,0,0,0,.1.031,8.028,8.028,0,0,0,2.185.31,7.486,7.486,0,0,0,1.162-.091l.009,0L134.3,321.7l.017,0a12.1,12.1,0,0,0,5.733-2.569l.042-.036,15.955-14.35a4.98,4.98,0,0,0,.808-6.509Zm0,0" transform="translate(-77.166 -246.356)"/>
    </g>
  </g>
</svg>
