<svg xmlns="http://www.w3.org/2000/svg" xmlns:xlink="http://www.w3.org/1999/xlink" width="103" height="103" viewBox="0 0 103 103">
  <defs>
    <filter id="Trazado_978624" x="0" y="0" width="103" height="103" filterUnits="userSpaceOnUse">
      <feOffset dy="3" input="SourceAlpha"/>
      <feGaussianBlur stdDeviation="3" result="blur"/>
      <feFlood flood-opacity="0.161"/>
      <feComposite operator="in" in2="blur"/>
      <feComposite in="SourceGraphic"/>
    </filter>
  </defs>
  <g id="Grupo_1210042" data-name="Grupo 1210042" transform="translate(-192 -795)">
    <g id="Grupo_1208646" data-name="Grupo 1208646" transform="translate(0 481)">
      <g id="Grupo_1180764" data-name="Grupo 1180764" transform="translate(1 -4144)">
        <g id="Grupo_1179463" data-name="Grupo 1179463" transform="translate(200 4464)">
          <g id="Grupo_1144531" data-name="Grupo 1144531">
            <g transform="matrix(1, 0, 0, 1, -9, -6)" filter="url(#Trazado_978624)">
              <g id="Trazado_978624-2" data-name="Trazado 978624" transform="translate(9 6)" fill="#f5f7fb">
                <path d="M 42.5 83.5 C 36.96437835693359 83.5 31.59512901306152 82.41617584228516 26.54141235351562 80.27863311767578 C 21.65934181213379 78.21369171142578 17.27447128295898 75.25723266601562 13.50862312316895 71.49137878417969 C 9.742764472961426 67.72553253173828 6.786305904388428 63.34066009521484 4.721364498138428 58.45858764648438 C 2.583823442459106 53.40486907958984 1.5 48.03562164306641 1.5 42.5 C 1.5 36.96437835693359 2.583823442459106 31.59512901306152 4.721364498138428 26.54141235351562 C 6.786305904388428 21.65934181213379 9.742764472961426 17.27447128295898 13.50862312316895 13.50862312316895 C 17.27447128295898 9.742764472961426 21.65934181213379 6.786305904388428 26.54141235351562 4.721364498138428 C 31.59512901306152 2.583823442459106 36.96437835693359 1.5 42.5 1.5 C 48.03562164306641 1.5 53.40486907958984 2.583823442459106 58.45858764648438 4.721364498138428 C 63.34066009521484 6.786305904388428 67.72553253173828 9.742764472961426 71.49137878417969 13.50862312316895 C 75.25723266601562 17.27447128295898 78.21369171142578 21.65934181213379 80.27863311767578 26.54141235351562 C 82.41617584228516 31.59512901306152 83.5 36.96437835693359 83.5 42.5 C 83.5 48.03562164306641 82.41617584228516 53.40486907958984 80.27863311767578 58.45858764648438 C 78.21369171142578 63.34066009521484 75.25723266601562 67.72553253173828 71.49137878417969 71.49137878417969 C 67.72553253173828 75.25723266601562 63.34066009521484 78.21369171142578 58.45858764648438 80.27863311767578 C 53.40486907958984 82.41617584228516 48.03562164306641 83.5 42.5 83.5 Z" stroke="none"/>
                <path d="M 42.5 3 C 37.16621398925781 3 31.99356079101562 4.043960571289062 27.125732421875 6.102882385253906 C 22.42246627807617 8.092185974121094 18.19785308837891 10.94070434570312 14.56928253173828 14.56928253173828 C 10.94070434570312 18.19785308837891 8.092185974121094 22.42246627807617 6.102882385253906 27.125732421875 C 4.043960571289062 31.99356079101562 3 37.16621398925781 3 42.5 C 3 47.83378601074219 4.043960571289062 53.00643920898438 6.102882385253906 57.87425231933594 C 8.092185974121094 62.57753372192383 10.94070434570312 66.80213165283203 14.56928253173828 70.43071746826172 C 18.19786834716797 74.05929565429688 22.42246627807617 76.90781402587891 27.125732421875 78.89711761474609 C 31.99356079101562 80.95603942871094 37.16621398925781 82 42.5 82 C 47.83378601074219 82 53.00642395019531 80.95603942871094 57.87425231933594 78.89711761474609 C 62.57753372192383 76.90781402587891 66.80213165283203 74.05929565429688 70.43071746826172 70.43071746826172 C 74.05929565429688 66.80213165283203 76.90781402587891 62.57753372192383 78.89711761474609 57.87425231933594 C 80.95603942871094 53.00642395019531 82 47.83378601074219 82 42.5 C 82 37.16621398925781 80.95603942871094 31.99356079101562 78.89711761474609 27.125732421875 C 76.90781402587891 22.42246627807617 74.05929565429688 18.19786834716797 70.43071746826172 14.56928253173828 C 66.80213165283203 10.94070434570312 62.57753372192383 8.092185974121094 57.87425231933594 6.102882385253906 C 53.00643920898438 4.043960571289062 47.83378601074219 3 42.5 3 M 42.5 0 C 65.97209167480469 0 85 19.02789306640625 85 42.5 C 85 65.97209167480469 65.97209167480469 85 42.5 85 C 19.02789306640625 85 0 65.97209167480469 0 42.5 C 0 19.02789306640625 19.02789306640625 0 42.5 0 Z" stroke="none" fill="#a1bada"/>
              </g>
            </g>
          </g>
        </g>
      </g>
    </g>
    <g id="Page-1" transform="translate(212.749 810.119)">
      <g id="_010---Chat-Bot-Head" data-name="010---Chat-Bot-Head" transform="translate(0 0.001)">
        <path id="Shape" d="M49.052,17H12.15A6.15,6.15,0,0,0,6,23.15V45.7a6.15,6.15,0,0,0,6.15,6.15,1.025,1.025,0,0,1,1.025,1.025v7.175L24.963,52.2a2.05,2.05,0,0,1,1.134-.344H49.052A6.15,6.15,0,0,0,55.2,45.7V23.15A6.15,6.15,0,0,0,49.052,17Z" transform="translate(0.15 0.425)" fill="#ffdf00"/>
        <path id="Shape-2" data-name="Shape" d="M48.075,17H45a6.15,6.15,0,0,1,6.15,6.15V45.7A6.15,6.15,0,0,1,45,51.852h3.075a6.15,6.15,0,0,0,6.15-6.15V23.15A6.15,6.15,0,0,0,48.075,17Z" transform="translate(1.127 0.425)" fill="#fec108"/>
        <path id="Shape-3" data-name="Shape" d="M4.075,28h2.05V40.3H4.075A3.075,3.075,0,0,1,1,37.225v-6.15A3.075,3.075,0,0,1,4.075,28Z" transform="translate(0.025 0.7)" fill="#7f8e94"/>
        <path id="Shape-4" data-name="Shape" d="M54,28h2.05a3.075,3.075,0,0,1,3.075,3.075v6.15A3.075,3.075,0,0,1,56.05,40.3H54Z" transform="translate(1.353 0.7)" fill="#7f8e94"/>
        <path id="Shape-5" data-name="Shape" d="M56.05,28H54v.189a3.065,3.065,0,0,1,2.05,2.887v6.15A3.065,3.065,0,0,1,54,40.112V40.3h2.05a3.075,3.075,0,0,0,3.075-3.075v-6.15A3.075,3.075,0,0,0,56.05,28Z" transform="translate(1.353 0.7)" fill="#545c60"/>
        <circle id="Oval" cx="4.401" cy="4.401" r="4.401" transform="translate(26.404 0.775)" fill="#02a9f4"/>
        <path id="Shape-6" data-name="Shape" d="M30.038,1a4.084,4.084,0,0,0-1.538.308,4.092,4.092,0,0,1,0,7.592A4.1,4.1,0,1,0,30.038,1Z" transform="translate(0.714 0.024)" fill="#0377bc"/>
        <ellipse id="Oval-2" data-name="Oval" cx="4.401" cy="3.961" rx="4.401" ry="3.961" transform="translate(14.082 28.058)" fill="#00bcd4"/>
        <ellipse id="Oval-3" data-name="Oval" cx="4.401" cy="3.961" rx="4.401" ry="3.961" transform="translate(38.725 28.058)" fill="#00bcd4"/>
        <g id="Grupo_1210041" data-name="Grupo 1210041">
          <path id="Shape-7" data-name="Shape" d="M57.4,27.676H56.378v-4.1A7.184,7.184,0,0,0,49.2,16.4H31.777V10.148a5.125,5.125,0,1,0-2.05,0V16.4H12.3a7.184,7.184,0,0,0-7.175,7.175v4.1H4.1a4.1,4.1,0,0,0-4.1,4.1v6.15a4.1,4.1,0,0,0,4.1,4.1H5.125v4.1A7.184,7.184,0,0,0,12.3,53.3v7.175a1.025,1.025,0,0,0,1.594.853l11.788-7.857a1.025,1.025,0,0,1,.564-.171H49.2a7.184,7.184,0,0,0,7.175-7.175v-4.1H57.4a4.1,4.1,0,0,0,4.1-4.1v-6.15a4.1,4.1,0,0,0-4.1-4.1ZM27.676,5.125A3.075,3.075,0,1,1,30.752,8.2,3.075,3.075,0,0,1,27.676,5.125ZM4.1,39.977a2.05,2.05,0,0,1-2.05-2.05v-6.15a2.05,2.05,0,0,1,2.05-2.05H5.125V39.977Zm50.228,6.15A5.131,5.131,0,0,1,49.2,51.253H26.246a3.059,3.059,0,0,0-1.706.513l-10.19,6.8V53.3a2.05,2.05,0,0,0-2.05-2.05,5.131,5.131,0,0,1-5.125-5.125V23.576A5.131,5.131,0,0,1,12.3,18.451H49.2a5.131,5.131,0,0,1,5.125,5.125Zm5.125-8.2a2.05,2.05,0,0,1-2.05,2.05H56.378V29.727H57.4a2.05,2.05,0,0,1,2.05,2.05Z" transform="translate(0 -0.001)"/>
          <path id="Shape-8" data-name="Shape" d="M18.125,26a5.125,5.125,0,1,0,5.125,5.125A5.125,5.125,0,0,0,18.125,26Zm0,8.2A3.075,3.075,0,1,1,21.2,31.125,3.075,3.075,0,0,1,18.125,34.2Z" transform="translate(0.326 0.65)"/>
          <path id="Shape-9" data-name="Shape" d="M42.125,26a5.125,5.125,0,1,0,5.125,5.125A5.125,5.125,0,0,0,42.125,26Zm0,8.2A3.075,3.075,0,1,1,45.2,31.125,3.075,3.075,0,0,1,42.125,34.2Z" transform="translate(0.927 0.65)"/>
          <path id="Shape-10" data-name="Shape" d="M35.829,38.173a1.034,1.034,0,0,0-1.414.294c-.043.065-1.107,1.583-4.265,1.583-3.131,0-4.2-1.492-4.264-1.581a1.025,1.025,0,0,0-1.73,1.1c.065.1,1.633,2.532,5.995,2.532s5.93-2.428,5.995-2.532A1.018,1.018,0,0,0,35.829,38.173Z" transform="translate(0.601 0.951)"/>
        </g>
      </g>
    </g>
  </g>
</svg>
