<svg xmlns="http://www.w3.org/2000/svg" xmlns:xlink="http://www.w3.org/1999/xlink" width="400" height="300" viewBox="0 0 400 300">
  <defs>
    <clipPath id="clip-path">
      <rect id="Rectángulo_418031" data-name="Rectángulo 418031" width="400" height="300" transform="translate(175.111 1193.083)" fill="#fff" stroke="#707070" stroke-width="1"/>
    </clipPath>
    <clipPath id="clip-path-2">
      <rect id="Rectángulo_418029" data-name="Rectángulo 418029" width="502" height="333" transform="translate(-0.197 0.024)" fill="none"/>
    </clipPath>
    <clipPath id="clip-path-3">
      <rect id="Rectángulo_418017" data-name="Rectángulo 418017" width="47.705" height="18.319" fill="none"/>
    </clipPath>
    <clipPath id="clip-path-4">
      <rect id="Rectángulo_418019" data-name="Rectángulo 418019" width="17.667" height="16.647" fill="none"/>
    </clipPath>
    <clipPath id="clip-path-5">
      <rect id="Rectángulo_418022" data-name="Rectángulo 418022" width="52.959" height="38.987" fill="none"/>
    </clipPath>
  </defs>
  <g id="Enmascarar_grupo_1098887" data-name="Enmascarar grupo 1098887" transform="translate(-175.111 -1193.083)" clip-path="url(#clip-path)">
    <g id="Grupo_1210055" data-name="Grupo 1210055" transform="translate(137.308 1200.059)">
      <circle id="Elipse_12564" data-name="Elipse 12564" cx="173.5" cy="173.5" r="173.5" transform="translate(69.803 37.024)" fill="#f8ecfd" opacity="0.55"/>
      <g id="Grupo_1210054" data-name="Grupo 1210054" transform="translate(0 0)">
        <g id="Grupo_1210053" data-name="Grupo 1210053" transform="translate(0 0)" clip-path="url(#clip-path-2)">
          <path id="Trazado_1078390" data-name="Trazado 1078390" d="M109.008,419.116s-8.645-12.7,1.7-21.189c9.5-7.793,21.94,1.406,21.94,1.406s-3.067-22.109,20.052-23.489c21.79-1.3,21.461,21.619,21.461,21.619s10.657-18.77,27.881-10.4c16.741,8.137,6.6,32.052,6.6,32.052Z" transform="translate(-35.133 -125.881)" fill="#c252f0"/>
          <path id="Trazado_1078391" data-name="Trazado 1078391" d="M392.335,54.414a6.986,6.986,0,1,1-6.986-6.986,6.986,6.986,0,0,1,6.986,6.986" transform="translate(-134.058 -16.662)" fill="#c252f0"/>
          <path id="Trazado_1078392" data-name="Trazado 1078392" d="M646.623,250.084a3.4,3.4,0,1,1-3.4-3.4,3.4,3.4,0,0,1,3.4,3.4" transform="translate(-221.027 -82.939)" fill="#c252f0"/>
          <path id="Trazado_1078393" data-name="Trazado 1078393" d="M636.822,373.668a11.258,11.258,0,1,1-11.258-11.257A11.257,11.257,0,0,1,636.822,373.668Z" transform="translate(-223.023 -123.339)" fill="none" stroke="#c252f0" stroke-miterlimit="10" stroke-width="1"/>
          <path id="Trazado_1078394" data-name="Trazado 1078394" d="M644.313,361.114A5.713,5.713,0,1,1,638.6,355.4a5.714,5.714,0,0,1,5.714,5.713" transform="translate(-219.795 -119.099)" fill="#c252f0"/>
          <path id="Trazado_1078395" data-name="Trazado 1078395" d="M78.673,375.523a4.671,4.671,0,1,1-4.67-4.67,4.67,4.67,0,0,1,4.67,4.67" transform="translate(-23.061 -124.238)" fill="#c252f0"/>
          <circle id="Elipse_12563" data-name="Elipse 12563" cx="6.335" cy="6.335" r="6.335" transform="translate(53.941 96.629) rotate(-37.982)" fill="none" stroke="#c252f0" stroke-miterlimit="10" stroke-width="2"/>
          <path id="Trazado_1078396" data-name="Trazado 1078396" d="M76.539,134.813a3.6,3.6,0,1,1-3.6-3.6,3.6,3.6,0,0,1,3.6,3.6" transform="translate(-23.061 -44.53)" fill="#c252f0"/>
          <path id="Trazado_1078397" data-name="Trazado 1078397" d="M389.122,419.124H332.81l7.463-43.305h41.386Z" transform="translate(-110.698 -125.89)" fill="#475de3"/>
          <g id="Grupo_1210046" data-name="Grupo 1210046" transform="translate(226.416 249.931)" style="mix-blend-mode: multiply;isolation: isolate">
            <g id="Grupo_1210045" data-name="Grupo 1210045">
              <g id="Grupo_1210044" data-name="Grupo 1210044" clip-path="url(#clip-path-3)">
                <path id="Trazado_1078398" data-name="Trazado 1078398" d="M386.964,394.141h-47.7l3.157-18.32h41.391Z" transform="translate(-339.259 -375.822)" fill="#475de3"/>
              </g>
            </g>
          </g>
          <rect id="Rectángulo_418018" data-name="Rectángulo 418018" width="93.627" height="7.378" transform="translate(203.456 285.857)" fill="#475de3"/>
          <path id="Trazado_1078399" data-name="Trazado 1078399" d="M429.865,298.571H182.491a14.4,14.4,0,0,1-14.4-14.4v-165a14.4,14.4,0,0,1,14.4-14.4H429.865a14.4,14.4,0,0,1,14.4,14.4v165a14.4,14.4,0,0,1-14.4,14.4" transform="translate(-55.91 -35.735)" fill="#475de3"/>
          <path id="Trazado_1078400" data-name="Trazado 1078400" d="M440.874,122.514V266.361a8.407,8.407,0,0,1-8.407,8.407H186.656a8.407,8.407,0,0,1-8.407-8.407V122.514a8.407,8.407,0,0,1,8.407-8.407H432.467a8.407,8.407,0,0,1,8.407,8.407" transform="translate(-59.289 -38.841)" fill="#fff"/>
          <path id="Trazado_1078401" data-name="Trazado 1078401" d="M425.014,252.322a40.828,40.828,0,0,1-11.049,9.686c-12.77,7.561-30.273,6.542-41.533-2.452-6.259-5-10.264-11.591-13.161-18.938a74.357,74.357,0,0,1-3.155-10.265c-.09-.382-.2-.761-.351-1.329a79.022,79.022,0,0,1-5.868,6.059c-7.588,7.054-15.419,13.856-24.261,19.273a85.888,85.888,0,0,1-40.934,12.9c-8.809.454-17.515-.131-25.945-2.952-12.267-4.106-22.011-11.353-28.062-23.019a47.684,47.684,0,0,1-4.962-25.581c1.1-16.763,7.7-31.427,17.465-44.79,9.943-13.609,21.986-24.99,36.724-33.33a80.72,80.72,0,0,1,39.409-10.786c15.583-.159,27.808,6.434,36.622,19.289a70.472,70.472,0,0,1,7.345,14.586c.16.412.332.819.5,1.241.575-.105.665-.611.885-.96q8.77-13.893,17.507-27.807a1.715,1.715,0,0,1,1.634-.978q16.922.043,33.844.021c.242,0,.484.024.739.037.186.555-.256.846-.472,1.188-13.878,21.912-27.646,43.9-41.758,65.659a2.082,2.082,0,0,0-.417,1.91c3.192,10.562,6.448,21.1,10.188,31.488a41.218,41.218,0,0,0,5.477,10.734c4.254,5.74,10.158,8.444,17.063,9.357a69.032,69.032,0,0,0,14.63-.112c.513-.041,1.027-.067,1.894-.123M312.782,141.784a29.075,29.075,0,0,0-11.738,2.854,47.148,47.148,0,0,0-14.105,10.75c-10.212,10.871-17.756,23.481-23.673,37.085-4.411,10.142-7.072,20.716-6.916,31.87a35.545,35.545,0,0,0,3.226,15.3c3.535,7.274,9.369,11.043,17.474,11.224,6.919.154,13.1-2.231,18.946-5.649A100.847,100.847,0,0,0,317.69,227.5c9.8-10.213,17.905-21.726,25.618-33.537a1.75,1.75,0,0,0,.2-1.385,178.469,178.469,0,0,0-6.673-26.754c-1.875-5.533-4.092-10.911-7.652-15.616-3.976-5.256-9.065-8.464-16.4-8.425" transform="translate(-75.039 -43.059)" fill="#b3c0ff"/>
          <path id="Trazado_1078402" data-name="Trazado 1078402" d="M423.183,323.093s13.707,3.476,18.408,13.822c0,0-17.533-.874-19.53-1.213s1.122-12.608,1.122-12.608" transform="translate(-140.162 -108.353)" fill="#475de3"/>
          <path id="Trazado_1078403" data-name="Trazado 1078403" d="M325.55,322.389s-19.408,2.519-25.878,11.783c-7.8,11.168,10.068,20.322,26.121,13.962Z" transform="translate(-99.047 -108.119)" fill="#475de3"/>
          <path id="Trazado_1078404" data-name="Trazado 1078404" d="M395.827,283.358c-6.1-11.332-11.617-17.271-11.617-17.271a28.927,28.927,0,0,0-4.717-3.687,35.555,35.555,0,0,0-19.323-5.641h0a35.612,35.612,0,0,0-18.458,5.1,28.761,28.761,0,0,0-5.581,4.223s-5.521,5.938-11.616,17.271A56.759,56.759,0,0,0,339,289.535c-.645,9.071-2.866,21.295-2.866,21.295s13.525,3.579,24.041,3.579,24.04-3.579,24.04-3.579-2.222-12.224-2.866-21.295a56.759,56.759,0,0,0,14.483-6.177" transform="translate(-107.939 -86.289)" fill="#f9b928"/>
          <path id="Trazado_1078405" data-name="Trazado 1078405" d="M378.776,243.114h-9.9s-2.513,10.123-3.884,13.209c0,0,1.632,3.438,8.834,3.438,7.175,0,8.833-3.438,8.833-3.438-1.372-3.086-3.884-13.209-3.884-13.209" transform="translate(-121.403 -81.751)" fill="#ffd0b0"/>
          <g id="Grupo_1210049" data-name="Grupo 1210049" transform="translate(243.59 161.363)" style="mix-blend-mode: multiply;isolation: isolate">
            <g id="Grupo_1210048" data-name="Grupo 1210048">
              <g id="Grupo_1210047" data-name="Grupo 1210047" clip-path="url(#clip-path-4)">
                <path id="Trazado_1078406" data-name="Trazado 1078406" d="M378.776,243.114h-9.9s-2.513,10.123-3.884,13.209c0,0,1.632,3.438,8.834,3.438,7.175,0,8.833-3.438,8.833-3.438-1.372-3.086-3.884-13.209-3.884-13.209" transform="translate(-364.993 -243.114)" fill="#ffd0b0"/>
              </g>
            </g>
          </g>
          <path id="Trazado_1078407" data-name="Trazado 1078407" d="M335.017,221.438a11.548,11.548,0,0,0-8.569-3.962c-5.336.081-7.68,10.106-2.183,15.361s11.318.485,11.318.485Z" transform="translate(-106.81 -73.223)" fill="#ffd0b0"/>
          <path id="Trazado_1078408" data-name="Trazado 1078408" d="M414.234,221.438a11.548,11.548,0,0,1,8.569-3.962c5.336.081,7.68,10.106,2.183,15.361s-11.318.485-11.318.485Z" transform="translate(-137.593 -73.223)" fill="#ffd0b0"/>
          <path id="Trazado_1078409" data-name="Trazado 1078409" d="M340.071,158.9s-13.582-.647-17.139,8.731,9.737,34.439,9.737,34.439h54.112s19.42-31.529,2.766-43.18c-11.318-18.908-38-23.112-49.477.009" transform="translate(-107.211 -48.481)" fill="#dd582f"/>
          <path id="Trazado_1078410" data-name="Trazado 1078410" d="M391.821,221.715C391.177,228.85,381.8,238,365.881,238.16s-28.385-8.378-28.063-19.549a77.216,77.216,0,0,1,1.3-11.925v0s5.233-.12,5.233-7.212c2.686.926,7.989-.352,8.863-7.476,0,0,4.718,5.079,9.126,1.789,1.874,3.663,10.728,7.753,15.011,2.768,1.621,5.325,9.907,6.39,12.836,5.232.619,7.12,2.184,13.86,1.633,19.923" transform="translate(-112.362 -64.75)" fill="#ffd0b0"/>
          <path id="Trazado_1078411" data-name="Trazado 1078411" d="M356.744,216.278c-5.045,0-9.133,4.768-9.133,10.651s4.088,10.645,9.133,10.645,9.137-4.769,9.137-10.645-4.092-10.651-9.137-10.651m0,19.669c-4.275,0-7.738-4.041-7.738-9.018s3.464-9.018,7.738-9.018,7.738,4.036,7.738,9.018-3.464,9.018-7.738,9.018" transform="translate(-115.621 -72.824)" fill="#1e1415"/>
          <path id="Trazado_1078412" data-name="Trazado 1078412" d="M393.659,216.278c-5.045,0-9.132,4.768-9.132,10.651s4.088,10.645,9.132,10.645,9.137-4.769,9.137-10.645-4.092-10.651-9.137-10.651m0,19.669c-4.275,0-7.738-4.041-7.738-9.018s3.463-9.018,7.738-9.018,7.738,4.036,7.738,9.018-3.464,9.018-7.738,9.018" transform="translate(-127.9 -72.824)" fill="#1e1415"/>
          <path id="Trazado_1078413" data-name="Trazado 1078413" d="M342.583,222.754l-11.539-7.618-1.756,3.386,13.295,6.871Z" transform="translate(-109.526 -72.445)" fill="#1e1415"/>
          <path id="Trazado_1078414" data-name="Trazado 1078414" d="M410.308,222.754l11.539-7.618,1.756,3.386-13.295,6.871Z" transform="translate(-136.475 -72.445)" fill="#1e1415"/>
          <path id="Trazado_1078415" data-name="Trazado 1078415" d="M376.784,231.692a12.081,12.081,0,0,0-5.969,2.066l.88,1.59a6.5,6.5,0,0,1,1.532-.782,10.214,10.214,0,0,1,7.113,0,6.5,6.5,0,0,1,1.532.782l.88-1.59a12.08,12.08,0,0,0-5.968-2.066" transform="translate(-123.339 -77.951)" fill="#1e1415"/>
          <path id="Trazado_1078416" data-name="Trazado 1078416" d="M382.022,250.451a11.583,11.583,0,0,0-3.224.033,15.655,15.655,0,0,1-2.717,0,11.584,11.584,0,0,0-3.224-.033c-.44.3,1.19,3.934,4.582,3.934s5.023-3.635,4.583-3.934" transform="translate(-123.995 -84.158)" fill="#fff"/>
          <path id="Trazado_1078417" data-name="Trazado 1078417" d="M381.352,240.27c-.25-1.224-1.2-3.6-3.178-3.725-1.981.13-2.928,2.5-3.178,3.725" transform="translate(-124.73 -79.566)" fill="none" stroke="#000" stroke-linecap="round" stroke-miterlimit="10" stroke-width="0.5"/>
          <line id="Línea_123" data-name="Línea 123" x2="7.25" y2="10.521" transform="translate(217.913 148.321)" fill="none" stroke="#000" stroke-linecap="round" stroke-linejoin="round" stroke-width="0.5"/>
          <line id="Línea_124" data-name="Línea 124" y1="2.164" x2="3.444" transform="translate(217.657 152.948)" fill="none" stroke="#000" stroke-linecap="round" stroke-linejoin="round" stroke-width="0.5"/>
          <line id="Línea_125" data-name="Línea 125" x1="7.25" y2="10.521" transform="translate(280.193 148.321)" fill="none" stroke="#000" stroke-linecap="round" stroke-linejoin="round" stroke-width="0.5"/>
          <line id="Línea_126" data-name="Línea 126" x1="3.444" y1="2.164" transform="translate(284.254 152.948)" fill="none" stroke="#000" stroke-linecap="round" stroke-linejoin="round" stroke-width="0.5"/>
          <path id="Trazado_1078418" data-name="Trazado 1078418" d="M389.436,321.848l12.3-45.123a2.6,2.6,0,0,0-2.513-3.289H317.517a2.6,2.6,0,0,0-2.511,3.289l12.3,45.123a3.758,3.758,0,0,0,3.626,2.77h54.878a3.76,3.76,0,0,0,3.627-2.77" transform="translate(-104.745 -91.836)"/>
          <path id="Trazado_1078419" data-name="Trazado 1078419" d="M384.552,297.334c0,2.9-4.279,5.249-9.556,5.249s-9.555-2.351-9.555-5.249,4.278-5.249,9.555-5.249,9.556,2.35,9.556,5.249" transform="translate(-121.552 -98.039)" fill="#2e2a72"/>
          <path id="Trazado_1078420" data-name="Trazado 1078420" d="M328.746,315.755a1.284,1.284,0,0,1-1.144,1.854c-1.378.207-4.683,1.326-6.3.7-2.425-.932-3.306-4.889-3.306-4.889a5.2,5.2,0,0,1-2.722-3.749,2.934,2.934,0,0,1,1.149-2.782s-3.768-3.735,2.411-8.105l1.005,3.686a7.863,7.863,0,0,0,2.83,1.385,41.44,41.44,0,0,1,5.116,1.447c3.221,1.319,1.828,4.844.458,4.971,0,0,2.218.6,2.766,2.086a2.365,2.365,0,0,1-2.258,3.392" transform="translate(-104.854 -100.268)" fill="#ffd0b0"/>
          <path id="Trazado_1078421" data-name="Trazado 1078421" d="M317.535,311.391s.762.923,3.364,1.518c2.932.67,7.675,1.518,7.675,1.518" transform="translate(-105.617 -104.46)" fill="none" stroke="#000" stroke-linecap="round" stroke-linejoin="round" stroke-width="0.5"/>
          <path id="Trazado_1078422" data-name="Trazado 1078422" d="M319.785,320.822a9.16,9.16,0,0,0,2.876.894c2.092.4,7.044,1.278,7.044,1.278" transform="translate(-106.366 -107.597)" fill="none" stroke="#000" stroke-linecap="round" stroke-linejoin="round" stroke-width="0.5"/>
          <path id="Trazado_1078423" data-name="Trazado 1078423" d="M423.354,315.755a1.284,1.284,0,0,0,1.143,1.854c1.377.207,4.683,1.326,6.3.7,2.425-.932,3.3-4.889,3.3-4.889a5.2,5.2,0,0,0,2.723-3.749,2.933,2.933,0,0,0-1.149-2.782s3.769-3.735-2.41-8.105l-1.005,3.686a7.872,7.872,0,0,1-2.83,1.385,41.485,41.485,0,0,0-5.116,1.447c-3.219,1.319-1.827,4.844-.458,4.971,0,0-2.218.6-2.766,2.086a2.365,2.365,0,0,0,2.258,3.392" transform="translate(-139.994 -100.268)" fill="#ffd0b0"/>
          <path id="Trazado_1078424" data-name="Trazado 1078424" d="M437.024,311.391s-.762.923-3.364,1.518c-2.932.67-7.675,1.518-7.675,1.518" transform="translate(-141.689 -104.46)" fill="none" stroke="#000" stroke-linecap="round" stroke-linejoin="round" stroke-width="0.5"/>
          <path id="Trazado_1078425" data-name="Trazado 1078425" d="M435.331,320.822a9.158,9.158,0,0,1-2.876.894c-2.092.4-7.044,1.278-7.044,1.278" transform="translate(-141.498 -107.597)" fill="none" stroke="#000" stroke-linecap="round" stroke-linejoin="round" stroke-width="0.5"/>
          <path id="Trazado_1078426" data-name="Trazado 1078426" d="M345.679,351.931s-18.71-20.419-34.958-18.974-16.53,14.8-7.1,19.685c6.873,3.564,37.772,9.774,37.772,9.774Z" transform="translate(-98.9 -111.609)" fill="#ffd0b0"/>
          <path id="Trazado_1078427" data-name="Trazado 1078427" d="M362.634,355.323a13.558,13.558,0,0,1,5.871-.194c3.149.62,5.421,2.891,8.931,5.421s6.969,3.562,8.879,7.846a9.193,9.193,0,0,1-6.453,12.441c-6.3,1.394-11.15-4.542-13.318-6.452s-5.643-3.267-6.3-4.337.43-8.07,4.3-9.774c0,0,.637-2.461-1.913-4.951" transform="translate(-119.764 -118.931)" fill="#2e2a72"/>
          <path id="Trazado_1078428" data-name="Trazado 1078428" d="M380.372,342.692S402.7,326.764,417.9,331.646s12.554,17.973,2.486,20.728c-7.342,2.009-38.2,1.468-38.2,1.468Z" transform="translate(-126.518 -110.888)" fill="#ffd0b0"/>
          <path id="Trazado_1078429" data-name="Trazado 1078429" d="M373.618,343.46a13.555,13.555,0,0,0-5.687-1.472c-3.208-.083-5.921,1.638-9.9,3.34s-7.579,1.955-10.378,5.719a9.193,9.193,0,0,0,3.581,13.549c5.842,2.736,11.873-2,14.406-3.389s6.22-1.955,7.093-2.856,1.342-7.969-2.064-10.477c0,0-.083-2.54,2.949-4.413" transform="translate(-115.091 -114.636)" fill="#2e2a72"/>
          <path id="Trazado_1078430" data-name="Trazado 1078430" d="M347.654,353.981a9.193,9.193,0,0,0,3.581,13.55c5.842,2.735,11.873-2,14.406-3.389s6.219-1.955,7.093-2.856,1.342-7.97-2.064-10.477" transform="translate(-115.09 -117.571)" fill="none" stroke="#000" stroke-linecap="round" stroke-linejoin="round" stroke-width="0.5"/>
          <path id="Trazado_1078431" data-name="Trazado 1078431" d="M363.592,233.425s-.686-4.451-4.751-4.929c-4.036-.475-6.009,4.251-6.009,4.251a6.362,6.362,0,0,0,5.354,4.557c3.934.514,5.406-3.879,5.406-3.879" transform="translate(-117.358 -76.877)" fill="#fff"/>
          <path id="Trazado_1078432" data-name="Trazado 1078432" d="M363.589,233.425a7.364,7.364,0,0,1-.761,1.5,4.732,4.732,0,0,1-4.385,2.4,1.706,1.706,0,0,1-.26-.02,6.368,6.368,0,0,1-5.352-4.558s1.975-4.725,6.013-4.251c4.064.48,4.745,4.932,4.745,4.932" transform="translate(-117.357 -76.876)" fill="#fff"/>
          <path id="Trazado_1078433" data-name="Trazado 1078433" d="M363.592,233.344c-.827-3.938-5.058-6.388-8.432-3.615a9.536,9.536,0,0,0-2.328,2.936,8.3,8.3,0,0,1,2.163-3.133c3.418-3.028,8.136-.424,8.6,3.811" transform="translate(-117.358 -76.797)"/>
          <path id="Trazado_1078434" data-name="Trazado 1078434" d="M365.1,236.922a4.732,4.732,0,0,1-4.385,2.4,2.719,2.719,0,1,1,4.385-2.4" transform="translate(-119.632 -78.871)"/>
          <path id="Trazado_1078435" data-name="Trazado 1078435" d="M358.079,233.382l2.623,2.945-3.676-1.369" transform="translate(-118.753 -78.514)" fill="#fff"/>
          <path id="Trazado_1078436" data-name="Trazado 1078436" d="M359.345,220.828a6.555,6.555,0,0,0-5.162,1.943c-1.107,1.155-.631,2.128.358,1.554a8.664,8.664,0,0,1,4.506-1.431c1.734-.009,2.9.609,3.19,0,.349-.737-.739-1.919-2.892-2.061" transform="translate(-117.595 -74.333)" fill="#dd582f"/>
          <path id="Trazado_1078437" data-name="Trazado 1078437" d="M390.637,233.425s.686-4.451,4.751-4.929c4.036-.475,6.009,4.251,6.009,4.251a6.362,6.362,0,0,1-5.354,4.557c-3.934.514-5.406-3.879-5.406-3.879" transform="translate(-129.932 -76.877)" fill="#fff"/>
          <path id="Trazado_1078438" data-name="Trazado 1078438" d="M390.641,233.425a7.36,7.36,0,0,0,.761,1.5,4.732,4.732,0,0,0,4.385,2.4,1.706,1.706,0,0,0,.26-.02,6.368,6.368,0,0,0,5.352-4.558s-1.975-4.725-6.013-4.251c-4.064.48-4.745,4.932-4.745,4.932" transform="translate(-129.934 -76.876)" fill="#fff"/>
          <path id="Trazado_1078439" data-name="Trazado 1078439" d="M390.637,233.344c.463-4.238,5.18-6.838,8.6-3.811a8.3,8.3,0,0,1,2.163,3.133,9.537,9.537,0,0,0-2.328-2.936c-3.375-2.775-7.607-.321-8.432,3.615" transform="translate(-129.932 -76.797)"/>
          <path id="Trazado_1078440" data-name="Trazado 1078440" d="M391.781,236.922a4.732,4.732,0,0,0,4.385,2.4,2.719,2.719,0,1,0-4.385-2.4" transform="translate(-130.313 -78.871)"/>
          <path id="Trazado_1078441" data-name="Trazado 1078441" d="M399.682,233.382l-2.624,2.945,3.676-1.369" transform="translate(-132.068 -78.514)" fill="#fff"/>
          <path id="Trazado_1078442" data-name="Trazado 1078442" d="M395.884,220.828a6.554,6.554,0,0,1,5.162,1.943c1.107,1.155.631,2.128-.358,1.554a8.664,8.664,0,0,0-4.506-1.431c-1.734-.009-2.9.609-3.19,0-.349-.737.739-1.919,2.892-2.061" transform="translate(-130.694 -74.333)" fill="#dd582f"/>
          <path id="Trazado_1078443" data-name="Trazado 1078443" d="M229.679,255.129c5.793,5.033,14.876,6.4,21.619,2.588,4.105-2.923,5.152-7.945,5.595-13.607a56.692,56.692,0,0,0-.988-13.691,6.962,6.962,0,0,1,3.479-9.3,6.855,6.855,0,0,1,9.493,5.517,65.9,65.9,0,0,1-.825,18.989c-2.782,14.46-10.936,23.538-26.61,21.324a25.9,25.9,0,0,1-15.1-8.015c-2.759-2.521.6-6.3,3.334-3.8" transform="translate(-74.944 -74.243)"/>
          <path id="Trazado_1078444" data-name="Trazado 1078444" d="M255.679,212.659a12.235,12.235,0,0,1-6.109-5.808c-2.01-4.258-1.893-10.389,1.486-9.714s7.055,5.734,7.588,7.256.665,8.717-2.965,8.267" transform="translate(-82.571 -66.441)"/>
          <path id="Trazado_1078445" data-name="Trazado 1078445" d="M266.95,199.648c1.563.454,5.673-.425,5.717-2.238a38.553,38.553,0,0,0-1.5-8.682c-.667-1.971-3.537-6.124-6.809-5.531s-1.572,6.2-.278,7.741-.781,7.649,2.871,8.71" transform="translate(-87.301 -61.802)"/>
          <path id="Trazado_1078446" data-name="Trazado 1078446" d="M280.089,198.342c1.533.546,5.688-.086,5.84-1.894a27.69,27.69,0,0,0-.7-7.458c-.549-2.007-3.166-6.323-6.468-5.926s-1.938,6.1-.738,7.711-1.512,6.29,2.071,7.567" transform="translate(-92.032 -61.768)"/>
          <path id="Trazado_1078447" data-name="Trazado 1078447" d="M270.817,226.893a9.368,9.368,0,0,0,10.044-5.184c3.566-6.648,1.761-19.754-2.782-21.488s-17.831,2.526-19.177,4.427c-3.2,4.513,1.906,21.211,11.915,22.245" transform="translate(-85.799 -67.348)" fill="#2e2a72"/>
          <path id="Trazado_1078448" data-name="Trazado 1078448" d="M206.452,203.227c-7.963-26.7-34.35-26.18-34.35-26.18s-26.388-.518-34.351,26.18c-9.1,30.5,16.074,78.813,16.074,78.813h36.554s25.17-48.314,16.073-78.813" transform="translate(-45.159 -59.775)" fill="#f9b928"/>
          <path id="Trazado_1078449" data-name="Trazado 1078449" d="M173.461,178.789s-28.882,1.917-19.851,51.8c6.2,34.242,10.762,49.066,10.762,49.066" transform="translate(-50.511 -60.355)" fill="none" stroke="#000" stroke-miterlimit="10" stroke-width="0.75"/>
          <path id="Trazado_1078450" data-name="Trazado 1078450" d="M156.255,224.219c1.253,6.162-1.17,11.857-5.412,12.72s-8.7-3.434-9.95-9.6,1.17-11.857,5.412-12.72,8.7,3.434,9.95,9.6" transform="translate(-46.754 -72.237)"/>
          <path id="Trazado_1078451" data-name="Trazado 1078451" d="M150.232,211.616l-4.341.883-4.015-24.72,2.4-.487Z" transform="translate(-47.19 -63.183)"/>
          <path id="Trazado_1078452" data-name="Trazado 1078452" d="M152.81,227.435c.763,3.751-.712,7.217-3.294,7.742s-5.294-2.09-6.056-5.841.712-7.217,3.294-7.742,5.294,2.09,6.057,5.841" transform="translate(-47.65 -74.57)" fill="#475de3"/>
          <path id="Trazado_1078453" data-name="Trazado 1078453" d="M146.626,224.7c.275,1.352-.256,2.6-1.187,2.79s-1.908-.753-2.183-2.1.257-2.6,1.187-2.79,1.908.753,2.183,2.1" transform="translate(-47.625 -74.918)" fill="#fff"/>
          <path id="Trazado_1078454" data-name="Trazado 1078454" d="M144.91,182.795a3.547,3.547,0,1,1-4.229-3.052,3.694,3.694,0,0,1,4.229,3.052" transform="translate(-45.867 -60.65)"/>
          <path id="Trazado_1078455" data-name="Trazado 1078455" d="M217.591,215.944c0,15.146-9.57,27.424-21.374,27.424s-21.374-12.278-21.374-27.424,9.57-27.424,21.374-27.424S217.591,200.8,217.591,215.944Z" transform="translate(-58.156 -63.592)" fill="none" stroke="#000" stroke-miterlimit="10" stroke-width="0.5"/>
          <path id="Trazado_1078456" data-name="Trazado 1078456" d="M217.99,216.882c0,14.106-8.628,25.541-19.272,25.541s-19.271-11.436-19.271-25.541,8.628-25.541,19.271-25.541,19.272,11.435,19.272,25.541" transform="translate(-59.687 -64.53)" fill="#fff"/>
          <path id="Trazado_1078457" data-name="Trazado 1078457" d="M188.47,223.371s2.3-6.285,6.978-6.062,6.9,7.983,6.9,7.983" transform="translate(-62.688 -73.166)"/>
          <path id="Trazado_1078458" data-name="Trazado 1078458" d="M220,225.275s1.237-7.365,5.246-7.989c3.629-.565,4.256,6.068,4.256,6.068" transform="translate(-73.175 -73.148)"/>
          <path id="Trazado_1078459" data-name="Trazado 1078459" d="M199.41,327.579H158.451L156.3,335.5h45.261Z" transform="translate(-51.988 -109.845)"/>
          <path id="Trazado_1078460" data-name="Trazado 1078460" d="M105.1,337.014a9.367,9.367,0,0,0-10.558,4.034c-4.285,6.209-3.95,19.435.372,21.664s18-.525,19.551-2.264c3.681-4.129.467-21.292-9.365-23.434" transform="translate(-30.433 -112.86)" fill="#2e2a72"/>
          <path id="Trazado_1078461" data-name="Trazado 1078461" d="M160.08,270.372c.79,3.887-.618,7.455-3.147,7.969s-5.218-2.22-6.008-6.107.618-7.455,3.147-7.969,5.218,2.22,6.008,6.107" transform="translate(-50.127 -88.765)"/>
          <path id="Trazado_1078462" data-name="Trazado 1078462" d="M138.224,276.313c-8.908,2.248-15.65,9.524-19.769,17.533a61.748,61.748,0,0,0-4.826,13.238,94.246,94.246,0,0,0-2.246,14.2,6.687,6.687,0,1,1-13.2-1.967,106.413,106.413,0,0,1,4.491-15.688c3.931-10.316,9.973-20.323,19.142-26.894a33.2,33.2,0,0,1,15.548-6.291,2.969,2.969,0,1,1,.863,5.868" transform="translate(-32.606 -90.827)"/>
          <path id="Trazado_1078463" data-name="Trazado 1078463" d="M123.97,360.283a12.238,12.238,0,0,1,5.346,6.518c1.47,4.473.6,10.543-2.674,9.457s-6.294-6.56-6.634-8.136.416-8.733,3.962-7.839" transform="translate(-39.892 -120.697)"/>
          <path id="Trazado_1078464" data-name="Trazado 1078464" d="M112.844,372.163c-1.484-.669-5.677-.377-5.975,1.412a38.5,38.5,0,0,0,.266,8.807c.383,2.045,2.641,6.56,5.964,6.432s2.428-5.921,1.363-7.625,1.848-7.463-1.618-9.027" transform="translate(-35.497 -124.564)"/>
          <path id="Trazado_1078465" data-name="Trazado 1078465" d="M99.909,372.213c-1.441-.756-5.644-.714-6.048,1.054a27.676,27.676,0,0,0-.35,7.483c.261,2.064,2.246,6.706,5.57,6.777s2.776-5.766,1.815-7.531,2.381-6.016-.987-7.783" transform="translate(-31.065 -124.536)"/>
          <path id="Trazado_1078466" data-name="Trazado 1078466" d="M229.515,397.929S211.733,388.5,214.364,360.2c0,0,19.032,11.177,15.152,37.724" transform="translate(-71.213 -120.697)" fill="#4bad51"/>
          <path id="Trazado_1078467" data-name="Trazado 1078467" d="M234.963,419.125s-1.7-23.843-11.927-43.3" transform="translate(-74.185 -125.891)" fill="none" stroke="#000" stroke-linecap="round" stroke-miterlimit="10" stroke-width="1"/>
          <path id="Trazado_1078468" data-name="Trazado 1078468" d="M246.81,393.559s-2.569-18.361,17.622-22.706c0,0-1.252,13.847-17.622,22.706" transform="translate(-82.058 -124.238)" fill="#4bad51"/>
          <path id="Trazado_1078469" data-name="Trazado 1078469" d="M239.693,413.445s2.216-20.748,16.273-34.166" transform="translate(-79.726 -127.041)" fill="none" stroke="#000" stroke-linecap="round" stroke-miterlimit="10" stroke-width="1"/>
          <path id="Rectángulo_418020" data-name="Rectángulo 418020" d="M7.515,0H48.5a7.514,7.514,0,0,1,7.514,7.514V34.3A7.515,7.515,0,0,1,48.5,41.818H7.515A7.515,7.515,0,0,1,0,34.3V7.515A7.515,7.515,0,0,1,7.515,0Z" transform="translate(344.173 129.097)" fill="#fff"/>
          <path id="Trazado_1078470" data-name="Trazado 1078470" d="M566.54,194.933a4.686,4.686,0,0,1,4.681,4.681V231.4a4.686,4.686,0,0,1-4.681,4.682H520.553a4.687,4.687,0,0,1-4.682-4.682V199.614a4.687,4.687,0,0,1,4.682-4.681Zm0-.667H520.553a5.349,5.349,0,0,0-5.349,5.348V231.4a5.349,5.349,0,0,0,5.349,5.349H566.54a5.349,5.349,0,0,0,5.349-5.349V199.614a5.348,5.348,0,0,0-5.349-5.348" transform="translate(-171.365 -65.503)"/>
          <path id="Trazado_1078471" data-name="Trazado 1078471" d="M562.389,220.406l-13.974-8.068a1.221,1.221,0,0,0-1.832,1.058v16.136a1.221,1.221,0,0,0,1.832,1.058l13.974-8.067a1.222,1.222,0,0,0,0-2.116" transform="translate(-181.802 -71.459)" fill="#df6e1c"/>
          <path id="Trazado_1078472" data-name="Trazado 1078472" d="M570.848,266.053h-54.6a1.04,1.04,0,1,1,0-2.081h54.6a1.04,1.04,0,1,1,0,2.081" transform="translate(-171.365 -88.688)"/>
          <path id="Trazado_1078473" data-name="Trazado 1078473" d="M547.22,263.967v2.086H516.245a1.04,1.04,0,0,1-1.04-1.039,1.067,1.067,0,0,1,.306-.74,1.034,1.034,0,0,1,.735-.306Z" transform="translate(-171.365 -88.687)" fill="#df6e1c"/>
          <path id="Trazado_1078474" data-name="Trazado 1078474" d="M564.668,264.049a2.973,2.973,0,1,1-2.973-2.973,2.973,2.973,0,0,1,2.973,2.973" transform="translate(-185.84 -87.725)"/>
          <path id="Trazado_1078475" data-name="Trazado 1078475" d="M174.929,125.16H115.845V68.71h59.084Zm.347-56.8H115.5v57.143h59.778Z" transform="translate(-38.417 -23.626)"/>
          <rect id="Rectángulo_418021" data-name="Rectángulo 418021" width="52.959" height="48.827" transform="translate(80.491 48.896)" fill="#b3c0ff"/>
          <g id="Grupo_1210052" data-name="Grupo 1210052" transform="translate(80.491 58.736)" style="mix-blend-mode: multiply;isolation: isolate">
            <g id="Grupo_1210051" data-name="Grupo 1210051">
              <g id="Grupo_1210050" data-name="Grupo 1210050" clip-path="url(#clip-path-5)">
                <path id="Trazado_1078476" data-name="Trazado 1078476" d="M120.607,111.2,134.45,90.874a3.516,3.516,0,0,1,5.627-.247l21.283,26.011,12.206-15.624v27.311H120.607Z" transform="translate(-120.607 -89.338)" fill="#b3c0ff"/>
              </g>
            </g>
          </g>
          <path id="Trazado_1078477" data-name="Trazado 1078477" d="M185.533,91.634a6.841,6.841,0,1,1-6.841-6.841,6.841,6.841,0,0,1,6.841,6.841" transform="translate(-57.16 -29.091)" fill="#fff"/>
          <path id="Trazado_1078478" data-name="Trazado 1078478" d="M545.135,61.751H430.219a8.826,8.826,0,0,0-8.826,8.826V96.33a8.826,8.826,0,0,0,8.826,8.826H451.68c-1.654,23.758-19.365,25.247-19.365,25.247,27.58,0,32.562-17.488,33.416-25.247h79.4a8.826,8.826,0,0,0,8.826-8.826V70.577a8.826,8.826,0,0,0-8.826-8.826" transform="translate(-140.162 -21.426)" fill="#fff"/>
          <path id="Trazado_1078479" data-name="Trazado 1078479" d="M545.135,61.751H430.219a8.826,8.826,0,0,0-8.826,8.826V96.33a8.826,8.826,0,0,0,8.826,8.826H451.68c-1.654,23.758-19.365,25.247-19.365,25.247,27.58,0,32.562-17.488,33.416-25.247h79.4a8.826,8.826,0,0,0,8.826-8.826V70.577A8.826,8.826,0,0,0,545.135,61.751Z" transform="translate(-140.162 -21.426)" fill="none" stroke="#000" stroke-linecap="round" stroke-linejoin="round" stroke-width="1"/>
          <path id="Trazado_1078480" data-name="Trazado 1078480" d="M455.755,96.007H445.331l-1.937,4.789h-7.114l10.882-24.651h6.867L464.946,100.8h-7.254Zm-2.042-5.142-3.169-7.888-3.169,7.888Z" transform="translate(-145.114 -26.214)"/>
          <path id="Trazado_1078481" data-name="Trazado 1078481" d="M504.442,90.25a6.052,6.052,0,0,1,1.2,3.785,5.683,5.683,0,0,1-2.606,5q-2.607,1.761-7.536,1.761H482.186V76.146h12.608q4.718,0,7.183,1.743a5.473,5.473,0,0,1,2.465,4.7,5.859,5.859,0,0,1-.862,3.152,6.039,6.039,0,0,1-2.447,2.2,6.91,6.91,0,0,1,3.31,2.306m-15.354-9.068v4.754h4.79q3.521,0,3.521-2.395,0-2.359-3.521-2.359ZM498.6,93.26q0-2.5-3.662-2.5h-5.846v5h5.846q3.662,0,3.662-2.5" transform="translate(-160.383 -26.214)"/>
          <path id="Trazado_1078482" data-name="Trazado 1078482" d="M527.467,99.406a12.226,12.226,0,0,1-4.842-4.56,13.328,13.328,0,0,1,0-13.241,12.226,12.226,0,0,1,4.842-4.56,14.582,14.582,0,0,1,6.955-1.638,14.938,14.938,0,0,1,6.091,1.2,11.734,11.734,0,0,1,4.507,3.451l-4.437,4.014a7.3,7.3,0,0,0-5.81-2.887,7.174,7.174,0,0,0-3.575.88,6.108,6.108,0,0,0-2.429,2.483,8.279,8.279,0,0,0,0,7.36,6.1,6.1,0,0,0,2.429,2.483,7.167,7.167,0,0,0,3.575.88,7.3,7.3,0,0,0,5.81-2.888l4.437,4.014a11.716,11.716,0,0,1-4.507,3.452,14.938,14.938,0,0,1-6.091,1.2,14.582,14.582,0,0,1-6.955-1.638" transform="translate(-173.248 -25.969)"/>
          <path id="Trazado_1078483" data-name="Trazado 1078483" d="M561.177,108.481a3.8,3.8,0,0,1-1.163-2.852,3.759,3.759,0,0,1,1.145-2.852,4.341,4.341,0,0,1,5.758,0,4.149,4.149,0,0,1-.018,5.7,4.193,4.193,0,0,1-5.722,0" transform="translate(-186.27 -34.709)"/>
          <path id="Trazado_1078484" data-name="Trazado 1078484" d="M576.11,108.481a3.8,3.8,0,0,1-1.163-2.852,3.759,3.759,0,0,1,1.145-2.852,4.341,4.341,0,0,1,5.757,0,3.794,3.794,0,0,1,1.127,2.852,3.833,3.833,0,0,1-1.145,2.852,4.193,4.193,0,0,1-5.722,0" transform="translate(-191.236 -34.709)"/>
          <path id="Trazado_1078485" data-name="Trazado 1078485" d="M591.041,108.481a3.8,3.8,0,0,1-1.163-2.852,3.759,3.759,0,0,1,1.145-2.852,4.341,4.341,0,0,1,5.758,0,4.15,4.15,0,0,1-.018,5.7,4.193,4.193,0,0,1-5.722,0" transform="translate(-196.203 -34.709)"/>
          <path id="Trazado_1078486" data-name="Trazado 1078486" d="M79.065,202.487h21.863a2.823,2.823,0,0,1,2.823,2.823v11.679a2.823,2.823,0,0,1-2.823,2.823h-2.6c0,4.727,3.134,9.266,9.044,8.861-2.86,2.2-14.266,1.113-14.266-8.861H79.065a2.823,2.823,0,0,1-2.823-2.823V205.31a2.823,2.823,0,0,1,2.823-2.823" transform="translate(-25.36 -68.237)" fill="#fff"/>
          <path id="Trazado_1078487" data-name="Trazado 1078487" d="M79.065,202.487h21.863a2.823,2.823,0,0,1,2.823,2.823v11.679a2.823,2.823,0,0,1-2.823,2.823h-2.6c0,4.727,3.134,9.266,9.044,8.861-2.86,2.2-14.266,1.113-14.266-8.861H79.065a2.823,2.823,0,0,1-2.823-2.823V205.31A2.823,2.823,0,0,1,79.065,202.487Z" transform="translate(-25.36 -68.237)" fill="none" stroke="#000" stroke-linecap="round" stroke-linejoin="round" stroke-width="0.5"/>
          <path id="Trazado_1078488" data-name="Trazado 1078488" d="M97.761,208.1c-2.955-.826-4.528,2.383-4.528,2.383s-1.573-3.209-4.528-2.383c-3.275.916-3.145,7.482,4.528,10.056,7.673-2.574,7.8-9.14,4.528-10.056" transform="translate(-28.829 -70.058)" fill="#cc4047"/>
          <path id="Trazado_1078489" data-name="Trazado 1078489" d="M257.344,122.56H235.481a2.823,2.823,0,0,0-2.823,2.823v20.08a2.823,2.823,0,0,0,2.823,2.823h2.6c0,4.727-3.134,9.266-9.044,8.861,2.86,2.2,14.266,1.113,14.266-8.861h14.043a2.823,2.823,0,0,0,2.822-2.823v-20.08a2.823,2.823,0,0,0-2.822-2.823" transform="translate(-76.181 -41.652)" fill="#fff"/>
          <path id="Trazado_1078490" data-name="Trazado 1078490" d="M257.344,122.56H235.481a2.823,2.823,0,0,0-2.823,2.823v20.08a2.823,2.823,0,0,0,2.823,2.823h2.6c0,4.727-3.134,9.266-9.044,8.861,2.86,2.2,14.266,1.113,14.266-8.861h14.043a2.823,2.823,0,0,0,2.822-2.823v-20.08A2.823,2.823,0,0,0,257.344,122.56Z" transform="translate(-76.181 -41.652)" fill="none" stroke="#000" stroke-linecap="round" stroke-linejoin="round" stroke-width="0.5"/>
          <path id="Trazado_1078491" data-name="Trazado 1078491" d="M260.036,137.371a9.305,9.305,0,1,1-9.3-9.3,9.3,9.3,0,0,1,9.3,9.3" transform="translate(-80.302 -43.484)" fill="#f9b928"/>
          <path id="Trazado_1078492" data-name="Trazado 1078492" d="M257.669,146.481s-.927,2.577-4.585,2.577-4.585-2.577-4.585-2.577" transform="translate(-82.655 -49.609)" fill="none" stroke="#000" stroke-linecap="round" stroke-linejoin="round" stroke-width="1"/>
          <path id="Trazado_1078493" data-name="Trazado 1078493" d="M247.147,138.845a2.807,2.807,0,0,1,2.588.862" transform="translate(-82.205 -47.053)" fill="none" stroke="#000" stroke-linecap="round" stroke-linejoin="round" stroke-width="1"/>
          <path id="Trazado_1078494" data-name="Trazado 1078494" d="M262.3,138.845a2.807,2.807,0,0,0-2.588.862" transform="translate(-86.385 -47.053)" fill="none" stroke="#000" stroke-linecap="round" stroke-linejoin="round" stroke-width="1"/>
          <rect id="Rectángulo_418023" data-name="Rectángulo 418023" width="35.502" height="35.502" transform="translate(317.2 257.733)" fill="#fff"/>
          <rect id="Rectángulo_418024" data-name="Rectángulo 418024" width="35.502" height="35.502" transform="translate(317.2 257.733)" fill="none" stroke="#000" stroke-linecap="round" stroke-miterlimit="10" stroke-width="1.5"/>
          <path id="Trazado_1078495" data-name="Trazado 1078495" d="M504.634,409.277a5.048,5.048,0,0,1,1.231,3.428,5.589,5.589,0,0,1-.887,3.043,6.25,6.25,0,0,1-2.7,2.264,10.452,10.452,0,0,1-4.485.859,16.063,16.063,0,0,1-3.878-.475,11.5,11.5,0,0,1-3.321-1.35l1.9-3.944a8.557,8.557,0,0,0,2.448,1.138,9.591,9.591,0,0,0,2.687.4,3.976,3.976,0,0,0,2.144-.5,1.594,1.594,0,0,0,.794-1.428q0-1.8-2.832-1.8h-2.2V407.6l3.308-3.573h-7.3v-4.049h13.391v3.282l-3.837,4.127a6.176,6.176,0,0,1,3.533,1.893" transform="translate(-163.18 -133.925)" fill="#df6e1c"/>
          <rect id="Rectángulo_418025" data-name="Rectángulo 418025" width="35.502" height="35.502" transform="translate(352.909 257.733)" fill="#fff"/>
          <rect id="Rectángulo_418026" data-name="Rectángulo 418026" width="35.502" height="35.502" transform="translate(352.909 257.733)" fill="none" stroke="#000" stroke-linecap="round" stroke-miterlimit="10" stroke-width="1.5"/>
          <path id="Trazado_1078496" data-name="Trazado 1078496" d="M559.4,414.16v4.155H544.974v-3.281l6.933-6.484a6.619,6.619,0,0,0,1.35-1.628,2.968,2.968,0,0,0,.344-1.363,1.721,1.721,0,0,0-.609-1.4,2.729,2.729,0,0,0-1.773-.5,3.925,3.925,0,0,0-1.892.463,3.8,3.8,0,0,0-1.415,1.336l-3.891-2.17a7.606,7.606,0,0,1,3.043-2.831,9.805,9.805,0,0,1,4.632-1.032,9.551,9.551,0,0,1,3.745.688,5.8,5.8,0,0,1,2.541,1.971,5.007,5.007,0,0,1,.913,2.977,6.431,6.431,0,0,1-.649,2.845,10.877,10.877,0,0,1-2.5,3.031l-3.493,3.229Z" transform="translate(-180.95 -133.74)" fill="#4bad51"/>
          <rect id="Rectángulo_418027" data-name="Rectángulo 418027" width="35.502" height="35.502" transform="translate(334.951 222.232)" fill="#fff"/>
          <rect id="Rectángulo_418028" data-name="Rectángulo 418028" width="35.502" height="35.502" transform="translate(334.951 222.232)" fill="none" stroke="#000" stroke-linecap="round" stroke-miterlimit="10" stroke-width="1.5"/>
          <path id="Trazado_1078497" data-name="Trazado 1078497" d="M527.9,346.729v18.526H522.66V350.778h-3.44v-4.049Z" transform="translate(-172.701 -116.215)" fill="#2e2a72"/>
          <path id="Trazado_1078498" data-name="Trazado 1078498" d="M353.086,76.625a3.539,3.539,0,1,1,3.539,3.539,3.539,3.539,0,0,1-3.539-3.539" transform="translate(-117.442 -25.197)"/>
          <path id="Trazado_1078499" data-name="Trazado 1078499" d="M328.772,76.625a3.539,3.539,0,1,1,3.539,3.539,3.539,3.539,0,0,1-3.539-3.539" transform="translate(-109.355 -25.197)"/>
          <path id="Trazado_1078500" data-name="Trazado 1078500" d="M304.457,76.625A3.539,3.539,0,1,1,308,80.164a3.539,3.539,0,0,1-3.539-3.539" transform="translate(-101.267 -25.197)"/>
          <path id="Trazado_1078501" data-name="Trazado 1078501" d="M629.226,298.186a3.539,3.539,0,1,1,3.539,3.539,3.539,3.539,0,0,1-3.539-3.539" transform="translate(-209.29 -98.891)"/>
          <path id="Trazado_1078502" data-name="Trazado 1078502" d="M612.917,298.186a3.539,3.539,0,1,1,3.539,3.539,3.539,3.539,0,0,1-3.539-3.539" transform="translate(-203.866 -98.891)"/>
          <path id="Trazado_1078503" data-name="Trazado 1078503" d="M596.607,298.186a3.539,3.539,0,1,1,3.539,3.539,3.539,3.539,0,0,1-3.539-3.539" transform="translate(-198.441 -98.891)"/>
          <path id="Trazado_1078504" data-name="Trazado 1078504" d="M99.659,276.612a1.772,1.772,0,1,1,1.772,1.772,1.772,1.772,0,0,1-1.772-1.772" transform="translate(-33.148 -92.303)"/>
          <path id="Trazado_1078505" data-name="Trazado 1078505" d="M91.494,276.612a1.772,1.772,0,1,1,1.772,1.772,1.772,1.772,0,0,1-1.772-1.772" transform="translate(-30.433 -92.303)"/>
          <path id="Trazado_1078506" data-name="Trazado 1078506" d="M83.329,276.612a1.772,1.772,0,1,1,1.772,1.772,1.772,1.772,0,0,1-1.772-1.772" transform="translate(-27.717 -92.303)"/>
        </g>
      </g>
    </g>
  </g>
</svg>
