<svg xmlns="http://www.w3.org/2000/svg" width="161.094" height="169.155" viewBox="0 0 161.094 169.155">
  <g id="gafas-virtuales" transform="translate(-11.151 0)">
    <g id="Grupo_1210064" data-name="Grupo 1210064" transform="translate(11.874 0.723)">
      <g id="Grupo_1210062" data-name="Grupo 1210062" transform="translate(0)">
        <path id="Trazado_1078527" data-name="Trazado 1078527" d="M232.6,322.885c-44.558,11.138-23.769,5.943-60.422,15.1.605-14.579.338-8.149,1.482-35.685,14.06-6.7,31.938-12.227,46.886-8.114,6.123,1.688,8.92,4.294,8.92,4.294C231.045,310.746,230.97,310.163,232.6,322.885Z" transform="translate(-114.703 -187.68)" fill="#ffebd4"/>
        <path id="Trazado_1078528" data-name="Trazado 1078528" d="M240.41,127.132a11.192,11.192,0,0,1-3.275.354q-.786,0-1.551-.033c-1.492,8.991-1.38,8.309-1.934,11.635l-29.858.766a132.583,132.583,0,0,0-.979-29.11c-.219-.726-1.767-5.931-7.981-26.8.905-9.726.179-1.935,3.155-33.852l29.945-13.033,26.877,12.8C287.617,98.14,259.012,125.911,240.41,127.132Z" transform="translate(-129.166 -24.384)" fill="#ffebd4"/>
        <path id="Trazado_1078529" data-name="Trazado 1078529" d="M301.548,300.494a40.234,40.234,0,0,1-16.109-13.709,21,21,0,0,1-2.046-3.82,34.177,34.177,0,0,0,8.743,1.518l-.571,3.441c6.123,1.688,8.92,4.294,8.92,4.294Z" transform="translate(-185.718 -181.413)" fill="#ffd5b8"/>
        <path id="Trazado_1078530" data-name="Trazado 1078530" d="M256.022,158.925c-3.488,3.488-13.214,11.656-22.113,4.731-11.082-8.624-6.669,3.029-32.15,0a90.87,90.87,0,0,0-3.372,30.69c.8,12,4.39,23.49,11.895,32.887.408.51.784,1,1.135,1.471,15.689,21.2-25.435,5.483-37.814-2.79l.969-23.313a113.977,113.977,0,0,1,16.073-6.307,148.652,148.652,0,0,0-1.388-21.957c-.219-.726-1.767-5.931-7.981-26.8l.64-6.875c26.219-3.694,58.325-6.473,72.251-.712a50.742,50.742,0,0,1,1.854,18.979Z" transform="translate(-115.61 -87.976)" fill="#ffd5b8"/>
        <path id="Trazado_1078531" data-name="Trazado 1078531" d="M175.318,365.47H51.338c-.712-11.23,4.008-20.848,10.63-28.691,13.366-15.809,34.485-24.393,34.485-24.393A70.11,70.11,0,0,0,107.046,322.7c12.094,9.47,31.915,17.7,45.216-14.136a48.051,48.051,0,0,1,7.688,7.308C171.193,328.843,177.05,345.981,175.318,365.47Z" transform="translate(-37.49 -197.761)" fill="#c5c5fe"/>
        <path id="Trazado_1078532" data-name="Trazado 1078532" d="M107.046,329.449c-5.346,6.622-14.584,20.945-16.659,42.769H51.338c-.712-11.23,4.008-20.848,10.63-28.691,13.366-15.809,34.485-24.393,34.485-24.393A70.09,70.09,0,0,0,107.046,329.449Z" transform="translate(-37.49 -204.51)" fill="#a3a3f5"/>
        <path id="Trazado_1078533" data-name="Trazado 1078533" d="M195.433,26.605c1.829,1.576,5.581,5.429,3.882,9.141-.961,2.1-4.5,2.638-8.208,2.563a49.509,49.509,0,0,1-9.965-1.3c-1.092,6.054-5.91,1.865-5.928,6.95a93.3,93.3,0,0,0,.766,12.318c.763,5.82.784,2.84.835,8.949-4.188-1.567-8.986-1.358-13.362-.437a11.006,11.006,0,0,0-6.087,3.69c-3.327-7.793-6.6-17.4-6.979-25.9-.951-21.155,16.539-20.653,16.539-20.653S173.8,6.657,183.289,2.855a11.039,11.039,0,0,1,4.518-.849c9.893.318,3.448,8.873,1.171,11.562,11.161-4.959,40.156-15.585,60.154-2.631C272.948,26.37,221.556,33.973,195.433,26.605Z" transform="translate(-100.761 -2)" fill="#52528c"/>
        <path id="Trazado_1078534" data-name="Trazado 1078534" d="M191.107,39.818a49.509,49.509,0,0,1-9.965-1.3c-1.092,6.054-5.91,1.865-5.928,6.95a91.955,91.955,0,0,0,1.5,16.988c.04.567.072,1.728.087,2.845-4.277,2.46-10.7,5.272-15.614,4.688a10.184,10.184,0,0,1-4.587-1.829c-3-7.339-5.863-16.148-6.213-24.068-.951-21.155,16.539-20.653,16.539-20.653S173.8,8.167,183.289,4.365c-2.664,3.94-4.565,9.376-1.077,15.05C182.212,19.415,172.756,37.082,191.107,39.818Z" transform="translate(-100.761 -3.51)" fill="#404077"/>
        <g id="Grupo_1210060" data-name="Grupo 1210060" transform="translate(0 2.311)">
          <path id="Trazado_1078535" data-name="Trazado 1078535" d="M63.232,285.25c2.529,7.129,6.992,15.443,14.831,21.527a4.272,4.272,0,0,1,.1,6.547A57.406,57.406,0,0,0,63.5,332.684a4.018,4.018,0,0,1-7.486-.174c-2.705-7.091-7.248-15.393-14.706-21.011a4.283,4.283,0,0,1-.214-6.631,56.343,56.343,0,0,0,14.628-19.9,4.015,4.015,0,0,1,7.512.281Z" transform="translate(-30.056 -183.431)" fill="#fae26b"/>
          <path id="Trazado_1078536" data-name="Trazado 1078536" d="M376.927,326.682c2.263,6.377,6.255,13.815,13.267,19.257a3.821,3.821,0,0,1,.093,5.857,51.351,51.351,0,0,0-13.122,17.318,3.594,3.594,0,0,1-6.7-.156c-2.42-6.343-6.484-13.769-13.155-18.8a3.831,3.831,0,0,1-.192-5.931,50.408,50.408,0,0,0,13.086-17.8A3.592,3.592,0,0,1,376.927,326.682Z" transform="translate(-231.96 -210.072)" fill="#fae26b"/>
          <path id="Trazado_1078537" data-name="Trazado 1078537" d="M38.058,11.29C40.726,18.811,45.434,27.583,53.7,34a4.507,4.507,0,0,1,.11,6.908A60.56,60.56,0,0,0,38.338,61.333a4.239,4.239,0,0,1-7.9-.184c-2.854-7.481-7.647-16.239-15.515-22.167a4.519,4.519,0,0,1-.226-7A59.449,59.449,0,0,0,30.133,10.993a4.236,4.236,0,0,1,7.925.3Z" transform="translate(-13.152 -8.394)" fill="#fae26b"/>
        </g>
        <g id="Grupo_1210061" data-name="Grupo 1210061" transform="translate(52.475 22.776)">
          <path id="Trazado_1078538" data-name="Trazado 1078538" d="M217.295,85.238s-17,5.633-12.265,25.668,30.488,14.774,34.952,12.455,8.656-4.081,13.758,1.113,21.5,4.452,22.05-9.183-58.5-30.054-58.5-30.054Z" transform="translate(-187.62 -77.929)" fill="#c5c5fe"/>
          <path id="Trazado_1078539" data-name="Trazado 1078539" d="M305.872,75.858V92.846a10.84,10.84,0,0,1-2.331,6.716c-1.729,2.192-3.467,2.887-5.642,3.972a10.876,10.876,0,0,1-4.843,1.139H246.386a10.842,10.842,0,0,1-10.843-10.843V77.246A10.836,10.836,0,0,1,238.8,69.5l1.42-1.392a10.874,10.874,0,0,1,7.583-3.09h47.222A10.845,10.845,0,0,1,305.872,75.858Z" transform="translate(-207.637 -65.015)" fill="#52528c"/>
          <path id="Trazado_1078540" data-name="Trazado 1078540" d="M319.728,75.858V92.846a10.84,10.84,0,0,1-2.331,6.716l-49.286.123a10.843,10.843,0,0,1-10.868-10.843V65.962a10.744,10.744,0,0,1,4.42-.947h47.222A10.845,10.845,0,0,1,319.728,75.858Z" transform="translate(-221.494 -65.015)" fill="#9ae1ff"/>
          <path id="Trazado_1078541" data-name="Trazado 1078541" d="M180.312,141.367s-9.574,15.18-16.08,8.928-5.882-18.765-5.882-18.765c12.732-10.2,21.961-13.447,21.961-13.447s.357,13.345,0,23.285Z" transform="translate(-158.334 -98.902)" fill="#52528c"/>
        </g>
        <path id="Trazado_1078542" data-name="Trazado 1078542" d="M191.647,175.393a12.231,12.231,0,0,0-6.226-7.629l-1.2-.522a16.5,16.5,0,0,0-7.354-.768c-3.23.349-5.2.81-7.361,3.222v0c-8.524,9.843-1.1,39.587,20.558,19.206l2.175-10.739A24.246,24.246,0,0,0,191.647,175.393Z" transform="translate(-110.792 -106.961)" fill="#ffd5b8"/>
        <path id="Trazado_1078543" data-name="Trazado 1078543" d="M199.769,186.523l4.744,14.95C208.969,192.129,199.769,186.523,199.769,186.523Z" transform="translate(-132.318 -119.83)" fill="#ffc7a1"/>
      </g>
      <g id="Grupo_1210063" data-name="Grupo 1210063" transform="translate(106.654 22.776)">
        <path id="Trazado_1078544" data-name="Trazado 1078544" d="M356.377,65.015l-10.793,34.6-8.031.018,11.736-34.622Z" transform="translate(-326.956 -65.015)" fill="#baedfe"/>
        <path id="Trazado_1078545" data-name="Trazado 1078545" d="M325.336,65.015,313.955,99.651l-5.722.015L320.71,65.015Z" transform="translate(-308.233 -65.015)" fill="#baedfe"/>
      </g>
    </g>
    <g id="Grupo_1210065" data-name="Grupo 1210065" transform="translate(11.151 0)">
      <path id="Trazado_1078546" data-name="Trazado 1078546" d="M187.459,138.329c-5.781-4.486-10.164-10.854-13.029-18.927a4.313,4.313,0,0,0-8.062-.3,50.2,50.2,0,0,1-6.558,10.906,64.492,64.492,0,0,0-8.024-11.646,48.572,48.572,0,0,0-7.8-7.412,23.271,23.271,0,0,0-8.541-4.229l.363-2.184c9.815.245,18.971-4.461,25.307-11.865,4.69-5.48,10-14.989,8.883-29.282a22.2,22.2,0,0,0,3.81-1.71,11.5,11.5,0,0,0,6.4-10.349V34.34a11.556,11.556,0,0,0-4.789-9.364c10.385-3.764,11.694-9.719,2.122-15.924-18.845-12.207-45.39-3.875-58.264,1.47C123.368,4.7,122.92.233,115.849.005,104.579-.354,95.914,16.9,94.482,19.931a17.724,17.724,0,0,0-11.729,4.985c-7.528,7.651-5.356,21.093-2.208,31.3-.041,1.1-.2,8.782,3.022,14.983C81.958,82.5,88.686,95.578,101.859,88.251a151.156,151.156,0,0,1,1.24,20.256,116.085,116.085,0,0,0-15.648,6.179,107.539,107.539,0,0,0-14.262,7.493,47.731,47.731,0,0,1-10.55-17.568,4.736,4.736,0,0,0-8.854-.331,55.52,55.52,0,0,1-14.438,19.642,5.005,5.005,0,0,0,.251,7.755A39.65,39.65,0,0,1,49.67,143.2c-5.7,8.087-8.316,16.587-7.763,25.274a.723.723,0,0,0,1.443-.092c-.518-8.152,1.882-16.151,7.119-23.8a60.207,60.207,0,0,1,3.593,7.78,4.74,4.74,0,0,0,8.821.213,56.458,56.458,0,0,1,14.482-19.11,4.994,4.994,0,0,0-.134-7.665,38.777,38.777,0,0,1-2.987-2.583,109.136,109.136,0,0,1,13.28-7c2.4,2.9,16.136,18.666,31.131,18.666,12.449,0,20.267-10.789,25.2-22.226a60.1,60.1,0,0,1,14.964,18.554,48.05,48.05,0,0,1-5.347,5.426,4.553,4.553,0,0,0,.229,7.056c5.214,3.929,9.408,9.777,12.482,17.385.024,2.376-.074,4.824-.293,7.282a.723.723,0,1,0,1.44.129c.143-1.6.23-3.19.271-4.766a4.318,4.318,0,0,0,7.046-1.359A50.423,50.423,0,0,1,187.582,145.3a4.544,4.544,0,0,0-.123-6.974ZM76.344,126.951a3.549,3.549,0,0,1,.074,5.43A57.914,57.914,0,0,0,61.563,151.99a3.294,3.294,0,0,1-6.151-.135c-3.578-9.378-8.606-16.555-14.946-21.331a3.56,3.56,0,0,1-.177-5.505,56.979,56.979,0,0,0,14.818-20.155,3.292,3.292,0,0,1,6.169.231c3.036,8.556,7.874,16.272,15.069,21.856ZM178.765,34.34V51.33a10.064,10.064,0,0,1-5.6,9.055c-2.135,1.065-3.742,2.048-6.489,2.048H120.005a10.132,10.132,0,0,1-10.12-10.12V35.73a10.18,10.18,0,0,1,3.042-7.234l1.42-1.39a10.067,10.067,0,0,1,7.078-2.887h47.22A10.132,10.132,0,0,1,178.765,34.34Zm-74.81,8.32a.723.723,0,0,0-.962-.663c-.136.048-1.385.5-3.5,1.51A19.384,19.384,0,0,1,108.9,32.522a11.513,11.513,0,0,0-.462,3.208V52.313a11.579,11.579,0,0,0,11.566,11.566c51.007,0,47.082.051,48.285-.119-2.551,10.011-16.048,10.207-20.4,5.778-5.316-5.41-9.761-3.766-14.609-1.248-2.991,1.555-14.12,3.982-22.952.661a12.9,12.9,0,0,0-6.252-7.892c.128-8.834-.12-18.3-.123-18.4ZM83.772,25.943a16.6,16.6,0,0,1,11.153-4.571.709.709,0,0,0,.68-.426c.089-.2,9.052-19.847,20.2-19.5,2.46.079,3.956.679,4.447,1.783.739,1.663-.645,4.821-3.7,8.464-2.816,1.257-4.446,2.124-4.514,2.161a.723.723,0,0,0,.681,1.275c1.111-.6,3.338-1.632,4.575-2.183,11.345-5.04,39.849-15.393,59.467-2.685,4.071,2.639,6.07,5.182,5.78,7.356C182.222,20,179.125,22.258,173.82,24a11.492,11.492,0,0,0-5.174-1.226h-47.22a11.5,11.5,0,0,0-8.089,3.3,15.242,15.242,0,0,0-3.652,4.455c-2.558,1.128-9.762,5.034-11.938,13.847A101.263,101.263,0,0,0,81.661,54.9c-2.784-9.387-4.77-21.941,2.11-28.953ZM81.985,56.481c10.05-8.007,17.927-11.654,20.55-12.748.058,2.613.192,9.761.106,16.669-3.765-1.641-11.985-1.568-15.683,2.574a14.471,14.471,0,0,0-2.9,5.816,34.2,34.2,0,0,1-2.069-12.311Zm39.308,76.783c-14.649,2.024-29.312-14.054-32.394-17.66a114.2,114.2,0,0,1,14.167-5.573c-.057,2.041-.177,4.09-.379,6.088a.723.723,0,1,0,1.439.145c.9-8.917.245-20.375-.92-28.838a35.821,35.821,0,0,0,5.345-4.235.723.723,0,0,0-.991-1.053c-6.05,5.693-14,10.057-19.3,3.609-5.4-6.563-4.65-21.739,3.421-24.228a16.863,16.863,0,0,1,11.426.659,11.616,11.616,0,0,1,5.826,7.131,23.844,23.844,0,0,1,.587,2.735.723.723,0,0,0,1.426-.237c-.074-.447-.148-.841-.218-1.187,9.1,2.995,20.171.538,23.223-1.05,4.632-2.406,8.27-3.745,12.911.978,4.713,4.8,17.535,4.731,21.844-3.8.112,12-4.54,20.134-8.688,24.981-8.279,9.675-20.454,13.873-33.346,9.853a.723.723,0,0,0-.431,1.38,34.991,34.991,0,0,0,8.115,1.5l-1.8,10.842a.723.723,0,0,0,1.426.237l1.228-7.39a23.589,23.589,0,0,1,7.466,3.589c-5.57,13.087-12.761,20.329-21.38,21.521Zm65.341,10.946a51.877,51.877,0,0,0-13.308,17.568,2.871,2.871,0,0,1-5.362-.117c-2.812-7.369-7.072-14.352-13.4-19.116a3.108,3.108,0,0,1-.155-4.806,51.056,51.056,0,0,0,13.275-18.057,2.869,2.869,0,0,1,5.377.2c2.959,8.338,7.5,14.928,13.505,19.586A3.1,3.1,0,0,1,186.635,144.211Z" transform="translate(-28.058 0)"/>
      <path id="Trazado_1078547" data-name="Trazado 1078547" d="M37.72,60.35A59.6,59.6,0,0,1,53.01,40.176a5.23,5.23,0,0,0-.14-8.025C46.033,26.844,40.848,19.314,37.461,9.769a4.957,4.957,0,0,0-9.267-.346A58.619,58.619,0,0,1,12.951,30.16a5.241,5.241,0,0,0,.263,8.12c6.462,4.869,11.6,12.22,15.274,21.848a4.96,4.96,0,0,0,9.232.222ZM14.084,37.125a3.8,3.8,0,0,1-.189-5.87,60.075,60.075,0,0,0,15.622-21.25,3.513,3.513,0,0,1,6.582.247c3.481,9.81,8.826,17.562,15.885,23.04a3.784,3.784,0,0,1,.08,5.79A61.057,61.057,0,0,0,36.4,59.757a3.516,3.516,0,0,1-6.563-.145c-3.772-9.886-9.072-17.452-15.755-22.487Z" transform="translate(-11.151 -4.081)"/>
      <path id="Trazado_1078548" data-name="Trazado 1078548" d="M198.867,184.628a.723.723,0,1,0-.753,1.235c.353.215,8.6,5.366,4.467,14.021a.723.723,0,0,0,1.305.622C208.57,190.688,198.965,184.688,198.867,184.628Z" transform="translate(-130.318 -117.829)"/>
      <path id="Trazado_1078549" data-name="Trazado 1078549" d="M298.648,123.2c-.587,0,3.632-.009-31.816.08a10.116,10.116,0,0,1-10.143-10.12v-9.34a.723.723,0,0,0-1.446,0v9.34a11.56,11.56,0,0,0,11.593,11.566l31.814-.08a.723.723,0,0,0,0-1.446Z" transform="translate(-167.019 -65.832)"/>
    </g>
  </g>
</svg>
