<svg xmlns="http://www.w3.org/2000/svg" xmlns:xlink="http://www.w3.org/1999/xlink" width="103" height="103" viewBox="0 0 103 103">
  <defs>
    <filter id="Trazado_978624" x="0" y="0" width="103" height="103" filterUnits="userSpaceOnUse">
      <feOffset dy="3" input="SourceAlpha"/>
      <feGaussianBlur stdDeviation="3" result="blur"/>
      <feFlood flood-opacity="0.161"/>
      <feComposite operator="in" in2="blur"/>
      <feComposite in="SourceGraphic"/>
    </filter>
  </defs>
  <g id="Grupo_1210069" data-name="Grupo 1210069" transform="translate(-195.388 -3699)">
    <g id="Grupo_1209305" data-name="Grupo 1209305" transform="translate(204.388 3705)">
      <g id="Grupo_1178144" data-name="Grupo 1178144">
        <g id="Grupo_1177896" data-name="Grupo 1177896">
          <g id="Grupo_1176881" data-name="Grupo 1176881">
            <g id="Grupo_1175148" data-name="Grupo 1175148">
              <g id="Grupo_1173798" data-name="Grupo 1173798">
                <g id="Grupo_1171925" data-name="Grupo 1171925">
                  <g id="Grupo_1164524" data-name="Grupo 1164524">
                    <g id="Grupo_1144123" data-name="Grupo 1144123">
                      <g transform="matrix(1, 0, 0, 1, -9, -6)" filter="url(#Trazado_978624)">
                        <g id="Trazado_978624-2" data-name="Trazado 978624" transform="translate(9 6)" fill="#f8ecfd">
                          <path d="M 42.5 83.5 C 36.96437835693359 83.5 31.59512901306152 82.41617584228516 26.54141235351562 80.27863311767578 C 21.65934181213379 78.21369171142578 17.27447128295898 75.25723266601562 13.50862312316895 71.49137878417969 C 9.742764472961426 67.72553253173828 6.786305904388428 63.34066009521484 4.721364498138428 58.45858764648438 C 2.583823442459106 53.40486907958984 1.5 48.03562164306641 1.5 42.5 C 1.5 36.96437835693359 2.583823442459106 31.59512901306152 4.721364498138428 26.54141235351562 C 6.786305904388428 21.65934181213379 9.742764472961426 17.27447128295898 13.50862312316895 13.50862312316895 C 17.27447128295898 9.742764472961426 21.65934181213379 6.786305904388428 26.54141235351562 4.721364498138428 C 31.59512901306152 2.583823442459106 36.96437835693359 1.5 42.5 1.5 C 48.03562164306641 1.5 53.40486907958984 2.583823442459106 58.45858764648438 4.721364498138428 C 63.34066009521484 6.786305904388428 67.72553253173828 9.742764472961426 71.49137878417969 13.50862312316895 C 75.25723266601562 17.27447128295898 78.21369171142578 21.65934181213379 80.27863311767578 26.54141235351562 C 82.41617584228516 31.59512901306152 83.5 36.96437835693359 83.5 42.5 C 83.5 48.03562164306641 82.41617584228516 53.40486907958984 80.27863311767578 58.45858764648438 C 78.21369171142578 63.34066009521484 75.25723266601562 67.72553253173828 71.49137878417969 71.49137878417969 C 67.72553253173828 75.25723266601562 63.34066009521484 78.21369171142578 58.45858764648438 80.27863311767578 C 53.40486907958984 82.41617584228516 48.03562164306641 83.5 42.5 83.5 Z" stroke="none"/>
                          <path d="M 42.5 3 C 37.16621398925781 3 31.99356079101562 4.043960571289062 27.125732421875 6.102882385253906 C 22.42246627807617 8.092185974121094 18.19785308837891 10.94070434570312 14.56928253173828 14.56928253173828 C 10.94070434570312 18.19785308837891 8.092185974121094 22.42246627807617 6.102882385253906 27.125732421875 C 4.043960571289062 31.99356079101562 3 37.16621398925781 3 42.5 C 3 47.83378601074219 4.043960571289062 53.00643920898438 6.102882385253906 57.87425231933594 C 8.092185974121094 62.57753372192383 10.94070434570312 66.80213165283203 14.56928253173828 70.43071746826172 C 18.19786834716797 74.05929565429688 22.42246627807617 76.90781402587891 27.125732421875 78.89711761474609 C 31.99356079101562 80.95603942871094 37.16621398925781 82 42.5 82 C 47.83378601074219 82 53.00642395019531 80.95603942871094 57.87425231933594 78.89711761474609 C 62.57753372192383 76.90781402587891 66.80213165283203 74.05929565429688 70.43071746826172 70.43071746826172 C 74.05929565429688 66.80213165283203 76.90781402587891 62.57753372192383 78.89711761474609 57.87425231933594 C 80.95603942871094 53.00642395019531 82 47.83378601074219 82 42.5 C 82 37.16621398925781 80.95603942871094 31.99356079101562 78.89711761474609 27.125732421875 C 76.90781402587891 22.42246627807617 74.05929565429688 18.19786834716797 70.43071746826172 14.56928253173828 C 66.80213165283203 10.94070434570312 62.57753372192383 8.092185974121094 57.87425231933594 6.102882385253906 C 53.00643920898438 4.043960571289062 47.83378601074219 3 42.5 3 M 42.5 0 C 65.97209167480469 0 85 19.02789306640625 85 42.5 C 85 65.97209167480469 65.97209167480469 85 42.5 85 C 19.02789306640625 85 0 65.97209167480469 0 42.5 C 0 19.02789306640625 19.02789306640625 0 42.5 0 Z" stroke="none" fill="#c252f0"/>
                        </g>
                      </g>
                    </g>
                  </g>
                </g>
              </g>
            </g>
          </g>
        </g>
      </g>
    </g>
    <g id="color" transform="translate(215 3710.904)">
      <path id="Trazado_1078550" data-name="Trazado 1078550" d="M23.134,39h-7.71l-2.851,3.42A15.419,15.419,0,0,0,9,52.293V67.268H33.414l-.852-14.486a15.419,15.419,0,0,0-6.425-11.641Z" transform="translate(1.995 10.542)" fill="#706ecf"/>
      <path id="Trazado_1078551" data-name="Trazado 1078551" d="M14,33h7.71V43.279a2.57,2.57,0,0,1-2.57,2.57h0A5.14,5.14,0,0,1,14,40.71Z" transform="translate(3.419 8.833)" fill="#f9b995"/>
      <path id="Trazado_1078552" data-name="Trazado 1078552" d="M25.6,42.756,22.619,43.84a5.14,5.14,0,0,1-5.291-1.1l-1.87-1.767L8.43,21.659l19.319-7.031,3.188,12.514L33.9,31.531,30.72,34.057l-.054,1.7a7.71,7.71,0,0,1-5.069,7Z" transform="translate(1.832 3.598)" fill="#ffd3b6"/>
      <path id="Trazado_1078553" data-name="Trazado 1078553" d="M30.611,5.74,27.495,9.029a5.129,5.129,0,0,1-1.975,1.3L12.348,14.9a15.405,15.405,0,0,0-6.99,4.935L4.127,21.372A5.14,5.14,0,0,0,3,24.577v.628a5.14,5.14,0,0,0,.732,2.644l3.122,5.208,10.151,10.45.542-1.551a15.4,15.4,0,0,0,.871-5.1V31.773L21.4,25.5l8.78-5.931,2.107-3.228a5.14,5.14,0,0,0,.526-4.567Z" transform="translate(0.285 1.066)" fill="#ffa31d"/>
      <path id="Trazado_1078554" data-name="Trazado 1078554" d="M2.57,0h7.71V10.279H2.57A2.57,2.57,0,0,1,0,7.71V2.57A2.57,2.57,0,0,1,2.57,0Z" transform="matrix(0.94, -0.342, 0.342, 0.94, 20.802, 24.154)" fill="#1db4d8"/>
      <rect id="Rectángulo_418032" data-name="Rectángulo 418032" width="7.71" height="10.279" rx="2" transform="matrix(0.94, -0.342, 0.342, 0.94, 25.631, 22.396)" fill="#47cbf4"/>
      <path id="Trazado_1078555" data-name="Trazado 1078555" d="M22.76,25.95,7.876,31.521a2.57,2.57,0,0,1-3.394-1.783l-.027-.107a2.57,2.57,0,0,1,1.609-3.036l14.941-5.474Z" transform="translate(0.678 5.448)" fill="#1db4d8"/>
      <path id="Trazado_1078556" data-name="Trazado 1078556" d="M42.855,50.849h0l4.34-1.086a10.07,10.07,0,0,0,1.556-.524l6.824-2.926a2.323,2.323,0,0,0,1.413-2.136h0a2.322,2.322,0,0,0-2.323-2.323H45.425l-2.017-3.027A1.863,1.863,0,0,0,41.865,38h0a1.858,1.858,0,0,0-1.837,1.553L39,45.71Z" transform="translate(10.542 10.257)" fill="#ffd3b6"/>
      <path id="Trazado_1078557" data-name="Trazado 1078557" d="M45.764,44l-10.7,7.491a8.307,8.307,0,0,1-4.768,1.5h0a8.32,8.32,0,0,1-4.614-1.4L20.8,48.342a3.564,3.564,0,0,0-5.485,2.38h0a3.563,3.563,0,0,0,1.532,3.558l6.594,4.4A12.118,12.118,0,0,0,30.16,60.7h0a12.12,12.12,0,0,0,7.272-2.424L49.619,49.14Z" transform="translate(3.778 11.967)" fill="#5252c1"/>
      <circle id="Elipse_12566" data-name="Elipse 12566" cx="17" cy="17" r="17" transform="translate(41 11.096)" fill="#47cbf4"/>
      <rect id="Rectángulo_418033" data-name="Rectángulo 418033" width="5.452" height="5.452" transform="translate(73.956 3.285) rotate(45)" fill="#00c383"/>
      <rect id="Rectángulo_418034" data-name="Rectángulo 418034" width="5.452" height="5.452" transform="translate(43.117 44.403) rotate(45)" fill="#00c383"/>
      <rect id="Rectángulo_418035" data-name="Rectángulo 418035" width="5.452" height="5.452" transform="translate(73.957 41.834) rotate(45)" fill="#00c383"/>
      <rect id="Rectángulo_418036" data-name="Rectángulo 418036" width="5.452" height="5.452" transform="translate(43.118 5.856) rotate(45)" fill="#00c383"/>
      <path id="Trazado_1078558" data-name="Trazado 1078558" d="M35.408,75.744H12.279V62.053A14.161,14.161,0,0,1,15.555,53l1.231-1.478a6.414,6.414,0,0,0,5.773,3.662,3.855,3.855,0,0,0,3.855-3.855v-.073l.965.689A14.094,14.094,0,0,1,33,60.582a1.285,1.285,0,0,0,1.258,1.028,1.316,1.316,0,0,0,.257-.027,1.285,1.285,0,0,0,1-1.517,16.653,16.653,0,0,0-6.648-10.209L26.414,48.1v-.792l1.455-.529a8.948,8.948,0,0,0,5.911-8.168l.036-1.1,2.715-2.156a1.285,1.285,0,0,0,.267-1.724l-2.065-3.056a3.823,3.823,0,0,0,1.985-4.789l-1.759-4.83A3.83,3.83,0,0,0,32.746,18.7l.9-1.371a6.455,6.455,0,0,0,.658-5.709L32.1,5.587a1.285,1.285,0,0,0-2.139-.443L26.845,8.433a3.855,3.855,0,0,1-1.462.965L12.211,13.965a16.684,16.684,0,0,0-7.572,5.348L3.413,20.852A6.443,6.443,0,0,0,2,24.861v.628a6.435,6.435,0,0,0,.914,3.3L4.5,31.437a3.963,3.963,0,0,0-.591,3.274A3.855,3.855,0,0,0,9,37.387l.206-.077,6.927,7.133V48.3L13.581,51.36A16.741,16.741,0,0,0,9.71,62.053V77.029a1.285,1.285,0,0,0,1.285,1.285H35.408a1.285,1.285,0,1,0,0-2.57ZM22.559,52.616A3.855,3.855,0,0,1,18.7,48.761V46.826a6.362,6.362,0,0,0,3.976,1.43,6.482,6.482,0,0,0,1.164-.11v3.185A1.285,1.285,0,0,1,22.559,52.616Zm9.194-16.75a1.285,1.285,0,0,0-.486.965l-.051,1.651H28.984a1.285,1.285,0,1,0,0,2.57H30.6a6.384,6.384,0,0,1-3.612,3.314L24.012,45.45a3.834,3.834,0,0,1-3.969-.825l-1.261-1.194.269-.771a16.687,16.687,0,0,0,.938-5.525V33.279l2.9-1.084a3.869,3.869,0,0,0,2.966,1.4,3.829,3.829,0,0,0,1.315-.233l5.094-1.854L34,34.082Zm-6.67-12.684a3.829,3.829,0,0,0,.22,1.285L27.06,29.3a3.861,3.861,0,0,0,.659,1.127l-1.428.514a1.285,1.285,0,0,1-1.646-.771l-1.759-4.83a1.285,1.285,0,0,1,.771-1.646Zm9.223,3.478a1.285,1.285,0,0,1-.771,1.647h0l-2.416.879a1.285,1.285,0,0,1-1.647-.771l-1.755-4.826a1.285,1.285,0,0,1,.763-1.643l2.42-.881a1.285,1.285,0,0,1,1.647.771ZM4.57,24.861a3.869,3.869,0,0,1,.844-2.408l1.232-1.542a14.1,14.1,0,0,1,6.4-4.518l13.191-4.574A6.441,6.441,0,0,0,28.71,10.2L30.4,8.414,31.884,12.5a3.874,3.874,0,0,1-.394,3.424L29.618,18.8l-6.842,2.49a3.806,3.806,0,0,0-2.53,3.656l-13.646,5L5.12,27.477a3.855,3.855,0,0,1-.55-1.984ZM7.052,34.914a1.343,1.343,0,0,1-.676-.933,1.285,1.285,0,0,1,.806-1.517l13.731-5.033.881,2.423L8.1,34.984a1.268,1.268,0,0,1-1.049-.066Zm10.367-.673v2.9a14.092,14.092,0,0,1-.657,4.257l-4.926-5.07Z" transform="translate(0 0.782)"/>
      <path id="Trazado_1078559" data-name="Trazado 1078559" d="M61.789,40.855H53.235L51.6,38.4a3.143,3.143,0,0,0-5.717,1.227l-.937,5.623L34.687,52.433a7.14,7.14,0,0,1-7.933.09L21.14,48.78a1.285,1.285,0,1,0-1.426,2.138l5.615,3.743a9.749,9.749,0,0,0,10.832-.128l9.683-6.778,2.335,3.122L37.02,59.246a10.835,10.835,0,0,1-12.511.348L16,53.92a1.285,1.285,0,0,0-1.426,2.138l8.511,5.674a13.4,13.4,0,0,0,15.478-.43l11.981-8.984,4.089-1.028a11.294,11.294,0,0,0,1.75-.59l6.832-2.921a3.608,3.608,0,0,0-1.424-6.924Zm.409,4.563-6.831,2.927a9.1,9.1,0,0,1-1.361.459l-3.513.878-3.012-4.018.935-5.614a.6.6,0,0,1,1.047-.222l2.017,3.027a1.285,1.285,0,0,0,1.066.571h9.241a1.038,1.038,0,0,1,.409,1.993Z" transform="translate(3.419 9.972)"/>
      <path id="Trazado_1078560" data-name="Trazado 1078560" d="M32,25.989A17.989,17.989,0,1,0,49.989,8,17.989,17.989,0,0,0,32,25.989ZM65.343,24.7H57.674a41.584,41.584,0,0,0-.5-5.362,17.912,17.912,0,0,0,4.777-3.068,15.332,15.332,0,0,1,3.395,8.43Zm-3.395,11a17.912,17.912,0,0,0-4.777-3.068,41.585,41.585,0,0,0,.5-5.362h7.668a15.332,15.332,0,0,1-3.395,8.43Zm-27.312-8.43H42.3a41.583,41.583,0,0,0,.5,5.362A17.912,17.912,0,0,0,38.03,35.7,15.332,15.332,0,0,1,34.635,27.274Zm20.468,0a38.6,38.6,0,0,1-.385,4.5,17.75,17.75,0,0,0-9.465,0,38.606,38.606,0,0,1-.385-4.5ZM44.875,24.7a38.6,38.6,0,0,1,.385-4.5,17.75,17.75,0,0,0,9.465,0,38.6,38.6,0,0,1,.385,4.5ZM43.333,35.221a20.279,20.279,0,0,0,2.1,5.5,15.386,15.386,0,0,1-5.618-3.167,15.419,15.419,0,0,1,3.512-2.332Zm2.4-.923a15.427,15.427,0,0,1,8.522,0c-1.05,4.52-2.84,7.11-4.262,7.11s-3.212-2.589-4.261-7.11Zm10.922.923a15.419,15.419,0,0,1,3.507,2.332,15.386,15.386,0,0,1-5.616,3.171,20.279,20.279,0,0,0,2.1-5.5Zm0-18.464a20.279,20.279,0,0,0-2.1-5.5,15.386,15.386,0,0,1,5.611,3.167,15.419,15.419,0,0,1-3.512,2.332Zm-2.4.923a15.427,15.427,0,0,1-8.522,0c1.043-4.52,2.833-7.11,4.256-7.11s3.212,2.589,4.261,7.11Zm-10.922-.923a15.419,15.419,0,0,1-3.513-2.332,15.386,15.386,0,0,1,5.616-3.171,20.279,20.279,0,0,0-2.1,5.5Zm-.524,2.585a41.581,41.581,0,0,0-.5,5.362H34.635a15.332,15.332,0,0,1,3.395-8.43,17.912,17.912,0,0,0,4.777,3.068Z" transform="translate(8.548 1.71)"/>
      <path id="Trazado_1078561" data-name="Trazado 1078561" d="M58.231,11.9a1.285,1.285,0,0,0,1.817,0L63.9,8.048a1.285,1.285,0,0,0,0-1.817L60.048,2.376a1.285,1.285,0,0,0-1.817,0L54.376,6.231a1.285,1.285,0,0,0,0,1.817Zm.908-6.8L61.178,7.14,59.14,9.178,57.1,7.14Z" transform="translate(14.816)"/>
      <path id="Trazado_1078562" data-name="Trazado 1078562" d="M34.231,43.9a1.285,1.285,0,0,0,1.817,0L39.9,40.048a1.285,1.285,0,0,0,0-1.817l-3.855-3.855a1.285,1.285,0,0,0-1.817,0l-3.855,3.855a1.285,1.285,0,0,0,0,1.817Zm.908-6.8,2.038,2.038L35.14,41.178,33.1,39.14Z" transform="translate(7.978 9.118)"/>
      <path id="Trazado_1078563" data-name="Trazado 1078563" d="M60.048,32.376a1.285,1.285,0,0,0-1.817,0l-3.855,3.855a1.285,1.285,0,0,0,0,1.817L58.231,41.9a1.285,1.285,0,0,0,1.817,0L63.9,38.048a1.285,1.285,0,0,0,0-1.817Zm-.908,6.8L57.1,37.14,59.14,35.1l2.038,2.038Z" transform="translate(14.816 8.548)"/>
      <path id="Trazado_1078564" data-name="Trazado 1078564" d="M34.231,13.9a1.285,1.285,0,0,0,1.817,0L39.9,10.048a1.285,1.285,0,0,0,0-1.817L36.048,4.376a1.285,1.285,0,0,0-1.817,0L30.376,8.231a1.285,1.285,0,0,0,0,1.817Zm.908-6.8L37.178,9.14,35.14,11.178,33.1,9.14Z" transform="translate(7.978 0.57)"/>
    </g>
  </g>
</svg>
