<svg xmlns="http://www.w3.org/2000/svg" xmlns:xlink="http://www.w3.org/1999/xlink" width="108" height="108" viewBox="0 0 108 108">
  <defs>
    <filter id="Fondo" x="0" y="0" width="108" height="108" filterUnits="userSpaceOnUse">
      <feOffset dy="3" input="SourceAlpha"/>
      <feGaussianBlur stdDeviation="3" result="blur"/>
      <feFlood flood-opacity="0.161"/>
      <feComposite operator="in" in2="blur"/>
      <feComposite in="SourceGraphic"/>
    </filter>
  </defs>
  <g id="Grupo_1210004" data-name="Grupo 1210004" transform="translate(-194.101 -295)">
    <g id="Grupo_1143757" data-name="Grupo 1143757" transform="translate(-2.899 -51.544)">
      <g transform="matrix(1, 0, 0, 1, 197, 346.54)" filter="url(#Fondo)">
        <g id="Fondo-2" data-name="Fondo" transform="translate(9 6)" fill="#fef8e9">
          <path d="M 44.99994277954102 88.49989318847656 C 39.1268310546875 88.49989318847656 33.43019104003906 87.34996795654297 28.06826782226562 85.08206939697266 C 22.88850593566895 82.89120483398438 18.23629188537598 79.75449371337891 14.24084281921387 75.75904083251953 C 10.24540519714355 71.76360321044922 7.108680248260498 67.11138153076172 4.917830467224121 61.93161773681641 C 2.649930238723755 56.56969451904297 1.50000524520874 50.87305450439453 1.50000524520874 44.99994277954102 C 1.50000524520874 39.1268310546875 2.649930238723755 33.43019104003906 4.917830467224121 28.06826782226562 C 7.108680248260498 22.88850593566895 10.24540519714355 18.23629188537598 14.24084281921387 14.24084281921387 C 18.23629188537598 10.24540519714355 22.88850593566895 7.108680248260498 28.06826782226562 4.917830467224121 C 33.43019104003906 2.649930238723755 39.1268310546875 1.50000524520874 44.99994277954102 1.50000524520874 C 50.87305450439453 1.50000524520874 56.56969451904297 2.649930238723755 61.93161773681641 4.917830467224121 C 67.11138153076172 7.108680248260498 71.76360321044922 10.24540519714355 75.75904083251953 14.24084281921387 C 79.75449371337891 18.23629188537598 82.89120483398438 22.88850593566895 85.08206939697266 28.06826782226562 C 87.34996795654297 33.43019104003906 88.49989318847656 39.1268310546875 88.49989318847656 44.99994277954102 C 88.49989318847656 50.87305450439453 87.34996795654297 56.56969451904297 85.08206939697266 61.93161773681641 C 82.89120483398438 67.11138153076172 79.75449371337891 71.76360321044922 75.75904083251953 75.75904083251953 C 71.76360321044922 79.75449371337891 67.11138153076172 82.89120483398438 61.93161773681641 85.08206939697266 C 56.56969451904297 87.34996795654297 50.87305450439453 88.49989318847656 44.99994277954102 88.49989318847656 Z" stroke="none"/>
          <path d="M 44.99994277954102 3 C 39.32865524291992 3 33.82861328125 4.110054016113281 28.65258407592773 6.299331665039062 C 23.65162658691406 8.414558410644531 19.15966796875 11.44332885742188 15.30149841308594 15.30149841308594 C 11.44332885742188 19.15966796875 8.414558410644531 23.65162658691406 6.299331665039062 28.65258407592773 C 4.110054016113281 33.82861328125 3 39.32865524291992 3 44.99994277954102 C 3 50.67121505737305 4.110054016113281 56.17125701904297 6.299331665039062 61.34728622436523 C 8.414558410644531 66.34825897216797 11.44332885742188 70.8402099609375 15.30149841308594 74.69838714599609 C 19.15966796875 78.55655670166016 23.65162658691406 81.5853271484375 28.65258407592773 83.70055389404297 C 33.82861328125 85.88983154296875 39.32867050170898 86.99988555908203 44.99994277954102 86.99988555908203 C 50.67121505737305 86.99988555908203 56.17125701904297 85.88983154296875 61.34728622436523 83.70055389404297 C 66.34825897216797 81.5853271484375 70.8402099609375 78.55655670166016 74.69838714599609 74.69838714599609 C 78.55655670166016 70.8402099609375 81.5853271484375 66.34825897216797 83.70055389404297 61.34728622436523 C 85.88983154296875 56.17125701904297 86.99988555908203 50.67121505737305 86.99988555908203 44.99994277954102 C 86.99988555908203 39.32867050170898 85.88983154296875 33.82861328125 83.70055389404297 28.65258407592773 C 81.5853271484375 23.65162658691406 78.55655670166016 19.15966796875 74.69838714599609 15.30149841308594 C 70.8402099609375 11.44332885742188 66.34825897216797 8.414558410644531 61.34728622436523 6.299331665039062 C 56.17125701904297 4.110054016113281 50.67121505737305 3 44.99994277954102 3 M 44.99994277954102 0 C 69.85271453857422 0 89.99988555908203 20.14715576171875 89.99988555908203 44.99994277954102 C 89.99988555908203 69.85271453857422 69.85271453857422 89.99988555908203 44.99994277954102 89.99988555908203 C 20.14715576171875 89.99988555908203 0 69.85271453857422 0 44.99994277954102 C 0 20.14715576171875 20.14715576171875 0 44.99994277954102 0 Z" stroke="none" fill="#f5c038"/>
        </g>
      </g>
    </g>
    <g id="_x31__1_" transform="translate(208.826 314)">
      <g id="Grupo_1210003" data-name="Grupo 1210003" transform="translate(5.22 3.25)">
        <path id="Trazado_1078290" data-name="Trazado 1078290" d="M72.5,59c0-8.75-5-15-7.5-17.5A22.852,22.852,0,0,0,47.5,34l-8.75,5L30,34a22.852,22.852,0,0,0-17.5,7.5C10,44,5,50.25,5,59Z" transform="translate(-4.97 4.75)" fill="#c8a9f1"/>
        <path id="Trazado_1078291" data-name="Trazado 1078291" d="M33.256,35.865a3.729,3.729,0,0,1-3.25,1.887A19.4,19.4,0,0,0,15.031,44.29,21.664,21.664,0,0,0,8.793,57.94l-.025.75a2.511,2.511,0,0,0,1.675,2.675,9.155,9.155,0,0,0,2.35.138h7.212a1.875,1.875,0,1,1,0,3.75H12.793c-5.937.55-8.687-3.812-7.575-9.312C6.893,44.04,17.718,33.6,30.006,34Z" transform="translate(-4.976 4.748)" fill="#b18ae3"/>
        <path id="Trazado_1078292" data-name="Trazado 1078292" d="M18.5,25.75h5V17h-5A2.5,2.5,0,0,0,16,19.5v3.75A2.5,2.5,0,0,0,18.5,25.75Z" transform="translate(-2.22 0.5)" fill="#c8a9f1"/>
        <path id="Trazado_1078293" data-name="Trazado 1078293" d="M47,25.75H42V17h5a2.5,2.5,0,0,1,2.5,2.5v3.75A2.5,2.5,0,0,1,47,25.75Z" transform="translate(4.28 0.5)" fill="#c8a9f1"/>
        <path id="Trazado_1078294" data-name="Trazado 1078294" d="M34.5,7A12.5,12.5,0,0,0,22,19.5V27a11.231,11.231,0,0,0,5.234,9.495c-.019-.013-.04-.02-.059-.033L25.75,40.75l8.75,5,8.75-5-1.425-4.287c-.019.013-.04.02-.059.033A11.231,11.231,0,0,0,47,27V19.5A12.5,12.5,0,0,0,34.5,7Z" transform="translate(-0.72 -2)" fill="#ffdbce"/>
        <path id="Trazado_1078295" data-name="Trazado 1078295" d="M36.389,8.884a1.872,1.872,0,0,1-1.875,1.875,8.881,8.881,0,0,0-8.75,9.512v1.2c.038,1.837-.087,5.262.087,6.637a7.516,7.516,0,0,0,3.362,5.212,3.757,3.757,0,0,1,1.525,4.337s-1.412,4.275-1.412,4.287a3.311,3.311,0,0,1-.312.675l-3.25-1.863c0-.012,1.412-4.25,1.412-4.287-4.412-2.675-5.55-7.787-5.162-12.612-.213-4.737.012-9.95,3.825-13.337,1.6-2.025,10.187-5.9,10.55-1.637Z" transform="translate(-0.734 -2.009)" fill="#fecabd"/>
        <path id="Trazado_1078296" data-name="Trazado 1078296" d="M47,19.5H35.75a5,5,0,0,1-5-5,5,5,0,0,1-5,5H22a12.5,12.5,0,0,1,25,0Z" transform="translate(-0.72 -2)" fill="#696eb1"/>
        <path id="Trazado_1078297" data-name="Trazado 1078297" d="M36.372,8.884A1.872,1.872,0,0,1,34.5,10.759a8.88,8.88,0,0,0-8.775,8.75H22.01c.238-3.362,1.15-6.625,3.812-8.987C27.422,8.5,36.01,4.622,36.372,8.884Z" transform="translate(-0.718 -2.009)" fill="#4c5698"/>
        <path id="Trazado_1078298" data-name="Trazado 1078298" d="M52,65.75H19.5a2.5,2.5,0,0,1-2.5-2.5V44.5A2.5,2.5,0,0,1,19.5,42H52a2.5,2.5,0,0,1,2.5,2.5V63.25A2.5,2.5,0,0,1,52,65.75Z" transform="translate(-1.97 6.75)" fill="#696eb1"/>
        <path id="Trazado_1078299" data-name="Trazado 1078299" d="M20.75,62V42H19.5A2.5,2.5,0,0,0,17,44.5V63.25a2.5,2.5,0,0,0,2.5,2.5H52a2.5,2.5,0,0,0,2.5-2.5V62Z" transform="translate(-1.97 6.75)" fill="#4c5698"/>
        <path id="Trazado_1078300" data-name="Trazado 1078300" d="M47,61.5h8.75a6.25,6.25,0,0,0,0-12.5H47Z" transform="translate(5.53 8.5)" fill="#ffdbce"/>
        <path id="Trazado_1078301" data-name="Trazado 1078301" d="M20,61.5H11.25a6.25,6.25,0,0,1,0-12.5H20Z" transform="translate(-4.97 8.5)" fill="#ffdbce"/>
        <path id="Trazado_1078302" data-name="Trazado 1078302" d="M11.25,61.46H20V57.71H12.787a9.155,9.155,0,0,1-2.35-.138A2.51,2.51,0,0,1,8.762,54.9l.025-.75a19.167,19.167,0,0,1,.967-4.987,6.24,6.24,0,0,0,1.495,12.3Z" transform="translate(-4.97 8.54)" fill="#fecabd"/>
        <circle id="Elipse_12561" data-name="Elipse 12561" cx="4.375" cy="4.375" r="4.375" transform="translate(29.405 56.25)" fill="#fbe29f"/>
        <circle id="Elipse_12562" data-name="Elipse 12562" cx="4.375" cy="4.375" r="4.375" transform="translate(29.405 56.25)" fill="#fbe29f"/>
        <path id="Trazado_1078303" data-name="Trazado 1078303" d="M29.781,55.331a4.376,4.376,0,0,1,0-6.187l.051-.05a1.876,1.876,0,0,1,2.644,2.661l-.042.041a.63.63,0,0,0,0,.884,1.876,1.876,0,0,1-2.559,2.744l-.036-.035Z" transform="translate(0.905 8.387)" fill="#ffcd71"/>
        <path id="Trazado_1078304" data-name="Trazado 1078304" d="M53,20.5H48a12.5,12.5,0,1,0-25,0H18a17.5,17.5,0,1,1,35,0Z" transform="translate(-1.72 -3)" fill="#c8a9f1"/>
      </g>
      <path id="_x31_" d="M41.5,27V25.75a1.25,1.25,0,1,1,2.5,0V27a1.25,1.25,0,0,1-2.5,0ZM74,67a7.508,7.508,0,0,1-7.5,7.5H58.77A3.745,3.745,0,0,1,55.25,77H22.75a3.745,3.745,0,0,1-3.52-2.5H11.5A7.508,7.508,0,0,1,4,67c0-9.492,5.5-16.019,7.866-18.384A24.071,24.071,0,0,1,29.34,40.779L30.2,38.19a12.525,12.525,0,0,1-4.681-7.44H21.5A3.755,3.755,0,0,1,17.75,27V23.25A3.743,3.743,0,0,1,20.3,19.714a18.725,18.725,0,0,1,37.395,0A3.743,3.743,0,0,1,60.25,23.25V27a3.755,3.755,0,0,1-3.75,3.75H52.479A12.51,12.51,0,0,1,47.8,38.19l.862,2.589a24.071,24.071,0,0,1,17.474,7.837C68.5,50.981,74,57.507,74,67ZM56.5,22H52.75v6.25H56.5A1.252,1.252,0,0,0,57.75,27V23.25A1.252,1.252,0,0,0,56.5,22ZM22.814,19.5h2.5a13.743,13.743,0,0,1,27.372,0h2.5a16.233,16.233,0,0,0-32.372,0ZM39,9.5a11.264,11.264,0,0,0-11.176,10H30.25A3.755,3.755,0,0,0,34,15.75a1.25,1.25,0,0,1,2.5,0,3.755,3.755,0,0,0,3.75,3.75h9.926A11.264,11.264,0,0,0,39,9.5ZM25.25,28.25V22H21.5a1.252,1.252,0,0,0-1.25,1.25V27a1.252,1.252,0,0,0,1.25,1.25Zm12.5,10h2.5a10.012,10.012,0,0,0,10-10V22h-10a6.246,6.246,0,0,1-5-2.5,6.246,6.246,0,0,1-5,2.5h-2.5v6.25A10.012,10.012,0,0,0,37.75,38.25Zm7.857,1.276A12.4,12.4,0,0,1,40.25,40.75h-2.5a12.4,12.4,0,0,1-5.357-1.224l-.632,1.9L39,45.56l7.24-4.137ZM7.435,60.706A7.448,7.448,0,0,1,11.5,59.5H19v-5a3.755,3.755,0,0,1,3.75-3.75h32.5A3.755,3.755,0,0,1,59,54.5v5h7.5a7.448,7.448,0,0,1,4.065,1.206,25.292,25.292,0,0,0-6.2-10.322,21.508,21.508,0,0,0-16.287-7.132L39.62,48.085a1.247,1.247,0,0,1-1.24,0l-8.459-4.834a21.5,21.5,0,0,0-16.287,7.132,25.292,25.292,0,0,0-6.2,10.322ZM11.5,72H19V62H11.5a5,5,0,1,0,0,10Zm45,1.25V54.5a1.252,1.252,0,0,0-1.25-1.25H22.75A1.252,1.252,0,0,0,21.5,54.5V73.25a1.252,1.252,0,0,0,1.25,1.25h32.5A1.252,1.252,0,0,0,56.5,73.25ZM71.5,67a5.005,5.005,0,0,0-5-5H59V72h7.5A5.005,5.005,0,0,0,71.5,67ZM44.625,63.875A5.625,5.625,0,1,1,39,58.25,5.632,5.632,0,0,1,44.625,63.875Zm-2.5,0A3.125,3.125,0,1,0,39,67,3.129,3.129,0,0,0,42.125,63.875ZM35.25,28.25A1.25,1.25,0,0,0,36.5,27V25.75a1.25,1.25,0,1,0-2.5,0V27A1.25,1.25,0,0,0,35.25,28.25Z"/>
    </g>
  </g>
</svg>
