<svg xmlns="http://www.w3.org/2000/svg" xmlns:xlink="http://www.w3.org/1999/xlink" width="108" height="108" viewBox="0 0 108 108">
  <defs>
    <filter id="Trazado_978624" x="0" y="0" width="108" height="108" filterUnits="userSpaceOnUse">
      <feOffset dy="3" input="SourceAlpha"/>
      <feGaussianBlur stdDeviation="3" result="blur"/>
      <feFlood flood-opacity="0.161"/>
      <feComposite operator="in" in2="blur"/>
      <feComposite in="SourceGraphic"/>
    </filter>
    <filter id="Trazado_1076716" x="0" y="0" width="108" height="108" filterUnits="userSpaceOnUse">
      <feOffset dy="3" input="SourceAlpha"/>
      <feGaussianBlur stdDeviation="3" result="blur-2"/>
      <feFlood flood-opacity="0.161"/>
      <feComposite operator="in" in2="blur-2"/>
      <feComposite in="SourceGraphic"/>
    </filter>
  </defs>
  <g id="Grupo_1210203" data-name="Grupo 1210203" transform="translate(-195.5 -5842.945)">
    <g id="Grupo_1209414" data-name="Grupo 1209414" transform="translate(204.5 5848.945)">
      <g id="Grupo_1208075" data-name="Grupo 1208075" transform="translate(0)">
        <g id="Grupo_1181203" data-name="Grupo 1181203">
          <g id="Grupo_1172348" data-name="Grupo 1172348">
            <g id="Grupo_1171897" data-name="Grupo 1171897">
              <g id="Grupo_1171052" data-name="Grupo 1171052">
                <g id="Grupo_1164581" data-name="Grupo 1164581">
                  <g id="Grupo_1144123" data-name="Grupo 1144123">
                    <g transform="matrix(1, 0, 0, 1, -9, -6)" filter="url(#Trazado_978624)">
                      <g id="Trazado_978624-2" data-name="Trazado 978624" transform="translate(9 6)" fill="#f5f7fb">
                        <path d="M 45 88.5 C 39.12687683105469 88.5 33.43022537231445 87.35007476806641 28.06830024719238 85.08217620849609 C 22.88852500915527 82.89131164550781 18.23629951477051 79.75458526611328 14.2408504486084 75.75914764404297 C 10.24541282653809 71.76370239257812 7.108687400817871 67.11147308349609 4.917825222015381 61.93170166015625 C 2.649924993515015 56.56977462768555 1.5 50.87312316894531 1.5 45 C 1.5 39.12687683105469 2.649924993515015 33.43022537231445 4.917825222015381 28.06830024719238 C 7.108687400817871 22.88852500915527 10.24541282653809 18.23629951477051 14.2408504486084 14.2408504486084 C 18.23629951477051 10.24541282653809 22.88852500915527 7.108687400817871 28.06830024719238 4.917825222015381 C 33.43022537231445 2.649924993515015 39.12687683105469 1.5 45 1.5 C 50.87312316894531 1.5 56.56977462768555 2.649924993515015 61.93170166015625 4.917825222015381 C 67.11147308349609 7.108687400817871 71.76370239257812 10.24541282653809 75.75914764404297 14.2408504486084 C 79.75458526611328 18.23629951477051 82.89131164550781 22.88852500915527 85.08217620849609 28.06830024719238 C 87.35007476806641 33.43022537231445 88.5 39.12687683105469 88.5 45 C 88.5 50.87312316894531 87.35007476806641 56.56977462768555 85.08217620849609 61.93170166015625 C 82.89131164550781 67.11147308349609 79.75458526611328 71.76370239257812 75.75914764404297 75.75914764404297 C 71.76370239257812 79.75458526611328 67.11147308349609 82.89131164550781 61.93170166015625 85.08217620849609 C 56.56977462768555 87.35007476806641 50.87312316894531 88.5 45 88.5 Z" stroke="none"/>
                        <path d="M 45 3 C 39.32871246337891 3 33.82865524291992 4.110054016113281 28.65262985229492 6.299339294433594 C 23.65165710449219 8.414573669433594 19.15968322753906 11.44334411621094 15.301513671875 15.301513671875 C 11.44334411621094 19.15968322753906 8.414573669433594 23.65165710449219 6.299339294433594 28.65262985229492 C 4.110054016113281 33.82865524291992 3 39.32871246337891 3 45 C 3 50.67128753662109 4.110054016113281 56.17134475708008 6.299339294433594 61.34737396240234 C 8.414573669433594 66.34834289550781 11.44334411621094 70.84031677246094 15.301513671875 74.698486328125 C 19.15968322753906 78.55665588378906 23.65165710449219 81.58542633056641 28.65262985229492 83.70066070556641 C 33.82865524291992 85.88994598388672 39.32871246337891 87 45 87 C 50.67128753662109 87 56.17134475708008 85.88994598388672 61.34737396240234 83.70066070556641 C 66.34834289550781 81.58542633056641 70.84031677246094 78.55665588378906 74.698486328125 74.698486328125 C 78.55665588378906 70.84031677246094 81.58542633056641 66.34834289550781 83.70066070556641 61.34737396240234 C 85.88994598388672 56.17134475708008 87 50.67128753662109 87 45 C 87 39.32871246337891 85.88994598388672 33.82865524291992 83.70066070556641 28.65262985229492 C 81.58542633056641 23.65165710449219 78.55665588378906 19.15968322753906 74.698486328125 15.301513671875 C 70.84031677246094 11.44334411621094 66.34834289550781 8.414573669433594 61.34737396240234 6.299339294433594 C 56.17134475708008 4.110054016113281 50.67128753662109 3 45 3 M 45 0 C 69.85281372070312 0 90 20.14718627929688 90 45 C 90 69.85281372070312 69.85281372070312 90 45 90 C 20.14718627929688 90 0 69.85281372070312 0 45 C 0 20.14718627929688 20.14718627929688 0 45 0 Z" stroke="none" fill="#a1bada"/>
                      </g>
                    </g>
                    <g transform="matrix(1, 0, 0, 1, -9, -6)" filter="url(#Trazado_1076716)">
                      <g id="Trazado_1076716-2" data-name="Trazado 1076716" transform="translate(9 6)" fill="#f5f7fb">
                        <path d="M 45 88.5 C 39.12687683105469 88.5 33.43022537231445 87.35007476806641 28.06830024719238 85.08217620849609 C 22.88852500915527 82.89131164550781 18.23629951477051 79.75458526611328 14.2408504486084 75.75914764404297 C 10.24541282653809 71.76370239257812 7.108687400817871 67.11147308349609 4.917825222015381 61.93170166015625 C 2.649924993515015 56.56977462768555 1.5 50.87312316894531 1.5 45 C 1.5 39.12687683105469 2.649924993515015 33.43022537231445 4.917825222015381 28.06830024719238 C 7.108687400817871 22.88852500915527 10.24541282653809 18.23629951477051 14.2408504486084 14.2408504486084 C 18.23629951477051 10.24541282653809 22.88852500915527 7.108687400817871 28.06830024719238 4.917825222015381 C 33.43022537231445 2.649924993515015 39.12687683105469 1.5 45 1.5 C 50.87312316894531 1.5 56.56977462768555 2.649924993515015 61.93170166015625 4.917825222015381 C 67.11147308349609 7.108687400817871 71.76370239257812 10.24541282653809 75.75914764404297 14.2408504486084 C 79.75458526611328 18.23629951477051 82.89131164550781 22.88852500915527 85.08217620849609 28.06830024719238 C 87.35007476806641 33.43022537231445 88.5 39.12687683105469 88.5 45 C 88.5 50.87312316894531 87.35007476806641 56.56977462768555 85.08217620849609 61.93170166015625 C 82.89131164550781 67.11147308349609 79.75458526611328 71.76370239257812 75.75914764404297 75.75914764404297 C 71.76370239257812 79.75458526611328 67.11147308349609 82.89131164550781 61.93170166015625 85.08217620849609 C 56.56977462768555 87.35007476806641 50.87312316894531 88.5 45 88.5 Z" stroke="none"/>
                        <path d="M 45 3 C 39.32871246337891 3 33.82865524291992 4.110054016113281 28.65262985229492 6.299339294433594 C 23.65165710449219 8.414573669433594 19.15968322753906 11.44334411621094 15.301513671875 15.301513671875 C 11.44334411621094 19.15968322753906 8.414573669433594 23.65165710449219 6.299339294433594 28.65262985229492 C 4.110054016113281 33.82865524291992 3 39.32871246337891 3 45 C 3 50.67128753662109 4.110054016113281 56.17134475708008 6.299339294433594 61.34737396240234 C 8.414573669433594 66.34834289550781 11.44334411621094 70.84031677246094 15.301513671875 74.698486328125 C 19.15968322753906 78.55665588378906 23.65165710449219 81.58542633056641 28.65262985229492 83.70066070556641 C 33.82865524291992 85.88994598388672 39.32871246337891 87 45 87 C 50.67128753662109 87 56.17134475708008 85.88994598388672 61.34737396240234 83.70066070556641 C 66.34834289550781 81.58542633056641 70.84031677246094 78.55665588378906 74.698486328125 74.698486328125 C 78.55665588378906 70.84031677246094 81.58542633056641 66.34834289550781 83.70066070556641 61.34737396240234 C 85.88994598388672 56.17134475708008 87 50.67128753662109 87 45 C 87 39.32871246337891 85.88994598388672 33.82865524291992 83.70066070556641 28.65262985229492 C 81.58542633056641 23.65165710449219 78.55665588378906 19.15968322753906 74.698486328125 15.301513671875 C 70.84031677246094 11.44334411621094 66.34834289550781 8.414573669433594 61.34737396240234 6.299339294433594 C 56.17134475708008 4.110054016113281 50.67128753662109 3 45 3 M 45 0 C 69.85281372070312 0 90 20.14718627929688 90 45 C 90 69.85281372070312 69.85281372070312 90 45 90 C 20.14718627929688 90 0 69.85281372070312 0 45 C 0 20.14718627929688 20.14718627929688 0 45 0 Z" stroke="none" fill="#a1bada"/>
                      </g>
                    </g>
                  </g>
                </g>
              </g>
            </g>
          </g>
        </g>
      </g>
    </g>
    <g id="gafas-de-realidad-virtual" transform="translate(205.276 5863.171)">
      <g id="Grupo_1210201" data-name="Grupo 1210201" transform="translate(16.19 0.902)">
        <path id="Trazado_1078783" data-name="Trazado 1078783" d="M382.46,347.67h-1.574a1.887,1.887,0,1,1,0-3.773h1.574a.865.865,0,0,0,.864-.864V331.926a1.887,1.887,0,0,1,3.773,0v11.107A4.642,4.642,0,0,1,382.46,347.67Z" transform="translate(-336.178 -291.265)" fill="#818181"/>
        <path id="Trazado_1078784" data-name="Trazado 1078784" d="M73.529,48.186h-45.4a1.887,1.887,0,0,1-1.849-1.511L23.2,31.5a20.017,20.017,0,0,1,19.617-24H58.84a20.017,20.017,0,0,1,19.617,24l-3.08,15.174a1.886,1.886,0,0,1-1.849,1.511ZM29.667,44.412H71.986L74.759,30.75A16.244,16.244,0,0,0,58.84,11.275H42.814A16.244,16.244,0,0,0,26.894,30.75Z" transform="translate(-22.792 -7.502)" fill="#818181"/>
        <g id="Grupo_1210200" data-name="Grupo 1210200" transform="translate(0)">
          <path id="Trazado_1078785" data-name="Trazado 1078785" d="M335.8,72.027h2.036l2.773-13.662A16.244,16.244,0,0,0,324.689,38.89h-2.036a16.244,16.244,0,0,1,15.919,19.475Z" transform="translate(-286.606 -35.117)" fill="#595959"/>
          <path id="Trazado_1078786" data-name="Trazado 1078786" d="M28.313,46.674,25.233,31.5a20.017,20.017,0,0,1,19.617-24H42.815A20.017,20.017,0,0,0,23.2,31.5l3.08,15.174a1.887,1.887,0,0,0,1.849,1.511h2.036A1.886,1.886,0,0,1,28.313,46.674Z" transform="translate(-22.793 -7.502)" fill="#595959"/>
        </g>
        <path id="Trazado_1078787" data-name="Trazado 1078787" d="M110.22,80.572h-6.59A17.074,17.074,0,0,0,86.556,97.646v14.8h40.738v-14.8A17.074,17.074,0,0,0,110.22,80.572Z" transform="translate(-78.891 -71.788)" fill="#e29375"/>
        <path id="Trazado_1078788" data-name="Trazado 1078788" d="M114.1,81.014a17.084,17.084,0,0,0-13.193,16.632v15.586H86.555V97.646a17.074,17.074,0,0,1,17.074-17.074h6.589a17.14,17.14,0,0,1,3.882.442Z" transform="translate(-78.89 -71.788)" fill="#da8059"/>
        <path id="Trazado_1078789" data-name="Trazado 1078789" d="M161.682,254.179v14.966a14.927,14.927,0,1,1-29.853.187V254.179c0-.041,0,.037,0,0C131.829,254.175,143.38,260.057,161.682,254.179Z" transform="translate(-118.721 -224.514)" fill="#ffeee6"/>
        <path id="Trazado_1078790" data-name="Trazado 1078790" d="M151.2,268.34a14.761,14.761,0,0,1-4.334.683,14.927,14.927,0,0,1-15.04-14.928V238.942s3.209-3.814,8.923-1.148v16.3A14.932,14.932,0,0,0,151.2,268.34Z" transform="translate(-118.721 -209.277)" fill="#ffdfcf"/>
        <path id="Trazado_1078791" data-name="Trazado 1078791" d="M117.655,274.216H82.731a3.827,3.827,0,0,1,0-7.654h34.924a3.827,3.827,0,0,1,0,7.654Z" transform="translate(-72.159 -235.419)" fill="#818181"/>
        <path id="Trazado_1078792" data-name="Trazado 1078792" d="M121.482,286.448a3.826,3.826,0,0,1-3.827,3.827H82.731a3.827,3.827,0,0,1-3.461-5.46,3.827,3.827,0,0,0,3.461,2.192h34.923a3.828,3.828,0,0,0,3.461-2.192A3.794,3.794,0,0,1,121.482,286.448Z" transform="translate(-72.159 -251.478)" fill="#595959"/>
        <path id="Trazado_1078793" data-name="Trazado 1078793" d="M380.164,283.48h6.505a6.509,6.509,0,0,0,0-13.019h-6.505Z" transform="translate(-337.203 -238.849)" fill="#fe646f"/>
        <path id="Trazado_1078794" data-name="Trazado 1078794" d="M36.584,283.48H30.078a6.509,6.509,0,0,1,0-13.019h6.505Z" transform="translate(-23.476 -238.849)" fill="#fe646f"/>
        <path id="Trazado_1078795" data-name="Trazado 1078795" d="M393.176,305.549a6.509,6.509,0,0,1-6.509,6.509h-6.505v-5.21h6.505a6.508,6.508,0,0,0,5.966-3.9A6.471,6.471,0,0,1,393.176,305.549Z" transform="translate(-337.201 -267.428)" fill="#fd4755"/>
        <path id="Trazado_1078796" data-name="Trazado 1078796" d="M36.586,306.847v5.21H30.081a6.51,6.51,0,0,1-5.966-9.114,6.508,6.508,0,0,0,5.966,3.9h6.505Z" transform="translate(-23.478 -267.427)" fill="#fd4755"/>
        <path id="Trazado_1078797" data-name="Trazado 1078797" d="M227.289,80.569h6.9v20.882h-6.9Z" transform="translate(-202.706 -71.785)" fill="#818181"/>
        <path id="Trazado_1078798" data-name="Trazado 1078798" d="M227.289,80.569H229.8v20.882h-2.515Z" transform="translate(-202.706 -71.785)" fill="#595959"/>
        <path id="Trazado_1078799" data-name="Trazado 1078799" d="M144.126,245.569H119.218a4.534,4.534,0,0,1-4.534-4.534v-7.654a4.534,4.534,0,0,1,4.534-4.534h24.908a4.534,4.534,0,0,1,4.534,4.534v7.654A4.534,4.534,0,0,1,144.126,245.569Z" transform="translate(-103.637 -202.238)" fill="#aedeff"/>
        <path id="Trazado_1078800" data-name="Trazado 1078800" d="M125.672,245.564h-6.455a4.534,4.534,0,0,1-4.534-4.534v-7.654a4.534,4.534,0,0,1,4.534-4.534h6.455a4.534,4.534,0,0,0-4.534,4.534v7.654A4.534,4.534,0,0,0,125.672,245.564Z" transform="translate(-103.636 -202.234)" fill="#89c8fd"/>
      </g>
      <g id="Grupo_1210202" data-name="Grupo 1210202" transform="translate(15.288 0)">
        <path id="Trazado_1078801" data-name="Trazado 1078801" d="M72.739,25.08A20.92,20.92,0,0,0,52.238,0H36.211a20.92,20.92,0,0,0-20.5,25.081l1.78,8.767a7.409,7.409,0,0,0,5.3,12.587h5.62A15.828,15.828,0,0,0,44.224,61.549h.121A15.957,15.957,0,0,0,60.027,46.434h2.408v6.2H60.9a2.788,2.788,0,0,0,0,5.577h1.575a5.545,5.545,0,0,0,5.539-5.539V46.05a7.374,7.374,0,0,0,1.53-.715.9.9,0,0,0-.947-1.535,5.592,5.592,0,0,1-2.938.831h-5.6v-.676A5.427,5.427,0,0,0,62.114,39.7V33.415h3.542a5.61,5.61,0,0,1,5,8.14.9.9,0,1,0,1.608.816,7.411,7.411,0,0,0-1.31-8.524ZM66.208,46.413v6.256A3.74,3.74,0,0,1,62.472,56.4H60.9a.985.985,0,0,1,0-1.97h1.575a1.768,1.768,0,0,0,1.766-1.766V46.434h1.418c.185,0,.369-.007.552-.021ZM21.411,8.821A19.045,19.045,0,0,1,36.211,1.8H52.238A19.117,19.117,0,0,1,70.972,24.722l-1.6,7.886a7.315,7.315,0,0,0-1.856-.761l1.526-7.517a17.146,17.146,0,0,0-16.8-20.556H36.211a17.146,17.146,0,0,0-16.8,20.556l1.526,7.517a7.318,7.318,0,0,0-1.856.761l-1.6-7.886a19.045,19.045,0,0,1,3.934-15.9Zm44.245,22.79h-.162V26.76A18,18,0,0,0,47.52,8.784h-6.59a17.99,17.99,0,0,0-11.587,4.233.9.9,0,1,0,1.163,1.378,16.183,16.183,0,0,1,9.367-3.773V26.609h-8.1a5.442,5.442,0,0,0-5.417,5h-1.6V26.76a16.018,16.018,0,0,1,3.384-9.9.9.9,0,1,0-1.425-1.1A17.805,17.805,0,0,0,22.955,26.76v4.852h-.162l-.066,0-1.552-7.642A15.343,15.343,0,0,1,36.211,5.576H52.238A15.343,15.343,0,0,1,67.274,23.971l-1.552,7.642Zm-23.981-5V10.587h5.1V26.609ZM17.185,39.022a5.609,5.609,0,0,1,5.609-5.607h3.542V39.7A5.427,5.427,0,0,0,28.4,43.955v.675h-5.6A5.615,5.615,0,0,1,17.185,39.022ZM44.332,59.745h-.107A14.025,14.025,0,0,1,30.2,45.719v-.18s0,0,0-.007V44.9a5.418,5.418,0,0,0,1.57.232H56.678A5.416,5.416,0,0,0,58.25,44.9v.631A14.158,14.158,0,0,1,44.332,59.745ZM60.311,39.7a3.636,3.636,0,0,1-3.632,3.632H31.771A3.636,3.636,0,0,1,28.138,39.7V32.044a3.636,3.636,0,0,1,3.632-3.632H56.678a3.636,3.636,0,0,1,3.632,3.632Zm-3.632-13.09h-8.1V10.623A16.192,16.192,0,0,1,63.691,26.76v4.852H62.1a5.442,5.442,0,0,0-5.417-5Z" transform="translate(-15.288 0)"/>
        <path id="Trazado_1078802" data-name="Trazado 1078802" d="M220.622,389.655a5.4,5.4,0,0,1-7.632,0,.9.9,0,1,0-1.275,1.275,7.2,7.2,0,0,0,10.182,0,.9.9,0,1,0-1.275-1.275Z" transform="translate(-187.87 -342.581)"/>
        <path id="Trazado_1078803" data-name="Trazado 1078803" d="M139.99,256.065a.9.9,0,0,0-1.14.571l-1.169,3.52-1.229-3.542a.9.9,0,1,0-1.7.591l1.977,5.695a1.033,1.033,0,0,0,.972.686h.007a1.035,1.035,0,0,0,.972-.706l1.886-5.676A.9.9,0,0,0,139.99,256.065Z" transform="translate(-120.343 -225.233)"/>
        <path id="Trazado_1078804" data-name="Trazado 1078804" d="M193.315,258.413a2.449,2.449,0,0,0-2.487-2.4h-1.535a.9.9,0,0,0-.9.9l0,5.772a.9.9,0,0,0,1.8,0v-1.158l1.544,1.754a.9.9,0,0,0,1.354-1.191l-1.291-1.467a2.406,2.406,0,0,0,1.516-2.212Zm-2.487-.6a.6.6,0,1,1,0,1.2l-.627,0c0-.232,0-.956,0-1.2Z" transform="translate(-167.58 -225.235)"/>
      </g>
    </g>
  </g>
</svg>
