<svg xmlns="http://www.w3.org/2000/svg" xmlns:xlink="http://www.w3.org/1999/xlink" width="400" height="278" viewBox="0 0 400 278">
  <defs>
    <clipPath id="clip-path">
      <rect id="Rectángulo_418015" data-name="Rectángulo 418015" width="400" height="278" transform="translate(179.68 720)" fill="#fff" stroke="#707070" stroke-width="1"/>
    </clipPath>
    <clipPath id="clip-path-2">
      <path id="Trazado_1078388" data-name="Trazado 1078388" d="M0,0H369.162V289.207H0Z" fill="none"/>
    </clipPath>
    <clipPath id="clip-path-3">
      <rect id="Rectángulo_418005" data-name="Rectángulo 418005" width="336.544" height="250.151" transform="translate(12.708 35.109)" fill="none"/>
    </clipPath>
    <clipPath id="clip-path-4">
      <rect id="Rectángulo_418006" data-name="Rectángulo 418006" width="329.359" height="210.881" transform="translate(0 30.497)" fill="none"/>
    </clipPath>
    <clipPath id="clip-path-5">
      <rect id="Rectángulo_418007" data-name="Rectángulo 418007" width="10.61" height="10.609" transform="translate(7.403 34.942)" fill="none"/>
    </clipPath>
    <clipPath id="clip-path-6">
      <rect id="Rectángulo_418008" data-name="Rectángulo 418008" width="10.61" height="10.609" transform="translate(7.403 60.111)" fill="none"/>
    </clipPath>
    <clipPath id="clip-path-7">
      <rect id="Rectángulo_418009" data-name="Rectángulo 418009" width="10.61" height="10.609" transform="translate(7.403 85.28)" fill="none"/>
    </clipPath>
    <clipPath id="clip-path-8">
      <rect id="Rectángulo_418010" data-name="Rectángulo 418010" width="10.609" height="10.61" transform="translate(358.553 196.444)" fill="none"/>
    </clipPath>
    <clipPath id="clip-path-9">
      <rect id="Rectángulo_418011" data-name="Rectángulo 418011" width="10.609" height="10.61" transform="translate(358.553 221.613)" fill="none"/>
    </clipPath>
    <clipPath id="clip-path-10">
      <rect id="Rectángulo_418012" data-name="Rectángulo 418012" width="10.609" height="10.61" transform="translate(358.553 246.782)" fill="none"/>
    </clipPath>
    <clipPath id="clip-path-11">
      <rect id="Rectángulo_418013" data-name="Rectángulo 418013" width="84.686" height="29.283" transform="translate(140.566 21.885)" fill="none"/>
    </clipPath>
    <clipPath id="clip-path-12">
      <rect id="Rectángulo_418014" data-name="Rectángulo 418014" width="255.779" height="156.327" transform="translate(52.028 121.395)" fill="none"/>
    </clipPath>
  </defs>
  <g id="Enmascarar_grupo_1098886" data-name="Enmascarar grupo 1098886" transform="translate(-179.68 -720)" clip-path="url(#clip-path)">
    <g id="Grupo_1210040" data-name="Grupo 1210040" transform="translate(4864.68 -647.513)">
      <g id="Grupo_1210038" data-name="Grupo 1210038" transform="translate(-4684.68 1364.306)">
        <g id="Enmascarar_grupo_1098885" data-name="Enmascarar grupo 1098885" clip-path="url(#clip-path-2)">
          <g id="Grupo_1210036" data-name="Grupo 1210036">
            <g id="Grupo_1210039" data-name="Grupo 1210039">
              <g id="Grupo_1210007" data-name="Grupo 1210007" opacity="0.5" style="mix-blend-mode: screen;isolation: isolate">
                <g id="Grupo_1210006" data-name="Grupo 1210006">
                  <g id="Grupo_1210005" data-name="Grupo 1210005" transform="translate(-5.472 -4.067)" clip-path="url(#clip-path-3)">
                    <path id="Trazado_1078305" data-name="Trazado 1078305" d="M52.328,285.26H343.782c9.926-38.748,4.833-79.729-3.321-118.891-5.067-24.339-11.5-48.926-25.006-69.8s-35.25-37.738-60.032-39.723c-19.927-1.6-39.8,6.356-59.666,4.135-23.029-2.575-42.521-18.333-65.04-23.8-28-6.794-58.579,3.647-79.519,23.434S18.358,108.465,14.4,137s-.5,57.648,5.739,85.774c5.179,23.358,13.32,47.85,32.193,62.486" transform="translate(0 0)" fill="#79bffa"/>
                  </g>
                </g>
              </g>
              <g id="Grupo_1210010" data-name="Grupo 1210010" opacity="0.5" style="mix-blend-mode: screen;isolation: isolate">
                <g id="Grupo_1210009" data-name="Grupo 1210009">
                  <g id="Grupo_1210008" data-name="Grupo 1210008" clip-path="url(#clip-path-4)">
                    <path id="Trazado_1078306" data-name="Trazado 1078306" d="M30.816,146.291a6.632,6.632,0,1,1,6.631-6.632,6.639,6.639,0,0,1-6.631,6.632m0-12.263a5.631,5.631,0,1,0,5.631,5.631,5.637,5.637,0,0,0-5.631-5.631" fill="#79bffa"/>
                    <path id="Trazado_1078307" data-name="Trazado 1078307" d="M18.013,132.449a4.527,4.527,0,1,1,4.527-4.527,4.532,4.532,0,0,1-4.527,4.527m0-8.053a3.526,3.526,0,1,0,3.526,3.526,3.53,3.53,0,0,0-3.526-3.526" fill="#79bffa"/>
                    <path id="Trazado_1078308" data-name="Trazado 1078308" d="M322.558,92.809a5.1,5.1,0,1,1,5.1-5.1,5.106,5.106,0,0,1-5.1,5.1m0-9.2a4.1,4.1,0,1,0,4.1,4.1,4.1,4.1,0,0,0-4.1-4.1" fill="#79bffa"/>
                    <path id="Trazado_1078309" data-name="Trazado 1078309" d="M307.446,70.237a3.271,3.271,0,1,1,3.27-3.271,3.274,3.274,0,0,1-3.27,3.271m0-5.541a2.271,2.271,0,1,0,2.27,2.27,2.273,2.273,0,0,0-2.27-2.27" fill="#79bffa"/>
                    <path id="Trazado_1078310" data-name="Trazado 1078310" d="M72.084,36.348a2.926,2.926,0,1,1,2.926-2.926,2.93,2.93,0,0,1-2.926,2.926m0-4.851a1.925,1.925,0,1,0,1.926,1.925A1.927,1.927,0,0,0,72.084,31.5" fill="#79bffa"/>
                    <path id="Trazado_1078311" data-name="Trazado 1078311" d="M6.6,241.378a6.6,6.6,0,1,1,6.6-6.6,6.611,6.611,0,0,1-6.6,6.6m0-12.208a5.6,5.6,0,1,0,5.6,5.6,5.61,5.61,0,0,0-5.6-5.6" fill="#79bffa"/>
                    <path id="Trazado_1078312" data-name="Trazado 1078312" d="M323.409,160.1a5.951,5.951,0,1,1,5.951-5.95,5.958,5.958,0,0,1-5.951,5.95m0-10.9a4.95,4.95,0,1,0,4.95,4.95,4.955,4.955,0,0,0-4.95-4.95" fill="#79bffa"/>
                  </g>
                </g>
              </g>
              <g id="Grupo_1210013" data-name="Grupo 1210013" opacity="0.5" style="mix-blend-mode: screen;isolation: isolate">
                <g id="Grupo_1210012" data-name="Grupo 1210012">
                  <g id="Grupo_1210011" data-name="Grupo 1210011" clip-path="url(#clip-path-5)">
                    <path id="Trazado_1078313" data-name="Trazado 1078313" d="M18.013,40.247a5.305,5.305,0,1,1-5.305-5.305,5.3,5.3,0,0,1,5.305,5.305" fill="#79bffa"/>
                  </g>
                </g>
              </g>
              <g id="Grupo_1210016" data-name="Grupo 1210016" opacity="0.5" style="mix-blend-mode: screen;isolation: isolate">
                <g id="Grupo_1210015" data-name="Grupo 1210015">
                  <g id="Grupo_1210014" data-name="Grupo 1210014" clip-path="url(#clip-path-6)">
                    <path id="Trazado_1078314" data-name="Trazado 1078314" d="M18.013,65.415a5.305,5.305,0,1,1-5.305-5.305,5.3,5.3,0,0,1,5.305,5.305" fill="#79bffa"/>
                  </g>
                </g>
              </g>
              <g id="Grupo_1210019" data-name="Grupo 1210019" opacity="0.5" style="mix-blend-mode: screen;isolation: isolate">
                <g id="Grupo_1210018" data-name="Grupo 1210018">
                  <g id="Grupo_1210017" data-name="Grupo 1210017" clip-path="url(#clip-path-7)">
                    <path id="Trazado_1078315" data-name="Trazado 1078315" d="M18.013,90.584a5.305,5.305,0,1,1-5.305-5.305,5.3,5.3,0,0,1,5.305,5.305" fill="#79bffa"/>
                  </g>
                </g>
              </g>
              <g id="Grupo_1210022" data-name="Grupo 1210022" opacity="0.5" style="mix-blend-mode: screen;isolation: isolate">
                <g id="Grupo_1210021" data-name="Grupo 1210021">
                  <g id="Grupo_1210020" data-name="Grupo 1210020" clip-path="url(#clip-path-8)">
                    <path id="Trazado_1078316" data-name="Trazado 1078316" d="M369.163,201.749a5.305,5.305,0,1,1-5.306-5.3,5.305,5.305,0,0,1,5.306,5.3" fill="#79bffa"/>
                  </g>
                </g>
              </g>
              <g id="Grupo_1210025" data-name="Grupo 1210025" opacity="0.5" style="mix-blend-mode: screen;isolation: isolate">
                <g id="Grupo_1210024" data-name="Grupo 1210024">
                  <g id="Grupo_1210023" data-name="Grupo 1210023" clip-path="url(#clip-path-9)">
                    <path id="Trazado_1078317" data-name="Trazado 1078317" d="M369.163,226.918a5.305,5.305,0,1,1-5.306-5.3,5.305,5.305,0,0,1,5.306,5.3" fill="#79bffa"/>
                  </g>
                </g>
              </g>
              <g id="Grupo_1210028" data-name="Grupo 1210028" opacity="0.5" style="mix-blend-mode: screen;isolation: isolate">
                <g id="Grupo_1210027" data-name="Grupo 1210027">
                  <g id="Grupo_1210026" data-name="Grupo 1210026" clip-path="url(#clip-path-10)">
                    <path id="Trazado_1078318" data-name="Trazado 1078318" d="M369.163,252.087a5.305,5.305,0,1,1-5.306-5.305,5.305,5.305,0,0,1,5.306,5.305" fill="#79bffa"/>
                  </g>
                </g>
              </g>
              <path id="Trazado_1078319" data-name="Trazado 1078319" d="M347.005,196.331c-1.974-5.564-7.3-9.322-12.854-11.335s-11.5-2.632-17.22-4.084c-6.09-1.546-12.713-4.931-14-11.08-1.211-5.772,2.822-11.283,3.6-17.128.84-6.267-2.225-12.575-6.733-17.007s-10.32-7.273-16.139-9.745c-12.363-5.251-25.3-9.2-37.234-15.356s-23.115-14.9-28.955-27a54.692,54.692,0,0,0-12.005-5.177c-4.371-1.318-9.212-1.586-13.424.175a18.85,18.85,0,0,0-8.28,7.264,18.853,18.853,0,0,0-8.279-7.264c-4.212-1.761-9.053-1.493-13.424-.175A54.672,54.672,0,0,0,150.055,83.6c-5.841,12.1-17.016,20.847-28.955,27s-24.872,10.1-37.235,15.356c-5.819,2.472-11.63,5.312-16.138,9.745s-7.573,10.74-6.734,17.007c.783,5.845,4.817,11.356,3.606,17.128-1.29,6.149-7.913,9.534-14,11.08-5.723,1.452-11.67,2.072-17.221,4.084S22.5,190.767,20.522,196.331c-1.607,4.527-.74,9.669,1.477,13.93s5.669,7.754,9.339,10.853c15.07,12.73,34.394,19.72,53.952,22.294s39.442.959,58.948-1.984a77.6,77.6,0,0,0,31.884-13.049,45.074,45.074,0,0,0,7.641-7.183,45.119,45.119,0,0,0,7.642,7.183,77.591,77.591,0,0,0,31.884,13.049c19.505,2.943,39.39,4.558,58.948,1.984s38.882-9.564,53.951-22.294c3.67-3.1,7.123-6.591,9.34-10.853s3.083-9.4,1.477-13.93" fill="#2d2459"/>
              <path id="Trazado_1078320" data-name="Trazado 1078320" d="M151.493,91.583a2.352,2.352,0,0,1-2.394,2.452c-4.435-.086-13.687-1.049-18.7-7.255-2.192-2.713-3.567-6.431-3.371-11.524.195-5.035,1.555-8.579,3.523-11.061,4.76-6,13.028-5.772,16.71-5.317a2.34,2.34,0,0,1,2.04,2.105c1.375,14.49,1.975,25.855,2.192,30.6" fill="#fff"/>
              <path id="Trazado_1078321" data-name="Trazado 1078321" d="M133.257,75.343A24.64,24.64,0,0,1,130.4,86.78c-2.192-2.713-3.567-6.431-3.372-11.524.2-5.035,1.556-8.579,3.523-11.061a24.613,24.613,0,0,1,2.707,11.148" fill="#ff7e6b"/>
              <path id="Trazado_1078322" data-name="Trazado 1078322" d="M236.592,86.78c-3.443,4.268-8.891,6.055-13.4,6.785h-.007a38.42,38.42,0,0,1-5.3.471,2.358,2.358,0,0,1-2.394-2.453c.058-1.208.137-2.835.246-4.839.087-1.6.195-3.444.325-5.491.355-5.461.876-12.406,1.621-20.269a2.337,2.337,0,0,1,2.04-2.1c.709-.087,1.606-.174,2.6-.2.542-.014,1.121-.014,1.729.008A19.722,19.722,0,0,1,231.2,60.21a13.575,13.575,0,0,1,5.244,3.985c1.968,2.482,3.328,6.026,3.523,11.061.2,5.093-1.179,8.811-3.371,11.524" fill="#fff"/>
              <path id="Trazado_1078323" data-name="Trazado 1078323" d="M233.735,75.343a24.626,24.626,0,0,0,2.857,11.437c2.192-2.713,3.567-6.431,3.372-11.524-.2-5.035-1.556-8.579-3.523-11.061a24.612,24.612,0,0,0-2.706,11.148" fill="#ff7e6b"/>
              <path id="Trazado_1078324" data-name="Trazado 1078324" d="M229.918,71.7l-7.025-1.359c.063-.328,6.16-33.189-9.16-51.255-7-8.256-17.621-12.247-31.583-11.9-14.394.369-25.143,4.955-31.95,13.631-13.631,17.372-7.667,45.652-7.6,45.936L135.6,68.269c-.281-1.293-6.72-31.884,8.966-51.877C152.757,5.958,165.339.451,181.967.026c16.246-.432,28.771,4.446,37.242,14.45,17.53,20.7,10.995,55.739,10.709,57.22" fill="#fff"/>
              <path id="Trazado_1078325" data-name="Trazado 1078325" d="M222.9,65.346a.032.032,0,0,0-.007.022,39.029,39.029,0,0,1-.76,7.682,85.037,85.037,0,0,1-1.866,9.115c-.4,1.562-.883,3.183-1.425,4.832a67.054,67.054,0,0,1-2.525,6.475,50.155,50.155,0,0,1-8.529,13.267,40.321,40.321,0,0,1-3.421,3.327,32.249,32.249,0,0,1-6.048,4.1,31.569,31.569,0,0,1-29.16,0,32.249,32.249,0,0,1-6.048-4.1,40.232,40.232,0,0,1-3.414-3.327,50.423,50.423,0,0,1-8.695-13.622,71.815,71.815,0,0,1-3.791-10.952,84.79,84.79,0,0,1-1.866-9.115,39.566,39.566,0,0,1-.76-7.682v-.022a39.157,39.157,0,0,1,77.743-6.662,38.783,38.783,0,0,1,.572,6.662" fill="#ffb88b"/>
              <path id="Trazado_1078326" data-name="Trazado 1078326" d="M171.712,72.963a3.556,3.556,0,1,1-3.555-3.555,3.555,3.555,0,0,1,3.555,3.555" fill="#243169"/>
              <path id="Trazado_1078327" data-name="Trazado 1078327" d="M200.8,72.963a3.556,3.556,0,1,1-3.555-3.555,3.555,3.555,0,0,1,3.555,3.555" fill="#243169"/>
              <path id="Trazado_1078328" data-name="Trazado 1078328" d="M180.186,67.276a39.838,39.838,0,0,1-1.1,12.776c-.263,1.039-.586,2.076-.908,3.086a8.089,8.089,0,0,0-.488,3.016,3.039,3.039,0,0,0,1.587,2.388,7.448,7.448,0,0,0,3,.9,6.968,6.968,0,0,1-3.171-.585,3.5,3.5,0,0,1-1.97-2.628,7.693,7.693,0,0,1,.409-3.276c.306-1.03.6-2.039.838-3.074a53.179,53.179,0,0,0,1.216-6.24c.3-2.1.465-4.224.58-6.36" fill="#a15644"/>
              <path id="Trazado_1078329" data-name="Trazado 1078329" d="M185.792,89.349a4.338,4.338,0,0,1,.991-.99,4.289,4.289,0,0,1,1.237-.658,2.113,2.113,0,0,1-2.228,1.648" fill="#a15644"/>
              <path id="Trazado_1078330" data-name="Trazado 1078330" d="M171.112,90.672a20.535,20.535,0,0,0,2.624,1.93,20.219,20.219,0,0,0,2.838,1.546,15.445,15.445,0,0,0,6.183,1.46,12.833,12.833,0,0,0,6.174-1.324,17,17,0,0,0,2.8-1.6c.894-.608,1.684-1.358,2.563-2.015-.763.773-1.514,1.584-2.349,2.3a17.173,17.173,0,0,1-2.767,1.814,12.821,12.821,0,0,1-6.435,1.547,15.18,15.18,0,0,1-6.406-1.683,18.283,18.283,0,0,1-5.222-3.976" fill="#a15644"/>
              <path id="Trazado_1078331" data-name="Trazado 1078331" d="M180.523,98.457a8.6,8.6,0,0,1,1.622-.1,8.3,8.3,0,0,1,1.618.161,2.511,2.511,0,0,1-3.24-.061" fill="#a15644"/>
              <path id="Trazado_1078332" data-name="Trazado 1078332" d="M191.446,61.34a7.272,7.272,0,0,1,2.068-1.331,9.564,9.564,0,0,1,2.309-.717,11.179,11.179,0,0,1,4.878.26,12.333,12.333,0,0,1,2.307.877,11.4,11.4,0,0,1,2.027,1.358,10.7,10.7,0,0,1,2.853,3.708.372.372,0,0,1-.523.483l-.032-.019a24.541,24.541,0,0,0-3.664-2.01,12.6,12.6,0,0,0-3.676-1.031,22.814,22.814,0,0,0-3.78-.139c-1.278.031-2.635.133-4.021.132h-.139a.9.9,0,0,1-.607-1.571" fill="#243169"/>
              <path id="Trazado_1078333" data-name="Trazado 1078333" d="M173.211,62.911c-1.386,0-2.743-.1-4.021-.132a22.7,22.7,0,0,0-3.78.139,12.578,12.578,0,0,0-3.676,1.031,24.541,24.541,0,0,0-3.664,2.01l-.03.018a.372.372,0,0,1-.525-.482,10.716,10.716,0,0,1,2.853-3.709,11.454,11.454,0,0,1,2.027-1.357,12.307,12.307,0,0,1,2.307-.877,11.179,11.179,0,0,1,4.878-.26,9.564,9.564,0,0,1,2.309.717,7.272,7.272,0,0,1,2.068,1.331.9.9,0,0,1-.6,1.571Z" fill="#243169"/>
              <path id="Trazado_1078334" data-name="Trazado 1078334" d="M220.272,82.165c-.4,1.562-.883,3.183-1.425,4.832a67.054,67.054,0,0,1-2.525,6.475,50.13,50.13,0,0,1-8.529,13.267,13.822,13.822,0,0,1-6.38-11.661c0-.217.007-.434.015-.651a13.853,13.853,0,0,1,13.838-13.195c.268,0,.535.007.8.022a13.962,13.962,0,0,1,4.2.911" fill="#ff9b82"/>
              <path id="Trazado_1078335" data-name="Trazado 1078335" d="M166.075,95.077a13.831,13.831,0,0,1-6.373,11.661c-6.677-7.306-10.41-16.623-12.486-24.574a13.86,13.86,0,0,1,18.859,12.913" fill="#ff9b82"/>
              <path id="Trazado_1078336" data-name="Trazado 1078336" d="M223.6,35a40.924,40.924,0,0,0-13.837-19.743,44.873,44.873,0,0,0-17.134-8.2,47.711,47.711,0,0,0-35.767,5.782c-6.778,4.237-11.6,11.435-14.072,18.937a54.237,54.237,0,0,0-1.236,28.437c.22.936,1.7,7.346,3.1,7.206,3.042-.3,5.631-2.568,7.029-5.287a20.935,20.935,0,0,0,1.88-8.9c.076-2.2.028-4.41.164-6.6.151-.591.308-1.181.477-1.767.766-2.658,1.878-5.426,4.172-6.97a8.772,8.772,0,0,1,7.859-.571,19.851,19.851,0,0,1,6.665,4.646,67.609,67.609,0,0,0,5.954,5.607,21.063,21.063,0,0,0,28.164-2.4A16.909,16.909,0,0,1,208,50.507c.1,6.763,1.7,19.083,10.967,18.244.866-.078,2.387-.054,3.1-.6,1.28-.985.939-3.293,1.149-4.722,1.141-7.761,3.048-15.75,1.6-23.6A39.138,39.138,0,0,0,223.6,35" fill="#2d2459"/>
              <g id="Grupo_1210031" data-name="Grupo 1210031" opacity="0.5" style="mix-blend-mode: screen;isolation: isolate">
                <g id="Grupo_1210030" data-name="Grupo 1210030">
                  <g id="Grupo_1210029" data-name="Grupo 1210029" clip-path="url(#clip-path-11)">
                    <path id="Trazado_1078337" data-name="Trazado 1078337" d="M223.6,35a40.764,40.764,0,0,0-7.1-13.112c-2.512.258-5.047.408-7.614.428-11.639.089-23.278-.46-34.929-.292-8.895.128-17.79.329-26.686.42a39.753,39.753,0,0,0-4.483,9.328,51.613,51.613,0,0,0-2.223,10.37c2.914.654,5.86,1.184,8.806,1.741,1.615.305,3.219.65,4.82,1.009l.009-.032c.766-2.658,1.878-5.426,4.172-6.97a8.772,8.772,0,0,1,7.859-.571,19.851,19.851,0,0,1,6.665,4.646,67.609,67.609,0,0,0,5.954,5.607,20.947,20.947,0,0,0,5.571,3.005,113.743,113.743,0,0,0,12.494.588,21.38,21.38,0,0,0,10.1-6,17.072,17.072,0,0,1,.968,5.043,58.807,58.807,0,0,0,17.269-6.786,31.151,31.151,0,0,0-.437-3.6A39.138,39.138,0,0,0,223.6,35" fill="#2d2459"/>
                  </g>
                </g>
              </g>
              <path id="Trazado_1078338" data-name="Trazado 1078338" d="M212.792,137.374l-7.559,10.034-21.211,28.154h-1.128l-20.877-28.285-7.314-9.9c6.909-1.411,10.714-9.245,12.7-15.676a56.988,56.988,0,0,0,1.765-7.53c.13-.818.188-1.295.188-1.295h28.784s.058.477.188,1.295c.159.983.434,2.466.854,4.224.246,1.02.549,2.141.9,3.3,2,6.438,5.794,14.272,12.71,15.683" fill="#ffb88b"/>
              <path id="Trazado_1078339" data-name="Trazado 1078339" d="M199.5,119.68a31.562,31.562,0,0,1-31.518,0c.615-2.315.983-4.3,1.179-5.52a31.558,31.558,0,0,0,29.16,0c.195,1.216.564,3.2,1.179,5.52" fill="#ff9b82"/>
              <path id="Trazado_1078340" data-name="Trazado 1078340" d="M320.091,256.814c-1.969,14.526-11.82,24.378-11.82,24.378H59.075s-9.853-9.852-11.82-24.378,18.222-56.15,39.4-84.471c19.836-26.527,39.454-29.934,41.863-30.26a14.231,14.231,0,0,1-.781-6.633,18.837,18.837,0,0,1,.694-3.429v-.007a21.5,21.5,0,0,1,1.512-3.755A12.976,12.976,0,0,1,135,122.53c2.568-1.382,5.635-1.374,8.558-1.331q5.283.087,10.561.195h.007l4.1.087,9.172.217c-1.982,6.431-5.787,14.265-12.695,15.676l.043.058,28.437,36.148.492.022.492-.022,28.48-36.206s.022-.007.058-.022c-6.858-1.468-10.634-9.252-12.623-15.661q11.707-.282,23.409-.492c2.922-.043,5.989-.051,8.557,1.331a13.019,13.019,0,0,1,5.057,5.729c2.17,4.232,3.118,9.339,1.461,13.752.008.015.008.029.015.043s20.8,1.954,41.913,30.029c.064.086.129.173.2.26q1.214,1.627,2.429,3.313c20.262,28.155,38.869,67.182,36.974,81.158" fill="#ff7e6b"/>
              <g id="Grupo_1210034" data-name="Grupo 1210034" opacity="0.5" style="mix-blend-mode: screen;isolation: isolate">
                <g id="Grupo_1210033" data-name="Grupo 1210033">
                  <g id="Grupo_1210032" data-name="Grupo 1210032" clip-path="url(#clip-path-12)">
                    <path id="Trazado_1078341" data-name="Trazado 1078341" d="M53.216,255.992c-.675-.6-1.417-1.431-1.121-2.283a1.585,1.585,0,0,1,1.833-.845,4.619,4.619,0,0,1,1.887,1.1l6.683,5.471c.793.649,1.671,1.524,1.45,2.525-.585,2.654-3.34.605-4.337-.287-2.124-1.9-4.263-3.785-6.4-5.677" fill="#ff7e6b"/>
                    <path id="Trazado_1078342" data-name="Trazado 1078342" d="M80.63,265.861c.524-.734,1.273-1.561,2.152-1.356a1.585,1.585,0,0,1,1.034,1.733,4.617,4.617,0,0,1-.891,1.993l-4.734,7.223c-.562.858-1.339,1.823-2.358,1.709-2.7-.3-.954-3.258-.172-4.343,1.666-2.313,3.313-4.64,4.969-6.959" fill="#ff7e6b"/>
                    <path id="Trazado_1078343" data-name="Trazado 1078343" d="M75.908,230.057c.524-.733,1.273-1.56,2.152-1.356a1.586,1.586,0,0,1,1.034,1.734,4.617,4.617,0,0,1-.891,1.993q-2.367,3.611-4.734,7.224c-.562.856-1.339,1.821-2.358,1.708-2.7-.3-.954-3.258-.173-4.343,1.667-2.314,3.314-4.639,4.97-6.96" fill="#ff7e6b"/>
                    <path id="Trazado_1078344" data-name="Trazado 1078344" d="M108.6,259.631c-.607-.667-1.257-1.573-.872-2.389a1.585,1.585,0,0,1,1.912-.646,4.614,4.614,0,0,1,1.76,1.291l6.064,6.15c.719.73,1.5,1.693,1.174,2.664-.864,2.577-3.386.247-4.282-.746-1.91-2.116-3.838-4.216-5.756-6.324" fill="#ff7e6b"/>
                    <path id="Trazado_1078345" data-name="Trazado 1078345" d="M103.044,222.507c-.607-.667-1.257-1.573-.872-2.389a1.585,1.585,0,0,1,1.912-.646,4.614,4.614,0,0,1,1.76,1.291l6.064,6.15c.72.73,1.5,1.693,1.174,2.664-.864,2.577-3.386.247-4.282-.746-1.91-2.116-3.837-4.216-5.756-6.324" fill="#ff7e6b"/>
                    <path id="Trazado_1078346" data-name="Trazado 1078346" d="M71.9,203.77c-.691-.58-1.456-1.391-1.183-2.251a1.584,1.584,0,0,1,1.809-.9,4.611,4.611,0,0,1,1.917,1.044l6.829,5.287c.81.628,1.712,1.478,1.518,2.485-.512,2.669-3.322.7-4.343-.169-2.175-1.843-4.365-3.667-6.547-5.5" fill="#ff7e6b"/>
                    <path id="Trazado_1078347" data-name="Trazado 1078347" d="M104.39,187.755c.508-.746,1.238-1.588,2.121-1.4a1.585,1.585,0,0,1,1.073,1.71,4.626,4.626,0,0,1-.847,2.012l-4.574,7.326c-.543.869-1.3,1.852-2.319,1.76-2.707-.242-1.026-3.236-.269-4.338,1.615-2.349,3.21-4.712,4.815-7.067" fill="#ff7e6b"/>
                    <path id="Trazado_1078348" data-name="Trazado 1078348" d="M99.776,162.451c.508-.745,1.238-1.587,2.121-1.4a1.585,1.585,0,0,1,1.073,1.71,4.626,4.626,0,0,1-.847,2.012L97.549,172.1c-.543.868-1.3,1.852-2.319,1.76-2.707-.242-1.026-3.236-.269-4.338,1.615-2.349,3.21-4.711,4.815-7.068" fill="#ff7e6b"/>
                    <path id="Trazado_1078349" data-name="Trazado 1078349" d="M126.636,193.539c-.58-.691-1.193-1.623-.775-2.422a1.584,1.584,0,0,1,1.937-.568,4.6,4.6,0,0,1,1.706,1.36l5.811,6.39c.689.758,1.43,1.752,1.065,2.71-.967,2.54-3.393.11-4.248-.919-1.823-2.191-3.664-4.367-5.5-6.551" fill="#ff7e6b"/>
                    <path id="Trazado_1078350" data-name="Trazado 1078350" d="M123.521,168.644c-.754.5-1.75,1-2.5.489a1.585,1.585,0,0,1-.34-1.989,4.616,4.616,0,0,1,1.55-1.538l7.02-5.031c.833-.6,1.906-1.217,2.815-.744,2.41,1.255-.284,3.383-1.405,4.114-2.388,1.556-4.763,3.133-7.144,4.7" fill="#ff7e6b"/>
                    <path id="Trazado_1078351" data-name="Trazado 1078351" d="M207.8,193.238c.571.7,1.172,1.638.743,2.432a1.583,1.583,0,0,1-1.943.543,4.607,4.607,0,0,1-1.689-1.382l-5.728-6.465c-.679-.767-1.407-1.77-1.03-2.723,1-2.527,3.394-.066,4.236.973,1.795,2.215,3.608,4.415,5.411,6.622" fill="#ff7e6b"/>
                    <path id="Trazado_1078352" data-name="Trazado 1078352" d="M244.3,165.8c-.606.67-1.444,1.4-2.293,1.1a1.585,1.585,0,0,1-.83-1.84,4.619,4.619,0,0,1,1.114-1.878q2.761-3.316,5.528-6.635c.655-.787,1.539-1.658,2.537-1.428,2.648.608.577,3.345-.325,4.334-1.919,2.108-3.821,4.231-5.731,6.346" fill="#ff7e6b"/>
                    <path id="Trazado_1078353" data-name="Trazado 1078353" d="M283.118,175.657c-2.785-.145-5.57-.26-8.355-.391-.9-.043-2-.224-2.308-1.077a1.6,1.6,0,0,1,.9-1.809,4.726,4.726,0,0,1,2.156-.333c1.664.015,3.32.022,4.984.036l.2.261q1.216,1.628,2.431,3.313" fill="#ff7e6b"/>
                    <path id="Trazado_1078354" data-name="Trazado 1078354" d="M244.6,192.525c.571.7,1.172,1.638.743,2.432a1.583,1.583,0,0,1-1.943.543,4.607,4.607,0,0,1-1.689-1.382l-5.728-6.465c-.68-.767-1.407-1.77-1.03-2.723,1-2.527,3.394-.066,4.236.973,1.795,2.215,3.608,4.415,5.411,6.622" fill="#ff7e6b"/>
                    <path id="Trazado_1078355" data-name="Trazado 1078355" d="M259.37,225.574c.571.7,1.172,1.638.743,2.432a1.582,1.582,0,0,1-1.943.543,4.607,4.607,0,0,1-1.689-1.382l-5.728-6.465c-.679-.767-1.407-1.77-1.03-2.723,1-2.527,3.394-.066,4.236.973,1.795,2.215,3.608,4.415,5.411,6.622" fill="#ff7e6b"/>
                    <path id="Trazado_1078356" data-name="Trazado 1078356" d="M271.56,201.967c.571.7,1.172,1.638.743,2.433a1.583,1.583,0,0,1-1.943.543,4.607,4.607,0,0,1-1.689-1.382l-5.728-6.465c-.68-.768-1.407-1.77-1.03-2.723,1-2.527,3.394-.066,4.236.973,1.8,2.215,3.608,4.415,5.411,6.621" fill="#ff7e6b"/>
                    <path id="Trazado_1078357" data-name="Trazado 1078357" d="M259.37,274.626c.571.7,1.172,1.638.743,2.432a1.583,1.583,0,0,1-1.943.543,4.607,4.607,0,0,1-1.689-1.382l-5.728-6.465c-.679-.767-1.407-1.77-1.03-2.723,1-2.527,3.394-.066,4.236.973,1.795,2.215,3.608,4.415,5.411,6.622" fill="#ff7e6b"/>
                    <path id="Trazado_1078358" data-name="Trazado 1078358" d="M292.718,267.726c.571.7,1.172,1.638.743,2.432a1.583,1.583,0,0,1-1.943.543,4.607,4.607,0,0,1-1.689-1.382l-5.728-6.465c-.68-.767-1.407-1.77-1.03-2.723,1-2.527,3.394-.066,4.236.973,1.795,2.215,3.607,4.415,5.411,6.622" fill="#ff7e6b"/>
                    <path id="Trazado_1078359" data-name="Trazado 1078359" d="M299.135,254.213c-.7.573-1.634,1.177-2.43.751a1.582,1.582,0,0,1-.549-1.941,4.607,4.607,0,0,1,1.377-1.694l6.446-5.749c.764-.682,1.765-1.413,2.719-1.039,2.531.992.078,3.394-.959,4.24-2.209,1.8-4.4,3.621-6.6,5.432" fill="#ff7e6b"/>
                    <path id="Trazado_1078360" data-name="Trazado 1078360" d="M293.926,222.036c-.326.842-.845,1.828-1.747,1.848a1.585,1.585,0,0,1-1.433-1.422,4.611,4.611,0,0,1,.368-2.151q1.395-4.088,2.791-8.174c.331-.969.844-2.1,1.859-2.241,2.691-.378,1.734,2.919,1.247,4.165-1.039,2.654-2.057,5.317-3.085,7.975" fill="#ff7e6b"/>
                    <path id="Trazado_1078361" data-name="Trazado 1078361" d="M260.035,257.987c-.326.841-.845,1.828-1.747,1.848a1.585,1.585,0,0,1-1.433-1.422,4.608,4.608,0,0,1,.368-2.151q1.4-4.087,2.791-8.174c.331-.969.844-2.1,1.859-2.241,2.691-.378,1.734,2.919,1.247,4.165-1.039,2.654-2.057,5.317-3.085,7.975" fill="#ff7e6b"/>
                    <path id="Trazado_1078362" data-name="Trazado 1078362" d="M168.68,191.49c-.754.5-1.75,1-2.5.489a1.585,1.585,0,0,1-.34-1.989,4.616,4.616,0,0,1,1.55-1.538l7.02-5.031c.833-.6,1.906-1.217,2.815-.744,2.41,1.255-.284,3.383-1.4,4.114-2.388,1.556-4.763,3.133-7.144,4.7" fill="#ff7e6b"/>
                    <path id="Trazado_1078363" data-name="Trazado 1078363" d="M223.461,168.222c-.569.7-1.367,1.479-2.231,1.221a1.586,1.586,0,0,1-.926-1.794,4.636,4.636,0,0,1,1.012-1.934l5.171-6.918c.614-.821,1.449-1.736,2.458-1.56,2.678.468.752,3.311-.1,4.346-1.805,2.205-3.593,4.426-5.389,6.639" fill="#ff7e6b"/>
                    <path id="Trazado_1078364" data-name="Trazado 1078364" d="M221.77,136.845c-.569.7-1.367,1.479-2.231,1.22a1.582,1.582,0,0,1-.925-1.793,4.616,4.616,0,0,1,1.011-1.934l5.171-6.918c.614-.821,1.449-1.736,2.458-1.56,2.678.468.753,3.311-.1,4.346-1.8,2.205-3.593,4.426-5.389,6.639" fill="#ff7e6b"/>
                    <path id="Trazado_1078365" data-name="Trazado 1078365" d="M137.158,130.148c-2.387,1.555-4.76,3.132-7.147,4.7a2.663,2.663,0,0,1-2.272.608,18.822,18.822,0,0,1,.7-3.429v-.008c.094-.065.195-.137.3-.209q3.506-2.518,7.017-5.028c.832-.6,1.9-1.215,2.814-.745,2.409,1.251-.282,3.385-1.4,4.116" fill="#ff7e6b"/>
                    <path id="Trazado_1078366" data-name="Trazado 1078366" d="M158.223,121.481c-.058.094-.116.181-.166.26-1.563,2.388-3.1,4.782-4.659,7.169-.492.76-1.2,1.621-2.091,1.454a1.583,1.583,0,0,1-1.107-1.685,4.621,4.621,0,0,1,.8-2.033q1.562-2.627,3.117-5.252h.008l4.094.087" fill="#ff7e6b"/>
                  </g>
                </g>
              </g>
              <path id="Trazado_1078367" data-name="Trazado 1078367" d="M165.646,158.586a4.71,4.71,0,1,1-4.71-4.71,4.71,4.71,0,0,1,4.71,4.71" fill="#fff"/>
              <path id="Trazado_1078368" data-name="Trazado 1078368" d="M161.71,158.19a.723.723,0,0,0-.923-.441c-1.565.553-2.584,2.143-3.027,4.726-.322,1.871-.463,3.783-.6,5.632a46.022,46.022,0,0,1-.85,6.831,13.055,13.055,0,0,1-1.734,4.351,6.982,6.982,0,0,1-3.418,2.8,5.479,5.479,0,0,1-7.1-6.591,3.222,3.222,0,0,0,1.793-1,3.05,3.05,0,0,0,.867-1.539,2.332,2.332,0,0,0-.55-1.865,3.079,3.079,0,0,0-1.713-.978,1.586,1.586,0,0,0-1.577.378,1.778,1.778,0,0,0-.288,1.127,8.984,8.984,0,0,0,.342,2.634,6.925,6.925,0,0,0,6.488,9.566,6.76,6.76,0,0,0,2.216-.368,8.426,8.426,0,0,0,4.149-3.37,14.426,14.426,0,0,0,1.939-4.828,47.155,47.155,0,0,0,.883-7.046c.135-1.814.274-3.691.584-5.5.348-2.027,1.049-3.24,2.083-3.606a.723.723,0,0,0,.441-.923" fill="#fff"/>
              <path id="Trazado_1078369" data-name="Trazado 1078369" d="M212.792,158.586a4.71,4.71,0,1,1-4.71-4.71,4.71,4.71,0,0,1,4.71,4.71" fill="#fff"/>
              <path id="Trazado_1078370" data-name="Trazado 1078370" d="M223.11,178.377a3.082,3.082,0,0,0-1.675-1.042,2.331,2.331,0,0,0-1.9.4,3.041,3.041,0,0,0-.942,1.494,3.994,3.994,0,0,0-.17,1.463,3.688,3.688,0,0,1-3.112.049,6.163,6.163,0,0,1-2.874-2.9c-1.364-2.634-1.4-5.8-1.44-8.87l-.011-.807c-.056-3.623-.421-7.359-2.69-10.14a.724.724,0,0,0-1.121.916c1.99,2.437,2.312,5.885,2.364,9.247l.011.8c.04,3.234.08,6.579,1.6,9.517a7.6,7.6,0,0,0,3.585,3.566,5.356,5.356,0,0,0,2.117.437,4.771,4.771,0,0,0,2.594-.751,7.513,7.513,0,0,0,3.226-1.025,1.789,1.789,0,0,0,.855-.79,1.587,1.587,0,0,0-.418-1.567" fill="#fff"/>
              <path id="Trazado_1078371" data-name="Trazado 1078371" d="M242.94,246.866c3.546-1.281,7.116-2.487,10.689-3.681l10.748-3.5,10.8-3.338c3.608-1.083,7.22-2.156,10.857-3.152-3.546,1.283-7.116,2.488-10.689,3.683l-10.748,3.5-10.8,3.337c-3.609,1.084-7.221,2.156-10.857,3.153" fill="#fff"/>
              <path id="Trazado_1078372" data-name="Trazado 1078372" d="M121.63,246.866c-3.637-1-7.248-2.069-10.858-3.153l-10.8-3.337-10.747-3.5c-3.574-1.195-7.144-2.4-10.69-3.683,3.637,1,7.249,2.069,10.858,3.152l10.8,3.338,10.748,3.5c3.573,1.194,7.143,2.4,10.69,3.681" fill="#fff"/>
              <path id="Trazado_1078373" data-name="Trazado 1078373" d="M128.321,141.922c1.184,1.261,2.362,2.513,3.585,3.717s2.472,2.379,3.766,3.5,2.615,2.213,3.964,3.275,2.749,2.06,4.153,3.07a35.849,35.849,0,0,1-4.48-2.62,42.119,42.119,0,0,1-7.8-6.844,35.883,35.883,0,0,1-3.184-4.1" fill="#fff"/>
              <path id="Trazado_1078374" data-name="Trazado 1078374" d="M238.51,141.922a35.881,35.881,0,0,1-3.184,4.1,42.119,42.119,0,0,1-7.8,6.844,35.85,35.85,0,0,1-4.48,2.62c1.4-1.01,2.8-2.014,4.153-3.07s2.681-2.139,3.964-3.275,2.537-2.3,3.766-3.5,2.4-2.456,3.585-3.717" fill="#fff"/>
              <path id="Trazado_1078375" data-name="Trazado 1078375" d="M154.575,137.288a11.619,11.619,0,0,1-3.31-7.521c.586,1.277,1.074,2.533,1.629,3.772.537,1.247,1.134,2.455,1.681,3.749" fill="#fff"/>
              <path id="Trazado_1078376" data-name="Trazado 1078376" d="M212.735,137.112c.65-1.488,1.31-2.911,1.869-4.387.578-1.469,1.046-2.965,1.568-4.5a13.287,13.287,0,0,1-3.437,8.891" fill="#fff"/>
              <path id="Trazado_1078377" data-name="Trazado 1078377" d="M283.118,226.918a43.2,43.2,0,0,1-3.285,4.953,42.644,42.644,0,0,1-3.862,4.518,42.763,42.763,0,0,1,3.285-4.953,43.317,43.317,0,0,1,3.862-4.518" fill="#fff"/>
              <path id="Trazado_1078378" data-name="Trazado 1078378" d="M82.816,226.918a37.9,37.9,0,0,1,3.2,4.547,37.527,37.527,0,0,1,2.583,4.924,37.406,37.406,0,0,1-3.2-4.547,37.9,37.9,0,0,1-2.583-4.924" fill="#fff"/>
              <path id="Trazado_1078379" data-name="Trazado 1078379" d="M306.472,264.1a7,7,0,0,1,.362,2.339,6.927,6.927,0,0,1-.362,2.34,6.9,6.9,0,0,1-.361-2.34,6.974,6.974,0,0,1,.361-2.339" fill="#fff"/>
              <path id="Trazado_1078380" data-name="Trazado 1078380" d="M309.919,262.38a2.281,2.281,0,0,1,0,2.463,2.276,2.276,0,0,1,0-2.463" fill="#fff"/>
              <path id="Trazado_1078381" data-name="Trazado 1078381" d="M256.727,159.2a7.155,7.155,0,0,1,0,4.494,6.386,6.386,0,0,1-.361-2.247,6.455,6.455,0,0,1,.361-2.247" fill="#fff"/>
              <path id="Trazado_1078382" data-name="Trazado 1078382" d="M260.667,163.136a1.807,1.807,0,0,1,.361,1.115,1.788,1.788,0,0,1-.361,1.115,1.9,1.9,0,0,1,0-2.23" fill="#fff"/>
              <path id="Trazado_1078383" data-name="Trazado 1078383" d="M80.895,188.747a4.461,4.461,0,0,1,.361,1.847,4.4,4.4,0,0,1-.361,1.847,4.905,4.905,0,0,1,0-3.694" fill="#fff"/>
              <path id="Trazado_1078384" data-name="Trazado 1078384" d="M53.068,243.172a2.7,2.7,0,0,1,.36,1.4,2.666,2.666,0,0,1-.36,1.4,2.9,2.9,0,0,1,0-2.808" fill="#fff"/>
              <path id="Trazado_1078385" data-name="Trazado 1078385" d="M57.008,245.88a1.493,1.493,0,0,1,.361.993,1.475,1.475,0,0,1-.361.992,1.542,1.542,0,0,1,0-1.985" fill="#fff"/>
              <path id="Trazado_1078386" data-name="Trazado 1078386" d="M242.94,281.194H121.629V203.45a4.261,4.261,0,0,1,4.262-4.261H238.679a4.261,4.261,0,0,1,4.261,4.261Z" fill="#fff"/>
              <path id="Trazado_1078387" data-name="Trazado 1078387" d="M194.1,240.191a11.816,11.816,0,1,1-11.815-11.815A11.815,11.815,0,0,1,194.1,240.191Z" fill="none" stroke="#79bffa" stroke-miterlimit="10" stroke-width="1.001"/>
              <path id="Trazado_1078389" data-name="Trazado 1078389" d="M332.105,0" transform="translate(22.039 281.194)" fill="none" stroke="#243169" stroke-width="1.001"/>
            </g>
          </g>
        </g>
      </g>
    </g>
  </g>
</svg>
