<svg xmlns="http://www.w3.org/2000/svg" xmlns:xlink="http://www.w3.org/1999/xlink" width="295" height="280" viewBox="0 0 295 280">
  <defs>
    <clipPath id="clip-path">
      <rect id="Rectángulo_418222" data-name="Rectángulo 418222" width="295" height="280" transform="translate(1125 7929)" fill="#fff" stroke="#707070" stroke-width="1"/>
    </clipPath>
    <clipPath id="clip-path-2">
      <rect id="Rectángulo_418205" data-name="Rectángulo 418205" width="344.771" height="351.375" fill="none"/>
    </clipPath>
    <clipPath id="clip-path-3">
      <rect id="Rectángulo_418206" data-name="Rectángulo 418206" width="350.849" height="351.375" fill="none"/>
    </clipPath>
    <clipPath id="clip-path-4">
      <path id="Trazado_1079103" data-name="Trazado 1079103" d="M287.316,260.518s-6.971,15.951-20.021,28.1c0,0,17.945,51.842,17.039,54.561s-28.1,14.864-56.736,13.414-35.347-8.519-35.89-8.882,1.088-40.241,0-42.6-9.427-8.882-10.332-23.927c0,0-6.344-2.175-6.707-3.626s9.608-28.1,16.5-32.628a16.427,16.427,0,0,1,7.674-2.538l61.63-5.317c11.1.79,23.487,19.274,26.849,23.444" transform="translate(-174.658 -237.074)" fill="none"/>
    </clipPath>
    <clipPath id="clip-path-6">
      <rect id="Rectángulo_418207" data-name="Rectángulo 418207" width="48.85" height="125.129" fill="none"/>
    </clipPath>
    <clipPath id="clip-path-7">
      <rect id="Rectángulo_418208" data-name="Rectángulo 418208" width="47.534" height="125.717" fill="none"/>
    </clipPath>
    <clipPath id="clip-path-8">
      <rect id="Rectángulo_418209" data-name="Rectángulo 418209" width="283.601" height="129.594" fill="none"/>
    </clipPath>
    <clipPath id="clip-path-9">
      <rect id="Rectángulo_418210" data-name="Rectángulo 418210" width="34.049" height="27.467" fill="none"/>
    </clipPath>
    <clipPath id="clip-path-10">
      <rect id="Rectángulo_418211" data-name="Rectángulo 418211" width="34.048" height="27.467" fill="none"/>
    </clipPath>
    <clipPath id="clip-path-11">
      <rect id="Rectángulo_418212" data-name="Rectángulo 418212" width="27.748" height="28.418" fill="none"/>
    </clipPath>
    <clipPath id="clip-path-12">
      <rect id="Rectángulo_418213" data-name="Rectángulo 418213" width="27.747" height="28.418" fill="none"/>
    </clipPath>
    <clipPath id="clip-path-13">
      <rect id="Rectángulo_418214" data-name="Rectángulo 418214" width="70.439" height="49.232" fill="none"/>
    </clipPath>
    <clipPath id="clip-path-14">
      <rect id="Rectángulo_418215" data-name="Rectángulo 418215" width="24.091" height="25.528" fill="none"/>
    </clipPath>
    <clipPath id="clip-path-15">
      <rect id="Rectángulo_418216" data-name="Rectángulo 418216" width="61.704" height="79.746" fill="none"/>
    </clipPath>
    <clipPath id="clip-path-16">
      <rect id="Rectángulo_418217" data-name="Rectángulo 418217" width="33.331" height="34.205" fill="none"/>
    </clipPath>
    <clipPath id="clip-path-17">
      <rect id="Rectángulo_418218" data-name="Rectángulo 418218" width="16.754" height="17.194" fill="none"/>
    </clipPath>
    <clipPath id="clip-path-18">
      <path id="Trazado_1079151" data-name="Trazado 1079151" d="M127.9,175.618l17.318,8.561a2.355,2.355,0,0,1,1.069,3.156l-16.667,33.718a2.356,2.356,0,0,1-3.156,1.068l-17.318-8.56a2.357,2.357,0,0,1-1.068-3.156l16.667-33.718a2.355,2.355,0,0,1,3.156-1.068" transform="translate(-107.832 -175.374)" fill="none"/>
    </clipPath>
  </defs>
  <g id="Enmascarar_grupo_1098890" data-name="Enmascarar grupo 1098890" transform="translate(-1125 -7929)" clip-path="url(#clip-path)">
    <g id="Grupo_1210607" data-name="Grupo 1210607" transform="translate(1096.333 7899)">
      <g id="Grupo_1210560" data-name="Grupo 1210560">
        <g id="Grupo_1210559" data-name="Grupo 1210559" transform="translate(8.667)" clip-path="url(#clip-path-2)">
          <path id="Trazado_1078998" data-name="Trazado 1078998" d="M0,305.292a244.872,244.872,0,0,1,167.111-65.852c69.648,0,132.593,29.2,177.66,76.23v106.6H0Z" transform="translate(0 20.517)" fill="#e6b9f9"/>
        </g>
      </g>
      <g id="Grupo_1210562" data-name="Grupo 1210562">
        <g id="Grupo_1210561" data-name="Grupo 1210561" clip-path="url(#clip-path-3)">
          <path id="Trazado_1078999" data-name="Trazado 1078999" d="M259.927,385.068s19.168,39.556,20.7,53.765-4.224,26.882-4.224,26.882H168.683s-1.536-15.553.96-26.306,18.818-54.342,18.818-54.342Z" transform="translate(-48.078 -114.867)" fill="#8cbddd"/>
          <path id="Trazado_1079000" data-name="Trazado 1079000" d="M278.761,385.068s-6.783,23.623-8.144,69.665" transform="translate(-117.803 -114.867)" fill="none" stroke="#6098b3" stroke-linecap="round" stroke-linejoin="round" stroke-width="1.5"/>
          <path id="Trazado_1079001" data-name="Trazado 1079001" d="M262.556,448.088s6.007,19.852,10.721,23.2S291.4,477.9,291.4,477.9" transform="translate(-124.79 -133.666)" fill="none" stroke="#6098b3" stroke-linecap="round" stroke-linejoin="round" stroke-width="1.5"/>
          <path id="Trazado_1079002" data-name="Trazado 1079002" d="M274.115,385.068s-4.116,40.147-5.2,44.221-10.876,8.425-10.876,8.425" transform="translate(-104.329 -114.867)" fill="none" stroke="#6098b3" stroke-linecap="round" stroke-linejoin="round" stroke-width="1.5"/>
          <path id="Trazado_1079003" data-name="Trazado 1079003" d="M179.99,385.068s13.348,35.607,15.161,50.108-1.771,30.539-1.771,30.539" transform="translate(28.888 -114.867)" fill="none" stroke="#6098b3" stroke-linecap="round" stroke-linejoin="round" stroke-width="1.5" stroke-dasharray="5 4"/>
          <path id="Trazado_1079004" data-name="Trazado 1079004" d="M185.485,385.068s4.632,22.477,6.566,26.323,17.8,9.1,17.8,9.1" transform="translate(10.84 -114.867)" fill="none" stroke="#6098b3" stroke-linecap="round" stroke-linejoin="round" stroke-width="1.5"/>
          <path id="Trazado_1079005" data-name="Trazado 1079005" d="M307.429,385.068s-3.894,20.018-5.572,21.468-9.025,4.854-9.025,4.854" transform="translate(-162.06 -114.867)" fill="none" stroke="#6098b3" stroke-linecap="round" stroke-linejoin="round" stroke-width="1.5"/>
          <path id="Trazado_1079006" data-name="Trazado 1079006" d="M259.048,467.844c-.544.363-16.512,11.231-25.114,22.564" transform="translate(-72.35 -139.559)" fill="none" stroke="#6098b3" stroke-linecap="round" stroke-linejoin="round" stroke-width="1.5"/>
          <path id="Trazado_1079007" data-name="Trazado 1079007" d="M242.271,104.308s13.943.171,15.99,4.1,7.85,29.123,9.727,34.7,9.9,5.347,11.946,10.238-3.755,11.889-2.9,16.837,12.287,6.014,13.14,11.625a20.361,20.361,0,0,1-1.024,10.048s-42.024,16.724-74.681,15.188a204.837,204.837,0,0,1-58.424-11.587s1.707-13.5,4.266-18.276,9.385-3.242,10.409-7-6.655-9.286-5.29-14.455,10.069-8.582,11.092-15.237.612-31.437,5.631-36.177c15.359-14.5,42.4-18.832,50.569-16.382,4.55,1.365,9.55,16.382,9.55,16.382" transform="translate(-49.042 -26.036)" fill="#ef9d5b"/>
          <path id="Trazado_1079008" data-name="Trazado 1079008" d="M194.867,216.9s4-7.954,2.3-11.538-15.186-.682-18.6-6.484S183,183,182.317,178.055s-11.32-1.081-15.131-18.032" transform="translate(35.947 -47.735)" fill="none" stroke="#ffb878" stroke-linecap="round" stroke-linejoin="round" stroke-width="1"/>
          <path id="Trazado_1079009" data-name="Trazado 1079009" d="M192.755,231.674s2.544-8.241.838-11.654-9.728.71-13.666-4.075c-2.545-3.092,4.206-14.211,4.206-14.211" transform="translate(30.814 -60.178)" fill="none" stroke="#ffb878" stroke-linecap="round" stroke-linejoin="round" stroke-width="1"/>
          <path id="Trazado_1079010" data-name="Trazado 1079010" d="M311.587,174.252s-7.319,5.829-6.978,13.849,11.547,8.362,10.637,13.993-15.727,2.072-17.107,6.411,7.14,13.316,3.989,19.237" transform="translate(-173.545 -51.98)" fill="none" stroke="#ffb878" stroke-linecap="round" stroke-linejoin="round" stroke-width="1"/>
          <path id="Trazado_1079011" data-name="Trazado 1079011" d="M341.983,149.971a24.46,24.46,0,0,1-9.044,13.241c-7.167,5.019-9.044,7.122-8.191,13.834s5.29,8.59,4.266,10.979-8.874,1.531-10.068,4.52-4.266,20.565-4.266,20.565" transform="translate(-211.943 -44.737)" fill="none" stroke="#ef9d5b" stroke-linecap="round" stroke-linejoin="round" stroke-width="1"/>
          <path id="Trazado_1079012" data-name="Trazado 1079012" d="M353.932,251.1c-6.862-1.663-12.384,7.256-16.257,24.416s-8.094,53.9-9.053,59.7-7.1,9.907-10.551,25.618-11.383,45.2-12.662,47.614-23.021,17.246-23.021,17.246h30.034s2.452-11.687,2.708-15.8,28.648-49.3,29.927-56.313,1.327-15.71,2.454-19.577,18.01-51.479,20.567-60.905-2.2-19.1-14.146-22" transform="translate(-216.051 -74.846)" fill="#b55d52"/>
          <path id="Trazado_1079013" data-name="Trazado 1079013" d="M123.073,249.691c3.9-3.647,14.849,3.952,26.92,18.705s36.865,33.818,36.863,41.576-.58,21.682-20.956,9.388-42.133-30.4-44.555-43.811,1.728-25.858,1.728-25.858" transform="translate(79.378 -74.213)" fill="#913d48"/>
          <path id="Trazado_1079014" data-name="Trazado 1079014" d="M260.467,237.074c11.1.79,23.487,19.274,26.849,23.444,0,0-6.97,15.952-20.021,28.1,0,0,17.945,51.842,17.039,54.561s-28.1,14.864-56.736,13.414-35.347-8.519-35.89-8.882,1.088-40.241,0-42.6-9.426-8.882-10.332-23.927c0,0-6.344-2.175-6.707-3.626s9.607-28.1,16.5-32.628a16.427,16.427,0,0,1,7.674-2.538Z" transform="translate(-59.024 -70.72)" fill="#154353"/>
        </g>
      </g>
      <g id="Grupo_1210564" data-name="Grupo 1210564" transform="translate(115.634 166.354)">
        <g id="Grupo_1210563" data-name="Grupo 1210563" transform="translate(0 0)" clip-path="url(#clip-path-4)">
          <path id="Trazado_1079015" data-name="Trazado 1079015" d="M258.788,264.02a1.438,1.438,0,1,0,1.439-1.438,1.439,1.439,0,0,0-1.439,1.438" transform="translate(-208.041 -244.683)" fill="#cfd9db"/>
          <path id="Trazado_1079016" data-name="Trazado 1079016" d="M278.611,264.02a1.438,1.438,0,1,0,1.438-1.438,1.439,1.439,0,0,0-1.438,1.438" transform="translate(-241.773 -244.683)" fill="#cfd9db"/>
          <path id="Trazado_1079017" data-name="Trazado 1079017" d="M298.435,264.02a1.438,1.438,0,1,0,1.438-1.438,1.439,1.439,0,0,0-1.438,1.438" transform="translate(-275.508 -244.683)" fill="#cfd9db"/>
          <path id="Trazado_1079018" data-name="Trazado 1079018" d="M318.259,264.02a1.438,1.438,0,1,0,1.438-1.438,1.439,1.439,0,0,0-1.438,1.438" transform="translate(-309.242 -244.683)" fill="#cfd9db"/>
          <path id="Trazado_1079019" data-name="Trazado 1079019" d="M179.493,264.02a1.439,1.439,0,1,0,1.438-1.438,1.439,1.439,0,0,0-1.438,1.438" transform="translate(-73.105 -244.683)" fill="#cfd9db"/>
          <path id="Trazado_1079020" data-name="Trazado 1079020" d="M199.317,264.02a1.438,1.438,0,1,0,1.438-1.438,1.439,1.439,0,0,0-1.438,1.438" transform="translate(-106.839 -244.683)" fill="#cfd9db"/>
          <path id="Trazado_1079021" data-name="Trazado 1079021" d="M219.141,264.02a1.438,1.438,0,1,0,1.438-1.438,1.439,1.439,0,0,0-1.438,1.438" transform="translate(-140.574 -244.683)" fill="#cfd9db"/>
          <path id="Trazado_1079022" data-name="Trazado 1079022" d="M238.964,264.02a1.438,1.438,0,1,0,1.438-1.438,1.439,1.439,0,0,0-1.438,1.438" transform="translate(-174.306 -244.683)" fill="#cfd9db"/>
          <path id="Trazado_1079023" data-name="Trazado 1079023" d="M268.188,249.447a1.438,1.438,0,1,0,1.439-1.438,1.439,1.439,0,0,0-1.439,1.438" transform="translate(-224.037 -240.336)" fill="#cfd9db"/>
          <path id="Trazado_1079024" data-name="Trazado 1079024" d="M288.012,249.447a1.438,1.438,0,1,0,1.439-1.438,1.439,1.439,0,0,0-1.439,1.438" transform="translate(-257.771 -240.336)" fill="#cfd9db"/>
          <path id="Trazado_1079025" data-name="Trazado 1079025" d="M307.835,249.447a1.438,1.438,0,1,0,1.438-1.438,1.439,1.439,0,0,0-1.438,1.438" transform="translate(-291.504 -240.336)" fill="#cfd9db"/>
          <path id="Trazado_1079026" data-name="Trazado 1079026" d="M327.659,249.447a1.438,1.438,0,1,0,1.438-1.438,1.439,1.439,0,0,0-1.438,1.438" transform="translate(-325.238 -240.336)" fill="#cfd9db"/>
          <path id="Trazado_1079027" data-name="Trazado 1079027" d="M188.893,249.447a1.438,1.438,0,1,0,1.438-1.438,1.439,1.439,0,0,0-1.438,1.438" transform="translate(-89.101 -240.336)" fill="#cfd9db"/>
          <path id="Trazado_1079028" data-name="Trazado 1079028" d="M208.717,249.447a1.438,1.438,0,1,0,1.438-1.438,1.439,1.439,0,0,0-1.438,1.438" transform="translate(-122.835 -240.336)" fill="#cfd9db"/>
          <path id="Trazado_1079029" data-name="Trazado 1079029" d="M228.541,249.447a1.438,1.438,0,1,0,1.438-1.438,1.439,1.439,0,0,0-1.438,1.438" transform="translate(-156.57 -240.336)" fill="#cfd9db"/>
          <path id="Trazado_1079030" data-name="Trazado 1079030" d="M248.364,249.447a1.438,1.438,0,1,0,1.439-1.438,1.439,1.439,0,0,0-1.439,1.438" transform="translate(-190.302 -240.336)" fill="#cfd9db"/>
          <path id="Trazado_1079031" data-name="Trazado 1079031" d="M258.788,293.165a1.438,1.438,0,1,0,1.439-1.439,1.439,1.439,0,0,0-1.439,1.439" transform="translate(-208.041 -253.377)" fill="#cfd9db"/>
          <path id="Trazado_1079032" data-name="Trazado 1079032" d="M278.611,293.165a1.438,1.438,0,1,0,1.438-1.439,1.439,1.439,0,0,0-1.438,1.439" transform="translate(-241.773 -253.377)" fill="#cfd9db"/>
          <path id="Trazado_1079033" data-name="Trazado 1079033" d="M298.435,293.165a1.438,1.438,0,1,0,1.438-1.439,1.439,1.439,0,0,0-1.438,1.439" transform="translate(-275.508 -253.377)" fill="#cfd9db"/>
          <path id="Trazado_1079034" data-name="Trazado 1079034" d="M318.259,293.165a1.438,1.438,0,1,0,1.438-1.439,1.439,1.439,0,0,0-1.438,1.439" transform="translate(-309.242 -253.377)" fill="#cfd9db"/>
          <path id="Trazado_1079035" data-name="Trazado 1079035" d="M179.493,293.165a1.439,1.439,0,1,0,1.438-1.439,1.439,1.439,0,0,0-1.438,1.439" transform="translate(-73.105 -253.377)" fill="#cfd9db"/>
          <path id="Trazado_1079036" data-name="Trazado 1079036" d="M199.317,293.165a1.438,1.438,0,1,0,1.438-1.439,1.439,1.439,0,0,0-1.438,1.439" transform="translate(-106.839 -253.377)" fill="#cfd9db"/>
          <path id="Trazado_1079037" data-name="Trazado 1079037" d="M219.141,293.165a1.438,1.438,0,1,0,1.438-1.439,1.439,1.439,0,0,0-1.438,1.439" transform="translate(-140.574 -253.377)" fill="#cfd9db"/>
          <path id="Trazado_1079038" data-name="Trazado 1079038" d="M238.964,293.165a1.438,1.438,0,1,0,1.438-1.439,1.439,1.439,0,0,0-1.438,1.439" transform="translate(-174.306 -253.377)" fill="#cfd9db"/>
          <path id="Trazado_1079039" data-name="Trazado 1079039" d="M268.188,278.592a1.438,1.438,0,1,0,1.439-1.438,1.439,1.439,0,0,0-1.439,1.438" transform="translate(-224.037 -249.03)" fill="#cfd9db"/>
          <path id="Trazado_1079040" data-name="Trazado 1079040" d="M288.012,278.592a1.438,1.438,0,1,0,1.439-1.438,1.439,1.439,0,0,0-1.439,1.438" transform="translate(-257.771 -249.03)" fill="#cfd9db"/>
          <path id="Trazado_1079041" data-name="Trazado 1079041" d="M307.835,278.592a1.438,1.438,0,1,0,1.438-1.438,1.439,1.439,0,0,0-1.438,1.438" transform="translate(-291.504 -249.03)" fill="#cfd9db"/>
          <path id="Trazado_1079042" data-name="Trazado 1079042" d="M327.659,278.592a1.438,1.438,0,1,0,1.438-1.438,1.439,1.439,0,0,0-1.438,1.438" transform="translate(-325.238 -249.03)" fill="#cfd9db"/>
          <path id="Trazado_1079043" data-name="Trazado 1079043" d="M188.893,278.592a1.438,1.438,0,1,0,1.438-1.438,1.439,1.439,0,0,0-1.438,1.438" transform="translate(-89.101 -249.03)" fill="#cfd9db"/>
          <path id="Trazado_1079044" data-name="Trazado 1079044" d="M208.717,278.592a1.438,1.438,0,1,0,1.438-1.438,1.439,1.439,0,0,0-1.438,1.438" transform="translate(-122.835 -249.03)" fill="#cfd9db"/>
          <path id="Trazado_1079045" data-name="Trazado 1079045" d="M228.541,278.592a1.438,1.438,0,1,0,1.438-1.438,1.439,1.439,0,0,0-1.438,1.438" transform="translate(-156.57 -249.03)" fill="#cfd9db"/>
          <path id="Trazado_1079046" data-name="Trazado 1079046" d="M248.364,278.592a1.438,1.438,0,1,0,1.439-1.438,1.439,1.439,0,0,0-1.439,1.438" transform="translate(-190.302 -249.03)" fill="#cfd9db"/>
          <path id="Trazado_1079047" data-name="Trazado 1079047" d="M258.788,322.312a1.438,1.438,0,1,0,1.439-1.439,1.439,1.439,0,0,0-1.439,1.439" transform="translate(-208.041 -262.071)" fill="#cfd9db"/>
          <path id="Trazado_1079048" data-name="Trazado 1079048" d="M278.611,322.312a1.438,1.438,0,1,0,1.438-1.439,1.439,1.439,0,0,0-1.438,1.439" transform="translate(-241.773 -262.071)" fill="#cfd9db"/>
          <path id="Trazado_1079049" data-name="Trazado 1079049" d="M298.435,322.312a1.438,1.438,0,1,0,1.438-1.439,1.439,1.439,0,0,0-1.438,1.439" transform="translate(-275.508 -262.071)" fill="#cfd9db"/>
          <path id="Trazado_1079050" data-name="Trazado 1079050" d="M318.259,322.312a1.438,1.438,0,1,0,1.438-1.439,1.439,1.439,0,0,0-1.438,1.439" transform="translate(-309.242 -262.071)" fill="#cfd9db"/>
          <path id="Trazado_1079051" data-name="Trazado 1079051" d="M179.493,322.312a1.439,1.439,0,1,0,1.438-1.439,1.439,1.439,0,0,0-1.438,1.439" transform="translate(-73.105 -262.071)" fill="#cfd9db"/>
          <path id="Trazado_1079052" data-name="Trazado 1079052" d="M199.317,322.312a1.438,1.438,0,1,0,1.438-1.439,1.439,1.439,0,0,0-1.438,1.439" transform="translate(-106.839 -262.071)" fill="#cfd9db"/>
          <path id="Trazado_1079053" data-name="Trazado 1079053" d="M219.141,322.312a1.438,1.438,0,1,0,1.438-1.439,1.439,1.439,0,0,0-1.438,1.439" transform="translate(-140.574 -262.071)" fill="#cfd9db"/>
          <path id="Trazado_1079054" data-name="Trazado 1079054" d="M238.964,322.312a1.438,1.438,0,1,0,1.438-1.439,1.439,1.439,0,0,0-1.438,1.439" transform="translate(-174.306 -262.071)" fill="#cfd9db"/>
          <path id="Trazado_1079055" data-name="Trazado 1079055" d="M268.188,307.739a1.438,1.438,0,1,0,1.439-1.439,1.439,1.439,0,0,0-1.439,1.439" transform="translate(-224.037 -257.724)" fill="#cfd9db"/>
          <path id="Trazado_1079056" data-name="Trazado 1079056" d="M288.012,307.739a1.438,1.438,0,1,0,1.439-1.439,1.439,1.439,0,0,0-1.439,1.439" transform="translate(-257.771 -257.724)" fill="#cfd9db"/>
          <path id="Trazado_1079057" data-name="Trazado 1079057" d="M307.835,307.739a1.438,1.438,0,1,0,1.438-1.439,1.439,1.439,0,0,0-1.438,1.439" transform="translate(-291.504 -257.724)" fill="#cfd9db"/>
          <path id="Trazado_1079058" data-name="Trazado 1079058" d="M327.659,307.739A1.438,1.438,0,1,0,329.1,306.3a1.439,1.439,0,0,0-1.438,1.439" transform="translate(-325.238 -257.724)" fill="#cfd9db"/>
          <path id="Trazado_1079059" data-name="Trazado 1079059" d="M188.893,307.739a1.438,1.438,0,1,0,1.438-1.439,1.439,1.439,0,0,0-1.438,1.439" transform="translate(-89.101 -257.724)" fill="#cfd9db"/>
          <path id="Trazado_1079060" data-name="Trazado 1079060" d="M208.717,307.739a1.438,1.438,0,1,0,1.438-1.439,1.439,1.439,0,0,0-1.438,1.439" transform="translate(-122.835 -257.724)" fill="#cfd9db"/>
          <path id="Trazado_1079061" data-name="Trazado 1079061" d="M228.541,307.739a1.438,1.438,0,1,0,1.438-1.439,1.439,1.439,0,0,0-1.438,1.439" transform="translate(-156.57 -257.724)" fill="#cfd9db"/>
          <path id="Trazado_1079062" data-name="Trazado 1079062" d="M248.364,307.739A1.438,1.438,0,1,0,249.8,306.3a1.439,1.439,0,0,0-1.439,1.439" transform="translate(-190.302 -257.724)" fill="#cfd9db"/>
          <path id="Trazado_1079063" data-name="Trazado 1079063" d="M258.788,351.457a1.438,1.438,0,1,0,1.439-1.439,1.439,1.439,0,0,0-1.439,1.439" transform="translate(-208.041 -270.766)" fill="#cfd9db"/>
          <path id="Trazado_1079064" data-name="Trazado 1079064" d="M278.611,351.457a1.438,1.438,0,1,0,1.438-1.439,1.439,1.439,0,0,0-1.438,1.439" transform="translate(-241.773 -270.766)" fill="#cfd9db"/>
          <path id="Trazado_1079065" data-name="Trazado 1079065" d="M298.435,351.457a1.438,1.438,0,1,0,1.438-1.439,1.439,1.439,0,0,0-1.438,1.439" transform="translate(-275.508 -270.766)" fill="#cfd9db"/>
          <path id="Trazado_1079066" data-name="Trazado 1079066" d="M318.259,351.457a1.438,1.438,0,1,0,1.438-1.439,1.439,1.439,0,0,0-1.438,1.439" transform="translate(-309.242 -270.766)" fill="#cfd9db"/>
          <path id="Trazado_1079067" data-name="Trazado 1079067" d="M179.493,351.457a1.439,1.439,0,1,0,1.438-1.439,1.439,1.439,0,0,0-1.438,1.439" transform="translate(-73.105 -270.766)" fill="#cfd9db"/>
          <path id="Trazado_1079068" data-name="Trazado 1079068" d="M199.317,351.457a1.438,1.438,0,1,0,1.438-1.439,1.439,1.439,0,0,0-1.438,1.439" transform="translate(-106.839 -270.766)" fill="#cfd9db"/>
          <path id="Trazado_1079069" data-name="Trazado 1079069" d="M219.141,351.457a1.438,1.438,0,1,0,1.438-1.439,1.439,1.439,0,0,0-1.438,1.439" transform="translate(-140.574 -270.766)" fill="#cfd9db"/>
          <path id="Trazado_1079070" data-name="Trazado 1079070" d="M238.964,351.457a1.438,1.438,0,1,0,1.438-1.439,1.439,1.439,0,0,0-1.438,1.439" transform="translate(-174.306 -270.766)" fill="#cfd9db"/>
          <path id="Trazado_1079071" data-name="Trazado 1079071" d="M268.188,336.884a1.438,1.438,0,1,0,1.439-1.438,1.439,1.439,0,0,0-1.439,1.438" transform="translate(-224.037 -266.419)" fill="#cfd9db"/>
          <path id="Trazado_1079072" data-name="Trazado 1079072" d="M288.012,336.884a1.438,1.438,0,1,0,1.439-1.438,1.439,1.439,0,0,0-1.439,1.438" transform="translate(-257.771 -266.419)" fill="#cfd9db"/>
          <path id="Trazado_1079073" data-name="Trazado 1079073" d="M307.835,336.884a1.438,1.438,0,1,0,1.438-1.438,1.439,1.439,0,0,0-1.438,1.438" transform="translate(-291.504 -266.419)" fill="#cfd9db"/>
          <path id="Trazado_1079074" data-name="Trazado 1079074" d="M327.659,336.884a1.438,1.438,0,1,0,1.438-1.438,1.439,1.439,0,0,0-1.438,1.438" transform="translate(-325.238 -266.419)" fill="#cfd9db"/>
          <path id="Trazado_1079075" data-name="Trazado 1079075" d="M188.893,336.884a1.438,1.438,0,1,0,1.438-1.438,1.439,1.439,0,0,0-1.438,1.438" transform="translate(-89.101 -266.419)" fill="#cfd9db"/>
          <path id="Trazado_1079076" data-name="Trazado 1079076" d="M208.717,336.884a1.438,1.438,0,1,0,1.438-1.438,1.439,1.439,0,0,0-1.438,1.438" transform="translate(-122.835 -266.419)" fill="#cfd9db"/>
          <path id="Trazado_1079077" data-name="Trazado 1079077" d="M228.541,336.884a1.438,1.438,0,1,0,1.438-1.438,1.439,1.439,0,0,0-1.438,1.438" transform="translate(-156.57 -266.419)" fill="#cfd9db"/>
          <path id="Trazado_1079078" data-name="Trazado 1079078" d="M248.364,336.884a1.438,1.438,0,1,0,1.439-1.438,1.439,1.439,0,0,0-1.439,1.438" transform="translate(-190.302 -266.419)" fill="#cfd9db"/>
          <path id="Trazado_1079079" data-name="Trazado 1079079" d="M258.788,380.6a1.438,1.438,0,1,0,1.439-1.439,1.439,1.439,0,0,0-1.439,1.439" transform="translate(-208.041 -279.46)" fill="#cfd9db"/>
          <path id="Trazado_1079080" data-name="Trazado 1079080" d="M278.611,380.6a1.438,1.438,0,1,0,1.438-1.439,1.439,1.439,0,0,0-1.438,1.439" transform="translate(-241.773 -279.46)" fill="#cfd9db"/>
          <path id="Trazado_1079081" data-name="Trazado 1079081" d="M298.435,380.6a1.438,1.438,0,1,0,1.438-1.439,1.439,1.439,0,0,0-1.438,1.439" transform="translate(-275.508 -279.46)" fill="#cfd9db"/>
          <path id="Trazado_1079082" data-name="Trazado 1079082" d="M318.259,380.6a1.438,1.438,0,1,0,1.438-1.439,1.439,1.439,0,0,0-1.438,1.439" transform="translate(-309.242 -279.46)" fill="#cfd9db"/>
          <path id="Trazado_1079083" data-name="Trazado 1079083" d="M179.493,380.6a1.439,1.439,0,1,0,1.438-1.439,1.439,1.439,0,0,0-1.438,1.439" transform="translate(-73.105 -279.46)" fill="#cfd9db"/>
          <path id="Trazado_1079084" data-name="Trazado 1079084" d="M199.317,380.6a1.438,1.438,0,1,0,1.438-1.439,1.439,1.439,0,0,0-1.438,1.439" transform="translate(-106.839 -279.46)" fill="#cfd9db"/>
          <path id="Trazado_1079085" data-name="Trazado 1079085" d="M219.141,380.6a1.438,1.438,0,1,0,1.438-1.439,1.439,1.439,0,0,0-1.438,1.439" transform="translate(-140.574 -279.46)" fill="#cfd9db"/>
          <path id="Trazado_1079086" data-name="Trazado 1079086" d="M238.964,380.6a1.438,1.438,0,1,0,1.438-1.439,1.439,1.439,0,0,0-1.438,1.439" transform="translate(-174.306 -279.46)" fill="#cfd9db"/>
          <path id="Trazado_1079087" data-name="Trazado 1079087" d="M268.188,366.031a1.438,1.438,0,1,0,1.439-1.439,1.439,1.439,0,0,0-1.439,1.439" transform="translate(-224.037 -275.113)" fill="#cfd9db"/>
          <path id="Trazado_1079088" data-name="Trazado 1079088" d="M288.012,366.031a1.438,1.438,0,1,0,1.439-1.439,1.439,1.439,0,0,0-1.439,1.439" transform="translate(-257.771 -275.113)" fill="#cfd9db"/>
          <path id="Trazado_1079089" data-name="Trazado 1079089" d="M307.835,366.031a1.438,1.438,0,1,0,1.438-1.439,1.439,1.439,0,0,0-1.438,1.439" transform="translate(-291.504 -275.113)" fill="#cfd9db"/>
          <path id="Trazado_1079090" data-name="Trazado 1079090" d="M327.659,366.031a1.438,1.438,0,1,0,1.438-1.439,1.439,1.439,0,0,0-1.438,1.439" transform="translate(-325.238 -275.113)" fill="#cfd9db"/>
          <path id="Trazado_1079091" data-name="Trazado 1079091" d="M188.893,366.031a1.438,1.438,0,1,0,1.438-1.439,1.439,1.439,0,0,0-1.438,1.439" transform="translate(-89.101 -275.113)" fill="#cfd9db"/>
          <path id="Trazado_1079092" data-name="Trazado 1079092" d="M208.717,366.031a1.438,1.438,0,1,0,1.438-1.439,1.439,1.439,0,0,0-1.438,1.439" transform="translate(-122.835 -275.113)" fill="#cfd9db"/>
          <path id="Trazado_1079093" data-name="Trazado 1079093" d="M228.541,366.031a1.438,1.438,0,1,0,1.438-1.439,1.439,1.439,0,0,0-1.438,1.439" transform="translate(-156.57 -275.113)" fill="#cfd9db"/>
          <path id="Trazado_1079094" data-name="Trazado 1079094" d="M248.364,366.031a1.438,1.438,0,1,0,1.439-1.439,1.439,1.439,0,0,0-1.439,1.439" transform="translate(-190.302 -275.113)" fill="#cfd9db"/>
          <path id="Trazado_1079095" data-name="Trazado 1079095" d="M268.188,395.176a1.438,1.438,0,1,0,1.439-1.438,1.439,1.439,0,0,0-1.439,1.438" transform="translate(-224.037 -283.807)" fill="#cfd9db"/>
          <path id="Trazado_1079096" data-name="Trazado 1079096" d="M288.012,395.176a1.438,1.438,0,1,0,1.439-1.438,1.439,1.439,0,0,0-1.439,1.438" transform="translate(-257.771 -283.807)" fill="#cfd9db"/>
          <path id="Trazado_1079097" data-name="Trazado 1079097" d="M307.835,395.176a1.438,1.438,0,1,0,1.438-1.438,1.439,1.439,0,0,0-1.438,1.438" transform="translate(-291.504 -283.807)" fill="#cfd9db"/>
          <path id="Trazado_1079098" data-name="Trazado 1079098" d="M327.659,395.176a1.438,1.438,0,1,0,1.438-1.438,1.439,1.439,0,0,0-1.438,1.438" transform="translate(-325.238 -283.807)" fill="#cfd9db"/>
          <path id="Trazado_1079099" data-name="Trazado 1079099" d="M188.893,395.176a1.438,1.438,0,1,0,1.438-1.438,1.439,1.439,0,0,0-1.438,1.438" transform="translate(-89.101 -283.807)" fill="#cfd9db"/>
          <path id="Trazado_1079100" data-name="Trazado 1079100" d="M208.717,395.176a1.438,1.438,0,1,0,1.438-1.438,1.439,1.439,0,0,0-1.438,1.438" transform="translate(-122.835 -283.807)" fill="#cfd9db"/>
          <path id="Trazado_1079101" data-name="Trazado 1079101" d="M228.541,395.176a1.438,1.438,0,1,0,1.438-1.438,1.439,1.439,0,0,0-1.438,1.438" transform="translate(-156.57 -283.807)" fill="#cfd9db"/>
          <path id="Trazado_1079102" data-name="Trazado 1079102" d="M248.364,395.176a1.438,1.438,0,1,0,1.439-1.438,1.439,1.439,0,0,0-1.439,1.438" transform="translate(-190.302 -283.807)" fill="#cfd9db"/>
        </g>
      </g>
      <g id="Grupo_1210602" data-name="Grupo 1210602">
        <g id="Grupo_1210601" data-name="Grupo 1210601" clip-path="url(#clip-path-3)">
          <path id="Trazado_1079104" data-name="Trazado 1079104" d="M212.161,237.074s-10.574,5.317-8.761,25.075,7.07,29.184,7.794,30.09,4.066-.627,7.794-3.626" transform="translate(-10.719 -70.72)" fill="none" stroke="#3f6476" stroke-linecap="round" stroke-linejoin="round" stroke-width="1.5"/>
          <path id="Trazado_1079105" data-name="Trazado 1079105" d="M305.024,283.65c-.871-11.42,14.489-38.3,14.489-38.3" transform="translate(-182.674 -73.188)" fill="none" stroke="#3f6476" stroke-linecap="round" stroke-linejoin="round" stroke-width="1.5"/>
          <path id="Trazado_1079106" data-name="Trazado 1079106" d="M276.986,325.967s-18.891-3.755-36.055-2.175" transform="translate(-95.198 -96.472)" fill="none" stroke="#3f6476" stroke-linecap="round" stroke-linejoin="round" stroke-width="1.5"/>
          <path id="Trazado_1079107" data-name="Trazado 1079107" d="M287.134,327.057s-16.945,1.813-24.786,4.713" transform="translate(-120.374 -97.562)" fill="none" stroke="#3f6476" stroke-linecap="round" stroke-linejoin="round" stroke-width="1.5"/>
          <line id="Línea_163" data-name="Línea 163" x2="17.73" y2="54.309" transform="translate(205.141 220.13)" fill="none" stroke="#3f6476" stroke-linecap="round" stroke-linejoin="round" stroke-width="1.5" stroke-dasharray="5 4"/>
          <path id="Trazado_1079108" data-name="Trazado 1079108" d="M257.222,208.87a103.91,103.91,0,0,0,0,20.032s1.935.772,7.843-.241c6.124-1.05,9.486,0,9.486,0a20.672,20.672,0,0,0-12.749,5.371c-7.8,7.267-21.033,20.734-31.359,20.739-15.226.008-17.522-20.793-17.522-20.793s12.93-2.3,16.193-4.713.653-18.069.653-18.069Z" transform="translate(-73.109 -62.306)" fill="#b55d52"/>
          <path id="Trazado_1079109" data-name="Trazado 1079109" d="M237.618,211.2l27.455-2.325s-.318,3.022-.449,7.238c-2.675,4.1-7.55,9.359-15.091,9.653a15.631,15.631,0,0,1-10.928-3.376,78.9,78.9,0,0,0-.987-11.189" transform="translate(-80.96 -62.306)" fill="#913d48"/>
          <path id="Trazado_1079110" data-name="Trazado 1079110" d="M237.617,235.044a7.564,7.564,0,0,0,1.149-3.814c1.581,1.415,4.951,3.492,11.055,3.332a29.284,29.284,0,0,0,15.108-5.1c.073,1.859.208,3.752.433,5.586a26.3,26.3,0,0,1-15.54,6.646c-9.546.6-12.2-6.646-12.2-6.646" transform="translate(-81.248 -68.448)" fill="#154353"/>
          <path id="Trazado_1079111" data-name="Trazado 1079111" d="M243.02,106.2c23.663-.023,35.447,16.152,34.357,37.77-1.366,27.076-18.43,38.679-34.357,39.59s-31.171-12.969-32.537-38.339S227.76,106.212,243.02,106.2" transform="translate(-74.244 -31.679)" fill="#b55d52"/>
          <path id="Trazado_1079112" data-name="Trazado 1079112" d="M266.189,144.783s1.025,10.808-.909,17.634c0,0-2.844-2.276-4.892-1.707s-2.276,5.8,0,9.784" transform="translate(-97.187 -43.189)" fill="none" stroke="#702c37" stroke-linecap="round" stroke-linejoin="round" stroke-width="1.5"/>
          <path id="Trazado_1079113" data-name="Trazado 1079113" d="M267.466,188.234s-7.509,10.694-19.34,1.707" transform="translate(-90.727 -56.151)" fill="none" stroke="#702c37" stroke-linecap="round" stroke-linejoin="round" stroke-width="1.5"/>
          <path id="Trazado_1079114" data-name="Trazado 1079114" d="M233.7,160.623c0,1.854,1.121,3.356,2.5,3.356s2.5-1.5,2.5-3.356-1.121-3.356-2.5-3.356-2.5,1.5-2.5,3.356" transform="translate(-51.837 -46.913)" fill="#154353"/>
          <path id="Trazado_1079115" data-name="Trazado 1079115" d="M272.121,158.52c0,1.853,1.121,3.356,2.5,3.356s2.5-1.5,2.5-3.356-1.121-3.356-2.5-3.356-2.5,1.5-2.5,3.356" transform="translate(-117.225 -46.286)" fill="#154353"/>
          <path id="Trazado_1079116" data-name="Trazado 1079116" d="M222.865,167.239a12.951,12.951,0,0,1,9.968,3,42.77,42.77,0,0,1-6.733,16.691q-.59.111-1.2.175c-6.61.676-12.424-3.221-12.985-8.707s4.342-10.479,10.952-11.156" transform="translate(-30.652 -49.865)" fill="#9b4253"/>
          <path id="Trazado_1079117" data-name="Trazado 1079117" d="M287.063,160.121c6.566,1.018,11.2,6.261,10.358,11.709s-6.853,9.039-13.419,8.02a14.364,14.364,0,0,1-2.01-.47,53.663,53.663,0,0,1-3.917-17.586,13.281,13.281,0,0,1,8.987-1.674" transform="translate(-141.798 -47.713)" fill="#9b4253"/>
          <path id="Trazado_1079118" data-name="Trazado 1079118" d="M184.515,138.27h0c.747-8.745.817-29.649,5.385-33.962,15.358-14.505,42.4-18.833,50.568-16.383,4.551,1.366,9.55,16.383,9.55,16.383s13.943.171,15.991,4.1,7.849,29.124,9.727,34.7a7,7,0,0,0,2.428,3.306c-4.134.248-11.8.179-18.547-2.793,0,0-11.014-3.13-16.987-32.31,0,0-27.492,27.482-58.115,26.966" transform="translate(-56.789 -26.036)" fill="#ffb878"/>
          <path id="Trazado_1079119" data-name="Trazado 1079119" d="M296.725,89.707S280.2,101.79,274.171,112.2s-8.252,26.575-8.252,26.575" transform="translate(-132.471 -26.76)" fill="none" stroke="#ef9d5b" stroke-linecap="round" stroke-linejoin="round" stroke-width="1"/>
          <path id="Trazado_1079120" data-name="Trazado 1079120" d="M299.1,147.141s-2.777-13.435.75-25.38" transform="translate(-158.148 -36.322)" fill="none" stroke="#ef9d5b" stroke-linecap="round" stroke-linejoin="round" stroke-width="1"/>
          <path id="Trazado_1079121" data-name="Trazado 1079121" d="M216.707,117.384s.126,15.71-14.869,26.8" transform="translate(-7.487 -35.016)" fill="none" stroke="#ef9d5b" stroke-linecap="round" stroke-linejoin="round" stroke-width="1"/>
          <path id="Trazado_1079122" data-name="Trazado 1079122" d="M209.208,122.651c.19.621,1.724,19.434-9.539,30.58" transform="translate(1.359 -36.587)" fill="none" stroke="#ef9d5b" stroke-linecap="round" stroke-linejoin="round" stroke-width="1"/>
          <path id="Trazado_1079123" data-name="Trazado 1079123" d="M232.014,111.547h-5l4.266,6.314-6.655.683" transform="translate(-38.784 -33.275)" fill="none" stroke="#ef9d5b" stroke-linecap="round" stroke-linejoin="round" stroke-width="1"/>
          <path id="Trazado_1079124" data-name="Trazado 1079124" d="M243.25,142.363c.251-3.236-2.152-6.428-4.635-8.223a12.213,12.213,0,0,0-4.522-1.982,9.591,9.591,0,0,0-2.743-.144,4.465,4.465,0,0,0-2.071.5c-.359.352.342.407.646.5.756.232,1.488.506,2.229.782a19.226,19.226,0,0,1,4.552,2.534,29.545,29.545,0,0,1,4.146,3.586c.563.6,1.107,1.228,1.616,1.876.069.088.751,1.177.782.57" transform="translate(-53.235 -39.368)" fill="#ef9d5b"/>
          <path id="Trazado_1079125" data-name="Trazado 1079125" d="M281.479,130.018c-2.4-2.059-6.509-1.695-9.116-.328-2.636,1.381-5.172,4.3-4.655,7.5.08.5.69-.524.74-.594a12.166,12.166,0,0,1,1.5-1.761,15.236,15.236,0,0,1,3.883-2.643,16.169,16.169,0,0,1,4.725-1.531,20.248,20.248,0,0,1,2.24-.311c.124-.011,1.133.02.683-.331" transform="translate(-118.547 -38.353)" fill="#ef9d5b"/>
          <path id="Trazado_1079126" data-name="Trazado 1079126" d="M194.3,181.978l5.875-17.155s4.208-9.24,9.8-5.593-1.768,23.2-15.677,22.748" transform="translate(2.656 -47.244)" fill="#b55d52"/>
          <path id="Trazado_1079127" data-name="Trazado 1079127" d="M212.273,171.779c-2.245,6.378-8.229,13.313-16.578,13.04l5.489-16.027c2.642-.887,9.05-2.387,11.088,2.986" transform="translate(1.257 -50.086)" fill="#913d48"/>
          <path id="Trazado_1079128" data-name="Trazado 1079128" d="M316.357,171.238l-2.795-17.916s-2.533-9.832-8.677-7.216-2.3,23.155,11.471,25.133" transform="translate(-177.455 -43.451)" fill="#b55d52"/>
          <path id="Trazado_1079129" data-name="Trazado 1079129" d="M302.05,158.463c1.1,6.672,5.783,14.543,14.051,15.731l-2.611-16.738c-2.448-1.334-8.5-3.928-11.44,1.008" transform="translate(-177.2 -46.408)" fill="#913d48"/>
          <g id="Grupo_1210567" data-name="Grupo 1210567" transform="translate(266.025 36.354)" opacity="0.3">
            <g id="Grupo_1210566" data-name="Grupo 1210566">
              <g id="Grupo_1210565" data-name="Grupo 1210565" clip-path="url(#clip-path-6)">
                <path id="Trazado_1079130" data-name="Trazado 1079130" d="M92.021,176.937c.475-6.282-15.2-12-40.756-16.078L56.771,51.953l.025-.145C83.982,56.491,100.639,63,100.1,70.078Z" transform="translate(-51.265 -51.808)" fill="#8cbddd"/>
              </g>
            </g>
          </g>
          <g id="Grupo_1210570" data-name="Grupo 1210570" transform="translate(31.25 35.582)" opacity="0.3">
            <g id="Grupo_1210569" data-name="Grupo 1210569">
              <g id="Grupo_1210568" data-name="Grupo 1210568" clip-path="url(#clip-path-7)">
                <path id="Trazado_1079131" data-name="Trazado 1079131" d="M395.909,176.425,387.736,68.588c-.528-6.962,15.488-13.217,41.707-17.656l-.037-.224,5.852,109.915c-24.71,4.019-39.817,9.62-39.348,15.8" transform="translate(-387.723 -50.708)" fill="#8cbddd"/>
              </g>
            </g>
          </g>
          <g id="Grupo_1210573" data-name="Grupo 1210573" transform="translate(31.263 53.462)" opacity="0.3">
            <g id="Grupo_1210572" data-name="Grupo 1210572">
              <g id="Grupo_1210571" data-name="Grupo 1210571" clip-path="url(#clip-path-8)">
                <path id="Trazado_1079132" data-name="Trazado 1079132" d="M59.456,184.026,51.283,76.189c1.031,13.6,64.949,24.688,142.433,24.945,77.1.256,140.149-10.314,141.168-23.783L326.8,184.21c-.906,11.98-60.361,21.574-133.11,21.574-73.087,0-133.32-9.675-134.235-21.758" transform="translate(-51.283 -76.189)" fill="#8cbddd"/>
              </g>
            </g>
          </g>
          <g id="Grupo_1210576" data-name="Grupo 1210576" transform="translate(260.676 72.33)" opacity="0.5" style="mix-blend-mode: multiply;isolation: isolate">
            <g id="Grupo_1210575" data-name="Grupo 1210575">
              <g id="Grupo_1210574" data-name="Grupo 1210574" clip-path="url(#clip-path-9)">
                <path id="Trazado_1079133" data-name="Trazado 1079133" d="M79.983,130.546v-23.2c12.664-1.116,24.14-2.559,34.024-4.265l.025.143v23.2l-.036-.2C104.175,127.949,92.7,129.413,79.983,130.546Z" transform="translate(-79.983 -103.079)" fill="#8cbddd"/>
              </g>
            </g>
          </g>
          <g id="Grupo_1210579" data-name="Grupo 1210579" transform="translate(238.81 58.597)" opacity="0.5" style="mix-blend-mode: multiply;isolation: isolate">
            <g id="Grupo_1210578" data-name="Grupo 1210578">
              <g id="Grupo_1210577" data-name="Grupo 1210577" clip-path="url(#clip-path-10)">
                <path id="Trazado_1079134" data-name="Trazado 1079134" d="M111.145,110.974v-23.2c12.664-1.116,24.14-2.559,34.024-4.265l.025.143v23.2l-.036-.2C135.337,108.377,123.858,109.841,111.145,110.974Z" transform="translate(-111.145 -83.507)" fill="#8cbddd"/>
              </g>
            </g>
          </g>
          <g id="Grupo_1210582" data-name="Grupo 1210582" transform="translate(58.679 91.078)" opacity="0.5" style="mix-blend-mode: multiply;isolation: isolate">
            <g id="Grupo_1210581" data-name="Grupo 1210581">
              <g id="Grupo_1210580" data-name="Grupo 1210580" clip-path="url(#clip-path-11)">
                <path id="Trazado_1079135" data-name="Trazado 1079135" d="M404.579,158.215l-1.764-23.548c-9.86-1.416-18.614-3.055-25.984-4.87l2.345,23.809h0c7.247,1.72,15.8,3.27,25.4,4.609" transform="translate(-376.831 -129.797)" fill="#8cbddd"/>
              </g>
            </g>
          </g>
          <g id="Grupo_1210585" data-name="Grupo 1210585" transform="translate(75.174 80.385)" opacity="0.5" style="mix-blend-mode: multiply;isolation: isolate">
            <g id="Grupo_1210584" data-name="Grupo 1210584">
              <g id="Grupo_1210583" data-name="Grupo 1210583" clip-path="url(#clip-path-12)">
                <path id="Trazado_1079136" data-name="Trazado 1079136" d="M381.074,142.976l-1.764-23.548c-9.86-1.416-18.614-3.054-25.984-4.87l2.345,23.809h0c7.247,1.72,15.8,3.27,25.4,4.609" transform="translate(-353.327 -114.558)" fill="#8cbddd"/>
              </g>
            </g>
          </g>
          <g id="Grupo_1210588" data-name="Grupo 1210588" transform="translate(249.16 89.461)" opacity="0.5" style="mix-blend-mode: multiply;isolation: isolate">
            <g id="Grupo_1210587" data-name="Grupo 1210587">
              <g id="Grupo_1210586" data-name="Grupo 1210586" clip-path="url(#clip-path-13)">
                <path id="Trazado_1079137" data-name="Trazado 1079137" d="M44.535,176.724l.383-29.1c40.312-4.111,69.389-11.327,70.055-20.137l-2.588,32.9,0,0c-7.905,7.059-33.252,12.953-67.853,16.331" transform="translate(-44.535 -127.492)" fill="#8cbddd"/>
              </g>
            </g>
          </g>
          <path id="Trazado_1079138" data-name="Trazado 1079138" d="M89.43,166.52c10.15-1.252,19.383-2.714,27.372-4.359" transform="translate(171.294 -48.373)" fill="none" stroke="#fff" stroke-miterlimit="10" stroke-width="2"/>
          <path id="Trazado_1079139" data-name="Trazado 1079139" d="M89.85,172.747c10.072-1.239,19.244-2.687,27.2-4.313" transform="translate(170.754 -50.244)" fill="none" stroke="#fff" stroke-miterlimit="10" stroke-width="2"/>
          <path id="Trazado_1079140" data-name="Trazado 1079140" d="M90.269,178.976c10-1.227,19.107-2.659,27.022-4.268" transform="translate(170.216 -52.116)" fill="none" stroke="#fff" stroke-miterlimit="10" stroke-width="2"/>
          <path id="Trazado_1079141" data-name="Trazado 1079141" d="M90.69,185.2c9.919-1.215,18.97-2.632,26.848-4.223" transform="translate(169.673 -53.987)" fill="none" stroke="#fff" stroke-miterlimit="10" stroke-width="2"/>
          <path id="Trazado_1079142" data-name="Trazado 1079142" d="M89.012,160.292c10.227-1.264,19.521-2.742,27.544-4.4" transform="translate(171.833 -46.501)" fill="none" stroke="#fff" stroke-miterlimit="10" stroke-width="2"/>
          <g id="Grupo_1210591" data-name="Grupo 1210591" transform="translate(290.774 100.716)" opacity="0.8" style="mix-blend-mode: multiply;isolation: isolate">
            <g id="Grupo_1210590" data-name="Grupo 1210590">
              <g id="Grupo_1210589" data-name="Grupo 1210589" clip-path="url(#clip-path-14)">
                <path id="Trazado_1079143" data-name="Trazado 1079143" d="M75.373,143.532c-4.742,2.965-12.845,5.663-23.435,8.017h0l-.655,17.512c10.086-2.208,17.975-4.722,22.934-7.48v0Z" transform="translate(-51.282 -143.532)" fill="#8cbddd"/>
              </g>
            </g>
          </g>
          <g id="Grupo_1210594" data-name="Grupo 1210594" transform="translate(39.887 114.669)" opacity="0.5" style="mix-blend-mode: multiply;isolation: isolate">
            <g id="Grupo_1210593" data-name="Grupo 1210593">
              <g id="Grupo_1210592" data-name="Grupo 1210592" clip-path="url(#clip-path-15)">
                <path id="Trazado_1079144" data-name="Trazado 1079144" d="M416.925,243.162c-25.173-3.735-46.868-8.6-56.49-14.106l0-.006-5.216-65.633c9.946,6.056,30.154,11.4,57.176,15.47Z" transform="translate(-355.22 -163.416)" fill="#8cbddd"/>
              </g>
            </g>
          </g>
          <g id="Grupo_1210597" data-name="Grupo 1210597" transform="translate(47.339 145.634)" opacity="0.8" style="mix-blend-mode: multiply;isolation: isolate">
            <g id="Grupo_1210596" data-name="Grupo 1210596">
              <g id="Grupo_1210595" data-name="Grupo 1210595" clip-path="url(#clip-path-16)">
                <path id="Trazado_1079145" data-name="Trazado 1079145" d="M385.036,219.282a13.792,13.792,0,0,1,.674-4.144l5.072,1.069-2.424-5.418a10.608,10.608,0,0,1,3.262-2.23l4.583,4.111.842-5.126a16.3,16.3,0,0,1,2.326.216,18.545,18.545,0,0,1,2.384.567l2.105,5.683,3.974-2.7a25.9,25.9,0,0,1,4.169,3.6l-1.38,4.923,5.478.85a21.99,21.99,0,0,1,1.827,4.84l-4.255,2.17,4.692,3.866a12.671,12.671,0,0,1-1.129,4.033l-5.313-1.234,2.17,5.125a10.985,10.985,0,0,1-3.431,1.763l-4.355-3.886-.927,4.391a17.108,17.108,0,0,1-2.17-.335,19.311,19.311,0,0,1-2.189-.626l-1.968-4.974-3.525,2.136a25.853,25.853,0,0,1-3.784-3.243l.989-4.3-4.87-.869a22.854,22.854,0,0,1-1.941-4.442L389.555,223Zm17.176,13.37c4.042.834,7.044-1.766,6.65-5.9a10.887,10.887,0,0,0-8.36-9.093c-4.129-.752-6.983,2.07-6.435,6.214a10.984,10.984,0,0,0,8.145,8.775" transform="translate(-385.036 -207.545)" fill="#8cbddd"/>
              </g>
            </g>
          </g>
          <g id="Grupo_1210600" data-name="Grupo 1210600" transform="translate(72.292 139.024)" opacity="0.8" style="mix-blend-mode: multiply;isolation: isolate">
            <g id="Grupo_1210599" data-name="Grupo 1210599">
              <g id="Grupo_1210598" data-name="Grupo 1210598" clip-path="url(#clip-path-17)">
                <path id="Trazado_1079146" data-name="Trazado 1079146" d="M373.1,204.025a6.954,6.954,0,0,1,.34-2.083l2.549.537-1.219-2.723a5.332,5.332,0,0,1,1.64-1.121l2.3,2.066.423-2.577a8.152,8.152,0,0,1,1.17.108,9.4,9.4,0,0,1,1.2.286l1.058,2.857,2-1.359a13.026,13.026,0,0,1,2.1,1.81l-.694,2.475,2.754.427a11.089,11.089,0,0,1,.919,2.433l-2.139,1.091,2.358,1.943a6.357,6.357,0,0,1-.568,2.027l-2.671-.62,1.091,2.577a5.528,5.528,0,0,1-1.725.886l-2.189-1.954-.466,2.207a8.607,8.607,0,0,1-1.091-.168,9.706,9.706,0,0,1-1.1-.314l-.989-2.5-1.772,1.074a13.022,13.022,0,0,1-1.9-1.63l.5-2.164-2.448-.437a11.477,11.477,0,0,1-.975-2.233l1.825-1.051Zm8.634,6.721a2.615,2.615,0,0,0,3.343-2.964,5.473,5.473,0,0,0-4.2-4.571,2.619,2.619,0,0,0-3.235,3.124,5.521,5.521,0,0,0,4.094,4.411" transform="translate(-373.099 -198.125)" fill="#8cbddd"/>
              </g>
            </g>
          </g>
          <line id="Línea_164" data-name="Línea 164" x1="80.567" transform="translate(135.141 150.469)" fill="none" stroke="#fff" stroke-miterlimit="10" stroke-width="2"/>
          <line id="Línea_165" data-name="Línea 165" x1="80.567" transform="translate(135.141 155.813)" fill="none" stroke="#fff" stroke-miterlimit="10" stroke-width="2"/>
          <line id="Línea_166" data-name="Línea 166" x1="80.567" transform="translate(135.141 161.618)" fill="none" stroke="#fff" stroke-miterlimit="10" stroke-width="2"/>
          <path id="Trazado_1079147" data-name="Trazado 1079147" d="M128.745,185.672c-1.042.3-1.26,7.562-3.393,14.543s-4.075,11.243-5.817,14.058,3.331,11.828,4.089,15.124,6.153,47.311,7.275,56.522c1.379,11.315,13.872,19.342,20.271,20.215s8.6-16.676,5.691-23.948-18.915-46.584-19.3-49.687,17.94-11.4,19.3-13.846-4.751-22.176-7.756-23.846-15.872,10.03-17,9.609,2.264-6.823,1.2-10.893-3.2-8.239-4.557-7.851" transform="translate(109.1 -55.379)" fill="#b55d52"/>
          <path id="Trazado_1079148" data-name="Trazado 1079148" d="M104.531,212.775a2.751,2.751,0,0,0,1.248,3.686l20.226,10a2.751,2.751,0,0,0,3.686-1.248l19.465-39.38a2.751,2.751,0,0,0-1.247-3.686l-20.226-10A2.751,2.751,0,0,0,124,173.4Z" transform="translate(128.259 -51.267)" fill="#cfd9db"/>
          <path id="Trazado_1079149" data-name="Trazado 1079149" d="M144.612,236.216a.9.9,0,0,0,.406,1.2l6.532,3.228a.9.9,0,1,0,.8-1.608l-6.532-3.229a.9.9,0,0,0-1.2.406" transform="translate(96.595 -70.315)" fill="#adbec8"/>
          <path id="Trazado_1079150" data-name="Trazado 1079150" d="M108.076,210.4a2.356,2.356,0,0,0,1.068,3.156l17.318,8.56a2.356,2.356,0,0,0,3.156-1.068l16.667-33.718a2.356,2.356,0,0,0-1.068-3.156L127.9,175.618a2.356,2.356,0,0,0-3.156,1.068Z" transform="translate(128.654 -52.314)" fill="#0c486a"/>
        </g>
      </g>
      <g id="Grupo_1210604" data-name="Grupo 1210604" transform="translate(236.486 123.06)">
        <g id="Grupo_1210603" data-name="Grupo 1210603" transform="translate(0 0)" clip-path="url(#clip-path-18)">
          <line id="Línea_167" data-name="Línea 167" x1="10.895" y1="36.12" transform="translate(23.038 -2.598)" fill="none" stroke="#1d73a8" stroke-miterlimit="10" stroke-width="3"/>
          <line id="Línea_168" data-name="Línea 168" x1="10.895" y1="36.12" transform="translate(18.014 -0.918)" fill="none" stroke="#1d73a8" stroke-miterlimit="10" stroke-width="6"/>
        </g>
      </g>
      <g id="Grupo_1210606" data-name="Grupo 1210606">
        <g id="Grupo_1210605" data-name="Grupo 1210605" clip-path="url(#clip-path-3)">
          <path id="Trazado_1079152" data-name="Trazado 1079152" d="M160.427,200.215c2.133-6.98,2.351-14.245,3.393-14.543,1.357-.388,3.49,3.781,4.557,7.852.933,3.56-1.547,8.905-1.427,10.469-1.59,4.211.264,11.927-1.336,16.241-1.079,2.911-5.534,4.406-9.121,3.375-1.479-3.618-2.942-7.625-1.883-9.337,1.742-2.815,3.684-7.077,5.817-14.058" transform="translate(74.025 -55.379)" fill="#b55d52"/>
          <path id="Trazado_1079153" data-name="Trazado 1079153" d="M116.883,199.761c.025-1.909-3.215-1.6-6.517-.956-4.4.861-3.651,4.879-2.01,5.332,1.236.341,5.932.836,6.7,0s1.789-1.292,1.829-4.376" transform="translate(158.835 -59.156)" fill="#b55d52"/>
          <path id="Trazado_1079154" data-name="Trazado 1079154" d="M119.383,208.7c.025-1.909-3.215-1.6-6.517-.956-4.4.861-3.651,4.879-2.01,5.332,1.236.341,5.932.836,6.7,0s1.789-1.292,1.829-4.376" transform="translate(154.58 -61.821)" fill="#b55d52"/>
          <path id="Trazado_1079155" data-name="Trazado 1079155" d="M123.405,217.658c.025-1.909-3.215-1.6-6.517-.956-4.4.861-3.651,4.879-2.01,5.332,1.236.341,5.932.836,6.7,0s1.789-1.292,1.829-4.376" transform="translate(147.736 -64.495)" fill="#b55d52"/>
          <path id="Trazado_1079156" data-name="Trazado 1079156" d="M125.378,226.362c.02-1.572-2.648-1.32-5.367-.788-3.624.709-3.006,4.018-1.655,4.391,1.017.281,4.885.688,5.515,0s1.473-1.064,1.507-3.6" transform="translate(143.163 -67.167)" fill="#b55d52"/>
        </g>
      </g>
      <rect id="Rectángulo_418221" data-name="Rectángulo 418221" width="350.849" height="351.375" fill="none"/>
    </g>
  </g>
</svg>
