<svg xmlns="http://www.w3.org/2000/svg" xmlns:xlink="http://www.w3.org/1999/xlink" width="108" height="108" viewBox="0 0 108 108">
  <defs>
    <filter id="Trazado_904820" x="0" y="0" width="108" height="108" filterUnits="userSpaceOnUse">
      <feOffset dy="3" input="SourceAlpha"/>
      <feGaussianBlur stdDeviation="3" result="blur"/>
      <feFlood flood-opacity="0.161"/>
      <feComposite operator="in" in2="blur"/>
      <feComposite in="SourceGraphic"/>
    </filter>
  </defs>
  <g id="Grupo_1210814" data-name="Grupo 1210814" transform="translate(-198 -1321)">
    <g id="Grupo_1209471" data-name="Grupo 1209471" transform="translate(4 -3472.055)">
      <g id="Grupo_1208067" data-name="Grupo 1208067" transform="translate(203 4797.713)">
        <g id="Grupo_1206630" data-name="Grupo 1206630" transform="translate(0 1.342)">
          <g id="Grupo_1185091" data-name="Grupo 1185091" transform="translate(0 0)">
            <g id="Grupo_1179560" data-name="Grupo 1179560">
              <g id="Grupo_1173787" data-name="Grupo 1173787" transform="translate(0)">
                <g id="Grupo_1171910" data-name="Grupo 1171910">
                  <g id="Grupo_1167341" data-name="Grupo 1167341">
                    <g id="Grupo_1166792" data-name="Grupo 1166792">
                      <g transform="matrix(1, 0, 0, 1, -9, -6)" filter="url(#Trazado_904820)">
                        <g id="Trazado_904820-2" data-name="Trazado 904820" transform="translate(9 6)" fill="#f8ecfd">
                          <path d="M 44.99999618530273 88.50006866455078 C 39.12687301635742 88.50006866455078 33.43022155761719 87.35014343261719 28.06829643249512 85.08222961425781 C 22.88852119445801 82.89136505126953 18.23629570007324 79.75465393066406 14.24084663391113 75.75919342041016 C 10.24540901184082 71.76374053955078 7.108683586120605 67.11151885986328 4.917821407318115 61.93174362182617 C 2.649921178817749 56.56980514526367 1.499996185302734 50.87315368652344 1.499996185302734 45.00003051757812 C 1.499996185302734 39.12690734863281 2.649921178817749 33.43025588989258 4.917821407318115 28.06831741333008 C 7.108683586120605 22.88854217529297 10.24540901184082 18.23631858825684 14.24084663391113 14.24086761474609 C 18.23629570007324 10.24541759490967 22.88852119445801 7.10869312286377 28.06829643249512 4.917842864990234 C 33.43022155761719 2.649930477142334 39.12687301635742 1.500005483627319 44.99999618530273 1.500005483627319 C 50.87311935424805 1.500005483627319 56.56977081298828 2.649930477142334 61.93169784545898 4.917842864990234 C 67.11147308349609 7.10869312286377 71.76369476318359 10.24541759490967 75.75914764404297 14.24086761474609 C 79.75458526611328 18.23631858825684 82.89131164550781 22.88854217529297 85.08216857910156 28.06831741333008 C 87.35007476806641 33.43025588989258 88.5 39.12690734863281 88.5 45.00003051757812 C 88.5 50.87315368652344 87.35007476806641 56.56980514526367 85.08216857910156 61.93174362182617 C 82.89131164550781 67.11151885986328 79.75458526611328 71.76374053955078 75.75914764404297 75.75919342041016 C 71.76369476318359 79.75465393066406 67.11147308349609 82.89136505126953 61.93169784545898 85.08222961425781 C 56.56977081298828 87.35014343261719 50.87311935424805 88.50006866455078 44.99999618530273 88.50006866455078 Z" stroke="none"/>
                          <path d="M 44.99999618530273 3 C 39.32870864868164 3 33.82865142822266 4.110061645507812 28.65262603759766 6.299346923828125 C 23.65165710449219 8.414573669433594 19.15968322753906 11.44334411621094 15.301513671875 15.30152893066406 C 11.44333648681641 19.15969848632812 8.414566040039062 23.65167236328125 6.299339294433594 28.65264511108398 C 4.110054016113281 33.82868576049805 2.999992370605469 39.32874298095703 2.999992370605469 45.00003051757812 C 2.999992370605469 50.67131805419922 4.110054016113281 56.1713752746582 6.299339294433594 61.34741592407227 C 8.414566040039062 66.348388671875 11.44333648681641 70.84036254882812 15.301513671875 74.69853210449219 C 19.15968322753906 78.55671691894531 23.65165710449219 81.58548736572266 28.65262603759766 83.70071411132812 C 33.82865142822266 85.88999938964844 39.32870864868164 87.00006103515625 44.99999618530273 87.00006103515625 C 50.67128372192383 87.00006103515625 56.17134094238281 85.88999938964844 61.34736633300781 83.70071411132812 C 66.34834289550781 81.58548736572266 70.84030914306641 78.55671691894531 74.69847869873047 74.69853210449219 C 78.55665588378906 70.84036254882812 81.58542633056641 66.348388671875 83.70065307617188 61.34741592407227 C 85.88993835449219 56.1713752746582 87 50.67131805419922 87 45.00003051757812 C 87 39.32874298095703 85.88993835449219 33.82868576049805 83.70065307617188 28.65264511108398 C 81.58542633056641 23.65167236328125 78.55665588378906 19.15969848632812 74.69847869873047 15.30152893066406 C 70.84030914306641 11.44334411621094 66.34834289550781 8.414573669433594 61.34736633300781 6.299346923828125 C 56.17134094238281 4.110061645507812 50.67128372192383 3 44.99999618530273 3 M 44.99999618530273 0 C 69.85281372070312 0 90 20.14720153808594 90 45.00003051757812 C 90 69.85285949707031 69.85281372070312 90.00006103515625 44.99999618530273 90.00006103515625 C 20.14717864990234 90.00006103515625 -7.62939453125e-06 69.85285949707031 -7.62939453125e-06 45.00003051757812 C -7.62939453125e-06 20.14720153808594 20.14717864990234 0 44.99999618530273 0 Z" stroke="none" fill="#c252f0"/>
                        </g>
                      </g>
                    </g>
                  </g>
                </g>
              </g>
            </g>
          </g>
        </g>
      </g>
    </g>
    <g id="tecnica" transform="translate(218.088 1337.806)">
      <path id="Trazado_1079315" data-name="Trazado 1079315" d="M42.345,50H23.071A1.071,1.071,0,0,0,22,51.071v2.142a1.071,1.071,0,0,0,1.071,1.071h1.071v2.142a2.142,2.142,0,0,0,2.142,2.142v1.428a2.724,2.724,0,0,0,2.57,2.855h7.71a2.724,2.724,0,0,0,2.57-2.855V58.566a2.142,2.142,0,0,0,2.142-2.142V54.283h1.071a1.071,1.071,0,0,0,1.071-1.071V51.071A1.071,1.071,0,0,0,42.345,50Z" transform="translate(1.203 3.468)" fill="#536080"/>
      <path id="Trazado_1079316" data-name="Trazado 1079316" d="M24,54v2.142a2.142,2.142,0,0,0,2.142,2.142H38.991a2.142,2.142,0,0,0,2.142-2.142V54Z" transform="translate(1.345 3.751)" fill="#637399"/>
      <path id="Trazado_1079317" data-name="Trazado 1079317" d="M32.361,10.023c-10.03.491-18.3,9.1-18.831,19.605a21.039,21.039,0,0,0,8.827,18.409,2.572,2.572,0,0,1,1.049,2.119v2.674H43.215v-2.6A2.692,2.692,0,0,1,44.3,48.012,20.992,20.992,0,0,0,53.12,30.76c0-11.8-9.387-21.294-20.759-20.737Z" transform="translate(0.601 0.637)" fill="#c2daf2"/>
      <path id="Trazado_1079318" data-name="Trazado 1079318" d="M26.566,17c-2.957,0-5.354,2.055-5.354,4.589a3.948,3.948,0,0,0,.221,1.235A4.664,4.664,0,0,0,18,27.1a4.265,4.265,0,0,0,1.537,3.212A4.265,4.265,0,0,0,18,33.521a4.636,4.636,0,0,0,3.256,4.222c-.012.123-.043.242-.043.367,0,2.534,2.4,4.589,5.354,4.589a5.657,5.657,0,0,0,4.283-1.861V18.861A5.657,5.657,0,0,0,26.566,17Z" transform="translate(0.92 1.132)" fill="#f2d891"/>
      <path id="Trazado_1079319" data-name="Trazado 1079319" d="M44.662,31.725a10.545,10.545,0,0,0,0-3.75l2.187-1.343a13.037,13.037,0,0,0-3.213-5.94l-1.268.779a1.486,1.486,0,0,1-1.672-.043,9.513,9.513,0,0,0-1.436-.88,1.68,1.68,0,0,1-.871-1.52V17.472A11.381,11.381,0,0,0,35.013,17q-.513.007-1.013.062V25.2a4.012,4.012,0,0,1,1.168-.173,4.615,4.615,0,0,1,4.38,4.819,4.615,4.615,0,0,1-4.38,4.819A4.012,4.012,0,0,1,34,34.495v8.142a11.09,11.09,0,0,0,1.323.061,11.391,11.391,0,0,0,3.066-.477V40.672a1.68,1.68,0,0,1,.871-1.52,9.5,9.5,0,0,0,1.436-.88,1.486,1.486,0,0,1,1.672-.043L43.63,39a13.034,13.034,0,0,0,3.22-5.936Z" transform="translate(2.053 1.133)" fill="#637399"/>
      <path id="Trazado_1079320" data-name="Trazado 1079320" d="M44.986,48.96a22.078,22.078,0,0,0,9.275-18.129,22.348,22.348,0,0,0-6.824-16.144A20.276,20.276,0,0,0,32.379,9.024C21.81,9.541,13.092,18.6,12.531,29.645a22,22,0,0,0,9.284,19.342,1.513,1.513,0,0,1,.591,1.24v2.088a2.129,2.129,0,0,0-.8,1.658v2.142a2.144,2.144,0,0,0,2.142,2.142v1.071a3.207,3.207,0,0,0,2.142,3.015V62.9a3.8,3.8,0,0,0,3.641,3.927h7.71A3.8,3.8,0,0,0,40.877,62.9v-.554a3.207,3.207,0,0,0,2.142-3.015V58.256a2.144,2.144,0,0,0,2.142-2.142V53.973a2.129,2.129,0,0,0-.8-1.658V50.3a1.631,1.631,0,0,1,.63-1.337ZM38.735,62.9a1.663,1.663,0,0,1-1.5,1.785h-7.71a1.663,1.663,0,0,1-1.5-1.785v-.357H38.735Zm2.142-3.569A1.072,1.072,0,0,1,39.806,60.4H26.956a1.072,1.072,0,0,1-1.071-1.071V58.256H40.876ZM23.744,56.114V53.973H43.018l0,2.142Zm20.013-8.909A3.75,3.75,0,0,0,42.215,50.3v1.534H24.547v-1.6a3.63,3.63,0,0,0-1.507-3,19.87,19.87,0,0,1-8.37-17.477c.506-9.961,8.33-18.127,17.814-18.59A18.082,18.082,0,0,1,45.96,16.237a20.2,20.2,0,0,1,6.16,14.594,19.933,19.933,0,0,1-8.362,16.374Z" transform="translate(0.53 0.566)"/>
      <path id="Trazado_1079321" data-name="Trazado 1079321" d="M31,1h2.142V6.354H31Z" transform="translate(1.84)"/>
      <path id="Trazado_1079322" data-name="Trazado 1079322" d="M54,27h5.354v2.142H54Z" transform="translate(3.468 1.84)"/>
      <path id="Trazado_1079323" data-name="Trazado 1079323" d="M5,27h5.354v2.142H5Z" transform="translate(0 1.84)"/>
      <path id="Trazado_1079324" data-name="Trazado 1079324" d="M0,0H2.142V5.354H0Z" transform="translate(12.709 10.227) rotate(-45)"/>
      <path id="Trazado_1079325" data-name="Trazado 1079325" d="M0,0H5.354V2.142H0Z" transform="translate(49.803 12.497) rotate(-45)"/>
      <path id="Trazado_1079326" data-name="Trazado 1079326" d="M26.637,16c-3.543,0-6.425,2.539-6.425,5.66a4.322,4.322,0,0,0,.041.593A5.523,5.523,0,0,0,17,27.167a5.161,5.161,0,0,0,1.135,3.212A5.161,5.161,0,0,0,17,33.592,5.56,5.56,0,0,0,20.222,38.5c.189,2.973,2.994,5.34,6.415,5.34a6.7,6.7,0,0,0,5.091-2.23,1.067,1.067,0,0,0,.262-.7V18.932a1.067,1.067,0,0,0-.262-.7A6.7,6.7,0,0,0,26.637,16Zm3.212,24.481A4.638,4.638,0,0,1,26.637,41.7,4,4,0,0,1,22.4,38.4l1.344-.865h1.827V35.392H23.425a1.073,1.073,0,0,0-.579.17L21.229,36.6a3.453,3.453,0,0,1-2.088-3.011,3.2,3.2,0,0,1,1.17-2.406c.024-.021.035-.053.057-.076h3.056V28.968H19.762a3.033,3.033,0,0,1-.621-1.8,3.453,3.453,0,0,1,2.2-3.053l1.328,1.328a1.071,1.071,0,0,0,.757.314h2.142V23.614h-1.7l-1.451-1.451a2.441,2.441,0,0,1-.063-.5c0-1.94,1.921-3.519,4.283-3.519a4.638,4.638,0,0,1,3.212,1.218Z" transform="translate(0.849 1.062)"/>
      <path id="Trazado_1079327" data-name="Trazado 1079327" d="M47.481,32.226l-1.587-.975a11.336,11.336,0,0,0,0-2.662l1.587-.976a1.07,1.07,0,0,0,.48-1.165,14.119,14.119,0,0,0-3.479-6.426,1.069,1.069,0,0,0-1.335-.173l-1.267.778a.427.427,0,0,1-.474.01,10.493,10.493,0,0,0-1.6-.98.628.628,0,0,1-.277-.562V17.542a1.071,1.071,0,0,0-.769-1.027A12.433,12.433,0,0,0,35.071,16c-.376,0-.747.028-1.114.068A1.07,1.07,0,0,0,33,17.133v8.142A1.07,1.07,0,0,0,34.382,26.3a2.941,2.941,0,0,1,.857-.128,3.553,3.553,0,0,1,3.31,3.748,3.553,3.553,0,0,1-3.31,3.748,2.941,2.941,0,0,1-.857-.128A1.07,1.07,0,0,0,33,34.565v8.143a1.07,1.07,0,0,0,.958,1.065,12.219,12.219,0,0,0,1.282.068h.168a12.526,12.526,0,0,0,3.353-.521,1.071,1.071,0,0,0,.769-1.027v-1.55a.629.629,0,0,1,.276-.56,10.519,10.519,0,0,0,1.6-.979.425.425,0,0,1,.474.009l1.262.775a1.074,1.074,0,0,0,1.335-.173,14.117,14.117,0,0,0,3.486-6.423,1.072,1.072,0,0,0-.48-1.166ZM43.5,37.692l-.5-.305a2.554,2.554,0,0,0-2.87.1,8.39,8.39,0,0,1-1.274.781,2.754,2.754,0,0,0-1.466,2.478v.719a10.072,10.072,0,0,1-2.01.236h-.237v-5.89h.1A5.69,5.69,0,0,0,40.69,29.92a5.69,5.69,0,0,0-5.451-5.889h-.1v-5.89a10.744,10.744,0,0,1,2.247.232V19.1a2.754,2.754,0,0,0,1.466,2.479,8.363,8.363,0,0,1,1.274.782,2.552,2.552,0,0,0,2.87.094l.5-.308a12,12,0,0,1,2.172,4.066l-1.5.923a1.07,1.07,0,0,0-.495,1.095,9.451,9.451,0,0,1,0,3.384,1.073,1.073,0,0,0,.495,1.1l1.5.922A11.971,11.971,0,0,1,43.5,37.692Z" transform="translate(1.982 1.062)"/>
      <path id="Trazado_1079328" data-name="Trazado 1079328" d="M26,23.11h2.142v2.142H26Z" transform="translate(1.486 1.565)"/>
      <path id="Trazado_1079329" data-name="Trazado 1079329" d="M26,34.11h2.142v2.142H26Z" transform="translate(1.486 2.344)"/>
      <path id="Trazado_1079330" data-name="Trazado 1079330" d="M24,28.11h2.142v2.142H24Z" transform="translate(1.345 1.919)"/>
    </g>
  </g>
</svg>
