<svg xmlns="http://www.w3.org/2000/svg" xmlns:xlink="http://www.w3.org/1999/xlink" width="103" height="103" viewBox="0 0 103 103">
  <defs>
    <filter id="Trazado_978624" x="0" y="0" width="103" height="103" filterUnits="userSpaceOnUse">
      <feOffset dy="3" input="SourceAlpha"/>
      <feGaussianBlur stdDeviation="3" result="blur"/>
      <feFlood flood-opacity="0.161"/>
      <feComposite operator="in" in2="blur"/>
      <feComposite in="SourceGraphic"/>
    </filter>
  </defs>
  <g id="Grupo_1210831" data-name="Grupo 1210831" transform="translate(-611 -3075)">
    <g id="Grupo_1209502" data-name="Grupo 1209502" transform="translate(419 2761)">
      <g id="Grupo_1180764" data-name="Grupo 1180764" transform="translate(1 -4144)">
        <g id="Grupo_1179463" data-name="Grupo 1179463" transform="translate(200 4464)">
          <g id="Grupo_1144531" data-name="Grupo 1144531">
            <g transform="matrix(1, 0, 0, 1, -9, -6)" filter="url(#Trazado_978624)">
              <g id="Trazado_978624-2" data-name="Trazado 978624" transform="translate(9 6)" fill="#fef8e9">
                <path d="M 42.5 83.5 C 36.96437835693359 83.5 31.59512901306152 82.41617584228516 26.54141235351562 80.27863311767578 C 21.65934181213379 78.21369171142578 17.27447128295898 75.25723266601562 13.50862312316895 71.49137878417969 C 9.742764472961426 67.72553253173828 6.786305904388428 63.34066009521484 4.721364498138428 58.45858764648438 C 2.583823442459106 53.40486907958984 1.5 48.03562164306641 1.5 42.5 C 1.5 36.96437835693359 2.583823442459106 31.59512901306152 4.721364498138428 26.54141235351562 C 6.786305904388428 21.65934181213379 9.742764472961426 17.27447128295898 13.50862312316895 13.50862312316895 C 17.27447128295898 9.742764472961426 21.65934181213379 6.786305904388428 26.54141235351562 4.721364498138428 C 31.59512901306152 2.583823442459106 36.96437835693359 1.5 42.5 1.5 C 48.03562164306641 1.5 53.40486907958984 2.583823442459106 58.45858764648438 4.721364498138428 C 63.34066009521484 6.786305904388428 67.72553253173828 9.742764472961426 71.49137878417969 13.50862312316895 C 75.25723266601562 17.27447128295898 78.21369171142578 21.65934181213379 80.27863311767578 26.54141235351562 C 82.41617584228516 31.59512901306152 83.5 36.96437835693359 83.5 42.5 C 83.5 48.03562164306641 82.41617584228516 53.40486907958984 80.27863311767578 58.45858764648438 C 78.21369171142578 63.34066009521484 75.25723266601562 67.72553253173828 71.49137878417969 71.49137878417969 C 67.72553253173828 75.25723266601562 63.34066009521484 78.21369171142578 58.45858764648438 80.27863311767578 C 53.40486907958984 82.41617584228516 48.03562164306641 83.5 42.5 83.5 Z" stroke="none"/>
                <path d="M 42.5 3 C 37.16621398925781 3 31.99356079101562 4.043960571289062 27.125732421875 6.102882385253906 C 22.42246627807617 8.092185974121094 18.19785308837891 10.94070434570312 14.56928253173828 14.56928253173828 C 10.94070434570312 18.19785308837891 8.092185974121094 22.42246627807617 6.102882385253906 27.125732421875 C 4.043960571289062 31.99356079101562 3 37.16621398925781 3 42.5 C 3 47.83378601074219 4.043960571289062 53.00643920898438 6.102882385253906 57.87425231933594 C 8.092185974121094 62.57753372192383 10.94070434570312 66.80213165283203 14.56928253173828 70.43071746826172 C 18.19786834716797 74.05929565429688 22.42246627807617 76.90781402587891 27.125732421875 78.89711761474609 C 31.99356079101562 80.95603942871094 37.16621398925781 82 42.5 82 C 47.83378601074219 82 53.00642395019531 80.95603942871094 57.87425231933594 78.89711761474609 C 62.57753372192383 76.90781402587891 66.80213165283203 74.05929565429688 70.43071746826172 70.43071746826172 C 74.05929565429688 66.80213165283203 76.90781402587891 62.57753372192383 78.89711761474609 57.87425231933594 C 80.95603942871094 53.00642395019531 82 47.83378601074219 82 42.5 C 82 37.16621398925781 80.95603942871094 31.99356079101562 78.89711761474609 27.125732421875 C 76.90781402587891 22.42246627807617 74.05929565429688 18.19786834716797 70.43071746826172 14.56928253173828 C 66.80213165283203 10.94070434570312 62.57753372192383 8.092185974121094 57.87425231933594 6.102882385253906 C 53.00643920898438 4.043960571289062 47.83378601074219 3 42.5 3 M 42.5 0 C 65.97209167480469 0 85 19.02789306640625 85 42.5 C 85 65.97209167480469 65.97209167480469 85 42.5 85 C 19.02789306640625 85 0 65.97209167480469 0 42.5 C 0 19.02789306640625 19.02789306640625 0 42.5 0 Z" stroke="none" fill="#f8c234"/>
              </g>
            </g>
          </g>
        </g>
      </g>
    </g>
    <g id="resolucion-de-problemas" transform="translate(607.543 3093.5)">
      <path id="Trazado_1079331" data-name="Trazado 1079331" d="M341.951,132H336.3a9.6,9.6,0,0,1-4.3,3.739v6.214a.711.711,0,0,0,.711.711h9.242a.711.711,0,0,0,.711-.711V132.71A.711.711,0,0,0,341.951,132Z" transform="translate(-268.135 -116.53)" fill="#cb97e7"/>
      <g id="Grupo_1210818" data-name="Grupo 1210818" transform="translate(63.863 16.262)">
        <path id="Trazado_1079332" data-name="Trazado 1079332" d="M335.749,147.931v-9.159a9.6,9.6,0,0,1-3.75,2.946v6.214a.711.711,0,0,0,.711.711h3.75A.711.711,0,0,1,335.749,147.931Z" transform="translate(-331.999 -138.772)" fill="#bd80e1"/>
      </g>
      <g id="Grupo_1210829" data-name="Grupo 1210829" transform="translate(29.149 0.879)">
        <path id="Trazado_1079333" data-name="Trazado 1079333" d="M108.093,273.479l2.009-5.465a13.725,13.725,0,0,1-13.045,0l2.009,5.465Z" transform="translate(-89.875 -237.485)" fill="#fff0ad"/>
        <path id="Trazado_1079334" data-name="Trazado 1079334" d="M104,273.479l-1.416-3.853a13.619,13.619,0,0,1-5.529-1.613l2.009,5.465Z" transform="translate(-89.876 -237.485)" fill="#ffe177"/>
        <path id="Trazado_1079335" data-name="Trazado 1079335" d="M126,393.588v1.829a1.758,1.758,0,0,0,1.758,1.758H130.5a1.758,1.758,0,0,0,1.758-1.758v-1.829Z" transform="translate(-115.426 -348.343)" fill="#02c7dd"/>
        <path id="Trazado_1079336" data-name="Trazado 1079336" d="M128.93,395.417v-1.829H126v1.829a1.758,1.758,0,0,0,1.758,1.758H130.5c.031,0,.061,0,.092,0A1.756,1.756,0,0,1,128.93,395.417Z" transform="translate(-115.426 -348.343)" fill="#07b2cd"/>
        <path id="Trazado_1079337" data-name="Trazado 1079337" d="M113.43,362.995v3.116a.586.586,0,0,0,.586.586h8.035a.586.586,0,0,0,.586-.586v-3.116Z" transform="translate(-104.329 -321.335)" fill="#a6e7f0"/>
        <path id="Trazado_1079338" data-name="Trazado 1079338" d="M116.36,366.111V363h-2.93v3.116a.586.586,0,0,0,.586.586h2.93A.586.586,0,0,1,116.36,366.111Z" transform="translate(-104.329 -321.336)" fill="#6bd9e7"/>
        <path id="Trazado_1079339" data-name="Trazado 1079339" d="M57.071,52.992a9.586,9.586,0,0,1,.282-2.309,13.7,13.7,0,1,0,5.826,11.229,9.569,9.569,0,0,1-6.108-8.92Z" transform="translate(-35.77 -43.424)" fill="#ffe177"/>
        <g id="Grupo_1210819" data-name="Grupo 1210819" transform="translate(0 4.769)">
          <path id="Trazado_1079340" data-name="Trazado 1079340" d="M41.668,61.9A13.709,13.709,0,0,1,52.423,48.513a13.7,13.7,0,1,0,0,26.77A13.709,13.709,0,0,1,41.668,61.9Z" transform="translate(-35.769 -48.194)" fill="#ffd15b"/>
        </g>
        <g id="Grupo_1210820" data-name="Grupo 1210820" transform="translate(7.343 35.994)">
          <path id="Trazado_1079341" data-name="Trazado 1079341" d="M109.98,320.434H99.6a1.172,1.172,0,0,1-1.172-1.172v-3.439a1.172,1.172,0,0,1,1.172-1.172H109.98a1.172,1.172,0,0,1,1.172,1.172v3.439A1.172,1.172,0,0,1,109.98,320.434Z" transform="translate(-98.429 -314.651)" fill="#eaf9fa"/>
        </g>
        <path id="Trazado_1079342" data-name="Trazado 1079342" d="M102.364,319.262v-3.439a1.172,1.172,0,0,1,1.172-1.172H99.6a1.172,1.172,0,0,0-1.172,1.172v3.439a1.172,1.172,0,0,0,1.172,1.172h3.934A1.172,1.172,0,0,1,102.364,319.262Z" transform="translate(-91.087 -278.657)" fill="#d4f2f6"/>
        <g id="Grupo_1210821" data-name="Grupo 1210821" transform="translate(24.768 31.393)">
          <path id="Trazado_1079343" data-name="Trazado 1079343" d="M270.125,289.42a4.115,4.115,0,0,1-2.622-.714.352.352,0,0,0-.556.285v5.635a.586.586,0,0,1-.586.586h-5.635a.352.352,0,0,0-.285.556,4.131,4.131,0,1,1-6.807-.01.351.351,0,0,0-.293-.546h-5.635a.586.586,0,0,1-.586-.586V290.2a.582.582,0,0,1,.631-.584,4.217,4.217,0,0,0,.658.012,4.131,4.131,0,0,0-.256-8.254q-.195,0-.385.018a.588.588,0,0,1-.647-.582v-4.839a.586.586,0,0,1,.586-.586h4.614a.584.584,0,0,1,.585.6c0,.041,0,.082,0,.124a4.131,4.131,0,0,0,8.261,0q0-.062,0-.124a.584.584,0,0,1,.585-.6h4.614a.586.586,0,0,1,.586.586v5.635a.351.351,0,0,0,.546.293,4.131,4.131,0,1,1,2.632,7.521Z" transform="translate(-247.12 -275.386)" fill="#fe9738"/>
        </g>
        <g id="Grupo_1210822" data-name="Grupo 1210822" transform="translate(24.768 31.393)">
          <path id="Trazado_1079344" data-name="Trazado 1079344" d="M270.125,289.42a4.115,4.115,0,0,1-2.622-.714.352.352,0,0,0-.556.285v5.635a.586.586,0,0,1-.586.586h-5.635a.352.352,0,0,0-.285.556,4.131,4.131,0,1,1-6.807-.01.351.351,0,0,0-.293-.546h-5.635a.586.586,0,0,1-.586-.586V290.2a.582.582,0,0,1,.631-.584,4.217,4.217,0,0,0,.658.012,4.131,4.131,0,0,0-.256-8.254q-.195,0-.385.018a.588.588,0,0,1-.647-.582v-4.839a.586.586,0,0,1,.586-.586h4.614a.584.584,0,0,1,.585.6c0,.041,0,.082,0,.124a4.131,4.131,0,0,0,8.261,0q0-.062,0-.124a.584.584,0,0,1,.585-.6h4.614a.586.586,0,0,1,.586.586v5.635a.351.351,0,0,0,.546.293,4.131,4.131,0,1,1,2.632,7.521Z" transform="translate(-247.12 -275.386)" fill="#fe9738"/>
        </g>
        <g id="Grupo_1210825" data-name="Grupo 1210825" transform="translate(24.767 31.393)">
          <g id="Grupo_1210823" data-name="Grupo 1210823" transform="translate(0)">
            <path id="Trazado_1079345" data-name="Trazado 1079345" d="M247.765,281.4q.19-.018.385-.018a4.121,4.121,0,0,1,3.159,1.47v-6.873a.586.586,0,0,1,.586-.586H247.7a.586.586,0,0,0-.586.586v4.839a.588.588,0,0,0,.647.582Z" transform="translate(-247.118 -275.388)" fill="#fe860a"/>
          </g>
          <g id="Grupo_1210824" data-name="Grupo 1210824" transform="translate(0 12.775)">
            <path id="Trazado_1079346" data-name="Trazado 1079346" d="M251.31,390.864V384.4a4.127,4.127,0,0,1-2.9,1.468,4.206,4.206,0,0,1-.658-.012.582.582,0,0,0-.631.584v4.425a.586.586,0,0,0,.586.586H251.9A.586.586,0,0,1,251.31,390.864Z" transform="translate(-247.118 -384.398)" fill="#fe860a"/>
          </g>
        </g>
        <g id="Grupo_1210828" data-name="Grupo 1210828" transform="translate(21.301)">
          <g id="Grupo_1210826" data-name="Grupo 1210826">
            <circle id="Elipse_12572" data-name="Elipse 12572" cx="9.568" cy="9.568" r="9.568" fill="#05e39c"/>
          </g>
          <g id="Grupo_1210827" data-name="Grupo 1210827" transform="translate(0 0)">
            <path id="Trazado_1079347" data-name="Trazado 1079347" d="M222.478,17.068a9.571,9.571,0,0,1,7.1-9.244,9.568,9.568,0,1,0,0,18.488A9.571,9.571,0,0,1,222.478,17.068Z" transform="translate(-217.536 -7.5)" fill="#0ed290"/>
          </g>
        </g>
      </g>
      <g id="Grupo_1210830" data-name="Grupo 1210830" transform="translate(28.27 0)">
        <path id="Trazado_1079348" data-name="Trazado 1079348" d="M266.878,275.262a5.013,5.013,0,0,0-5.675-1.171v-4.739a1.466,1.466,0,0,0-1.465-1.465h-4.614a1.473,1.473,0,0,0-1.053.445,1.446,1.446,0,0,0-.411,1.059c0,.032,0,.064,0,.1a3.252,3.252,0,0,1-6.5,0c0-.032,0-.065,0-.1a1.446,1.446,0,0,0-.411-1.06,1.474,1.474,0,0,0-1.052-.445h-4.614a1.466,1.466,0,0,0-1.465,1.465v4.839a1.464,1.464,0,0,0,.476,1.079,1.48,1.48,0,0,0,1.131.378c.1-.009.2-.014.3-.014a3.252,3.252,0,0,1,.2,6.5,3.349,3.349,0,0,1-.52-.009,1.451,1.451,0,0,0-1.112.371,1.473,1.473,0,0,0-.482,1.088v4.425a1.466,1.466,0,0,0,1.465,1.465h4.739a5.011,5.011,0,0,0,4.583,7.022c.119,0,.238,0,.358-.012a5.013,5.013,0,0,0,4.237-7.01h4.738a1.466,1.466,0,0,0,1.465-1.465v-4.738a5.01,5.01,0,0,0,5.675-8.007Zm-.419,3.65a3.254,3.254,0,0,1-3.016,3.012h0a3.224,3.224,0,0,1-2.065-.561,1.231,1.231,0,0,0-1.933,1.01v5.342H254.1a1.231,1.231,0,0,0-1.01,1.933,3.252,3.252,0,1,1-5.36-.008,1.23,1.23,0,0,0-1.015-1.925h-5.342v-3.821c.154,0,.309,0,.463-.007a5.01,5.01,0,0,0-.463-10.007v-4.234H245.4a5.01,5.01,0,0,0,10.014,0h4.027v5.342A1.229,1.229,0,0,0,261.371,276a3.252,3.252,0,0,1,5.089,2.909Z" transform="translate(-214.852 -236.494)"/>
        <path id="Trazado_1079349" data-name="Trazado 1079349" d="M48.6,36.073l1.489-4.052a14.624,14.624,0,0,0,4.151-3.555.879.879,0,0,0-1.372-1.1,12.777,12.777,0,0,1-7.053,4.468V24.568h1.723a3.481,3.481,0,1,0-3.481-3.481V22.81H41.65V21.087a3.481,3.481,0,1,0-3.481,3.481h1.723v7.264A12.825,12.825,0,1,1,49.745,8.541a10.449,10.449,0,0,0,5.92,11.4,12.737,12.737,0,0,1-.869,4.093.879.879,0,1,0,1.636.642,14.468,14.468,0,0,0,.954-4.12,10.46,10.46,0,0,0,5.6-.094v4.958a1.592,1.592,0,0,0,1.59,1.59h9.242a1.592,1.592,0,0,0,1.59-1.59v-2.8a.879.879,0,0,0-1.758,0v2.637H64.742V19.762a10.522,10.522,0,0,0,3.891-3.414h5.015v2.168a.879.879,0,1,0,1.758,0V16.179a1.592,1.592,0,0,0-1.59-1.59H69.607A10.446,10.446,0,1,0,50.235,6.781a14.579,14.579,0,1,0-14.62,25.228l1.493,4.063a2.053,2.053,0,0,0-1.5,1.972v3.439a2.052,2.052,0,0,0,1.758,2.027v2.144a1.466,1.466,0,0,0,1.465,1.465h.008v.833a2.64,2.64,0,0,0,2.637,2.637h2.746a2.64,2.64,0,0,0,2.637-2.637V47.12h.008a1.466,1.466,0,0,0,1.465-1.465V43.511a2.052,2.052,0,0,0,1.758-2.027V38.045a2.053,2.053,0,0,0-1.5-1.973ZM45.814,21.087a1.723,1.723,0,1,1,1.723,1.723H45.814Zm14.2-19.329a8.689,8.689,0,1,1-8.689,8.689A8.7,8.7,0,0,1,60.017,1.758Zm-14.2,31.877a14.5,14.5,0,0,0,2.016-.569l-1.077,2.929h-.94ZM41.65,24.568h2.406v7.553c-.4.037-.8.057-1.2.057s-.807-.02-1.2-.057V24.568Zm0,9.318c.4.033.8.05,1.2.05s.8-.017,1.2-.049v2.108H41.65ZM38.17,22.81a1.723,1.723,0,1,1,1.723-1.723V22.81Zm1.723,10.823v2.361h-.94L37.875,33.06A14.456,14.456,0,0,0,39.893,33.633Zm5.212,14.319a.88.88,0,0,1-.879.879H41.48a.88.88,0,0,1-.879-.879V47.12h4.5Zm3.231-6.469a.293.293,0,0,1-.293.293h-2.7a.879.879,0,0,0,0,1.758h1.23v1.827H39.129V43.535h2.117a.879.879,0,1,0,0-1.758H37.664a.293.293,0,0,1-.293-.293V38.045a.293.293,0,0,1,.293-.293H48.043a.293.293,0,0,1,.293.293Z" transform="translate(-28.27 0)"/>
        <path id="Trazado_1079350" data-name="Trazado 1079350" d="M254.476,66.817a.879.879,0,0,0,.661.313h.011a.879.879,0,0,0,.658-.3l5.758-6.5a.879.879,0,0,0-1.315-1.166l-5.083,5.734-3.277-3.892a.879.879,0,0,0-1.345,1.132Z" transform="translate(-224.313 -51.977)"/>
      </g>
    </g>
  </g>
</svg>
