<svg xmlns="http://www.w3.org/2000/svg" xmlns:xlink="http://www.w3.org/1999/xlink" width="400" height="295" viewBox="0 0 400 295">
  <defs>
    <clipPath id="clip-path">
      <rect id="Rectángulo_418289" data-name="Rectángulo 418289" width="400" height="295" transform="translate(1020 3420)" fill="#fff" stroke="#707070" stroke-width="1"/>
    </clipPath>
    <clipPath id="clip-path-2">
      <rect id="Rectángulo_418240" data-name="Rectángulo 418240" width="415.31" height="415.328" fill="none"/>
    </clipPath>
    <clipPath id="clip-path-3">
      <rect id="Rectángulo_418239" data-name="Rectángulo 418239" width="295.638" height="295.637" fill="#a1bada"/>
    </clipPath>
    <clipPath id="clip-path-5">
      <rect id="Rectángulo_418241" data-name="Rectángulo 418241" width="65.646" height="60.953" fill="none"/>
    </clipPath>
    <clipPath id="clip-path-6">
      <rect id="Rectángulo_418242" data-name="Rectángulo 418242" width="25.07" height="19.371" fill="none"/>
    </clipPath>
    <clipPath id="clip-path-7">
      <rect id="Rectángulo_418243" data-name="Rectángulo 418243" width="46.471" height="40.546" fill="none"/>
    </clipPath>
    <clipPath id="clip-path-8">
      <rect id="Rectángulo_418244" data-name="Rectángulo 418244" width="4.575" height="3.861" fill="none"/>
    </clipPath>
    <clipPath id="clip-path-9">
      <rect id="Rectángulo_418245" data-name="Rectángulo 418245" width="17.264" height="5.515" fill="none"/>
    </clipPath>
    <clipPath id="clip-path-10">
      <rect id="Rectángulo_418246" data-name="Rectángulo 418246" width="17.009" height="25.237" fill="none"/>
    </clipPath>
    <clipPath id="clip-path-11">
      <rect id="Rectángulo_418247" data-name="Rectángulo 418247" width="11.718" height="25.237" fill="none"/>
    </clipPath>
    <clipPath id="clip-path-12">
      <rect id="Rectángulo_418248" data-name="Rectángulo 418248" width="16.229" height="25.237" fill="none"/>
    </clipPath>
    <clipPath id="clip-path-13">
      <rect id="Rectángulo_418249" data-name="Rectángulo 418249" width="12.058" height="25.237" fill="none"/>
    </clipPath>
    <clipPath id="clip-path-14">
      <rect id="Rectángulo_418250" data-name="Rectángulo 418250" width="10.131" height="21.727" fill="none"/>
    </clipPath>
    <clipPath id="clip-path-15">
      <rect id="Rectángulo_418251" data-name="Rectángulo 418251" width="89.881" height="99.538" fill="none"/>
    </clipPath>
    <clipPath id="clip-path-16">
      <rect id="Rectángulo_418252" data-name="Rectángulo 418252" width="13.899" height="16.276" fill="none"/>
    </clipPath>
    <clipPath id="clip-path-17">
      <rect id="Rectángulo_418253" data-name="Rectángulo 418253" width="9.271" height="3.847" fill="none"/>
    </clipPath>
    <clipPath id="clip-path-18">
      <rect id="Rectángulo_418254" data-name="Rectángulo 418254" width="15.376" height="12.005" fill="none"/>
    </clipPath>
    <clipPath id="clip-path-19">
      <rect id="Rectángulo_418255" data-name="Rectángulo 418255" width="9.07" height="3.43" fill="none"/>
    </clipPath>
    <clipPath id="clip-path-20">
      <rect id="Rectángulo_418256" data-name="Rectángulo 418256" width="15.087" height="42.372" fill="none"/>
    </clipPath>
    <clipPath id="clip-path-21">
      <rect id="Rectángulo_418257" data-name="Rectángulo 418257" width="152.494" height="90.816" fill="none"/>
    </clipPath>
    <clipPath id="clip-path-22">
      <rect id="Rectángulo_418258" data-name="Rectángulo 418258" width="31.255" height="4.556" fill="none"/>
    </clipPath>
    <clipPath id="clip-path-23">
      <rect id="Rectángulo_418259" data-name="Rectángulo 418259" width="16.527" height="7.355" fill="none"/>
    </clipPath>
    <clipPath id="clip-path-24">
      <rect id="Rectángulo_418260" data-name="Rectángulo 418260" width="36.766" height="10.374" fill="none"/>
    </clipPath>
    <clipPath id="clip-path-25">
      <rect id="Rectángulo_418261" data-name="Rectángulo 418261" width="5.356" height="23.51" fill="none"/>
    </clipPath>
    <clipPath id="clip-path-26">
      <rect id="Rectángulo_418262" data-name="Rectángulo 418262" width="5.465" height="18.801" fill="none"/>
    </clipPath>
    <clipPath id="clip-path-27">
      <rect id="Rectángulo_418263" data-name="Rectángulo 418263" width="5.483" height="26.439" fill="none"/>
    </clipPath>
    <clipPath id="clip-path-28">
      <rect id="Rectángulo_418264" data-name="Rectángulo 418264" width="4.064" height="22.58" fill="none"/>
    </clipPath>
    <clipPath id="clip-path-29">
      <rect id="Rectángulo_418265" data-name="Rectángulo 418265" width="1.705" height="6.744" fill="none"/>
    </clipPath>
    <clipPath id="clip-path-30">
      <rect id="Rectángulo_418266" data-name="Rectángulo 418266" width="10.136" height="4.892" fill="none"/>
    </clipPath>
    <clipPath id="clip-path-31">
      <rect id="Rectángulo_418267" data-name="Rectángulo 418267" width="14.131" height="5.667" fill="none"/>
    </clipPath>
    <clipPath id="clip-path-32">
      <rect id="Rectángulo_418268" data-name="Rectángulo 418268" width="2.529" height="2.535" fill="none"/>
    </clipPath>
    <clipPath id="clip-path-33">
      <rect id="Rectángulo_418269" data-name="Rectángulo 418269" width="6.656" height="6.464" fill="none"/>
    </clipPath>
    <clipPath id="clip-path-34">
      <rect id="Rectángulo_418270" data-name="Rectángulo 418270" width="1.847" height="2.197" fill="none"/>
    </clipPath>
    <clipPath id="clip-path-35">
      <rect id="Rectángulo_418271" data-name="Rectángulo 418271" width="3.661" height="13.287" fill="none"/>
    </clipPath>
    <clipPath id="clip-path-36">
      <rect id="Rectángulo_418272" data-name="Rectángulo 418272" width="1.038" height="2.736" fill="none"/>
    </clipPath>
    <clipPath id="clip-path-37">
      <rect id="Rectángulo_418273" data-name="Rectángulo 418273" width="19.911" height="32.795" fill="none"/>
    </clipPath>
    <clipPath id="clip-path-38">
      <rect id="Rectángulo_418274" data-name="Rectángulo 418274" width="14.389" height="1.793" fill="none"/>
    </clipPath>
    <clipPath id="clip-path-39">
      <rect id="Rectángulo_418275" data-name="Rectángulo 418275" width="12.462" height="1.426" fill="none"/>
    </clipPath>
    <clipPath id="clip-path-40">
      <rect id="Rectángulo_418276" data-name="Rectángulo 418276" width="13.101" height="2.022" fill="none"/>
    </clipPath>
    <clipPath id="clip-path-41">
      <rect id="Rectángulo_418277" data-name="Rectángulo 418277" width="7.677" height="1.722" fill="none"/>
    </clipPath>
    <clipPath id="clip-path-42">
      <rect id="Rectángulo_418278" data-name="Rectángulo 418278" width="19.752" height="33.459" fill="none"/>
    </clipPath>
    <clipPath id="clip-path-43">
      <rect id="Rectángulo_418279" data-name="Rectángulo 418279" width="14.269" height="1.792" fill="none"/>
    </clipPath>
    <clipPath id="clip-path-44">
      <rect id="Rectángulo_418280" data-name="Rectángulo 418280" width="12.358" height="1.425" fill="none"/>
    </clipPath>
    <clipPath id="clip-path-45">
      <rect id="Rectángulo_418281" data-name="Rectángulo 418281" width="12.991" height="2.022" fill="none"/>
    </clipPath>
    <clipPath id="clip-path-46">
      <rect id="Rectángulo_418282" data-name="Rectángulo 418282" width="7.613" height="1.722" fill="none"/>
    </clipPath>
    <clipPath id="clip-path-47">
      <rect id="Rectángulo_418283" data-name="Rectángulo 418283" width="30.826" height="48.022" fill="none"/>
    </clipPath>
    <clipPath id="clip-path-48">
      <rect id="Rectángulo_418284" data-name="Rectángulo 418284" width="17.106" height="14.643" fill="none"/>
    </clipPath>
    <clipPath id="clip-path-49">
      <rect id="Rectángulo_418285" data-name="Rectángulo 418285" width="36.782" height="55.119" fill="none"/>
    </clipPath>
    <clipPath id="clip-path-50">
      <rect id="Rectángulo_418286" data-name="Rectángulo 418286" width="33.451" height="49.615" fill="none"/>
    </clipPath>
  </defs>
  <g id="Enmascarar_grupo_1098892" data-name="Enmascarar grupo 1098892" transform="translate(-1020 -3420)" clip-path="url(#clip-path)">
    <g id="Grupo_1210977" data-name="Grupo 1210977" transform="translate(39.845 97.691)">
      <g id="Grupo_1210836" data-name="Grupo 1210836" transform="translate(972.5 3261)">
        <g id="Grupo_1210835" data-name="Grupo 1210835" clip-path="url(#clip-path-2)">
          <g id="Grupo_1210834" data-name="Grupo 1210834" transform="translate(59.558 70.643)" opacity="0.28">
            <g id="Grupo_1210833" data-name="Grupo 1210833">
              <g id="Grupo_1210832" data-name="Grupo 1210832" clip-path="url(#clip-path-3)">
                <path id="Trazado_1079351" data-name="Trazado 1079351" d="M367.341,232.868A147.819,147.819,0,1,1,219.522,85.049,147.819,147.819,0,0,1,367.341,232.868" transform="translate(-71.703 -85.049)" fill="#a1bada"/>
              </g>
            </g>
          </g>
        </g>
      </g>
      <g id="Grupo_1210976" data-name="Grupo 1210976" transform="translate(972.5 3261)">
        <g id="Grupo_1210975" data-name="Grupo 1210975" clip-path="url(#clip-path-2)">
          <path id="Trazado_1079352" data-name="Trazado 1079352" d="M210.094,241.251c-1.669,4.655-4.739,8.878-6.473,13.55-1.745,4.7-2.453,10.055-.5,14.671q.32-.917.64-1.832a12.739,12.739,0,0,0,9.982,2.664l-1.537-1.479c6.508,2.868,14.022-.03,21.121.4,2.928.179,5.79.933,8.707,1.248a29.424,29.424,0,0,0,16.612-3.119q-.14,1.1-.28,2.2a36.148,36.148,0,0,0,7.418-3.028c-.75.547-.007,1.892.922,1.9a2.8,2.8,0,0,0,2.15-1.57c1.785-2.868,2.033-6.468,1.505-9.8a68.736,68.736,0,0,0-2.778-9.735c-3.263-10.375-.737-23.708-7.195-32.887A17.188,17.188,0,0,0,242.7,207.8a7.528,7.528,0,0,1,2.5-1.908,5.973,5.973,0,0,0-5.608,2.352,7.649,7.649,0,0,0-4.389-2.033,8.394,8.394,0,0,1,3.061,2.24c-9.719-3.046-20.981,3.244-24.307,12.724-2.012,5.733-1.749,12.105-3.218,17.994a21.776,21.776,0,0,1-.636,2.085" transform="translate(-34.206 -34.863)" fill="#ff755d"/>
          <g id="Grupo_1210839" data-name="Grupo 1210839" transform="translate(170.84 174.828)" opacity="0.28" style="mix-blend-mode: multiply;isolation: isolate">
            <g id="Grupo_1210838" data-name="Grupo 1210838">
              <g id="Grupo_1210837" data-name="Grupo 1210837" clip-path="url(#clip-path-5)">
                <path id="Trazado_1079353" data-name="Trazado 1079353" d="M210.726,242.039c-.593,1.655-1.67,2.907.184,4.325a7.616,7.616,0,0,0,2.872,1.142,15.345,15.345,0,0,0,4.671,19.432,30.071,30.071,0,0,1-8.967-2.1q.9,1.775,1.806,3.55a15.835,15.835,0,0,1-5.613-.059c1.006.193,2.17,1.872,3.189,2.32a10.1,10.1,0,0,0,5.509.439l-1.537-1.479c6.508,2.868,14.022-.03,21.121.4,2.928.179,5.79.933,8.707,1.248a29.424,29.424,0,0,0,16.612-3.119q-.14,1.1-.28,2.2a36.151,36.151,0,0,0,7.418-3.028c-.75.547-.007,1.892.922,1.9a2.8,2.8,0,0,0,2.15-1.57c1.3-2.095,2.455-5.856,1.456-8.286a11.188,11.188,0,0,1-2.873,6.67,13.667,13.667,0,0,0,1.705-6.25,14.813,14.813,0,0,1-8.046,7.5,11.686,11.686,0,0,0,1.889-3.786,19.837,19.837,0,0,1-6.829,3.764,22.08,22.08,0,0,0,6.3-7.574,13.6,13.6,0,0,0,.955-9.665c5.645.036,2.9-6.99,2.513-10.107-.582-4.724-.715-9.494-1.49-14.195-.6-3.658-1.327-4.6-4.466-6.8q-2.324-1.632-4.766-3.088c-1.139-.678-3.788-1.493-4.563-2.508q1.192,1.56,2.384,3.123a14.318,14.318,0,0,1-10.854-5.965,4.818,4.818,0,0,0-1.374,3.888q-.535-1.247-1.067-2.5l-1.594,1.655q.112-1.09.225-2.181c-3.769,3.276-8.541,5.881-13.517,5.455a26.158,26.158,0,0,0-3.731-.329,3.7,3.7,0,0,0-3.146,1.717q.515-1.38,1.03-2.759c-2.66,1.073-4.153,3.978-5.049,6.532-2.012,5.733-1.749,12.105-3.218,17.994a21.785,21.785,0,0,1-.636,2.085" transform="translate(-205.678 -210.479)" fill="#4143a5"/>
              </g>
            </g>
          </g>
          <path id="Trazado_1079354" data-name="Trazado 1079354" d="M249.4,275.325a31.657,31.657,0,0,0,1.574,11.137,6.481,6.481,0,0,0,3.448,3.876,7.528,7.528,0,0,1,1.7.713c-3.494,2.173-8.284,3.05-12.336,3.194a24.505,24.505,0,0,1-12.734-2.778c6.627-1.153,6.415-11.487,6.137-16.574a29.32,29.32,0,0,0,12.211.262c0,.056,0,.113,0,.169" transform="translate(-39.135 -46.561)" fill="#fab7cf"/>
          <g id="Grupo_1210842" data-name="Grupo 1210842" transform="translate(191.916 228.332)" opacity="0.89" style="mix-blend-mode: multiply;isolation: isolate">
            <g id="Grupo_1210841" data-name="Grupo 1210841">
              <g id="Grupo_1210840" data-name="Grupo 1210840" clip-path="url(#clip-path-6)">
                <path id="Trazado_1079355" data-name="Trazado 1079355" d="M249.4,275.325a31.657,31.657,0,0,0,1.574,11.137,6.481,6.481,0,0,0,3.448,3.876,7.528,7.528,0,0,1,1.7.713c-3.494,2.173-8.284,3.05-12.336,3.194a24.505,24.505,0,0,1-12.734-2.778c.633.353,2.459-.993,2.9-1.38a7.922,7.922,0,0,0,1.959-2.857,10.193,10.193,0,0,1,.589-1.714c.409-.57.978-.3,1.743-.333a20.78,20.78,0,0,0,5.009-1.027c-.444.13-2.005-1.194-2.368-1.464a29.843,29.843,0,0,0-3.638-2.377c-.051-.578.316-5.335-.052-5.422a29.32,29.32,0,0,0,12.211.262c0,.056,0,.113,0,.169" transform="translate(-231.051 -274.893)" fill="#fab7cf"/>
              </g>
            </g>
          </g>
          <path id="Trazado_1079356" data-name="Trazado 1079356" d="M253.577,219.9c-.568-.084-1.134-.177-1.694-.292-2.7-.56-5.535-1.927-6.516-4.5l-.042,2.77a1.157,1.157,0,0,1-.308.941c-.434.327-1.037-.091-1.357-.53a5.588,5.588,0,0,1-1.063-3.078q-1.134,1.66-2.266,3.321l.157-2.939c-1.817,2.732-5.089,4.088-8.254,4.955s-6.494,1.425-9.274,3.167c-3.818,2.391-4.456,6.387-4.464,10.544-.01,5.271.37,10.575.557,15.842.1,2.935.244,6,1.719,8.543a15.126,15.126,0,0,0,5.529,5.011c6.8,4.094,15.137,7.861,22.688,4.054a84.1,84.1,0,0,0,7.593-4.338,15.314,15.314,0,0,0,4.2-3.562,15.159,15.159,0,0,0,2.34-6.8,112.668,112.668,0,0,0,1.136-14.641c.131-5.566,2.27-14.38-4.291-17.112a26.383,26.383,0,0,0-6.392-1.347" transform="translate(-37.009 -36.434)" fill="#fab7cf"/>
          <g id="Grupo_1210845" data-name="Grupo 1210845" transform="translate(181.486 192.304)" opacity="0.42" style="mix-blend-mode: multiply;isolation: isolate">
            <g id="Grupo_1210844" data-name="Grupo 1210844">
              <g id="Grupo_1210843" data-name="Grupo 1210843" clip-path="url(#clip-path-7)">
                <path id="Trazado_1079357" data-name="Trazado 1079357" d="M253.349,231.607q-1.546-.041-3.092-.063a257.505,257.505,0,0,0-27.014,1.033c-3.118.284-4.742,1.287-4.748,4.458-.009,5.271.371,10.575.557,15.842.1,2.935.243,6,1.719,8.543a15.112,15.112,0,0,0,5.529,5.011c6.794,4.094,15.137,7.861,22.687,4.054a29.1,29.1,0,0,0,4.715-2.946,18.569,18.569,0,0,1-17.434.3c-6.177-3.229-10.642-10.59-10.315-17.589q11.952.275,23.909.032c3.919-.08,7.836-.22,11.753-.365,2.468-.091,2.162-.645,2.293-2.89.114-1.963.3-3.917.351-5.884.062-2.631,1.9-7.893-.618-9.034-1.645-.745-4.818-.3-6.626-.376q-1.833-.075-3.666-.123" transform="translate(-218.495 -231.518)" fill="#fab7cf"/>
              </g>
            </g>
          </g>
          <g id="Grupo_1210848" data-name="Grupo 1210848" transform="translate(200.985 209.035)" style="mix-blend-mode: multiply;isolation: isolate">
            <g id="Grupo_1210847" data-name="Grupo 1210847">
              <g id="Grupo_1210846" data-name="Grupo 1210846" clip-path="url(#clip-path-8)">
                <path id="Trazado_1079358" data-name="Trazado 1079358" d="M242.969,251.661a1.159,1.159,0,0,0,.344,1.153,7.558,7.558,0,0,0,.868.662c.333.231.671.458,1.021.662a2.6,2.6,0,0,0,1.343.434,1.652,1.652,0,0,1-1.612.95,3.077,3.077,0,0,1-1.782-.579A2.7,2.7,0,0,1,242,253.325a1.665,1.665,0,0,1,.152-1.095,1,1,0,0,1,.813-.569" transform="translate(-241.97 -251.661)" fill="#cd6348"/>
              </g>
            </g>
          </g>
          <g id="Grupo_1210851" data-name="Grupo 1210851" transform="translate(195.81 212.595)" style="mix-blend-mode: multiply;isolation: isolate">
            <g id="Grupo_1210850" data-name="Grupo 1210850">
              <g id="Grupo_1210849" data-name="Grupo 1210849" clip-path="url(#clip-path-9)">
                <path id="Trazado_1079359" data-name="Trazado 1079359" d="M235.739,256.3a19.632,19.632,0,0,0,4.278,2.431,13,13,0,0,0,4.552.937,11.288,11.288,0,0,0,4.5-.909A11.433,11.433,0,0,0,253,255.948a7.555,7.555,0,0,1-3.273,4.047,9.46,9.46,0,0,1-5.185,1.467,10.331,10.331,0,0,1-5.148-1.481,9.914,9.914,0,0,1-3.658-3.68" transform="translate(-235.739 -255.947)" fill="#ff92bf"/>
              </g>
            </g>
          </g>
          <path id="Trazado_1079360" data-name="Trazado 1079360" d="M260,246.515H220.222a9.7,9.7,0,0,1-9.7-9.7v-5.83a9.7,9.7,0,0,1,9.7-9.7H260a9.7,9.7,0,0,1,9.7,9.7v5.83a9.7,9.7,0,0,1-9.7,9.7" transform="translate(-35.658 -37.48)" fill="#a9a4e4"/>
          <g id="Grupo_1210854" data-name="Grupo 1210854" transform="translate(178.8 183.798)" opacity="0.62">
            <g id="Grupo_1210853" data-name="Grupo 1210853">
              <g id="Grupo_1210852" data-name="Grupo 1210852" clip-path="url(#clip-path-10)">
                <path id="Trazado_1079361" data-name="Trazado 1079361" d="M223.254,221.278l-7.993,23.328,3.068,1.528,4.925.381,9.016-25.237Z" transform="translate(-215.261 -221.278)" fill="#fff"/>
              </g>
            </g>
          </g>
          <g id="Grupo_1210857" data-name="Grupo 1210857" transform="translate(192.7 183.798)" opacity="0.62">
            <g id="Grupo_1210856" data-name="Grupo 1210856">
              <g id="Grupo_1210855" data-name="Grupo 1210855" clip-path="url(#clip-path-11)">
                <path id="Trazado_1079362" data-name="Trazado 1079362" d="M240.432,221.278l-8.438,25.237H235.1l8.608-25.237Z" transform="translate(-231.995 -221.278)" fill="#fff"/>
              </g>
            </g>
          </g>
          <g id="Grupo_1210860" data-name="Grupo 1210860" transform="translate(203.156 183.798)" opacity="0.62">
            <g id="Grupo_1210859" data-name="Grupo 1210859">
              <g id="Grupo_1210858" data-name="Grupo 1210858" clip-path="url(#clip-path-12)">
                <path id="Trazado_1079363" data-name="Trazado 1079363" d="M244.583,246.514l8.741-25.237h7.488l-8.543,25.237Z" transform="translate(-244.583 -221.278)" fill="#fff"/>
              </g>
            </g>
          </g>
          <g id="Grupo_1210863" data-name="Grupo 1210863" transform="translate(215.166 183.798)" opacity="0.62">
            <g id="Grupo_1210862" data-name="Grupo 1210862">
              <g id="Grupo_1210861" data-name="Grupo 1210861" clip-path="url(#clip-path-13)">
                <path id="Trazado_1079364" data-name="Trazado 1079364" d="M268.218,221.278l-9.176,25.237h2.847l9.211-24.8-1.194-.435Z" transform="translate(-259.042 -221.278)" fill="#fff"/>
              </g>
            </g>
          </g>
          <g id="Grupo_1210866" data-name="Grupo 1210866" transform="translate(223.814 187.308)" opacity="0.62">
            <g id="Grupo_1210865" data-name="Grupo 1210865">
              <g id="Grupo_1210864" data-name="Grupo 1210864" clip-path="url(#clip-path-14)">
                <path id="Trazado_1079365" data-name="Trazado 1079365" d="M269.454,247.231l8-21.727,1.918,3.767.216,9.6-2.781,5.554c-1.183,1.67-3.91,2.445-7.35,2.806" transform="translate(-269.454 -225.504)" fill="#fff"/>
              </g>
            </g>
          </g>
          <line id="Línea_170" data-name="Línea 170" x2="49.339" transform="translate(180.17 184.852)" fill="none" stroke="#343580" stroke-linecap="round" stroke-miterlimit="10" stroke-width="3.238"/>
          <line id="Línea_171" data-name="Línea 171" x2="49.339" transform="translate(180.111 207.951)" fill="none" stroke="#343580" stroke-linecap="round" stroke-miterlimit="10" stroke-width="3.238"/>
          <path id="Trazado_1079366" data-name="Trazado 1079366" d="M219.85,246.515h-3.886a7.644,7.644,0,0,1-7.644-7.643v-9.95a7.644,7.644,0,0,1,7.644-7.643h3.886l-2.169,1.6a9.448,9.448,0,0,0-3.842,7.6v6.294a9.447,9.447,0,0,0,2.969,6.876Z" transform="translate(-35.285 -37.48)" fill="#343580"/>
          <path id="Trazado_1079367" data-name="Trazado 1079367" d="M270.415,246.515h3.79a7.551,7.551,0,0,0,7.455-7.643v-9.95a7.551,7.551,0,0,0-7.455-7.643h-3.79l2.115,1.6a9.526,9.526,0,0,1,3.747,7.6v6.294a9.558,9.558,0,0,1-2.9,6.876Z" transform="translate(-45.803 -37.48)" fill="#343580"/>
          <path id="Trazado_1079368" data-name="Trazado 1079368" d="M196.77,227.832a104.41,104.41,0,0,1-14.88.71c-5.248-.045-11.433-.789-14.8-5.26-3.253-4.314-3.258-10.523-.876-15.373,1.824-3.715,5.185-6.9,9.28-7.5s8.7,2.08,9.338,6.168a5.281,5.281,0,0,1-.75,3.789A3.7,3.7,0,0,1,180.69,212a4.376,4.376,0,0,1-2.12-.975c-2.9-2.287-3.533-6.679-2.126-10.09,2.4-5.807,8.709-8.417,14.529-9.211,5.269-.718,9.63,1.121,14.448,2.787,6.378,2.2,14.653,4.4,21.418,2.9,2.953-.654,5.4-2.461,6-5.507a19.506,19.506,0,0,0,.223-4.054q-.054-3.688-.106-7.377" transform="translate(-27.867 -30.57)" fill="none" stroke="#1d1a49" stroke-linecap="round" stroke-miterlimit="10" stroke-width="2.159"/>
          <path id="Trazado_1079369" data-name="Trazado 1079369" d="M207.595,241.091h-2.164a1.393,1.393,0,0,1-1.393-1.393v-5.6a1.393,1.393,0,0,1,1.393-1.393h2.164Z" transform="translate(-34.56 -39.416)" fill="#343580"/>
          <path id="Trazado_1079370" data-name="Trazado 1079370" d="M203.045,239.8h-1.938a2.571,2.571,0,0,1,0-5.142h1.938Z" transform="translate(-33.628 -39.746)" fill="#4e5ec1"/>
          <path id="Trazado_1079371" data-name="Trazado 1079371" d="M286.077,479.706l-35.759.017c-1.927-5.808-2.719-11.167-4.12-17.132-.433-1.843-3.611-19.387-4.571-19.471l-7.03-.63-2.464,19.579c-.178,1.416-1.973,17.634-2,17.636h-33.47c-.181-14.226-1.307-28.524.019-42.744,1.419-15.217,4.814-30.394,11.811-44.071-1.684-.109-1.719-2.6-1.144-4.183,1.047-2.883,2.082-5.577,2.933-8.523,3.618,1.981,7.851,2.461,11.968,2.72,7.184.451,14.39.343,21.588.234,7.512-.113,15.138-.243,22.335-2.4a51.773,51.773,0,0,0,2.04,5.333c.925,2.206,1.644,5.228-.318,6.6.01-.007,6.651,14.966,7.146,16.484a167.789,167.789,0,0,1,5.677,23.527c2.74,15.872,3.708,31.019,5.356,47.025" transform="translate(-33.206 -64.396)" fill="#4143a5"/>
          <g id="Grupo_1210869" data-name="Grupo 1210869" transform="translate(162.989 315.789)" opacity="0.57" style="mix-blend-mode: multiply;isolation: isolate">
            <g id="Grupo_1210868" data-name="Grupo 1210868">
              <g id="Grupo_1210867" data-name="Grupo 1210867" clip-path="url(#clip-path-15)">
                <path id="Trazado_1079372" data-name="Trazado 1079372" d="M286.107,479.706l-35.759.017c-1.927-5.808-2.719-11.167-4.12-17.132-.433-1.843-3.611-19.387-4.571-19.471l-7.03-.63-2.464,19.579c-.178,1.416-1.973,17.634-2,17.636H196.7c-.057-4.5-1.214-10.6.331-14.947a32.087,32.087,0,0,0,6.227,6.034,2.188,2.188,0,0,0,1.457.579,2.266,2.266,0,0,0,1.307-.88l19.5-21.414a70.748,70.748,0,0,1-12.664-12.991,18.88,18.88,0,0,1,9.82.135c-2.487-.711-4.684-3.6-6.667-5.161a15.942,15.942,0,0,0-7.966-3.3,14.2,14.2,0,0,1,7.226-.821,4.971,4.971,0,0,0-4.179-3.026,10.323,10.323,0,0,0-3.982.836,11.805,11.805,0,0,1-4,.844,4.374,4.374,0,0,1-3.572-1.7q-1.121,4.338-2.242,8.677c.948-3.669.576-7.64,1.755-11.306,1.025-3.184,1.329-6.506,2.253-9.759a101.925,101.925,0,0,1,7.229-18.611c-1.685-.109-1.719-2.6-1.144-4.183,1.047-2.883,2.082-5.577,2.933-8.523,3.618,1.981,7.851,2.461,11.968,2.72,7.184.451,14.391.343,21.588.234,7.512-.113,15.138-.243,22.335-2.4a51.781,51.781,0,0,0,2.04,5.333c.925,2.206,1.644,5.228-.318,6.6.01-.007,6.651,14.966,7.146,16.484q1.275,3.906,2.317,7.883c.637,2.415.841,5.62,2.1,7.735-.346.339-.616.142-.947-.2a7.63,7.63,0,0,0-6.853-1.833,18.167,18.167,0,0,0-6.652,3.1,61.975,61.975,0,0,0-9.018,7.38,19.352,19.352,0,0,1,13.613-.134,51.46,51.46,0,0,0-17.2,13.629,27.028,27.028,0,0,1,14.3-3.639c-3.953,3.18-8.25,7.017-8.408,12.088-.154,4.933,3.809,9.092,8.139,11.463a28.4,28.4,0,0,0,15.215,3.417,4.809,4.809,0,0,0,3.21-1.166c1.056,3.675.828,7.027,1.22,10.833" transform="translate(-196.226 -380.185)" fill="#a9a4e4"/>
              </g>
            </g>
          </g>
          <g id="Grupo_1210872" data-name="Grupo 1210872" transform="translate(214.634 358.637)" opacity="0.78" style="mix-blend-mode: multiply;isolation: isolate">
            <g id="Grupo_1210871" data-name="Grupo 1210871">
              <g id="Grupo_1210870" data-name="Grupo 1210870" clip-path="url(#clip-path-16)">
                <path id="Trazado_1079373" data-name="Trazado 1079373" d="M258.4,448.045a23.614,23.614,0,0,1,2.278-4.965,31.95,31.95,0,0,1,7.071-8.285,23.46,23.46,0,0,1,4.548-3.026c-1.181,1.4-2.391,2.713-3.58,4.035s-2.362,2.641-3.5,3.994c-1.161,1.331-2.27,2.705-3.4,4.078s-2.225,2.782-3.422,4.17" transform="translate(-258.402 -431.769)" fill="#a9a4e4"/>
              </g>
            </g>
          </g>
          <g id="Grupo_1210875" data-name="Grupo 1210875" transform="translate(218.861 370.865)" opacity="0.78" style="mix-blend-mode: multiply;isolation: isolate">
            <g id="Grupo_1210874" data-name="Grupo 1210874">
              <g id="Grupo_1210873" data-name="Grupo 1210873" clip-path="url(#clip-path-17)">
                <path id="Trazado_1079374" data-name="Trazado 1079374" d="M263.491,450.339a9.3,9.3,0,0,1,2-1.685,14.353,14.353,0,0,1,4.669-1.929,9.223,9.223,0,0,1,2.6-.21,11.137,11.137,0,0,1-2.1,1.527,18.551,18.551,0,0,1-2.24,1.1,19.055,19.055,0,0,1-2.365.8,11.325,11.325,0,0,1-2.565.4" transform="translate(-263.491 -446.491)" fill="#a9a4e4"/>
              </g>
            </g>
          </g>
          <g id="Grupo_1210878" data-name="Grupo 1210878" transform="translate(183.148 363.61)" opacity="0.78" style="mix-blend-mode: multiply;isolation: isolate">
            <g id="Grupo_1210877" data-name="Grupo 1210877">
              <g id="Grupo_1210876" data-name="Grupo 1210876" clip-path="url(#clip-path-18)">
                <path id="Trazado_1079375" data-name="Trazado 1079375" d="M220.495,437.757a28.04,28.04,0,0,1,4.4,2.249,43.42,43.42,0,0,1,7.729,6.031,27.769,27.769,0,0,1,3.248,3.724,43.936,43.936,0,0,1-4.145-2.65c-1.333-.929-2.625-1.9-3.9-2.9s-2.53-2.013-3.754-3.083a44.158,44.158,0,0,1-3.577-3.376" transform="translate(-220.495 -437.757)" fill="#a9a4e4"/>
              </g>
            </g>
          </g>
          <g id="Grupo_1210881" data-name="Grupo 1210881" transform="translate(185.738 373.598)" opacity="0.78" style="mix-blend-mode: multiply;isolation: isolate">
            <g id="Grupo_1210880" data-name="Grupo 1210880">
              <g id="Grupo_1210879" data-name="Grupo 1210879" clip-path="url(#clip-path-19)">
                <path id="Trazado_1079376" data-name="Trazado 1079376" d="M223.614,449.833a8.847,8.847,0,0,1,2.525.1,13.5,13.5,0,0,1,2.361.642,13.268,13.268,0,0,1,2.207,1.054,8.764,8.764,0,0,1,1.978,1.575,10.32,10.32,0,0,1-2.5-.264,17.067,17.067,0,0,1-2.312-.684,17.31,17.31,0,0,1-2.2-1,10.514,10.514,0,0,1-2.065-1.431" transform="translate(-223.614 -449.782)" fill="#a9a4e4"/>
              </g>
            </g>
          </g>
          <g id="Grupo_1210884" data-name="Grupo 1210884" transform="translate(194.827 333.57)" opacity="0.78" style="mix-blend-mode: multiply;isolation: isolate">
            <g id="Grupo_1210883" data-name="Grupo 1210883">
              <g id="Grupo_1210882" data-name="Grupo 1210882" clip-path="url(#clip-path-20)">
                <path id="Trazado_1079377" data-name="Trazado 1079377" d="M249.643,441.986a18.113,18.113,0,0,1-2.88,1.413,7.962,7.962,0,0,1-3.262.552,4.906,4.906,0,0,1-3.142-1.464,9.29,9.29,0,0,1-1.788-2.881c-1.743-4.029-2.335-8.341-2.946-12.53a120.81,120.81,0,0,1-1.027-12.734,96.945,96.945,0,0,1,.444-12.751c.3,4.244.58,8.463.954,12.67s.831,8.4,1.406,12.576c.269,2.09.563,4.186.933,6.237a36.777,36.777,0,0,0,1.533,6.017,8.7,8.7,0,0,0,1.356,2.606,3.9,3.9,0,0,0,2.389,1.384,7.645,7.645,0,0,0,3.012-.156,24.35,24.35,0,0,0,3.02-.939" transform="translate(-234.556 -401.591)" fill="#a9a4e4"/>
              </g>
            </g>
          </g>
          <path id="Trazado_1079378" data-name="Trazado 1079378" d="M309.423,367.51c-2.4,6.932-9.653,10.1-15.184,4.409a57.7,57.7,0,0,1-6.778-9.116c-8.305-12.851-16.913-25.578-25.029-38.528q-2.043,14.143-3.131,28.4a6,6,0,0,0,.07,1.988,8.3,8.3,0,0,0,1.027,2,11.44,11.44,0,0,1,1.56,5.127c.162,2.805-.909,5.85-3.315,7.3A11.761,11.761,0,0,1,255.1,370.3a27.876,27.876,0,0,0-7.648,2.617,10.947,10.947,0,0,1-8.3.565c-1.234-.406-2.51-1.039-3.769-.718a8.746,8.746,0,0,0-1.87.935c-4.086,2.187-9.206-.916-13.388-1.413-2.35-.28-4.73.027-7.093-.107s-4.857-.809-6.39-2.612l.3,1a19.13,19.13,0,0,1-5.568-3.265c-1.865-1.763-3.538-5.737-1.947-8.089a15.229,15.229,0,0,0,1.5-2.194,7.349,7.349,0,0,0,.377-3.267c-.219-6.092-.483-12.16-.989-18.236-.127-1.522-.258-3.043-.376-4.566-.073-.942-.705-3.389-.292-4.215q-5.907,11.8-12.446,23.272c-4.187,7.346-7.953,14.944-12.279,22.2a14.848,14.848,0,0,1-3.449,4.343c-5.721,4.406-11.374-1.243-12.87-6.712a22.922,22.922,0,0,1,1.855-16.264c3.3-6.165,8.65-11.115,12.2-17.138,6.678-11.345,12.141-23.387,18.893-34.639a6.478,6.478,0,0,1,1.826-2.209,6.718,6.718,0,0,1,2.456-.8,126.687,126.687,0,0,0,18.766-5.117,2.144,2.144,0,0,1-.6-1.08,6.342,6.342,0,0,0,5.037-1.906c.845-.911,1.715-3.41,3.112-3.521a2.389,2.389,0,0,1,.956.2c5.519,1.912,10.2,1.017,15.759.061a3.444,3.444,0,0,1,1.483-.036c1.184.322,1.642,1.708,2.345,2.713a4.944,4.944,0,0,0,4.636,2.018l-.909.988c6.755,1.273,13.488,2.413,20.231,3.736a3.648,3.648,0,0,1,2.9,1.762c6.049,7.947,12.29,16.2,17.583,24.616,3.093,4.919,6.194,9.849,9.745,14.454s8.292,8.21,10.889,13.457c2.458,4.962,3.511,11.027,1.66,16.374" transform="translate(-26.74 -48.64)" fill="#ffcf61"/>
          <g id="Grupo_1210887" data-name="Grupo 1210887" transform="translate(131.13 238.683)" opacity="0.57" style="mix-blend-mode: multiply;isolation: isolate">
            <g id="Grupo_1210886" data-name="Grupo 1210886">
              <g id="Grupo_1210885" data-name="Grupo 1210885" clip-path="url(#clip-path-21)">
                <path id="Trazado_1079379" data-name="Trazado 1079379" d="M309.423,367.541c-2.4,6.932-9.653,10.1-15.184,4.409a57.7,57.7,0,0,1-6.778-9.116c-8.305-12.851-16.913-25.578-25.029-38.527q-2.043,14.143-3.131,28.4a6,6,0,0,0,.07,1.989,8.3,8.3,0,0,0,1.027,2,11.44,11.44,0,0,1,1.56,5.127c.162,2.805-.909,5.85-3.315,7.3a11.759,11.759,0,0,1-3.544,1.208,27.877,27.877,0,0,0-7.648,2.617,10.947,10.947,0,0,1-8.3.565c-1.234-.406-2.51-1.039-3.769-.718a8.747,8.747,0,0,0-1.87.935c-4.086,2.187-9.206-.916-13.388-1.413-2.35-.28-4.73.027-7.093-.107s-4.857-.809-6.39-2.611l.3,1a19.13,19.13,0,0,1-5.568-3.265c-1.865-1.763-3.538-5.737-1.947-8.089a15.229,15.229,0,0,0,1.5-2.194,7.349,7.349,0,0,0,.377-3.267c-.219-6.092-.483-12.16-.989-18.236-.127-1.522-.258-3.043-.376-4.566-.073-.942-.705-3.389-.292-4.215q-5.907,11.8-12.446,23.272c-4.187,7.346-7.953,14.944-12.279,22.2a14.848,14.848,0,0,1-3.449,4.343c-5.721,4.406-11.374-1.243-12.87-6.712a22.922,22.922,0,0,1,1.855-16.264c3.926-7.325,10.662-13.118,19.473-12.176q-2.013-1.037-4.028-2.07a10.822,10.822,0,0,1,7.732.331,11.484,11.484,0,0,1-1.8-7.232,12.8,12.8,0,0,1,5.912,2.737,69.706,69.706,0,0,1-.816-14.442,10.294,10.294,0,0,1,5.821,4.642,48.345,48.345,0,0,0,.405-24.816,34.044,34.044,0,0,1,4.7,7.829,23.13,23.13,0,0,1-.478-6.983,16.668,16.668,0,0,1,6.636,12.053q.439-3.521.878-7.043a36.7,36.7,0,0,1,4.572,23.327c3.242-2.7,7.819-2.835,11.937-3.766a28.9,28.9,0,0,0,16.5-10.628c-9.394-4.254-19.306-8.941-24.882-17.617a38.517,38.517,0,0,0,17.267,2.744,29.868,29.868,0,0,1-14.73-7.268,22.005,22.005,0,0,0,17.693-1.262l-6.22-3.254c3.945-.346,7.966-.293,11.842-1.263a3.443,3.443,0,0,1,1.483-.036c1.184.322,1.642,1.708,2.345,2.713a4.944,4.944,0,0,0,4.636,2.018l-.909.988c6.755,1.273,13.488,2.413,20.231,3.736,3.57.7,3.249,3.549,2.293,6.439a47.514,47.514,0,0,0-2.332,17.354,7.221,7.221,0,0,1,3.512-5.7,26.13,26.13,0,0,0,1.866,14.055,14.917,14.917,0,0,1,9.688-5.1,84.885,84.885,0,0,1-6.434,9.237,20.926,20.926,0,0,1,10.252-4.311,15.668,15.668,0,0,1-3.73,6.353l4.672-1.455a34.338,34.338,0,0,0-5.348,7.017,58.587,58.587,0,0,1,12.867-.37c7.025.575,10.789,4.667,13.812,10.773,2.458,4.962,3.511,11.027,1.66,16.374" transform="translate(-157.87 -287.355)" fill="#a9a4e4"/>
              </g>
            </g>
          </g>
          <g id="Grupo_1210890" data-name="Grupo 1210890" transform="translate(187.528 244.949)" opacity="0.71" style="mix-blend-mode: multiply;isolation: isolate">
            <g id="Grupo_1210889" data-name="Grupo 1210889">
              <g id="Grupo_1210888" data-name="Grupo 1210888" clip-path="url(#clip-path-22)">
                <path id="Trazado_1079380" data-name="Trazado 1079380" d="M225.769,294.9q.937.417,1.854.853l1.895.737,1.922.64,1.956.513a35.777,35.777,0,0,0,15.992.024l1.958-.507,1.924-.634,1.9-.73q.918-.435,1.857-.847-.866.541-1.753,1.061l-1.837.924-1.912.765-1.962.636a29.949,29.949,0,0,1-16.337-.028l-1.96-.642-1.91-.771-1.833-.929q-.886-.522-1.75-1.066" transform="translate(-225.769 -294.899)" fill="#a9a4e4"/>
              </g>
            </g>
          </g>
          <g id="Grupo_1210893" data-name="Grupo 1210893" transform="translate(203.675 246.116)" opacity="0.71" style="mix-blend-mode: multiply;isolation: isolate">
            <g id="Grupo_1210892" data-name="Grupo 1210892">
              <g id="Grupo_1210891" data-name="Grupo 1210891" clip-path="url(#clip-path-23)">
                <path id="Trazado_1079381" data-name="Trazado 1079381" d="M245.208,303.659a43.505,43.505,0,0,0,16.527-7.355,23.069,23.069,0,0,1-16.527,7.355" transform="translate(-245.208 -296.304)" fill="#a9a4e4"/>
              </g>
            </g>
          </g>
          <g id="Grupo_1210896" data-name="Grupo 1210896" transform="translate(186.95 249.034)" opacity="0.71" style="mix-blend-mode: multiply;isolation: isolate">
            <g id="Grupo_1210895" data-name="Grupo 1210895">
              <g id="Grupo_1210894" data-name="Grupo 1210894" clip-path="url(#clip-path-24)">
                <path id="Trazado_1079382" data-name="Trazado 1079382" d="M225.073,299.817q.961.792,1.895,1.6l1.993,1.454,2.072,1.327,2.16,1.171a38.5,38.5,0,0,0,18.975,4.009l2.449-.2,2.433-.375,2.411-.522q1.18-.359,2.378-.693-1.145.471-2.31.92l-2.385.724-2.446.506-2.481.326a33.873,33.873,0,0,1-19.343-4.09l-2.138-1.3-2.032-1.454-1.89-1.627c-.589-.586-1.168-1.18-1.74-1.775" transform="translate(-225.073 -299.817)" fill="#a9a4e4"/>
              </g>
            </g>
          </g>
          <g id="Grupo_1210899" data-name="Grupo 1210899" transform="translate(235.25 249.302)" opacity="0.71" style="mix-blend-mode: multiply;isolation: isolate">
            <g id="Grupo_1210898" data-name="Grupo 1210898">
              <g id="Grupo_1210897" data-name="Grupo 1210897" clip-path="url(#clip-path-25)">
                <path id="Trazado_1079383" data-name="Trazado 1079383" d="M288.578,300.139a60.442,60.442,0,0,0-5,23.509,35.395,35.395,0,0,1,5-23.509" transform="translate(-283.222 -300.139)" fill="#a9a4e4"/>
              </g>
            </g>
          </g>
          <g id="Grupo_1210902" data-name="Grupo 1210902" transform="translate(232.756 250.642)" opacity="0.71" style="mix-blend-mode: multiply;isolation: isolate">
            <g id="Grupo_1210901" data-name="Grupo 1210901">
              <g id="Grupo_1210900" data-name="Grupo 1210900" clip-path="url(#clip-path-26)">
                <path id="Trazado_1079384" data-name="Trazado 1079384" d="M285.684,301.753a65.936,65.936,0,0,0-5.407,18.8,30.236,30.236,0,0,1,5.407-18.8" transform="translate(-280.219 -301.753)" fill="#a9a4e4"/>
              </g>
            </g>
          </g>
          <g id="Grupo_1210905" data-name="Grupo 1210905" transform="translate(166.829 251.868)" opacity="0.71" style="mix-blend-mode: multiply;isolation: isolate">
            <g id="Grupo_1210904" data-name="Grupo 1210904">
              <g id="Grupo_1210903" data-name="Grupo 1210903" clip-path="url(#clip-path-27)">
                <path id="Trazado_1079385" data-name="Trazado 1079385" d="M200.849,303.229a23.165,23.165,0,0,1,3.238,6.054,34.7,34.7,0,0,1,1.67,6.688,64.765,64.765,0,0,1,.39,13.7c-.414-4.549-.588-9.1-1.277-13.562a39.1,39.1,0,0,0-4.022-12.877" transform="translate(-200.849 -303.229)" fill="#a9a4e4"/>
              </g>
            </g>
          </g>
          <g id="Grupo_1210908" data-name="Grupo 1210908" transform="translate(171.209 253.818)" opacity="0.71" style="mix-blend-mode: multiply;isolation: isolate">
            <g id="Grupo_1210907" data-name="Grupo 1210907">
              <g id="Grupo_1210906" data-name="Grupo 1210906" clip-path="url(#clip-path-28)">
                <path id="Trazado_1079386" data-name="Trazado 1079386" d="M206.122,305.576a26.731,26.731,0,0,1,2.7,22.58,40.168,40.168,0,0,0-2.7-22.58" transform="translate(-206.122 -305.576)" fill="#a9a4e4"/>
              </g>
            </g>
          </g>
          <g id="Grupo_1210911" data-name="Grupo 1210911" transform="translate(178.555 260.797)" opacity="0.71" style="mix-blend-mode: multiply;isolation: isolate">
            <g id="Grupo_1210910" data-name="Grupo 1210910">
              <g id="Grupo_1210909" data-name="Grupo 1210909" clip-path="url(#clip-path-29)">
                <path id="Trazado_1079387" data-name="Trazado 1079387" d="M214.966,313.979a8.461,8.461,0,0,1,1.52,6.744,28.1,28.1,0,0,1-.914-3.337,28.76,28.76,0,0,1-.606-3.406" transform="translate(-214.966 -313.979)" fill="#a9a4e4"/>
              </g>
            </g>
          </g>
          <g id="Grupo_1210914" data-name="Grupo 1210914" transform="translate(268.643 293.651)" opacity="0.71" style="mix-blend-mode: multiply;isolation: isolate">
            <g id="Grupo_1210913" data-name="Grupo 1210913">
              <g id="Grupo_1210912" data-name="Grupo 1210912" clip-path="url(#clip-path-30)">
                <path id="Trazado_1079388" data-name="Trazado 1079388" d="M333.561,358.424a15.567,15.567,0,0,0-10.136-4.6,9.01,9.01,0,0,1,10.136,4.6" transform="translate(-323.425 -353.532)" fill="#a9a4e4"/>
              </g>
            </g>
          </g>
          <g id="Grupo_1210917" data-name="Grupo 1210917" transform="translate(136.807 293.947)" opacity="0.71" style="mix-blend-mode: multiply;isolation: isolate">
            <g id="Grupo_1210916" data-name="Grupo 1210916">
              <g id="Grupo_1210915" data-name="Grupo 1210915" clip-path="url(#clip-path-31)">
                <path id="Trazado_1079389" data-name="Trazado 1079389" d="M164.705,359.556a14.081,14.081,0,0,1,14.131-5.34,22.574,22.574,0,0,0-14.131,5.34" transform="translate(-164.705 -353.889)" fill="#a9a4e4"/>
              </g>
            </g>
          </g>
          <g id="Grupo_1210920" data-name="Grupo 1210920" transform="translate(156.842 284.203)" opacity="0.71" style="mix-blend-mode: multiply;isolation: isolate">
            <g id="Grupo_1210919" data-name="Grupo 1210919">
              <g id="Grupo_1210918" data-name="Grupo 1210918" clip-path="url(#clip-path-32)">
                <path id="Trazado_1079390" data-name="Trazado 1079390" d="M188.825,342.158a3.1,3.1,0,0,1,2.529,2.535,4.549,4.549,0,0,1-1.5-1.037,4.62,4.62,0,0,1-1.033-1.5" transform="translate(-188.825 -342.158)" fill="#a9a4e4"/>
              </g>
            </g>
          </g>
          <g id="Grupo_1210923" data-name="Grupo 1210923" transform="translate(249.215 282.379)" opacity="0.71" style="mix-blend-mode: multiply;isolation: isolate">
            <g id="Grupo_1210922" data-name="Grupo 1210922">
              <g id="Grupo_1210921" data-name="Grupo 1210921" clip-path="url(#clip-path-33)">
                <path id="Trazado_1079391" data-name="Trazado 1079391" d="M300.035,346.425a6.837,6.837,0,0,1,2.43-4.18,7.91,7.91,0,0,1,2.119-1.25,10.79,10.79,0,0,0,2.106-1.033,4.817,4.817,0,0,1-1.782,1.653,14.771,14.771,0,0,0-1.868,1.317,13.331,13.331,0,0,0-1.611,1.6,20.975,20.975,0,0,0-1.395,1.892" transform="translate(-300.035 -339.961)" fill="#a9a4e4"/>
              </g>
            </g>
          </g>
          <g id="Grupo_1210926" data-name="Grupo 1210926" transform="translate(249.92 277.234)" opacity="0.71" style="mix-blend-mode: multiply;isolation: isolate">
            <g id="Grupo_1210925" data-name="Grupo 1210925">
              <g id="Grupo_1210924" data-name="Grupo 1210924" clip-path="url(#clip-path-34)">
                <path id="Trazado_1079392" data-name="Trazado 1079392" d="M302.7,333.767a1.932,1.932,0,0,1-1.817,2.2,3.667,3.667,0,0,1,.7-1.269,3.743,3.743,0,0,1,1.116-.928" transform="translate(-300.884 -333.767)" fill="#a9a4e4"/>
              </g>
            </g>
          </g>
          <g id="Grupo_1210929" data-name="Grupo 1210929" transform="translate(162.743 274.716)" opacity="0.71" style="mix-blend-mode: multiply;isolation: isolate">
            <g id="Grupo_1210928" data-name="Grupo 1210928">
              <g id="Grupo_1210927" data-name="Grupo 1210927" clip-path="url(#clip-path-35)">
                <path id="Trazado_1079393" data-name="Trazado 1079393" d="M195.93,330.736a18.841,18.841,0,0,1,3.511,13.287,68.711,68.711,0,0,0-1.367-6.746,67.436,67.436,0,0,0-2.144-6.541" transform="translate(-195.93 -330.736)" fill="#a9a4e4"/>
              </g>
            </g>
          </g>
          <g id="Grupo_1210932" data-name="Grupo 1210932" transform="translate(241.292 277.886)" opacity="0.71" style="mix-blend-mode: multiply;isolation: isolate">
            <g id="Grupo_1210931" data-name="Grupo 1210931">
              <g id="Grupo_1210930" data-name="Grupo 1210930" clip-path="url(#clip-path-36)">
                <path id="Trazado_1079394" data-name="Trazado 1079394" d="M290.828,337.288a1.9,1.9,0,0,1,.66-2.736,3.54,3.54,0,0,1-.066,1.432,3.614,3.614,0,0,1-.594,1.3" transform="translate(-290.496 -334.552)" fill="#a9a4e4"/>
              </g>
            </g>
          </g>
          <path id="Trazado_1079395" data-name="Trazado 1079395" d="M160.628,378.821a22.329,22.329,0,0,1,1.656-11.111,16.644,16.644,0,0,1,4.041-6.377,8.346,8.346,0,0,1,6.989-2.259,4.953,4.953,0,0,1,2.491,1.21,5.964,5.964,0,0,1,1.379,2.278,17.765,17.765,0,0,1,.883,6.99,32.839,32.839,0,0,1-3.561,13.464,11.765,11.765,0,0,1-3.17,4.167c-5.685,4.286-10.046-3.568-10.708-8.363" transform="translate(-27.18 -60.8)" fill="#343580"/>
          <path id="Trazado_1079396" data-name="Trazado 1079396" d="M166.221,386.76c2.519,2.209,6.809,2.778,9.936,1.748,1.156-.381,2.82-1.432,2.695-2.866a1.762,1.762,0,0,0-1.173-1.483,6.727,6.727,0,0,0,2.432-1.233,2.3,2.3,0,0,0,.717-2.474,2.865,2.865,0,0,0-2.18-1.413c1.634-.168,3.451-.908,3.922-2.482a2.637,2.637,0,0,0-2.439-3.292,4,4,0,0,0,3.145-1.167,2.67,2.67,0,0,0,.341-3.194c-.857-1.248-3.161-1.438-4.537-1.68-.89-.158-1.788-.273-2.679-.432a14.5,14.5,0,0,0-2.455-.576c2.737-2.136,7.373-3.156,7.073-7.551a9.066,9.066,0,0,0-.341-2.044c-.061-.183-1.148-1.758-1.209-1.621-1.473,3.3-5.073,5.088-8.542,6.109a5.328,5.328,0,0,0-1.473.586c-1.174.777-1.47,2.341-1.665,3.734a3.807,3.807,0,0,0-2.33,2.626,4.182,4.182,0,0,0,.782,3.6,4.424,4.424,0,0,0-.942,6.839,3.3,3.3,0,0,0,.225,4.972,1.669,1.669,0,0,0-.418,1.758,3.519,3.519,0,0,0,1.114,1.531" transform="translate(-27.794 -60.128)" fill="#fab7cf"/>
          <g id="Grupo_1210935" data-name="Grupo 1210935" transform="translate(136.299 296.067)" opacity="0.89" style="mix-blend-mode: multiply;isolation: isolate">
            <g id="Grupo_1210934" data-name="Grupo 1210934">
              <g id="Grupo_1210933" data-name="Grupo 1210933" clip-path="url(#clip-path-37)">
                <path id="Trazado_1079397" data-name="Trazado 1079397" d="M165.546,367.838c-.032,1.013-.5,3.283.623,3.9,1.536.84,3.877.807,5.579,1.086l6.426,1.05c.886.145,1.935.423,2.21,1.277a1.8,1.8,0,0,1-.97,1.947,6.013,6.013,0,0,1-3.377.478,45.363,45.363,0,0,1-9.309-1.135,2.625,2.625,0,0,1-1.875-1.214,2.791,2.791,0,0,1,.584-2.455c-.829.131-1.216,1.665-1.308,2.331-.118.861.017,2.626.812,3.2.765.556,2.736.418,3.68.521q4.25.465,8.52.725a3.341,3.341,0,0,1,1.3.256,1.123,1.123,0,0,1,.673,1.058c-.065.566-.663.892-1.2,1.092a15.8,15.8,0,0,1-10.755.088c-1.1-.393-2.314-1.093-2.5-2.355a3.986,3.986,0,0,0-.32,2.131c.4,2.209,3.509,2.1,5.3,2.388a57.667,57.667,0,0,0,7.894.727c.208.566.391,1.273-.022,1.712a1.538,1.538,0,0,1-.537.326c-4.344,1.827-8.029.5-11.924-1.484,1.363,3.83,7.908,4.321,11.1,3.268,1.156-.381,2.821-1.432,2.7-2.866a1.763,1.763,0,0,0-1.173-1.483,6.716,6.716,0,0,0,2.432-1.234,2.294,2.294,0,0,0,.717-2.474,2.866,2.866,0,0,0-2.18-1.413c1.634-.168,3.451-.908,3.922-2.482a2.637,2.637,0,0,0-2.439-3.292,4,4,0,0,0,3.145-1.167,2.672,2.672,0,0,0,.341-3.194c-.857-1.248-3.161-1.438-4.537-1.68-.89-.158-1.788-.273-2.679-.432a14.422,14.422,0,0,0-2.455-.576c2.737-2.136,7.373-3.156,7.073-7.552-.047-.683-.026-2.181-.851-2.467a5.39,5.39,0,0,1-1.6,4.329,12.823,12.823,0,0,1-3.97,2.6,43.234,43.234,0,0,1-4.5,1.8c3.3,2.057,7.667,1.422,11.167,3.115.78.377,1.612,1.193,1.241,1.976a1.638,1.638,0,0,1-.579.6,10.856,10.856,0,0,1-5.652,1.685,20.246,20.246,0,0,1-6.493-.691,7.7,7.7,0,0,1-2.847-1.311,3.478,3.478,0,0,1-1.386-2.711" transform="translate(-164.093 -356.441)" fill="#fab7cf"/>
              </g>
            </g>
          </g>
          <g id="Grupo_1210938" data-name="Grupo 1210938" transform="translate(140.793 311.908)" opacity="0.71" style="mix-blend-mode: multiply;isolation: isolate">
            <g id="Grupo_1210937" data-name="Grupo 1210937">
              <g id="Grupo_1210936" data-name="Grupo 1210936" clip-path="url(#clip-path-38)">
                <path id="Trazado_1079398" data-name="Trazado 1079398" d="M169.5,375.512c2.484.371,4.91.681,7.373.833,1.228.095,2.461.14,3.7.21l.93.047a3.2,3.2,0,0,0,.87-.037,2.165,2.165,0,0,0,1.516-.857,2.178,2.178,0,0,1-1.4,1.282,3.587,3.587,0,0,1-.977.2l-.936.065a30.767,30.767,0,0,1-3.764-.016,21.147,21.147,0,0,1-7.311-1.727" transform="translate(-169.503 -375.512)" fill="#ff92bf"/>
              </g>
            </g>
          </g>
          <g id="Grupo_1210941" data-name="Grupo 1210941" transform="translate(139.5 318.007)" opacity="0.71" style="mix-blend-mode: multiply;isolation: isolate">
            <g id="Grupo_1210940" data-name="Grupo 1210940">
              <g id="Grupo_1210939" data-name="Grupo 1210939" clip-path="url(#clip-path-39)">
                <path id="Trazado_1079399" data-name="Trazado 1079399" d="M180.409,383.419a5.881,5.881,0,0,1-3.092.754,20.15,20.15,0,0,1-3.182.075c-1.1-.093-2.092-.295-3.138-.465a11.032,11.032,0,0,1-3.05-.927c1.056.14,2.087.169,3.132.233.523.02,1.048.067,1.578.112.542.062,1.022.129,1.54.154,1.027.084,2.046.077,3.115.122a9.153,9.153,0,0,0,3.1-.057" transform="translate(-167.947 -382.855)" fill="#ff92bf"/>
              </g>
            </g>
          </g>
          <g id="Grupo_1210944" data-name="Grupo 1210944" transform="translate(139.444 322.523)" opacity="0.71" style="mix-blend-mode: multiply;isolation: isolate">
            <g id="Grupo_1210943" data-name="Grupo 1210943">
              <g id="Grupo_1210942" data-name="Grupo 1210942" clip-path="url(#clip-path-40)">
                <path id="Trazado_1079400" data-name="Trazado 1079400" d="M180.98,388.292a5.519,5.519,0,0,1-3,1.729,12.5,12.5,0,0,1-3.475.281,15.27,15.27,0,0,1-6.628-1.771,43.849,43.849,0,0,0,6.668.876,19.568,19.568,0,0,0,3.306-.071,7.483,7.483,0,0,0,3.126-1.043" transform="translate(-167.879 -388.292)" fill="#ff92bf"/>
              </g>
            </g>
          </g>
          <g id="Grupo_1210947" data-name="Grupo 1210947" transform="translate(142.044 305.073)" opacity="0.71" style="mix-blend-mode: multiply;isolation: isolate">
            <g id="Grupo_1210946" data-name="Grupo 1210946">
              <g id="Grupo_1210945" data-name="Grupo 1210945" clip-path="url(#clip-path-41)">
                <path id="Trazado_1079401" data-name="Trazado 1079401" d="M178.686,368.923a12.965,12.965,0,0,1-7.677-1.64,22.313,22.313,0,0,1,3.9.539,22.662,22.662,0,0,1,3.778,1.1" transform="translate(-171.009 -367.283)" fill="#ff92bf"/>
              </g>
            </g>
          </g>
          <path id="Trazado_1079402" data-name="Trazado 1079402" d="M333.385,376.489a22.515,22.515,0,0,0-1.642-11.111A16.662,16.662,0,0,0,327.735,359a8.235,8.235,0,0,0-6.931-2.26,4.9,4.9,0,0,0-2.47,1.21,5.989,5.989,0,0,0-1.367,2.278,17.915,17.915,0,0,0-.875,6.99,33.064,33.064,0,0,0,3.531,13.464,11.748,11.748,0,0,0,3.145,4.168c5.637,4.285,9.962-3.569,10.618-8.363" transform="translate(-53.535 -60.405)" fill="#343580"/>
          <path id="Trazado_1079403" data-name="Trazado 1079403" d="M327.376,384.428a10.748,10.748,0,0,1-9.853,1.748c-1.146-.381-2.8-1.432-2.672-2.866a1.759,1.759,0,0,1,1.163-1.483,6.649,6.649,0,0,1-2.411-1.233,2.307,2.307,0,0,1-.711-2.474,2.839,2.839,0,0,1,2.161-1.413c-1.621-.168-3.422-.908-3.89-2.482a2.634,2.634,0,0,1,2.419-3.292,3.942,3.942,0,0,1-3.118-1.167,2.687,2.687,0,0,1-.339-3.194c.85-1.248,3.135-1.438,4.5-1.68.884-.158,1.773-.274,2.656-.432a14.273,14.273,0,0,1,2.435-.576c-2.714-2.136-7.313-3.156-7.014-7.551a9.188,9.188,0,0,1,.337-2.043c.06-.184,1.138-1.759,1.2-1.621,1.46,3.3,5.031,5.088,8.47,6.109a5.263,5.263,0,0,1,1.461.586c1.164.777,1.458,2.341,1.65,3.734a3.8,3.8,0,0,1,2.311,2.626,4.208,4.208,0,0,1-.775,3.6,4.445,4.445,0,0,1,.934,6.839,3.315,3.315,0,0,1-.223,4.972,1.68,1.68,0,0,1,.414,1.759,3.515,3.515,0,0,1-1.1,1.53" transform="translate(-52.464 -59.733)" fill="#fab7cf"/>
          <g id="Grupo_1210950" data-name="Grupo 1210950" transform="translate(257.279 293.488)" opacity="0.89" style="mix-blend-mode: multiply;isolation: isolate">
            <g id="Grupo_1210949" data-name="Grupo 1210949">
              <g id="Grupo_1210948" data-name="Grupo 1210948" clip-path="url(#clip-path-42)">
                <path id="Trazado_1079404" data-name="Trazado 1079404" d="M327.43,384.6c-2.466,2.291-6.971,2.663-9.907,1.688-1.146-.381-2.8-1.432-2.672-2.866a1.759,1.759,0,0,1,1.163-1.483,6.648,6.648,0,0,1-2.411-1.234,2.307,2.307,0,0,1-.711-2.474,2.838,2.838,0,0,1,2.161-1.413c-1.621-.168-3.423-.909-3.89-2.482a2.634,2.634,0,0,1,2.419-3.292,3.944,3.944,0,0,1-3.118-1.167,2.687,2.687,0,0,1-.339-3.194c.85-1.248,3.135-1.438,4.5-1.68.884-.158,1.773-.274,2.656-.432a14.273,14.273,0,0,1,2.435-.576c-2.714-2.136-7.313-3.156-7.014-7.554a4.592,4.592,0,0,1,1.024-3.107,6.672,6.672,0,0,0,3.37,6.542c2.2,1.325,4.835,1.682,7.385,2.012a23.785,23.785,0,0,1-9.626,3.3,5.862,5.862,0,0,0-1.871.4,1.714,1.714,0,0,0-1.059,1.478c.028,1.159,1.491,1.635,2.647,1.714a26.434,26.434,0,0,0,9.04-.95,6.039,6.039,0,0,0,2.6-1.287,2.425,2.425,0,0,0,.672-2.664c.353.751,1.008,1.041,1.243,1.962.988,3.88-3.857,4.429-6.6,4.667l-7.313.634a2.756,2.756,0,0,0-1.593.479,1.875,1.875,0,0,0,.19,2.676,4.885,4.885,0,0,0,2.8,1.014,31.733,31.733,0,0,0,9.16-.208,6.187,6.187,0,0,0,3.187-1.251,2.432,2.432,0,0,0,.557-3.112,3.868,3.868,0,0,1,.932,1.9c.815,5.961-9.883,4.328-13.524,4.393a3.717,3.717,0,0,0-1.341.193,1.314,1.314,0,0,0-.851.981,1.3,1.3,0,0,0,.631,1.184,3.468,3.468,0,0,0,1.331.445,30.948,30.948,0,0,0,10.542-.1,5.428,5.428,0,0,0,1.9-.584,2.006,2.006,0,0,0,1.048-1.6c.459,1.213-.267,3.219-1.547,3.462a65.1,65.1,0,0,1-10.348,1.121c-.6.017-1.322.1-1.561.652a1.153,1.153,0,0,0,.287,1.174,3.6,3.6,0,0,0,2.191.96c3.817.616,6.743-.582,10.259-1.606a5.538,5.538,0,0,1-1.042,1.3" transform="translate(-309.743 -353.336)" fill="#fab7cf"/>
              </g>
            </g>
          </g>
          <g id="Grupo_1210953" data-name="Grupo 1210953" transform="translate(258.298 309.971)" opacity="0.71" style="mix-blend-mode: multiply;isolation: isolate">
            <g id="Grupo_1210952" data-name="Grupo 1210952">
              <g id="Grupo_1210951" data-name="Grupo 1210951" clip-path="url(#clip-path-43)">
                <path id="Trazado_1079405" data-name="Trazado 1079405" d="M325.239,373.18a20.843,20.843,0,0,1-7.252,1.727,30.3,30.3,0,0,1-3.735.016l-.929-.065a3.538,3.538,0,0,1-.969-.2,2.158,2.158,0,0,1-1.383-1.28,2.146,2.146,0,0,0,1.5.856,3.14,3.14,0,0,0,.861.037l.923-.048c1.228-.069,2.453-.115,3.67-.209,2.444-.152,4.849-.461,7.314-.833" transform="translate(-310.97 -373.18)" fill="#ff92bf"/>
              </g>
            </g>
          </g>
          <g id="Grupo_1210956" data-name="Grupo 1210956" transform="translate(261.491 316.07)" opacity="0.71" style="mix-blend-mode: multiply;isolation: isolate">
            <g id="Grupo_1210955" data-name="Grupo 1210955">
              <g id="Grupo_1210954" data-name="Grupo 1210954" clip-path="url(#clip-path-44)">
                <path id="Trazado_1079406" data-name="Trazado 1079406" d="M314.814,381.086a9,9,0,0,0,3.071.057c1.061-.045,2.07-.038,3.088-.122.514-.025.989-.091,1.527-.154.526-.044,1.047-.092,1.565-.112,1.037-.063,2.06-.092,3.107-.233a10.877,10.877,0,0,1-3.023.927c-1.038.17-2.024.372-3.112.465a19.73,19.73,0,0,1-3.156-.075,5.8,5.8,0,0,1-3.066-.754" transform="translate(-314.814 -380.523)" fill="#ff92bf"/>
              </g>
            </g>
          </g>
          <g id="Grupo_1210959" data-name="Grupo 1210959" transform="translate(260.914 320.586)" opacity="0.71" style="mix-blend-mode: multiply;isolation: isolate">
            <g id="Grupo_1210958" data-name="Grupo 1210958">
              <g id="Grupo_1210957" data-name="Grupo 1210957" clip-path="url(#clip-path-45)">
                <path id="Trazado_1079407" data-name="Trazado 1079407" d="M314.119,385.96a7.4,7.4,0,0,0,3.1,1.042,19.25,19.25,0,0,0,3.279.072,43.181,43.181,0,0,0,6.615-.876,15.047,15.047,0,0,1-6.574,1.771,12.258,12.258,0,0,1-3.45-.282,5.444,5.444,0,0,1-2.968-1.727" transform="translate(-314.119 -385.96)" fill="#ff92bf"/>
              </g>
            </g>
          </g>
          <g id="Grupo_1210962" data-name="Grupo 1210962" transform="translate(263.714 303.135)" opacity="0.71" style="mix-blend-mode: multiply;isolation: isolate">
            <g id="Grupo_1210961" data-name="Grupo 1210961">
              <g id="Grupo_1210960" data-name="Grupo 1210960" clip-path="url(#clip-path-46)">
                <path id="Trazado_1079408" data-name="Trazado 1079408" d="M317.49,366.591a22.393,22.393,0,0,1,3.746-1.1,21.942,21.942,0,0,1,3.867-.539,11.6,11.6,0,0,1-3.678,1.415,11.719,11.719,0,0,1-3.935.225" transform="translate(-317.49 -364.95)" fill="#ff92bf"/>
              </g>
            </g>
          </g>
          <path id="Trazado_1079409" data-name="Trazado 1079409" d="M237.986,119.587a20.264,20.264,0,0,0-15.679,22.183c.764,7.353,5.114,8.722,8,12.753a7.005,7.005,0,0,1,1.271,3.371l.434,4.246a5.1,5.1,0,0,0,4.319,4.569,41.207,41.207,0,0,0,11.289.051,5.292,5.292,0,0,0,4.531-4.174l.591-3.9a9.942,9.942,0,0,1,2.562-5.306c3.077-3.291,7.448-5.834,7.448-13.991a20.309,20.309,0,0,0-24.771-19.8" transform="translate(-37.635 -20.174)" fill="#ffcf61"/>
          <path id="Trazado_1079410" data-name="Trazado 1079410" d="M241.694,171.019q-.007-6.542-.015-13.085c0-3.5.827-8.243-.912-11.444-.859-1.58-2.927-2.655-4.509-1.8A3.156,3.156,0,0,0,235,148.448a4.889,4.889,0,0,0,3.08,2.812c2.058.717,4.492.5,6.647.543,2.817.059,7.2.468,9.011-2.156a3.553,3.553,0,0,0,.5-3.185,3.112,3.112,0,0,0-2.049-1.861,3.476,3.476,0,0,0-4,1.786,6.652,6.652,0,0,0-.329,2.511q-.024,11.235-.047,22.468" transform="translate(-39.773 -24.457)" fill="none" stroke="#c34422" stroke-miterlimit="10" stroke-width="1.079"/>
          <g id="Grupo_1210965" data-name="Grupo 1210965" transform="translate(194.297 98.927)" opacity="0.38" style="mix-blend-mode: multiply;isolation: isolate">
            <g id="Grupo_1210964" data-name="Grupo 1210964">
              <g id="Grupo_1210963" data-name="Grupo 1210963" clip-path="url(#clip-path-47)">
                <path id="Trazado_1079411" data-name="Trazado 1079411" d="M240.169,119.661c2.607.673,5.111,4.2,6.207,6.326a23.435,23.435,0,0,1,2.322,9.228,46.366,46.366,0,0,1-1.627,14.8,76.223,76.223,0,0,1-2.339,7.292c-.794,2.127-1.366,3.751-3.279,5.083-2.264,1.576-5.727,1.546-7.535-.538a5.3,5.3,0,0,0,4.406,4.85,41.208,41.208,0,0,0,11.289.051,5.292,5.292,0,0,0,4.53-4.174l.591-3.9a9.943,9.943,0,0,1,2.562-5.306c3.077-3.291,7.448-5.834,7.448-13.991a20.288,20.288,0,0,0-16.777-19.981,22.733,22.733,0,0,0-8.3.161,3.74,3.74,0,0,1,.507.094" transform="translate(-233.918 -119.1)" fill="#ff8353"/>
              </g>
            </g>
          </g>
          <path id="Trazado_1079412" data-name="Trazado 1079412" d="M226.14,135.614a10.782,10.782,0,0,0-.49,2.754,4.033,4.033,0,0,0,.341,2.171,1.535,1.535,0,0,0,1.874.761c.625-.3.826-1.075,1.008-1.746.635-2.346,1.222-4.368,2.975-6.182a22.051,22.051,0,0,0,1.549-1.6,3.2,3.2,0,0,0,.78-2.041,1.758,1.758,0,0,0-1.24-1.665,2.386,2.386,0,0,0-1.552.312c-2.968,1.473-4.313,4.263-5.245,7.241" transform="translate(-38.218 -21.685)" fill="#fff"/>
          <path id="Trazado_1079413" data-name="Trazado 1079413" d="M226.876,150.474a6.855,6.855,0,0,0,1.69,2.963,3.609,3.609,0,0,0,1.408,1.054,1.553,1.553,0,0,0,1.646-.318,1.781,1.781,0,0,0,.127-1.881c-.267-.609-.71-1.126-1.008-1.72-.561-1.123-.847-3.175-2.519-3.157-1.532.016-1.611,1.932-1.345,3.059" transform="translate(-38.408 -24.969)" fill="#fff"/>
          <path id="Trazado_1079414" data-name="Trazado 1079414" d="M252.269,185.18a40.823,40.823,0,0,1-15.173,0v-9.747a48.535,48.535,0,0,0,15.173-.044Z" transform="translate(-40.159 -29.707)" fill="#343580"/>
          <path id="Trazado_1079415" data-name="Trazado 1079415" d="M249.459,188.119c0,4.215-8.113,3.9-8.113,0v-4.741h8.113Z" transform="translate(-40.879 -31.06)" fill="#343580"/>
          <path id="Trazado_1079416" data-name="Trazado 1079416" d="M252.608,186.08a47.922,47.922,0,0,1-16.754,0c-1.633-.428-1.325-5.374,0-5.374a42.454,42.454,0,0,0,16.754,0c1.106,0,1.185,5.052,0,5.374" transform="translate(-39.761 -30.608)" fill="#4e5ec1"/>
          <path id="Trazado_1079417" data-name="Trazado 1079417" d="M252.175,188.641a42.566,42.566,0,0,1-15.173,0c-.79-.423-.414-1.124,0-1.528a36.826,36.826,0,0,0,15.173,0c.571.521.755,1.4,0,1.528" transform="translate(-40.065 -31.693)" fill="#343580"/>
          <path id="Trazado_1079418" data-name="Trazado 1079418" d="M250.482,190.109a29.358,29.358,0,0,1-11.011,0q-.649-.421,0-.843a36.168,36.168,0,0,0,11.011,0q.79.421,0,.843" transform="translate(-40.507 -32.058)" fill="#4e5ec1"/>
          <path id="Trazado_1079419" data-name="Trazado 1079419" d="M252.753,179.039a45.042,45.042,0,0,1-16.754,0c-.632-.164-.421-1.243,0-1.335a43.18,43.18,0,0,0,16.754,0c.738,0,.79,1.17,0,1.335" transform="translate(-39.906 -30.099)" fill="#4e5ec1"/>
          <path id="Trazado_1079420" data-name="Trazado 1079420" d="M200.144,174.18a33.867,33.867,0,0,1,3.866-3.022c1.333-.929,2.711-1.782,4.113-2.591s2.836-1.564,4.31-2.247a33.561,33.561,0,0,1,4.561-1.81,33.606,33.606,0,0,1-3.864,3.023c-1.333.929-2.711,1.782-4.115,2.588s-2.837,1.562-4.312,2.244a33.879,33.879,0,0,1-4.559,1.813" transform="translate(-33.9 -27.865)" fill="#fff"/>
          <path id="Trazado_1079421" data-name="Trazado 1079421" d="M190.636,148.875a30.508,30.508,0,0,1,4.575-.781c1.527-.17,3.055-.251,4.584-.282s3.06,0,4.592.113a30.092,30.092,0,0,1,4.6.616,30.1,30.1,0,0,1-4.575.782c-1.527.17-3.055.252-4.584.281s-3.06,0-4.592-.116a30.4,30.4,0,0,1-4.6-.613" transform="translate(-32.29 -25.035)" fill="#fff"/>
          <path id="Trazado_1079422" data-name="Trazado 1079422" d="M196.233,123.967a32.13,32.13,0,0,1,4.7.832c1.537.362,3.047.81,4.54,1.3s2.968,1.047,4.415,1.68a31.8,31.8,0,0,1,4.257,2.157,31.8,31.8,0,0,1-4.7-.83c-1.537-.363-3.048-.81-4.54-1.307s-2.967-1.049-4.414-1.682a32.134,32.134,0,0,1-4.257-2.155" transform="translate(-33.238 -20.997)" fill="#fff"/>
          <path id="Trazado_1079423" data-name="Trazado 1079423" d="M214.929,109.862a11.579,11.579,0,0,1,2.418,1.366,18.594,18.594,0,0,1,2.063,1.731,18.292,18.292,0,0,1,1.795,2.008,11.47,11.47,0,0,1,1.438,2.375,11.305,11.305,0,0,1-2.42-1.364,18.106,18.106,0,0,1-2.062-1.733,18.443,18.443,0,0,1-1.793-2.008,11.578,11.578,0,0,1-1.439-2.375" transform="translate(-36.405 -18.608)" fill="#fff"/>
          <path id="Trazado_1079424" data-name="Trazado 1079424" d="M246.049,97.684a14.683,14.683,0,0,1,.652,3.07,24.427,24.427,0,0,1-.1,6.118,14.539,14.539,0,0,1-.755,3.047,14.475,14.475,0,0,1-.655-3.07,23.772,23.772,0,0,1-.142-3.062,24.232,24.232,0,0,1,.243-3.055,14.628,14.628,0,0,1,.753-3.048" transform="translate(-41.506 -16.546)" fill="#fff"/>
          <path id="Trazado_1079425" data-name="Trazado 1079425" d="M273.674,117.926a14.614,14.614,0,0,1,2.034-2.383,23.97,23.97,0,0,1,2.337-1.974,23.516,23.516,0,0,1,2.567-1.665,14.413,14.413,0,0,1,2.873-1.253,14.4,14.4,0,0,1-2.033,2.385,23.426,23.426,0,0,1-2.339,1.973,23.967,23.967,0,0,1-2.567,1.664,14.64,14.64,0,0,1-2.871,1.254" transform="translate(-46.355 -18.742)" fill="#fff"/>
          <path id="Trazado_1079426" data-name="Trazado 1079426" d="M278.257,131.536a43.34,43.34,0,0,1,5.107-2.179c1.728-.64,3.483-1.179,5.244-1.7,1.771-.488,3.548-.954,5.353-1.32a42.92,42.92,0,0,1,5.49-.835,43.079,43.079,0,0,1-5.107,2.181c-1.727.64-3.483,1.179-5.245,1.7-1.771.485-3.548.952-5.353,1.317a43.318,43.318,0,0,1-5.489.838" transform="translate(-47.131 -21.258)" fill="#fff"/>
          <path id="Trazado_1079427" data-name="Trazado 1079427" d="M267.208,165.513a65.339,65.339,0,0,1,4.875,4.786c1.557,1.652,3.032,3.372,4.492,5.1,1.434,1.753,2.851,3.522,4.187,5.356a64.855,64.855,0,0,1,3.8,5.678,64.874,64.874,0,0,1-4.877-4.784c-1.556-1.653-3.031-3.372-4.49-5.106-1.432-1.755-2.849-3.523-4.185-5.358a65.144,65.144,0,0,1-3.8-5.676" transform="translate(-45.26 -28.035)" fill="#fff"/>
          <path id="Trazado_1079428" data-name="Trazado 1079428" d="M277.111,151.8a30.135,30.135,0,0,1,4.413,1.356c1.432.532,2.825,1.146,4.2,1.8s2.716,1.371,4.024,2.16a29.765,29.765,0,0,1,3.806,2.614,29.8,29.8,0,0,1-4.414-1.354c-1.432-.533-2.825-1.145-4.2-1.806s-2.715-1.374-4.023-2.164a30.032,30.032,0,0,1-3.807-2.611" transform="translate(-46.937 -25.712)" fill="#fff"/>
          <path id="Trazado_1079429" data-name="Trazado 1079429" d="M219.625,188.63a.132.132,0,0,0,.037.047c.026,0-.013-.027-.012-.032,0-.026.012-.066.017-.106l.045-.238.093-.483c.078-.312.15-.628.252-.928a10.227,10.227,0,0,1,.748-1.723,9.513,9.513,0,0,1,1.064-1.562,6.382,6.382,0,0,1,1.5-1.337,6.057,6.057,0,0,1-.262,2,8.672,8.672,0,0,1-.736,1.761,8.478,8.478,0,0,1-1.106,1.567,7.066,7.066,0,0,1-.725.689,5.041,5.041,0,0,1-.432.3c-.08.046-.159.091-.248.132a.792.792,0,0,1-.162.047c-.035.017-.12-.03-.1-.069a.161.161,0,0,1,.027-.07" transform="translate(-37.195 -30.873)" fill="#fff"/>
          <path id="Trazado_1079430" data-name="Trazado 1079430" d="M268.668,183.812a4.87,4.87,0,0,1,1.214,1.26,6.741,6.741,0,0,1,.736,1.435,6.605,6.605,0,0,1,.375,1.569,4.8,4.8,0,0,1-.107,1.747,4.812,4.812,0,0,1-1.216-1.259,6.621,6.621,0,0,1-.733-1.436,6.7,6.7,0,0,1-.372-1.57,4.851,4.851,0,0,1,.1-1.746" transform="translate(-45.484 -31.134)" fill="#fff"/>
          <circle id="Elipse_12573" data-name="Elipse 12573" cx="28.901" cy="28.901" r="28.901" transform="translate(177.277 284.321)" fill="none" stroke="#f9f9f9" stroke-miterlimit="10" stroke-width="3.924"/>
          <path id="Trazado_1079431" data-name="Trazado 1079431" d="M246.036,399.748c17.235-14.09,17.362-41.936-.168-57.145a.444.444,0,0,0-.6.029c-17.095,17.759-16.96,39.741-.145,57.06A.687.687,0,0,0,246.036,399.748Z" transform="translate(-39.377 -58.012)" fill="none" stroke="#f9f9f9" stroke-linecap="round" stroke-miterlimit="10" stroke-width="3.924"/>
          <line id="Línea_172" data-name="Línea 172" y2="57.801" transform="translate(206.178 284.321)" fill="none" stroke="#f9f9f9" stroke-linecap="round" stroke-miterlimit="10" stroke-width="3.924"/>
          <line id="Línea_173" data-name="Línea 173" x2="57.801" transform="translate(177.277 313.222)" fill="none" stroke="#f9f9f9" stroke-linecap="round" stroke-miterlimit="10" stroke-width="3.924"/>
          <path id="Trazado_1079432" data-name="Trazado 1079432" d="M222.435,353.734c8.34,9.037,32.167,10.757,42.837,0" transform="translate(-37.676 -59.915)" fill="none" stroke="#f9f9f9" stroke-linecap="round" stroke-miterlimit="10" stroke-width="3.924"/>
          <path id="Trazado_1079433" data-name="Trazado 1079433" d="M265.273,398.956c-12.2-10.277-33.028-9.285-42.838,0" transform="translate(-37.676 -66.332)" fill="none" stroke="#f9f9f9" stroke-linecap="round" stroke-miterlimit="10" stroke-width="3.924"/>
          <line id="Línea_174" data-name="Línea 174" x1="0.179" y1="9.364" transform="translate(206.178 271.709)" fill="none" stroke="#f9f9f9" stroke-linecap="round" stroke-miterlimit="10" stroke-width="1.962"/>
          <line id="Línea_175" data-name="Línea 175" y1="8.095" x2="5.129" transform="translate(222.467 276.391)" fill="none" stroke="#f9f9f9" stroke-linecap="round" stroke-miterlimit="10" stroke-width="1.962"/>
          <line id="Línea_176" data-name="Línea 176" y1="5.191" x2="8.28" transform="translate(234.314 292.347)" fill="none" stroke="#f9f9f9" stroke-linecap="round" stroke-miterlimit="10" stroke-width="1.962"/>
          <path id="Trazado_1079434" data-name="Trazado 1079434" d="M287.08,377.093c-.064.145,9.746,0,9.746,0" transform="translate(-48.625 -63.872)" fill="none" stroke="#f9f9f9" stroke-linecap="round" stroke-miterlimit="10" stroke-width="1.962"/>
          <line id="Línea_177" data-name="Línea 177" x2="8.28" y2="5.559" transform="translate(234.314 328.954)" fill="none" stroke="#f9f9f9" stroke-linecap="round" stroke-miterlimit="10" stroke-width="1.962"/>
          <line id="Línea_178" data-name="Línea 178" x2="5.129" y2="8.408" transform="translate(222.467 341.009)" fill="none" stroke="#f9f9f9" stroke-linecap="round" stroke-miterlimit="10" stroke-width="1.962"/>
          <line id="Línea_179" data-name="Línea 179" y2="9.682" transform="translate(206.356 345.213)" fill="none" stroke="#f9f9f9" stroke-linecap="round" stroke-miterlimit="10" stroke-width="1.962"/>
          <line id="Línea_180" data-name="Línea 180" x1="4.968" y2="8.408" transform="translate(185.524 341.009)" fill="none" stroke="#f9f9f9" stroke-linecap="round" stroke-miterlimit="10" stroke-width="1.962"/>
          <line id="Línea_181" data-name="Línea 181" y1="5.559" x2="8.79" transform="translate(169.983 328.954)" fill="none" stroke="#f9f9f9" stroke-linecap="round" stroke-miterlimit="10" stroke-width="1.962"/>
          <line id="Línea_182" data-name="Línea 182" x2="10.828" transform="translate(162.204 313.302)" fill="none" stroke="#f9f9f9" stroke-linecap="round" stroke-miterlimit="10" stroke-width="1.962"/>
          <line id="Línea_183" data-name="Línea 183" x2="8.79" y2="5.191" transform="translate(169.983 292.346)" fill="none" stroke="#f9f9f9" stroke-linecap="round" stroke-miterlimit="10" stroke-width="1.962"/>
          <line id="Línea_184" data-name="Línea 184" x2="4.968" y2="8.408" transform="translate(185.524 277.06)" fill="none" stroke="#f9f9f9" stroke-linecap="round" stroke-miterlimit="10" stroke-width="1.962"/>
          <path id="Trazado_1079435" data-name="Trazado 1079435" d="M109.943,162.3a31.768,31.768,0,1,1-31.768-31.768A31.768,31.768,0,0,1,109.943,162.3" transform="translate(-7.86 -22.109)" fill="#fff"/>
          <path id="Trazado_1079436" data-name="Trazado 1079436" d="M61.754,165.877H81.8v7.042s-5.706-.412-5.654,3.264c.047,3.315,5.654,2.955,5.654,2.955v7.35H74.86s.977-5.86-3.084-5.86-3.186,5.86-3.186,5.86H61.754v-7.247s-5.243-.1-5.243-3.29,5.243-2.981,5.243-2.981Z" transform="translate(-9.572 -28.096)" fill="#86d7f4"/>
          <path id="Trazado_1079437" data-name="Trazado 1079437" d="M85.765,164.885h6.168s-.964-5.319,3.238-5.319,3.392,5.319,3.392,5.319h7.247v7.042s-5.706-.412-5.654,3.264c.047,3.315,5.654,2.955,5.654,2.955v7.35H98.871s.977-5.86-3.084-5.86S92.6,185.5,92.6,185.5H85.765v-7.247s-5.615.4-5.615-3.136c0-3.714,5.615-3.136,5.615-3.136Z" transform="translate(-13.576 -27.027)" fill="#ffcf61"/>
          <path id="Trazado_1079438" data-name="Trazado 1079438" d="M62.823,141.559v20.2h7.144s-.154,5.706,2.878,5.706c3.136,0,2.93-5.706,2.93-5.706h7.093v-6.785s-5.4-.231-5.4-3.315,5.4-3.007,5.4-3.007v-7.093H76.084s.655,5.821-3.239,5.757c-3.867-.064-3.032-5.757-3.032-5.757Z" transform="translate(-10.641 -23.977)" fill="#ff755d"/>
          <path id="Trazado_1079439" data-name="Trazado 1079439" d="M418.407,134.012a34.155,34.155,0,1,1-34.155-34.155,34.155,34.155,0,0,1,34.155,34.155" transform="translate(-59.299 -16.914)" fill="#fff"/>
          <path id="Trazado_1079440" data-name="Trazado 1079440" d="M393.2,142.72a4.205,4.205,0,1,1,.032-5.947,4.2,4.2,0,0,1-.032,5.947" transform="translate(-65.387 -22.955)" fill="#ffcf61"/>
          <path id="Trazado_1079441" data-name="Trazado 1079441" d="M402.522,131.342a2.055,2.055,0,1,1,.015-2.906,2.055,2.055,0,0,1-.015,2.906" transform="translate(-67.586 -21.651)" fill="#4e5ec1"/>
          <path id="Trazado_1079442" data-name="Trazado 1079442" d="M381.42,152.223a2.055,2.055,0,1,1,.015-2.906,2.055,2.055,0,0,1-.015,2.906" transform="translate(-64.012 -25.188)" fill="#4e5ec1"/>
          <path id="Trazado_1079443" data-name="Trazado 1079443" d="M402.431,152.044a2.055,2.055,0,1,1,.015-2.906,2.055,2.055,0,0,1-.015,2.906" transform="translate(-67.571 -25.158)" fill="#4e5ec1"/>
          <path id="Trazado_1079444" data-name="Trazado 1079444" d="M381.658,131.051a2.055,2.055,0,1,1,.015-2.9,2.056,2.056,0,0,1-.015,2.9" transform="translate(-64.052 -21.602)" fill="#4e5ec1"/>
          <path id="Trazado_1079445" data-name="Trazado 1079445" d="M393.381,115.375a4.333,4.333,0,1,1,.032-6.127,4.333,4.333,0,0,1-.032,6.127" transform="translate(-65.381 -18.287)" fill="#ff755d"/>
          <path id="Trazado_1079446" data-name="Trazado 1079446" d="M365.41,143.054a4.333,4.333,0,1,1,.032-6.127,4.333,4.333,0,0,1-.032,6.127" transform="translate(-60.643 -22.975)" fill="#ff755d"/>
          <path id="Trazado_1079447" data-name="Trazado 1079447" d="M393.035,170.971a4.333,4.333,0,1,1,.032-6.127,4.333,4.333,0,0,1-.032,6.127" transform="translate(-65.322 -27.704)" fill="#ff755d"/>
          <path id="Trazado_1079448" data-name="Trazado 1079448" d="M420.79,143.074a4.333,4.333,0,1,1,.032-6.127,4.333,4.333,0,0,1-.032,6.127" transform="translate(-70.023 -22.978)" fill="#ff755d"/>
          <line id="Línea_185" data-name="Línea 185" x2="0.017" y2="4.116" transform="translate(324.796 99.444)" fill="none" stroke="#86d7f4" stroke-linecap="round" stroke-miterlimit="10" stroke-width="2.253"/>
          <line id="Línea_186" data-name="Línea 186" x2="0.017" y2="4.116" transform="translate(324.766 107.149)" fill="none" stroke="#86d7f4" stroke-linecap="round" stroke-miterlimit="10" stroke-width="2.253"/>
          <line id="Línea_187" data-name="Línea 187" x1="0.132" y2="3.814" transform="translate(324.692 122.722)" fill="none" stroke="#86d7f4" stroke-linecap="round" stroke-miterlimit="10" stroke-width="2.253"/>
          <line id="Línea_188" data-name="Línea 188" x2="0.071" y2="3.695" transform="translate(324.627 130.366)" fill="none" stroke="#86d7f4" stroke-linecap="round" stroke-miterlimit="10" stroke-width="2.253"/>
          <line id="Línea_189" data-name="Línea 189" x2="3.621" y2="0.101" transform="translate(330.802 116.806)" fill="none" stroke="#86d7f4" stroke-linecap="round" stroke-miterlimit="10" stroke-width="2.253"/>
          <line id="Línea_190" data-name="Línea 190" y1="0.125" x2="3.931" transform="translate(338.123 116.886)" fill="none" stroke="#86d7f4" stroke-linecap="round" stroke-miterlimit="10" stroke-width="2.253"/>
          <line id="Línea_191" data-name="Línea 191" y1="0.034" x2="3.873" transform="translate(315.035 116.744)" fill="none" stroke="#86d7f4" stroke-linecap="round" stroke-miterlimit="10" stroke-width="2.253"/>
          <line id="Línea_192" data-name="Línea 192" x2="4.059" y2="0.116" transform="translate(307.439 116.62)" fill="none" stroke="#86d7f4" stroke-linecap="round" stroke-miterlimit="10" stroke-width="2.253"/>
          <line id="Línea_193" data-name="Línea 193" x2="2.138" y2="2.161" transform="translate(318.809 110.666)" fill="none" stroke="#86d7f4" stroke-linecap="round" stroke-miterlimit="10" stroke-width="2.253"/>
          <line id="Línea_194" data-name="Línea 194" x1="1.902" y2="1.882" transform="translate(328.995 110.796)" fill="none" stroke="#86d7f4" stroke-linecap="round" stroke-miterlimit="10" stroke-width="2.253"/>
          <line id="Línea_195" data-name="Línea 195" x2="2.31" y2="2.335" transform="translate(328.734 120.695)" fill="none" stroke="#86d7f4" stroke-linecap="round" stroke-miterlimit="10" stroke-width="2.253"/>
          <line id="Línea_196" data-name="Línea 196" x1="2.301" y2="2.276" transform="translate(318.578 120.71)" fill="none" stroke="#86d7f4" stroke-linecap="round" stroke-miterlimit="10" stroke-width="2.253"/>
          <path id="Trazado_1079449" data-name="Trazado 1079449" d="M357.912,243.452a26.135,26.135,0,1,1-26.135-26.135,26.135,26.135,0,0,1,26.135,26.135" transform="translate(-51.77 -36.809)" fill="#fff"/>
          <path id="Trazado_1079450" data-name="Trazado 1079450" d="M353.635,244.547a20.762,20.762,0,1,1-20.762-20.762,20.762,20.762,0,0,1,20.762,20.762" transform="translate(-52.865 -37.905)" fill="#86d7f4"/>
          <path id="Trazado_1079451" data-name="Trazado 1079451" d="M337.107,243.384l6.691-26.466A21.1,21.1,0,0,1,359.643,227.1Z" transform="translate(-57.099 -36.741)" fill="#1d1a49"/>
          <path id="Trazado_1079452" data-name="Trazado 1079452" d="M332.87,244.907l-8.376-19a20.75,20.75,0,0,0-12.265,21.243Z" transform="translate(-52.862 -38.265)" fill="#ff92bf"/>
          <path id="Trazado_1079453" data-name="Trazado 1079453" d="M335.607,248.781,328.253,268.2A20.67,20.67,0,0,0,355.5,254.732Z" transform="translate(-55.599 -42.138)" fill="#ffcf61"/>
          <path id="Trazado_1079454" data-name="Trazado 1079454" d="M337.107,246.3l16.824-12.159c3.678,4.483,5.063,12.487,3.068,18.11Z" transform="translate(-57.099 -39.659)" fill="#4e5ec1"/>
          <path id="Trazado_1079455" data-name="Trazado 1079455" d="M335.4,244.547l-8.376-19a20.819,20.819,0,0,1,13.466-1.135Z" transform="translate(-55.391 -37.904)" fill="#ff755d"/>
          <path id="Trazado_1079456" data-name="Trazado 1079456" d="M425.487,323.807a31.061,31.061,0,1,1-31.062-31.061,31.061,31.061,0,0,1,31.062,31.061" transform="translate(-61.547 -49.585)" fill="#fff"/>
          <line id="Línea_197" data-name="Línea 197" y1="11.339" x2="7.789" transform="translate(351.967 227.573)" fill="none" stroke="#1d1a49" stroke-linecap="round" stroke-miterlimit="10" stroke-width="2.145"/>
          <path id="Trazado_1079457" data-name="Trazado 1079457" d="M434.952,271.769a2.388,2.388,0,1,1-3.265-.862,2.388,2.388,0,0,1,3.265.862" transform="translate(-72.918 -45.831)" fill="#4143a5"/>
          <path id="Trazado_1079458" data-name="Trazado 1079458" d="M428.287,274.44a4.419,4.419,0,0,1,1.655-6.381,5.3,5.3,0,0,1,7.789,4.431,4.541,4.541,0,0,1-5.647,4.695" transform="translate(-72.416 -45.303)" fill="none" stroke="#fff" stroke-linecap="round" stroke-miterlimit="10" stroke-width="1.073"/>
          <path id="Trazado_1079459" data-name="Trazado 1079459" d="M426.548,275.807c-4.2-5.135.758-12.176,6.949-11.187a7.5,7.5,0,0,1,6.183,6.324,7.38,7.38,0,0,1-2.434,6.455,6.933,6.933,0,0,1-5.544,1.542,8.865,8.865,0,0,1-1.385-.432" transform="translate(-71.984 -44.805)" fill="none" stroke="#fff" stroke-linecap="round" stroke-miterlimit="10" stroke-width="1.073"/>
          <path id="Trazado_1079460" data-name="Trazado 1079460" d="M393.075,358.625c-.364,1.263-.625,2.327-.654,2.561a5.323,5.323,0,0,0,.548,3.626c1.049,1.575,3.213,1.877,4.776,2.943a5.659,5.659,0,0,1,1.452,7.539c1.922.076,3.113,2.189,3.374,4.095a9.333,9.333,0,0,1-2.155,7.435,7.679,7.679,0,0,1-7.226,2.419,9.835,9.835,0,0,1-5.834-4.66c-2.831-4.553-3.263-10.295-2.182-15.546a40.018,40.018,0,0,1,3.29-9.272c.262-.545,3.84-7.49,4.251-7.318l2.626,1.1c-.577-.242-1.6,2.757-2.267,5.08" transform="translate(-65.148 -59.697)" fill="#ffcf61"/>
          <path id="Trazado_1079461" data-name="Trazado 1079461" d="M374.995,368.505a26.554,26.554,0,0,1,.861-2.856,2.364,2.364,0,0,1-2.9.627,3.7,3.7,0,0,1-1.853-2.516,5.308,5.308,0,0,1,2.024-5.424c1.189-.85,2.683-1.162,3.926-1.929a12.385,12.385,0,0,0,3.114-3.161l4.288-5.552a12.624,12.624,0,0,0,5.373,2.572c-1.713,1.765-3.353,2.924-4.777,5.063a35.991,35.991,0,0,0-5.4,13.254c-.371,1.983.056,4.441-1.033,6.2a1.431,1.431,0,0,1-.481.519c-2.242,1.263-3.416-3.347-3.4-4.655a10.236,10.236,0,0,1,.266-2.143" transform="translate(-62.834 -58.892)" fill="#ffcf61"/>
          <path id="Trazado_1079462" data-name="Trazado 1079462" d="M386.48,340.341l-4.027,7.806c1.776,3.417,9.313,7.543,13.009,6.711l4.028-7.806Z" transform="translate(-64.78 -57.647)" fill="#4143a5"/>
          <g id="Grupo_1210968" data-name="Grupo 1210968" transform="translate(317.603 282.693)" opacity="0.57" style="mix-blend-mode: multiply;isolation: isolate">
            <g id="Grupo_1210967" data-name="Grupo 1210967">
              <g id="Grupo_1210966" data-name="Grupo 1210966" clip-path="url(#clip-path-48)">
                <path id="Trazado_1079463" data-name="Trazado 1079463" d="M386.466,340.341c-.079-.039-1.764,3.775-2.1,4.058a14.925,14.925,0,0,0,4.56,3.625,45.6,45.6,0,0,0,5.408,2.356,9.25,9.25,0,0,1-6.274.555,12.355,12.355,0,0,1-5.689-2.88,12.259,12.259,0,0,0,2.825,3.1,20.343,20.343,0,0,0,3.372,2.119c2.026,1.023,4.688,2.081,6.882,1.587l4.028-7.806-13.01-6.711" transform="translate(-382.369 -340.34)" fill="#343580"/>
              </g>
            </g>
          </g>
          <path id="Trazado_1079464" data-name="Trazado 1079464" d="M383.552,330.638l12.641-24.5a54.736,54.736,0,0,1,13.9-17.262c3.316-2.725,6.591-4.731,8.3-3.852s1.969,4.712,1.67,8.993a54.737,54.737,0,0,1-6.014,21.328l-12.642,24.5c-4.264,1.055-16.1-5.209-17.848-9.207" transform="translate(-64.966 -48.241)" fill="#86d7f4"/>
          <path id="Trazado_1079465" data-name="Trazado 1079465" d="M417.812,311.783c-1.5,2.9-5.4,3.864-8.712,2.154s-4.79-5.448-3.293-8.348,5.4-3.865,8.712-2.154,4.79,5.448,3.294,8.348" transform="translate(-68.636 -51.252)" fill="#fff"/>
          <path id="Trazado_1079466" data-name="Trazado 1079466" d="M416.107,311.1a4.323,4.323,0,1,1-2.09-5.3,4.043,4.043,0,0,1,2.09,5.3" transform="translate(-69.127 -51.707)" fill="#ffcf61"/>
          <path id="Trazado_1079467" data-name="Trazado 1079467" d="M415.5,288.873c3.316-2.724,6.591-4.731,8.3-3.852s1.969,4.712,1.67,8.994c-2.7.122-8.1-3.138-9.967-5.142" transform="translate(-70.377 -48.241)" fill="#ff92bf"/>
          <g id="Grupo_1210971" data-name="Grupo 1210971" transform="translate(318.554 236.604)" opacity="0.21" style="mix-blend-mode: multiply;isolation: isolate">
            <g id="Grupo_1210970" data-name="Grupo 1210970">
              <g id="Grupo_1210969" data-name="Grupo 1210969" clip-path="url(#clip-path-49)">
                <path id="Trazado_1079468" data-name="Trazado 1079468" d="M383.546,330.645c-.277-.642,1.336-2.126,1.806-2.472a3.843,3.843,0,0,0,4,2.245,5.835,5.835,0,0,0,3.787-2.452c.919-1.187,1.6-2.538,2.633-3.64a5.112,5.112,0,0,1,4.185-1.79,2.444,2.444,0,0,1,1.062.333c1.189.759,1.045,2.32.757,3.326q2.842-5.683,5.937-11.235a8.415,8.415,0,0,1-6.453-4.551,6.091,6.091,0,0,1,1.1-6.921c-.966.86-.26,2.476.554,3.627.586.831,1.442,1.747,2.444,1.663a2.343,2.343,0,0,0,1.65-1.35,117.151,117.151,0,0,0,5.884-10.734q1.3-2.7,2.465-5.463c.33-.784,2.44-4.424.9-4.536a4.738,4.738,0,0,0-1.8.311q-1.8.579-3.536,1.3c1.213-1.382,5.633-4.643,7.832-3.005s1.419,6.741,1.281,8.72a54.738,54.738,0,0,1-6.014,21.328l-12.642,24.5c-4.264,1.056-16.094-5.207-17.848-9.207" transform="translate(-383.513 -284.852)" fill="#ff92bf"/>
              </g>
            </g>
          </g>
          <path id="Trazado_1079469" data-name="Trazado 1079469" d="M387.031,329.044l-7.815-.341-2.62,5.078,6.311,3.256Z" transform="translate(-63.788 -55.676)" fill="#4143a5"/>
          <path id="Trazado_1079470" data-name="Trazado 1079470" d="M409.806,340.2l4.855,6.315-2.572,4.985-6.407-3.306Z" transform="translate(-68.714 -57.623)" fill="#4143a5"/>
          <path id="Trazado_1079471" data-name="Trazado 1079471" d="M395.76,334.273a7.068,7.068,0,0,1,2.3-2.64c.708-.48,1.5-.826,2.062-.535s.74,1.135.759,1.99a7.073,7.073,0,0,1-.819,3.4l-5.93,11.492a4.754,4.754,0,0,1-4.3-2.218Z" transform="translate(-66.029 -56.063)" fill="#ff92bf"/>
          <path id="Trazado_1079472" data-name="Trazado 1079472" d="M416.419,344.871a9.811,9.811,0,0,1,2.066-2.76c.594-.539,1.231-.963,1.617-.763s.41.964.315,1.76a9.789,9.789,0,0,1-1.052,3.283l-5.929,11.492a2.408,2.408,0,0,1-2.946-1.519Z" transform="translate(-69.529 -57.809)" fill="#ff92bf"/>
          <path id="Trazado_1079473" data-name="Trazado 1079473" d="M376.085,324.063a9.813,9.813,0,0,1,2.064-2.761c.593-.54,1.228-.964,1.614-.766s.408.963.311,1.759a9.826,9.826,0,0,1-1.054,3.282l-5.929,11.493a2.394,2.394,0,0,1-2.935-1.515Z" transform="translate(-62.697 -54.284)" fill="#ff92bf"/>
          <path id="Trazado_1079474" data-name="Trazado 1079474" d="M134.829,294.947a40.615,40.615,0,1,1-40.615-40.615,40.615,40.615,0,0,1,40.615,40.615" transform="translate(-9.078 -43.079)" fill="#fff"/>
          <path id="Trazado_1079475" data-name="Trazado 1079475" d="M80.411,274.806l-1.2,46.225a3.4,3.4,0,0,0,3.395,3.484h29.064a3.4,3.4,0,0,0,3.39-3.185l2.821-45.4a3.868,3.868,0,0,0-3.759-4.107l-29.744-.782a3.87,3.87,0,0,0-3.97,3.768" transform="translate(-13.417 -45.908)" fill="#1d1a49"/>
          <g id="Grupo_1210974" data-name="Grupo 1210974" transform="translate(68.402 227.061)" opacity="0.45">
            <g id="Grupo_1210973" data-name="Grupo 1210973">
              <g id="Grupo_1210972" data-name="Grupo 1210972" clip-path="url(#clip-path-50)">
                <path id="Trazado_1079476" data-name="Trazado 1079476" d="M83.386,276.86l-1.035,42.886a3.056,3.056,0,0,0,2.935,3.232h25.137a3.033,3.033,0,0,0,2.931-2.955l2.44-42.122a3.5,3.5,0,0,0-3.252-3.811l-25.724-.724a3.458,3.458,0,0,0-3.433,3.5" transform="translate(-82.35 -273.363)" fill="#4143a5"/>
              </g>
            </g>
          </g>
          <path id="Trazado_1079477" data-name="Trazado 1079477" d="M106.306,283.7a2.378,2.378,0,1,1-2.378-2.378,2.378,2.378,0,0,1,2.378,2.378" transform="translate(-17.2 -47.65)" fill="#fff"/>
          <path id="Trazado_1079478" data-name="Trazado 1079478" d="M343.263,418.4l-2.563-.424a5.7,5.7,0,0,0-.256-.615l1.514-2.11a.336.336,0,0,0-.024-.42l-1.52-1.519a.334.334,0,0,0-.419-.025l-2.113,1.514a5.412,5.412,0,0,0-.615-.256l-.42-2.562a.335.335,0,0,0-.316-.279h-2.147a.333.333,0,0,0-.314.279l-.423,2.562a5.466,5.466,0,0,0-.615.256l-2.111-1.515a.336.336,0,0,0-.421.026l-1.518,1.518a.336.336,0,0,0-.025.419l1.514,2.112a5.409,5.409,0,0,0-.255.615l-2.563.42a.338.338,0,0,0-.279.316v2.147a.335.335,0,0,0,.279.314l2.563.424a5.766,5.766,0,0,0,.255.615l-1.514,2.109a.338.338,0,0,0,.025.422l1.519,1.518a.335.335,0,0,0,.419.025l2.112-1.514a5.464,5.464,0,0,0,.614.256l.421,2.561a.338.338,0,0,0,.316.282h2.149a.334.334,0,0,0,.313-.279l.423-2.562a5.27,5.27,0,0,0,.615-.257l2.111,1.515a.337.337,0,0,0,.421-.025l1.518-1.519a.334.334,0,0,0,.024-.419l-1.513-2.112a5.566,5.566,0,0,0,.256-.615l2.562-.421a.336.336,0,0,0,.28-.315v-2.149a.335.335,0,0,0-.279-.313m-7.8,3.669a2.28,2.28,0,1,1,2.281-2.281,2.281,2.281,0,0,1-2.281,2.281" transform="translate(-55.451 -69.734)" fill="#9290e0"/>
          <path id="Trazado_1079479" data-name="Trazado 1079479" d="M327.488,186.562a.337.337,0,0,0,.421-.025l1.518-1.519a.335.335,0,0,0,.025-.419l-1.514-2.112a5.565,5.565,0,0,0,.256-.615l2.562-.421a.336.336,0,0,0,.28-.315v-2.149a.337.337,0,0,0-.278-.314l-2.564-.423a5.386,5.386,0,0,0-.256-.615l1.515-2.11a.337.337,0,0,0-.025-.42l-1.52-1.52a.335.335,0,0,0-.418-.025l-2.114,1.515a5.4,5.4,0,0,0-.614-.256l-.42-2.562a.336.336,0,0,0-.316-.279h-2.146a.334.334,0,0,0-.315.279l-.423,2.562a5.54,5.54,0,0,0-.615.256l-2.111-1.516a.336.336,0,0,0-.42.027l-1.519,1.518a.334.334,0,0,0-.024.419l1.513,2.112a5.4,5.4,0,0,0-.255.615l-2.562.42a.338.338,0,0,0-.28.316v2.148a.335.335,0,0,0,.28.314l2.563.423a5.614,5.614,0,0,0,.255.615l-1.514,2.11a.339.339,0,0,0,.025.422L318,186.537a.336.336,0,0,0,.419.025l2.112-1.514a5.466,5.466,0,0,0,.615.256l.421,2.561a.337.337,0,0,0,.316.282h2.148a.334.334,0,0,0,.313-.279l.423-2.563a5.194,5.194,0,0,0,.615-.256Zm-4.536-4.22a2.281,2.281,0,1,1,2.281-2.281,2.28,2.28,0,0,1-2.281,2.281" transform="translate(-53.332 -29.13)" fill="#9290e0"/>
          <path id="Trazado_1079480" data-name="Trazado 1079480" d="M139.632,418.975l-4.394-.724a9.476,9.476,0,0,0-.439-1.054l2.6-3.617a.578.578,0,0,0-.042-.721l-2.6-2.6a.577.577,0,0,0-.718-.043l-3.622,2.6a9.447,9.447,0,0,0-1.052-.438l-.721-4.392a.577.577,0,0,0-.542-.478h-3.68a.573.573,0,0,0-.539.478l-.725,4.393a9.445,9.445,0,0,0-1.053.439l-3.617-2.6a.578.578,0,0,0-.722.045l-2.6,2.6a.575.575,0,0,0-.041.72l2.595,3.62a9.236,9.236,0,0,0-.438,1.054l-4.393.721a.579.579,0,0,0-.48.542V423.2a.576.576,0,0,0,.48.539l4.393.725a9.371,9.371,0,0,0,.438,1.053l-2.6,3.616a.58.58,0,0,0,.042.723l2.6,2.6a.574.574,0,0,0,.718.043l3.621-2.6a9.61,9.61,0,0,0,1.054.439l.722,4.39a.578.578,0,0,0,.541.482h3.682a.577.577,0,0,0,.538-.478l.724-4.394a9.112,9.112,0,0,0,1.054-.439l3.617,2.6a.58.58,0,0,0,.722-.042l2.6-2.606a.572.572,0,0,0,.042-.718l-2.595-3.622a9.477,9.477,0,0,0,.439-1.054l4.391-.722a.58.58,0,0,0,.481-.54l0-3.683a.576.576,0,0,0-.478-.538m-13.379,6.29a3.91,3.91,0,1,1,3.91-3.91,3.909,3.909,0,0,1-3.91,3.91" transform="translate(-19.037 -69.022)" fill="#9290e0"/>
          <path id="Trazado_1079481" data-name="Trazado 1079481" d="M416.055,222.906a.511.511,0,0,0-.424-.478l-3.907-.645a8.532,8.532,0,0,0-.39-.937l2.309-3.217a.515.515,0,0,0-.037-.641l-2.317-2.316a.511.511,0,0,0-.638-.038l-3.222,2.308a8.486,8.486,0,0,0-.935-.389l-.641-3.906a.513.513,0,0,0-.482-.425H402.1a.509.509,0,0,0-.478.425l-.645,3.907a8.356,8.356,0,0,0-.938.39l-3.216-2.311a.513.513,0,0,0-.642.04l-2.316,2.314a.513.513,0,0,0-.037.64l2.307,3.219a8.363,8.363,0,0,0-.389.937l-3.907.641a.514.514,0,0,0-.426.482v3.273a.512.512,0,0,0,.426.479l3.907.645a8.428,8.428,0,0,0,.389.937l-2.309,3.216a.516.516,0,0,0,.038.643l2.317,2.314a.51.51,0,0,0,.639.038l3.22-2.308a8.427,8.427,0,0,0,.937.39l.642,3.9a.513.513,0,0,0,.48.429h3.275a.512.512,0,0,0,.478-.426l.644-3.906a8.1,8.1,0,0,0,.938-.39l3.217,2.309a.515.515,0,0,0,.642-.037l2.315-2.317a.509.509,0,0,0,.037-.639l-2.308-3.22a8.3,8.3,0,0,0,.39-.937l3.9-.642a.515.515,0,0,0,.428-.48Zm-12.322,5.116a3.477,3.477,0,1,1,3.477-3.477,3.477,3.477,0,0,1-3.477,3.477" transform="translate(-66.297 -35.946)" fill="#9290e0"/>
          <path id="Trazado_1079482" data-name="Trazado 1079482" d="M163.144,101.3l-4.893-.807a10.7,10.7,0,0,0-.488-1.174l2.891-4.028a.644.644,0,0,0-.047-.8l-2.9-2.9a.642.642,0,0,0-.8-.047l-4.033,2.891a10.626,10.626,0,0,0-1.173-.488l-.8-4.891a.642.642,0,0,0-.6-.532h-4.1a.637.637,0,0,0-.6.532l-.807,4.892a10.444,10.444,0,0,0-1.173.488l-4.029-2.893a.641.641,0,0,0-.8.05l-2.9,2.9a.641.641,0,0,0-.047.8l2.891,4.031a10.177,10.177,0,0,0-.488,1.174l-4.892.8a.645.645,0,0,0-.534.6V106a.641.641,0,0,0,.534.6l4.892.807a10.546,10.546,0,0,0,.488,1.174l-2.891,4.027a.646.646,0,0,0,.047.8l2.9,2.9a.64.64,0,0,0,.8.047l4.031-2.89a10.55,10.55,0,0,0,1.174.488l.8,4.889a.644.644,0,0,0,.6.536h4.1a.638.638,0,0,0,.6-.533l.807-4.892a10.267,10.267,0,0,0,1.174-.488l4.028,2.891a.644.644,0,0,0,.8-.047l2.9-2.9a.636.636,0,0,0,.047-.8l-2.89-4.033a10.5,10.5,0,0,0,.488-1.173l4.89-.8a.643.643,0,0,0,.535-.6v-4.1a.64.64,0,0,0-.532-.6m-14.9,7a4.353,4.353,0,1,1,4.353-4.353,4.353,4.353,0,0,1-4.353,4.353" transform="translate(-22.496 -14.993)" fill="#9290e0"/>
          <path id="Trazado_1079483" data-name="Trazado 1079483" d="M116.969,225.576l3.283.542a6.956,6.956,0,0,0,.327.787l-1.94,2.7a.433.433,0,0,0,.032.54l1.946,1.945a.429.429,0,0,0,.537.032l2.706-1.939a7.282,7.282,0,0,0,.787.328l.539,3.281a.432.432,0,0,0,.4.36h2.752a.43.43,0,0,0,.4-.358l.542-3.283a6.836,6.836,0,0,0,.787-.328l2.7,1.94a.433.433,0,0,0,.54-.031l1.945-1.948a.427.427,0,0,0,.031-.536l-1.939-2.707a6.833,6.833,0,0,0,.328-.787l3.282-.539a.433.433,0,0,0,.36-.4V222.42a.43.43,0,0,0-.357-.4l-3.284-.542a6.838,6.838,0,0,0-.328-.787l1.94-2.7a.432.432,0,0,0-.031-.539l-1.947-1.946a.431.431,0,0,0-.537-.032l-2.708,1.94a7.13,7.13,0,0,0-.787-.327l-.538-3.282a.432.432,0,0,0-.405-.358h-2.75a.429.429,0,0,0-.4.358l-.542,3.283a7.118,7.118,0,0,0-.787.328l-2.7-1.942a.432.432,0,0,0-.54.034l-1.945,1.944a.43.43,0,0,0-.031.538l1.939,2.705a6.7,6.7,0,0,0-.327.788l-3.283.538a.433.433,0,0,0-.359.405v2.751a.431.431,0,0,0,.359.4m10-4.7a2.922,2.922,0,1,1-2.922,2.922,2.922,2.922,0,0,1,2.922-2.922" transform="translate(-19.751 -36.153)" fill="#9290e0"/>
        </g>
      </g>
    </g>
  </g>
</svg>
