<svg xmlns="http://www.w3.org/2000/svg" xmlns:xlink="http://www.w3.org/1999/xlink" width="637.025" height="392.737" viewBox="0 0 637.025 392.737">
  <defs>
    <filter id="Trazado_1077199" x="276.38" y="190.172" width="173.107" height="173.102" filterUnits="userSpaceOnUse">
      <feOffset dy="3" input="SourceAlpha"/>
      <feGaussianBlur stdDeviation="3" result="blur"/>
      <feFlood flood-opacity="0.161"/>
      <feComposite operator="in" in2="blur"/>
      <feComposite in="SourceGraphic"/>
    </filter>
    <filter id="Elipse_12550" x="321.305" y="238.646" width="154.062" height="154.063" filterUnits="userSpaceOnUse">
      <feOffset dy="3" input="SourceAlpha"/>
      <feGaussianBlur stdDeviation="3" result="blur-2"/>
      <feFlood flood-opacity="0.161"/>
      <feComposite operator="in" in2="blur-2"/>
      <feComposite in="SourceGraphic"/>
    </filter>
    <filter id="Trazado_1077207" x="121.278" y="190.172" width="173.102" height="173.102" filterUnits="userSpaceOnUse">
      <feOffset dy="3" input="SourceAlpha"/>
      <feGaussianBlur stdDeviation="3" result="blur-3"/>
      <feFlood flood-opacity="0.161"/>
      <feComposite operator="in" in2="blur-3"/>
      <feComposite in="SourceGraphic"/>
    </filter>
    <filter id="Elipse_12552" x="95.355" y="238.644" width="154.062" height="154.063" filterUnits="userSpaceOnUse">
      <feOffset dy="3" input="SourceAlpha"/>
      <feGaussianBlur stdDeviation="3" result="blur-4"/>
      <feFlood flood-opacity="0.161"/>
      <feComposite operator="in" in2="blur-4"/>
      <feComposite in="SourceGraphic"/>
    </filter>
    <filter id="Trazado_1077219" x="276.381" y="35.068" width="173.107" height="173.104" filterUnits="userSpaceOnUse">
      <feOffset dy="3" input="SourceAlpha"/>
      <feGaussianBlur stdDeviation="3" result="blur-5"/>
      <feFlood flood-opacity="0.161"/>
      <feComposite operator="in" in2="blur-5"/>
      <feComposite in="SourceGraphic"/>
    </filter>
    <filter id="Elipse_12554" x="321.307" y="5.525" width="154.062" height="154.063" filterUnits="userSpaceOnUse">
      <feOffset dy="3" input="SourceAlpha"/>
      <feGaussianBlur stdDeviation="3" result="blur-6"/>
      <feFlood flood-opacity="0.161"/>
      <feComposite operator="in" in2="blur-6"/>
      <feComposite in="SourceGraphic"/>
    </filter>
    <filter id="Trazado_1077225" x="121.278" y="35.068" width="173.102" height="173.103" filterUnits="userSpaceOnUse">
      <feOffset dy="3" input="SourceAlpha"/>
      <feGaussianBlur stdDeviation="3" result="blur-7"/>
      <feFlood flood-opacity="0.161"/>
      <feComposite operator="in" in2="blur-7"/>
      <feComposite in="SourceGraphic"/>
    </filter>
    <filter id="Elipse_12556" x="95.357" y="5.524" width="154.062" height="154.063" filterUnits="userSpaceOnUse">
      <feOffset dy="3" input="SourceAlpha"/>
      <feGaussianBlur stdDeviation="3" result="blur-8"/>
      <feFlood flood-opacity="0.161"/>
      <feComposite operator="in" in2="blur-8"/>
      <feComposite in="SourceGraphic"/>
    </filter>
    <clipPath id="clip-path">
      <path id="Trazado_1078289" data-name="Trazado 1078289" d="M116,0c64.065,0,116,49.025,116,109.5S180.065,219,116,219c-20.565,0-34.071-6.653-55.287-21.47C25.435,178.867,0,150.563,0,109.5,0,49.025,51.935,0,116,0Z" transform="translate(692 4487)" fill="#fff" stroke="#707070" stroke-width="1"/>
    </clipPath>
  </defs>
  <g id="Grupo_1211088" data-name="Grupo 1211088" transform="translate(-332 -4347)">
    <g id="Grupo_1209592" data-name="Grupo 1209592" transform="translate(-5738.385 -742.203)">
      <g id="Grupo_1209591" data-name="Grupo 1209591" transform="translate(6141.457 5089.203)">
        <g id="Grupo_1209561" data-name="Grupo 1209561" transform="translate(214.308 196.172)">
          <g transform="matrix(1, 0, 0, 1, -285.38, -196.17)" filter="url(#Trazado_1077199)">
            <path id="Trazado_1077199-2" data-name="Trazado 1077199" d="M2155.1,1346.05A155.1,155.1,0,0,1,2000,1501.152v-155.1Z" transform="translate(-1714.62 -1149.88)" fill="#e5282a"/>
          </g>
          <g transform="matrix(1, 0, 0, 1, -285.38, -196.17)" filter="url(#Elipse_12550)">
            <circle id="Elipse_12550-2" data-name="Elipse 12550" cx="48.106" cy="48.106" r="48.106" transform="translate(330.31 312.68) rotate(-45)" fill="#e5282a"/>
          </g>
          <circle id="Elipse_12551" data-name="Elipse 12551" cx="35.438" cy="35.438" r="35.438" transform="translate(77.526 81.067)" fill="#fff"/>
        </g>
        <g id="Grupo_1209563" data-name="Grupo 1209563" transform="translate(33.283 196.172)">
          <g transform="matrix(1, 0, 0, 1, -104.36, -196.17)" filter="url(#Trazado_1077207)">
            <path id="Trazado_1077207-2" data-name="Trazado 1077207" d="M1539.31,1346.05v155.1a155.1,155.1,0,0,1-155.1-155.1Z" transform="translate(-1253.93 -1149.88)" fill="#f7a61d"/>
          </g>
          <g transform="matrix(1, 0, 0, 1, -104.36, -196.17)" filter="url(#Elipse_12552)">
            <circle id="Elipse_12552-2" data-name="Elipse 12552" cx="48.106" cy="48.106" r="48.106" transform="translate(104.36 312.68) rotate(-45)" fill="#f7a61d"/>
          </g>
          <circle id="Elipse_12553" data-name="Elipse 12553" cx="35.438" cy="35.438" r="35.438" transform="translate(32.599 81.067)" fill="#fff"/>
        </g>
        <g id="Grupo_1209565" data-name="Grupo 1209565" transform="translate(214.308 11.526)">
          <g transform="matrix(1, 0, 0, 1, -285.38, -11.53)" filter="url(#Trazado_1077219)">
            <path id="Trazado_1077219-2" data-name="Trazado 1077219" d="M2155.107,885.356H2000v-155.1A155.1,155.1,0,0,1,2155.107,885.356Z" transform="translate(-1714.62 -689.18)" fill="#1cb1f1"/>
          </g>
          <g transform="matrix(1, 0, 0, 1, -285.38, -11.53)" filter="url(#Elipse_12554)">
            <circle id="Elipse_12554-2" data-name="Elipse 12554" cx="48.106" cy="48.106" r="48.106" transform="translate(330.31 79.56) rotate(-45)" fill="#1cb1f1"/>
          </g>
          <circle id="Elipse_12555" data-name="Elipse 12555" cx="35.438" cy="35.438" r="35.438" transform="translate(62.841 68.031) rotate(-45)" fill="#fff"/>
        </g>
        <g id="Grupo_1209567" data-name="Grupo 1209567" transform="translate(33.285 11.524)">
          <g transform="matrix(1, 0, 0, 1, -104.36, -11.52)" filter="url(#Trazado_1077225)">
            <path id="Trazado_1077225-2" data-name="Trazado 1077225" d="M1539.31,730.253v155.1h-155.1A155.1,155.1,0,0,1,1539.31,730.253Z" transform="translate(-1253.93 -689.18)" fill="#f16e1c"/>
          </g>
          <g transform="matrix(1, 0, 0, 1, -104.36, -11.52)" filter="url(#Elipse_12556)">
            <circle id="Elipse_12556-2" data-name="Elipse 12556" cx="48.106" cy="48.106" r="48.106" transform="translate(104.36 79.56) rotate(-45)" fill="#f16e1c"/>
          </g>
          <circle id="Elipse_12557" data-name="Elipse 12557" cx="35.438" cy="35.438" r="35.438" transform="translate(17.915 68.031) rotate(-45)" fill="#fff"/>
        </g>
        <g id="Grupo_1209585" data-name="Grupo 1209585" transform="translate(213.259 350.224)">
          <path id="Trazado_1077602" data-name="Trazado 1077602" d="M1996.882,2000.188a1.05,1.05,0,0,1-1.05-1.05v-40.414a1.05,1.05,0,1,1,2.1,0v40.414A1.05,1.05,0,0,1,1996.882,2000.188Z" transform="translate(-1995.833 -1957.675)" fill="#ccc"/>
        </g>
        <g id="Grupo_1209586" data-name="Grupo 1209586" transform="translate(213.259 0)">
          <path id="Trazado_1077603" data-name="Trazado 1077603" d="M1996.882,609.321a1.05,1.05,0,0,1-1.05-1.049V568.253a1.05,1.05,0,0,1,2.1,0v40.019A1.049,1.049,0,0,1,1996.882,609.321Z" transform="translate(-1995.833 -567.203)" fill="#ccc"/>
        </g>
        <g id="Grupo_1209587" data-name="Grupo 1209587" transform="translate(368.366 195.12)">
          <path id="Trazado_1077604" data-name="Trazado 1077604" d="M2666.936,1343.975h-55.1c-.109,0-.2-.47-.2-1.05s.088-1.05.2-1.05h55.1c.108,0,.2.47.2,1.05S2667.045,1343.975,2666.936,1343.975Z" transform="translate(-2611.643 -1341.876)" fill="#ccc"/>
        </g>
        <g id="Grupo_1209588" data-name="Grupo 1209588" transform="translate(0 195.12)">
          <path id="Trazado_1077605" data-name="Trazado 1077605" d="M270.812,1343.975H210.983c-.118,0-.213-.47-.213-1.05s.1-1.05.213-1.05h59.829c.118,0,.213.47.213,1.05S270.93,1343.975,270.812,1343.975Z" transform="translate(-210.77 -1341.876)" fill="#ccc"/>
        </g>
        <circle id="Elipse_12558" data-name="Elipse 12558" cx="103.249" cy="103.249" r="103.249" transform="translate(110.01 93.971)" fill="#f7f7f7"/>
      </g>
    </g>
    <path id="Trazado_1079698" data-name="Trazado 1079698" d="M15.083,19H7.524V6.4h7.269V8.708h-4.43v2.8h4.122v2.3H10.363V16.7h4.72ZM25.4,10l-3.349,9H18.89L15.7,10H18.67l1.564,5.546a8.1,8.1,0,0,1,.308,1.6h.035A9.077,9.077,0,0,1,20.9,15.6L22.5,10Zm8.4,9H31.179V17.708h-.035a2.933,2.933,0,0,1-2.681,1.512,2.8,2.8,0,0,1-2.061-.743,2.661,2.661,0,0,1-.751-1.982q0-2.619,3.1-3.023l2.443-.325q0-1.477-1.6-1.477a5.46,5.46,0,0,0-3.059.958V10.536a6.881,6.881,0,0,1,1.586-.527,8.339,8.339,0,0,1,1.833-.229q3.85,0,3.85,3.841ZM31.2,15.344v-.606l-1.635.211q-1.354.176-1.354,1.222a1.01,1.01,0,0,0,.33.778,1.266,1.266,0,0,0,.892.3A1.644,1.644,0,0,0,30.7,16.71,1.952,1.952,0,0,0,31.2,15.344ZM38.783,19H36.006V5.676h2.777Zm10.891,0H46.906V17.629h-.044a3.141,3.141,0,0,1-2.751,1.591q-3.129,0-3.129-3.788V10h2.769v5.186q0,1.907,1.512,1.907a1.5,1.5,0,0,0,1.2-.523,2.109,2.109,0,0,0,.448-1.419V10h2.769ZM59.5,19H56.875V17.708H56.84a2.933,2.933,0,0,1-2.681,1.512,2.8,2.8,0,0,1-2.061-.743,2.661,2.661,0,0,1-.751-1.982q0-2.619,3.1-3.023l2.443-.325q0-1.477-1.6-1.477a5.46,5.46,0,0,0-3.059.958V10.536a6.881,6.881,0,0,1,1.586-.527,8.339,8.339,0,0,1,1.833-.229q3.85,0,3.85,3.841Zm-2.61-3.656v-.606l-1.635.211Q53.9,15.124,53.9,16.17a1.01,1.01,0,0,0,.33.778,1.266,1.266,0,0,0,.892.3A1.644,1.644,0,0,0,56.4,16.71,1.952,1.952,0,0,0,56.893,15.344Zm11.63,3.331a5.492,5.492,0,0,1-2.716.545,4.593,4.593,0,0,1-3.357-1.257,4.341,4.341,0,0,1-1.283-3.243A4.782,4.782,0,0,1,62.541,11.1,5.083,5.083,0,0,1,66.219,9.78a4.72,4.72,0,0,1,2.3.422v2.355a3.166,3.166,0,0,0-1.942-.65,2.559,2.559,0,0,0-1.894.7,2.607,2.607,0,0,0-.7,1.929,2.565,2.565,0,0,0,.668,1.876,2.455,2.455,0,0,0,1.837.681,3.666,3.666,0,0,0,2.03-.65Zm3.227-10.1A1.622,1.622,0,0,1,70.6,8.159a1.345,1.345,0,0,1-.448-1.024,1.3,1.3,0,0,1,.448-1.02,1.88,1.88,0,0,1,2.307,0,1.3,1.3,0,0,1,.444,1.02,1.34,1.34,0,0,1-.444,1.037A1.65,1.65,0,0,1,71.75,8.576ZM73.121,19H70.343V10h2.777Zm6.629.22a4.838,4.838,0,0,1-3.538-1.261,4.573,4.573,0,0,1-1.288-3.423,4.573,4.573,0,0,1,1.336-3.494A5.048,5.048,0,0,1,79.873,9.78a4.78,4.78,0,0,1,3.516,1.261,4.483,4.483,0,0,1,1.274,3.335,4.759,4.759,0,0,1-1.314,3.542A4.892,4.892,0,0,1,79.749,19.22Zm.07-7.312a1.852,1.852,0,0,0-1.529.677,2.984,2.984,0,0,0-.545,1.916q0,2.593,2.092,2.593,2,0,2-2.663Q81.832,11.907,79.82,11.907ZM82.8,5.737,80.048,8.576h-2L80.33,5.737ZM95.15,19H92.381V14q0-2.092-1.494-2.092a1.483,1.483,0,0,0-1.187.554,2.109,2.109,0,0,0-.466,1.406V19H86.457V10h2.777v1.424h.035A3.183,3.183,0,0,1,92.161,9.78q2.988,0,2.988,3.709Z" transform="translate(604 4518)" fill="#212429"/>
    <g id="Grupo_1209596" data-name="Grupo 1209596" transform="translate(-205 -53)">
      <g id="Rectángulo_417963" data-name="Rectángulo 417963" transform="translate(537 4460)" fill="#fff" stroke="#6a2c83" stroke-width="1">
        <rect width="105" height="39" rx="17" stroke="none"/>
        <rect x="0.5" y="0.5" width="104" height="38" rx="16.5" fill="none"/>
      </g>
      <path id="Trazado_1079701" data-name="Trazado 1079701" d="M-17.5,0h-2.75l-.8-2.492h-3.984L-25.822,0h-2.734l4.078-11.2h2.992Zm-4.125-4.43L-22.83-8.2A4.907,4.907,0,0,1-23.017-9.2h-.062a4.273,4.273,0,0,1-.2.977l-1.219,3.8ZM-8.617,0h-2.461V-4.445q0-1.859-1.328-1.859a1.318,1.318,0,0,0-1.055.492,1.875,1.875,0,0,0-.414,1.25V0h-2.469V-8h2.469v1.266h.031A2.829,2.829,0,0,1-11.274-8.2q2.656,0,2.656,3.3ZM-.006,0H-2.342V-1.148h-.031A2.607,2.607,0,0,1-4.756.2a2.492,2.492,0,0,1-1.832-.66,2.366,2.366,0,0,1-.668-1.762q0-2.328,2.758-2.687L-2.327-5.2q0-1.312-1.422-1.312a4.853,4.853,0,0,0-2.719.852V-7.523a6.116,6.116,0,0,1,1.41-.469,7.413,7.413,0,0,1,1.629-.2q3.422,0,3.422,3.414Zm-2.32-3.25v-.539L-3.78-3.6q-1.2.156-1.2,1.086a.9.9,0,0,0,.293.691,1.126,1.126,0,0,0,.793.27,1.462,1.462,0,0,0,1.133-.48A1.735,1.735,0,0,0-2.327-3.25Zm1.586-8.539L-3.186-9.266H-4.967l2.031-2.523ZM4.417,0H1.948V-11.844H4.417Zm3.33-9.266a1.442,1.442,0,0,1-1.023-.371,1.2,1.2,0,0,1-.4-.91,1.153,1.153,0,0,1,.4-.906A1.49,1.49,0,0,1,7.747-11.8a1.486,1.486,0,0,1,1.027.352,1.158,1.158,0,0,1,.395.906,1.191,1.191,0,0,1-.395.922A1.466,1.466,0,0,1,7.747-9.266ZM8.966,0H6.5V-8H8.966Zm1.556-.211v-2a5.256,5.256,0,0,0,1.215.547,4.028,4.028,0,0,0,1.145.18,2.455,2.455,0,0,0,1.035-.18.581.581,0,0,0,.379-.547.506.506,0,0,0-.172-.391,1.6,1.6,0,0,0-.441-.273,5.009,5.009,0,0,0-.59-.211q-.32-.094-.617-.211a5.913,5.913,0,0,1-.84-.387,2.427,2.427,0,0,1-.609-.48,1.889,1.889,0,0,1-.375-.633,2.525,2.525,0,0,1-.129-.852A2.192,2.192,0,0,1,10.815-6.8,2.393,2.393,0,0,1,11.6-7.6a3.57,3.57,0,0,1,1.117-.453A5.825,5.825,0,0,1,14.022-8.2a7.261,7.261,0,0,1,1.078.082,8.047,8.047,0,0,1,1.078.238v1.906a3.9,3.9,0,0,0-1-.41,4.235,4.235,0,0,0-1.051-.137,2.328,2.328,0,0,0-.457.043,1.505,1.505,0,0,0-.379.125.7.7,0,0,0-.258.211.486.486,0,0,0-.094.293.541.541,0,0,0,.141.375,1.221,1.221,0,0,0,.367.27,3.625,3.625,0,0,0,.5.2q.277.09.551.184a7.161,7.161,0,0,1,.891.375,2.848,2.848,0,0,1,.684.477,1.872,1.872,0,0,1,.438.641,2.277,2.277,0,0,1,.152.875,2.282,2.282,0,0,1-.309,1.215,2.471,2.471,0,0,1-.82.82,3.72,3.72,0,0,1-1.18.461A6.54,6.54,0,0,1,12.967.2,7.149,7.149,0,0,1,10.522-.211Zm8.814-9.055a1.442,1.442,0,0,1-1.023-.371,1.2,1.2,0,0,1-.4-.91,1.153,1.153,0,0,1,.4-.906,1.49,1.49,0,0,1,1.023-.352,1.486,1.486,0,0,1,1.027.352,1.158,1.158,0,0,1,.395.906,1.191,1.191,0,0,1-.395.922A1.466,1.466,0,0,1,19.336-9.266ZM20.555,0H18.086V-8h2.469Zm1.556-.211v-2a5.256,5.256,0,0,0,1.215.547,4.028,4.028,0,0,0,1.145.18,2.455,2.455,0,0,0,1.035-.18.581.581,0,0,0,.379-.547.506.506,0,0,0-.172-.391,1.6,1.6,0,0,0-.441-.273,5.009,5.009,0,0,0-.59-.211q-.32-.094-.617-.211a5.913,5.913,0,0,1-.84-.387,2.427,2.427,0,0,1-.609-.48A1.889,1.889,0,0,1,22.24-4.8a2.525,2.525,0,0,1-.129-.852A2.192,2.192,0,0,1,22.4-6.8a2.393,2.393,0,0,1,.781-.793A3.57,3.57,0,0,1,24.3-8.051,5.825,5.825,0,0,1,25.611-8.2a7.261,7.261,0,0,1,1.078.082,8.047,8.047,0,0,1,1.078.238v1.906a3.9,3.9,0,0,0-1-.41,4.235,4.235,0,0,0-1.051-.137,2.328,2.328,0,0,0-.457.043,1.505,1.505,0,0,0-.379.125.7.7,0,0,0-.258.211.486.486,0,0,0-.094.293.541.541,0,0,0,.141.375,1.221,1.221,0,0,0,.367.27,3.625,3.625,0,0,0,.5.2q.277.09.551.184a7.161,7.161,0,0,1,.891.375,2.848,2.848,0,0,1,.684.477,1.872,1.872,0,0,1,.438.641,2.277,2.277,0,0,1,.152.875,2.282,2.282,0,0,1-.309,1.215,2.471,2.471,0,0,1-.82.82,3.72,3.72,0,0,1-1.18.461A6.54,6.54,0,0,1,24.556.2,7.149,7.149,0,0,1,22.111-.211Z" transform="translate(582.072 4485.841)" fill="#212429"/>
      <g id="Grupo_1209593" data-name="Grupo 1209593" transform="translate(477.429 4449.841)">
        <g id="Trazado_983382" data-name="Trazado 983382" transform="translate(141.596 0)" fill="#fff">
          <path d="M 30 59.49985885620117 C 26.01730918884277 59.49985885620117 22.15401077270508 58.7199592590332 18.51741981506348 57.18180847167969 C 15.00463962554932 55.69603729248047 11.84974002838135 53.56890869140625 9.140350341796875 50.85952758789062 C 6.430960178375244 48.15013885498047 4.303830146789551 44.99524688720703 2.818049907684326 41.48247909545898 C 1.27990996837616 37.84589767456055 0.5 33.98260879516602 0.5 29.99992752075195 C 0.5 26.01724815368652 1.27990996837616 22.15395736694336 2.818049907684326 18.51737785339355 C 4.303830146789551 15.00460720062256 6.430960178375244 11.84971714019775 9.140350341796875 9.140327453613281 C 11.84974002838135 6.430947303771973 15.00463962554932 4.303817749023438 18.51741981506348 2.818047523498535 C 22.15401077270508 1.279897570610046 26.01730918884277 0.4999975264072418 30 0.4999975264072418 C 33.98268890380859 0.4999975264072418 37.84598922729492 1.279897570610046 41.48257827758789 2.818047523498535 C 44.995361328125 4.303817749023438 48.15026092529297 6.430947303771973 50.85964965820312 9.140327453613281 C 53.56903839111328 11.84971714019775 55.69617080688477 15.00460720062256 57.18194961547852 18.51737785339355 C 58.72008895874023 22.15395736694336 59.5 26.01724815368652 59.5 29.99992752075195 C 59.5 33.98260879516602 58.72008895874023 37.84589767456055 57.18194961547852 41.48247909545898 C 55.69617080688477 44.99524688720703 53.56903839111328 48.15013885498047 50.85964965820312 50.85952758789062 C 48.15026092529297 53.56890869140625 44.995361328125 55.69603729248047 41.48257827758789 57.18180847167969 C 37.84598922729492 58.7199592590332 33.98268890380859 59.49985885620117 30 59.49985885620117 Z" stroke="none"/>
          <path d="M 30 0.9999961853027344 C 26.08457946777344 0.9999961853027344 22.28681945800781 1.766609191894531 18.71220016479492 3.278549194335938 C 15.2590217590332 4.739116668701172 12.15753936767578 6.830257415771484 9.493900299072266 9.493888854980469 C 6.830268859863281 12.15750885009766 4.739128112792969 15.25898742675781 3.278549194335938 18.712158203125 C 1.766620635986328 22.28676605224609 1 26.08451843261719 1 29.99992752075195 C 1 33.91533660888672 1.766620635986328 37.71308898925781 3.278549194335938 41.28769683837891 C 4.739128112792969 44.74086761474609 6.830268859863281 47.84234619140625 9.493900299072266 50.50596618652344 C 12.15753936767578 53.16959762573242 15.2590217590332 55.26073837280273 18.71220016479492 56.72130584716797 C 22.28681945800781 58.23324584960938 26.08457946777344 58.99985885620117 30 58.99985885620117 C 33.91542053222656 58.99985885620117 37.71318054199219 58.23324584960938 41.28779983520508 56.72130584716797 C 44.74098205566406 55.26073837280273 47.84246063232422 53.16959762573242 50.50609970092773 50.50596618652344 C 53.16973114013672 47.84234619140625 55.26087188720703 44.74086761474609 56.72145080566406 41.28769683837891 C 58.23337936401367 37.71308898925781 59 33.91533660888672 59 29.99992752075195 C 59 26.08451843261719 58.23337936401367 22.28676605224609 56.72145080566406 18.712158203125 C 55.26087188720703 15.25898742675781 53.16973114013672 12.15750885009766 50.50609970092773 9.493888854980469 C 47.84246063232422 6.830257415771484 44.74098205566406 4.739116668701172 41.28779983520508 3.278549194335938 C 37.71318054199219 1.766609191894531 33.91542053222656 0.9999961853027344 30 0.9999961853027344 M 30 -3.814697265625e-06 C 46.56853866577148 -3.814697265625e-06 60 13.43142700195312 60 29.99992752075195 C 60 46.56842803955078 46.56853866577148 59.99985885620117 30 59.99985885620117 C 13.43146133422852 59.99985885620117 0 46.56842803955078 0 29.99992752075195 C 0 13.43142700195312 13.43146133422852 -3.814697265625e-06 30 -3.814697265625e-06 Z" stroke="none" fill="#6a2c83"/>
        </g>
      </g>
    </g>
    <g id="Grupo_1209597" data-name="Grupo 1209597" transform="translate(-199 209)">
      <g id="Rectángulo_417963-2" data-name="Rectángulo 417963" transform="translate(546 4460)" fill="#fff" stroke="#6a2c83" stroke-width="1">
        <rect width="96" height="39" rx="17" stroke="none"/>
        <rect x="0.5" y="0.5" width="95" height="38" rx="16.5" fill="none"/>
      </g>
      <path id="Trazado_1079702" data-name="Trazado 1079702" d="M-24.473,0V-11.2H-20.5q5.969,0,5.969,5.461a5.522,5.522,0,0,1-1.629,4.18A6.007,6.007,0,0,1-20.5,0Zm2.523-9.148v7.1h1.25a3.378,3.378,0,0,0,2.574-.984,3.735,3.735,0,0,0,.934-2.68,3.388,3.388,0,0,0-.926-2.52,3.529,3.529,0,0,0-2.6-.918Zm10.283-.117a1.442,1.442,0,0,1-1.023-.371,1.2,1.2,0,0,1-.4-.91,1.153,1.153,0,0,1,.4-.906,1.49,1.49,0,0,1,1.023-.352,1.486,1.486,0,0,1,1.027.352,1.158,1.158,0,0,1,.395.906,1.191,1.191,0,0,1-.395.922A1.466,1.466,0,0,1-11.666-9.266ZM-10.448,0h-2.469V-8h2.469Zm1.556-.211v-2a5.256,5.256,0,0,0,1.215.547,4.028,4.028,0,0,0,1.145.18A2.455,2.455,0,0,0-5.5-1.664a.581.581,0,0,0,.379-.547A.506.506,0,0,0-5.29-2.6a1.6,1.6,0,0,0-.441-.273,5.009,5.009,0,0,0-.59-.211q-.32-.094-.617-.211a5.913,5.913,0,0,1-.84-.387,2.427,2.427,0,0,1-.609-.48A1.889,1.889,0,0,1-8.763-4.8a2.525,2.525,0,0,1-.129-.852A2.192,2.192,0,0,1-8.6-6.8,2.393,2.393,0,0,1-7.817-7.6,3.57,3.57,0,0,1-6.7-8.051,5.825,5.825,0,0,1-5.391-8.2a7.261,7.261,0,0,1,1.078.082,8.047,8.047,0,0,1,1.078.238v1.906a3.9,3.9,0,0,0-1-.41A4.235,4.235,0,0,0-5.29-6.516a2.328,2.328,0,0,0-.457.043,1.505,1.505,0,0,0-.379.125.7.7,0,0,0-.258.211.486.486,0,0,0-.094.293.541.541,0,0,0,.141.375,1.221,1.221,0,0,0,.367.27,3.625,3.625,0,0,0,.5.2q.277.09.551.184a7.161,7.161,0,0,1,.891.375,2.848,2.848,0,0,1,.684.477A1.871,1.871,0,0,1-2.9-3.32a2.277,2.277,0,0,1,.152.875A2.282,2.282,0,0,1-3.059-1.23a2.471,2.471,0,0,1-.82.82,3.72,3.72,0,0,1-1.18.461A6.54,6.54,0,0,1-6.446.2,7.149,7.149,0,0,1-8.891-.211ZM5.86-3.3H.641q.125,1.742,2.2,1.742a4.286,4.286,0,0,0,2.32-.625V-.4A6.1,6.1,0,0,1,2.274.2,4.058,4.058,0,0,1-.734-.879a4.058,4.058,0,0,1-1.07-3A4.281,4.281,0,0,1-.648-7.031,3.852,3.852,0,0,1,2.2-8.2,3.5,3.5,0,0,1,4.9-7.156a4,4,0,0,1,.957,2.82ZM3.571-4.812q0-1.719-1.391-1.719a1.328,1.328,0,0,0-1.027.492A2.234,2.234,0,0,0,.626-4.812ZM15.057,0H12.6V-4.445Q12.6-6.3,11.268-6.3a1.318,1.318,0,0,0-1.055.492A1.875,1.875,0,0,0,9.8-4.562V0H7.331V-8H9.8v1.266h.031A2.829,2.829,0,0,1,12.4-8.2q2.656,0,2.656,3.3ZM13.963-11.7A2.844,2.844,0,0,1,13.53-10a1.385,1.385,0,0,1-1.184.6,2.8,2.8,0,0,1-1.312-.336,2.631,2.631,0,0,0-.961-.367q-.625,0-.625.844h-1.1a2.867,2.867,0,0,1,.43-1.687,1.394,1.394,0,0,1,1.2-.6,2.674,2.674,0,0,1,1.313.383,2.2,2.2,0,0,0,.938.344q.609,0,.609-.867ZM20.824.2A4.3,4.3,0,0,1,17.68-.926a4.064,4.064,0,0,1-1.145-3.043,4.065,4.065,0,0,1,1.188-3.105A4.487,4.487,0,0,1,20.934-8.2a4.249,4.249,0,0,1,3.125,1.121,3.985,3.985,0,0,1,1.133,2.965A4.23,4.23,0,0,1,24.024-.961,4.348,4.348,0,0,1,20.824.2Zm.063-6.5a1.647,1.647,0,0,0-1.359.6A2.653,2.653,0,0,0,19.043-4q0,2.3,1.859,2.3,1.773,0,1.773-2.367Q22.676-6.3,20.887-6.3Z" transform="translate(584.072 4485.841)" fill="#212429"/>
      <g id="Grupo_1209593-2" data-name="Grupo 1209593" transform="translate(477.429 4449.841)">
        <g id="Trazado_983382-2" data-name="Trazado 983382" transform="translate(141.596 0)" fill="#fff">
          <path d="M 30 59.49985885620117 C 26.01730918884277 59.49985885620117 22.15401077270508 58.7199592590332 18.51741981506348 57.18180847167969 C 15.00463962554932 55.69603729248047 11.84974002838135 53.56890869140625 9.140350341796875 50.85952758789062 C 6.430960178375244 48.15013885498047 4.303830146789551 44.99524688720703 2.818049907684326 41.48247909545898 C 1.27990996837616 37.84589767456055 0.5 33.98260879516602 0.5 29.99992752075195 C 0.5 26.01724815368652 1.27990996837616 22.15395736694336 2.818049907684326 18.51737785339355 C 4.303830146789551 15.00460720062256 6.430960178375244 11.84971714019775 9.140350341796875 9.140327453613281 C 11.84974002838135 6.430947303771973 15.00463962554932 4.303817749023438 18.51741981506348 2.818047523498535 C 22.15401077270508 1.279897570610046 26.01730918884277 0.4999975264072418 30 0.4999975264072418 C 33.98268890380859 0.4999975264072418 37.84598922729492 1.279897570610046 41.48257827758789 2.818047523498535 C 44.995361328125 4.303817749023438 48.15026092529297 6.430947303771973 50.85964965820312 9.140327453613281 C 53.56903839111328 11.84971714019775 55.69617080688477 15.00460720062256 57.18194961547852 18.51737785339355 C 58.72008895874023 22.15395736694336 59.5 26.01724815368652 59.5 29.99992752075195 C 59.5 33.98260879516602 58.72008895874023 37.84589767456055 57.18194961547852 41.48247909545898 C 55.69617080688477 44.99524688720703 53.56903839111328 48.15013885498047 50.85964965820312 50.85952758789062 C 48.15026092529297 53.56890869140625 44.995361328125 55.69603729248047 41.48257827758789 57.18180847167969 C 37.84598922729492 58.7199592590332 33.98268890380859 59.49985885620117 30 59.49985885620117 Z" stroke="none"/>
          <path d="M 30 0.9999961853027344 C 26.08457946777344 0.9999961853027344 22.28681945800781 1.766609191894531 18.71220016479492 3.278549194335938 C 15.2590217590332 4.739116668701172 12.15753936767578 6.830257415771484 9.493900299072266 9.493888854980469 C 6.830268859863281 12.15750885009766 4.739128112792969 15.25898742675781 3.278549194335938 18.712158203125 C 1.766620635986328 22.28676605224609 1 26.08451843261719 1 29.99992752075195 C 1 33.91533660888672 1.766620635986328 37.71308898925781 3.278549194335938 41.28769683837891 C 4.739128112792969 44.74086761474609 6.830268859863281 47.84234619140625 9.493900299072266 50.50596618652344 C 12.15753936767578 53.16959762573242 15.2590217590332 55.26073837280273 18.71220016479492 56.72130584716797 C 22.28681945800781 58.23324584960938 26.08457946777344 58.99985885620117 30 58.99985885620117 C 33.91542053222656 58.99985885620117 37.71318054199219 58.23324584960938 41.28779983520508 56.72130584716797 C 44.74098205566406 55.26073837280273 47.84246063232422 53.16959762573242 50.50609970092773 50.50596618652344 C 53.16973114013672 47.84234619140625 55.26087188720703 44.74086761474609 56.72145080566406 41.28769683837891 C 58.23337936401367 37.71308898925781 59 33.91533660888672 59 29.99992752075195 C 59 26.08451843261719 58.23337936401367 22.28676605224609 56.72145080566406 18.712158203125 C 55.26087188720703 15.25898742675781 53.16973114013672 12.15750885009766 50.50609970092773 9.493888854980469 C 47.84246063232422 6.830257415771484 44.74098205566406 4.739116668701172 41.28779983520508 3.278549194335938 C 37.71318054199219 1.766609191894531 33.91542053222656 0.9999961853027344 30 0.9999961853027344 M 30 -3.814697265625e-06 C 46.56853866577148 -3.814697265625e-06 60 13.43142700195312 60 29.99992752075195 C 60 46.56842803955078 46.56853866577148 59.99985885620117 30 59.99985885620117 C 13.43146133422852 59.99985885620117 0 46.56842803955078 0 29.99992752075195 C 0 13.43142700195312 13.43146133422852 -3.814697265625e-06 30 -3.814697265625e-06 Z" stroke="none" fill="#6a2c83"/>
        </g>
      </g>
    </g>
    <g id="Grupo_1209599" data-name="Grupo 1209599" transform="translate(763 4396.841)">
      <g id="Rectángulo_417963-3" data-name="Rectángulo 417963" transform="translate(37.025 10.159)" fill="#fff" stroke="#6a2c83" stroke-width="1">
        <rect width="126" height="39" rx="17" stroke="none"/>
        <rect x="0.5" y="0.5" width="125" height="38" rx="16.5" fill="none"/>
      </g>
      <path id="Trazado_1079700" data-name="Trazado 1079700" d="M-37.441,0V-11.2h3.969q5.969,0,5.969,5.461a5.522,5.522,0,0,1-1.629,4.18A6.007,6.007,0,0,1-33.472,0Zm2.523-9.148v7.1h1.25a3.378,3.378,0,0,0,2.574-.984,3.735,3.735,0,0,0,.934-2.68,3.388,3.388,0,0,0-.926-2.52,3.529,3.529,0,0,0-2.6-.918ZM-18.7-3.3h-5.219q.125,1.742,2.2,1.742A4.286,4.286,0,0,0-19.4-2.18V-.4A6.1,6.1,0,0,1-22.283.2,4.058,4.058,0,0,1-25.291-.879a4.058,4.058,0,0,1-1.07-3A4.281,4.281,0,0,1-25.2-7.031,3.852,3.852,0,0,1-22.361-8.2a3.5,3.5,0,0,1,2.707,1.039,4,4,0,0,1,.957,2.82Zm-2.289-1.516q0-1.719-1.391-1.719a1.328,1.328,0,0,0-1.027.492,2.234,2.234,0,0,0-.527,1.227Zm3.236,4.6v-2a5.256,5.256,0,0,0,1.215.547,4.028,4.028,0,0,0,1.145.18,2.455,2.455,0,0,0,1.035-.18.581.581,0,0,0,.379-.547.506.506,0,0,0-.172-.391,1.6,1.6,0,0,0-.441-.273,5.009,5.009,0,0,0-.59-.211Q-15.5-3.18-15.8-3.3a5.913,5.913,0,0,1-.84-.387,2.427,2.427,0,0,1-.609-.48,1.889,1.889,0,0,1-.375-.633,2.525,2.525,0,0,1-.129-.852A2.192,2.192,0,0,1-17.457-6.8a2.393,2.393,0,0,1,.781-.793,3.57,3.57,0,0,1,1.117-.453A5.825,5.825,0,0,1-14.25-8.2a7.261,7.261,0,0,1,1.078.082,8.047,8.047,0,0,1,1.078.238v1.906a3.9,3.9,0,0,0-1-.41,4.235,4.235,0,0,0-1.051-.137,2.328,2.328,0,0,0-.457.043,1.505,1.505,0,0,0-.379.125.7.7,0,0,0-.258.211.486.486,0,0,0-.094.293.541.541,0,0,0,.141.375,1.221,1.221,0,0,0,.367.27,3.625,3.625,0,0,0,.5.2q.277.09.551.184a7.161,7.161,0,0,1,.891.375,2.848,2.848,0,0,1,.684.477,1.872,1.872,0,0,1,.438.641,2.277,2.277,0,0,1,.152.875,2.282,2.282,0,0,1-.309,1.215,2.471,2.471,0,0,1-.82.82,3.72,3.72,0,0,1-1.18.461A6.54,6.54,0,0,1-15.3.2,7.149,7.149,0,0,1-17.75-.211ZM-3.53,0H-5.866V-1.148H-5.9A2.607,2.607,0,0,1-8.28.2a2.492,2.492,0,0,1-1.832-.66,2.366,2.366,0,0,1-.668-1.762q0-2.328,2.758-2.687L-5.85-5.2q0-1.312-1.422-1.312a4.853,4.853,0,0,0-2.719.852V-7.523a6.116,6.116,0,0,1,1.41-.469,7.413,7.413,0,0,1,1.629-.2q3.422,0,3.422,3.414ZM-5.85-3.25v-.539L-7.3-3.6q-1.2.156-1.2,1.086a.9.9,0,0,0,.293.691,1.126,1.126,0,0,0,.793.27,1.462,1.462,0,0,0,1.133-.48A1.735,1.735,0,0,0-5.85-3.25ZM3.644-5.773A2.142,2.142,0,0,0,2.6-6.016a1.5,1.5,0,0,0-1.258.59A2.573,2.573,0,0,0,.894-3.82V0H-1.575V-8H.894v1.484H.925A2.136,2.136,0,0,1,3.034-8.141a1.59,1.59,0,0,1,.609.094Zm6.369,0a2.142,2.142,0,0,0-1.039-.242,1.5,1.5,0,0,0-1.258.59A2.573,2.573,0,0,0,7.263-3.82V0H4.794V-8H7.263v1.484h.031A2.136,2.136,0,0,1,9.4-8.141a1.59,1.59,0,0,1,.609.094ZM14.913.2A4.3,4.3,0,0,1,11.768-.926a4.064,4.064,0,0,1-1.145-3.043,4.065,4.065,0,0,1,1.188-3.105A4.487,4.487,0,0,1,15.022-8.2a4.249,4.249,0,0,1,3.125,1.121A3.985,3.985,0,0,1,19.28-4.109,4.23,4.23,0,0,1,18.112-.961,4.348,4.348,0,0,1,14.913.2Zm.063-6.5a1.647,1.647,0,0,0-1.359.6A2.653,2.653,0,0,0,13.131-4q0,2.3,1.859,2.3,1.773,0,1.773-2.367Q16.764-6.3,14.975-6.3ZM23.352,0H20.883V-11.844h2.469ZM27.9,0H25.431V-11.844H27.9Zm5.892.2A4.3,4.3,0,0,1,30.648-.926,4.064,4.064,0,0,1,29.5-3.969a4.065,4.065,0,0,1,1.188-3.105A4.487,4.487,0,0,1,33.9-8.2a4.249,4.249,0,0,1,3.125,1.121A3.985,3.985,0,0,1,38.16-4.109,4.23,4.23,0,0,1,36.992-.961,4.348,4.348,0,0,1,33.792.2Zm.063-6.5a1.647,1.647,0,0,0-1.359.6A2.653,2.653,0,0,0,32.011-4q0,2.3,1.859,2.3,1.773,0,1.773-2.367Q35.644-6.3,33.855-6.3Z" transform="translate(111.026 36)" fill="#212429"/>
      <g id="Grupo_1209593-3" data-name="Grupo 1209593" transform="translate(0)">
        <g id="Trazado_983382-3" data-name="Trazado 983382" transform="translate(0 0)" fill="#fff">
          <path d="M 30.00002861022949 59.49985885620117 C 26.0173282623291 59.49985885620117 22.15402793884277 58.7199592590332 18.5174388885498 57.18180847167969 C 15.00465869903564 55.69603729248047 11.8497486114502 53.56890869140625 9.140358924865723 50.85952758789062 C 6.430968761444092 48.150146484375 4.303838729858398 44.99524688720703 2.818058729171753 41.48247909545898 C 1.279918551445007 37.84589767456055 0.5000085830688477 33.98260879516602 0.5000085830688477 29.99992752075195 C 0.5000085830688477 26.01724815368652 1.279918551445007 22.15395736694336 2.818058729171753 18.51737785339355 C 4.303838729858398 15.00460720062256 6.430968761444092 11.84970760345459 9.140358924865723 9.140327453613281 C 11.8497486114502 6.430947303771973 15.00465869903564 4.303817749023438 18.5174388885498 2.818047523498535 C 22.15402793884277 1.279897570610046 26.0173282623291 0.4999975264072418 30.00002861022949 0.4999975264072418 C 33.98272705078125 0.4999975264072418 37.84602737426758 1.279897570610046 41.48262023925781 2.818047523498535 C 44.99539947509766 4.303817749023438 48.15031051635742 6.430947303771973 50.85969924926758 9.140327453613281 C 53.56908798217773 11.84971714019775 55.69622802734375 15.00460720062256 57.1820068359375 18.51737785339355 C 58.72014999389648 22.15395736694336 59.50005722045898 26.01724815368652 59.50005722045898 29.99992752075195 C 59.50005722045898 33.98260879516602 58.72014999389648 37.84589767456055 57.1820068359375 41.48247909545898 C 55.69622802734375 44.99524688720703 53.56908798217773 48.15013885498047 50.85969924926758 50.85952758789062 C 48.15031051635742 53.56890869140625 44.99539947509766 55.69603729248047 41.48262023925781 57.18180847167969 C 37.84602737426758 58.7199592590332 33.98272705078125 59.49985885620117 30.00002861022949 59.49985885620117 Z" stroke="none"/>
          <path d="M 30.00002861022949 0.9999961853027344 C 26.08460998535156 0.9999961853027344 22.28683853149414 1.766609191894531 18.71221923828125 3.278549194335938 C 15.25902938842773 4.739116668701172 12.15754699707031 6.830257415771484 9.493907928466797 9.493888854980469 C 6.830280303955078 12.15750885009766 4.739128112792969 15.25898742675781 3.278549194335938 18.712158203125 C 1.766616821289062 22.28676605224609 1 26.08451843261719 1 29.99992752075195 C 1 33.91533660888672 1.766616821289062 37.71308898925781 3.278549194335938 41.28769683837891 C 4.739128112792969 44.74086761474609 6.830280303955078 47.84234619140625 9.493907928466797 50.50596618652344 C 12.15754699707031 53.16959762573242 15.25902938842773 55.26073837280273 18.71221923828125 56.72130584716797 C 22.28683853149414 58.23324584960938 26.08460998535156 58.99985885620117 30.00002861022949 58.99985885620117 C 33.91545104980469 58.99985885620117 37.71321868896484 58.23324584960938 41.28783798217773 56.72130584716797 C 44.74102783203125 55.26073837280273 47.84250640869141 53.16959762573242 50.50613784790039 50.50596618652344 C 53.16977691650391 47.84234619140625 55.26091766357422 44.74086761474609 56.72150039672852 41.28769683837891 C 58.23342895507812 37.71308898925781 59.00004959106445 33.91533660888672 59.00004959106445 29.99992752075195 C 59.00004959106445 26.08451843261719 58.23342895507812 22.28676605224609 56.72150039672852 18.712158203125 C 55.26091766357422 15.25898742675781 53.16977691650391 12.15750885009766 50.50613784790039 9.493888854980469 C 47.84250640869141 6.830257415771484 44.74102783203125 4.739116668701172 41.28783798217773 3.278549194335938 C 37.71321868896484 1.766609191894531 33.91545104980469 0.9999961853027344 30.00002861022949 0.9999961853027344 M 30.00002861022949 -3.814697265625e-06 C 46.56858825683594 -3.814697265625e-06 60.00004959106445 13.43142700195312 60.00004959106445 29.99992752075195 C 60.00004959106445 46.56842803955078 46.56858825683594 59.99985885620117 30.00002861022949 59.99985885620117 C 13.43146896362305 59.99985885620117 0 46.56842803955078 0 29.99992752075195 C 0 13.43142700195312 13.43146896362305 -3.814697265625e-06 30.00002861022949 -3.814697265625e-06 Z" stroke="none" fill="#6a2c83"/>
        </g>
      </g>
    </g>
    <g id="Grupo_1209601" data-name="Grupo 1209601" transform="translate(758 4652.841)">
      <g id="Rectángulo_417963-4" data-name="Rectángulo 417963" transform="translate(37.025 10.159)" fill="#fff" stroke="#6a2c83" stroke-width="1">
        <rect width="174" height="39" rx="17" stroke="none"/>
        <rect x="0.5" y="0.5" width="173" height="38" rx="16.5" fill="none"/>
      </g>
      <path id="Trazado_1079703" data-name="Trazado 1079703" d="M-57.385,0h-2.523V-11.2h2.523Zm15.009,0h-2.461V-4.562q0-1.742-1.281-1.742a1.177,1.177,0,0,0-.992.523,2.151,2.151,0,0,0-.383,1.3V0h-2.469V-4.609q0-1.7-1.258-1.7a1.206,1.206,0,0,0-1.012.5,2.2,2.2,0,0,0-.379,1.359V0h-2.469V-8h2.469v1.25h.031A2.952,2.952,0,0,1-51.5-7.793a2.952,2.952,0,0,1,1.512-.4A2.3,2.3,0,0,1-47.673-6.7,2.959,2.959,0,0,1-44.985-8.2q2.609,0,2.609,3.219Zm4.455-.93h-.031V3.68h-2.469V-8h2.469v1.2h.031a2.9,2.9,0,0,1,2.57-1.4,2.892,2.892,0,0,1,2.4,1.066,4.54,4.54,0,0,1,.848,2.9,4.922,4.922,0,0,1-.988,3.211A3.222,3.222,0,0,1-35.718.2,2.491,2.491,0,0,1-37.921-.93Zm-.07-3.281v.641a2.037,2.037,0,0,0,.438,1.352,1.424,1.424,0,0,0,1.148.523A1.514,1.514,0,0,0-35.1-2.348,3.15,3.15,0,0,0-34.632-4.2q0-2.109-1.641-2.109a1.541,1.541,0,0,0-1.238.574A2.29,2.29,0,0,0-37.992-4.211ZM-28.029,0H-30.5V-11.844h2.469Zm9.267-3.3h-5.219q.125,1.742,2.2,1.742a4.286,4.286,0,0,0,2.32-.625V-.4A6.1,6.1,0,0,1-22.348.2,4.058,4.058,0,0,1-25.356-.879a4.058,4.058,0,0,1-1.07-3A4.281,4.281,0,0,1-25.27-7.031,3.852,3.852,0,0,1-22.426-8.2a3.5,3.5,0,0,1,2.707,1.039,4,4,0,0,1,.957,2.82Zm-2.289-1.516q0-1.719-1.391-1.719a1.328,1.328,0,0,0-1.027.492A2.234,2.234,0,0,0-24-4.812ZM-4.588,0H-7.049V-4.562q0-1.742-1.281-1.742a1.177,1.177,0,0,0-.992.523,2.151,2.151,0,0,0-.383,1.3V0h-2.469V-4.609q0-1.7-1.258-1.7a1.206,1.206,0,0,0-1.012.5,2.2,2.2,0,0,0-.379,1.359V0h-2.469V-8h2.469v1.25h.031a2.952,2.952,0,0,1,1.074-1.043,2.952,2.952,0,0,1,1.512-.4A2.3,2.3,0,0,1-9.885-6.7,2.959,2.959,0,0,1-7.2-8.2q2.609,0,2.609,3.219ZM4.554-3.3H-.665q.125,1.742,2.2,1.742a4.286,4.286,0,0,0,2.32-.625V-.4A6.1,6.1,0,0,1,.968.2,4.058,4.058,0,0,1-2.04-.879a4.058,4.058,0,0,1-1.07-3A4.281,4.281,0,0,1-1.954-7.031,3.852,3.852,0,0,1,.89-8.2,3.5,3.5,0,0,1,3.6-7.156a4,4,0,0,1,.957,2.82ZM2.265-4.812q0-1.719-1.391-1.719a1.328,1.328,0,0,0-1.027.492A2.234,2.234,0,0,0-.68-4.812ZM13.751,0H11.29V-4.445Q11.29-6.3,9.962-6.3a1.318,1.318,0,0,0-1.055.492,1.875,1.875,0,0,0-.414,1.25V0H6.024V-8H8.493v1.266h.031A2.829,2.829,0,0,1,11.095-8.2q2.656,0,2.656,3.3Zm6.791-.094A3.649,3.649,0,0,1,18.893.2q-2.609,0-2.609-2.711V-6.18h-1.3V-8h1.3V-9.727l2.461-.7V-8h1.8v1.82h-1.8v3.234q0,1.25.992,1.25a1.673,1.673,0,0,0,.8-.227ZM28.59,0H26.254V-1.148h-.031A2.607,2.607,0,0,1,23.84.2a2.492,2.492,0,0,1-1.832-.66,2.366,2.366,0,0,1-.668-1.762q0-2.328,2.758-2.687L26.27-5.2q0-1.312-1.422-1.312a4.853,4.853,0,0,0-2.719.852V-7.523a6.116,6.116,0,0,1,1.41-.469,7.413,7.413,0,0,1,1.629-.2q3.422,0,3.422,3.414ZM26.27-3.25v-.539L24.817-3.6q-1.2.156-1.2,1.086a.9.9,0,0,0,.293.691,1.126,1.126,0,0,0,.793.27,1.462,1.462,0,0,0,1.133-.48A1.735,1.735,0,0,0,26.27-3.25ZM36.607-.289A4.881,4.881,0,0,1,34.193.2,4.083,4.083,0,0,1,31.209-.922,3.859,3.859,0,0,1,30.068-3.8,4.251,4.251,0,0,1,31.291-7.02,4.518,4.518,0,0,1,34.56-8.2a4.2,4.2,0,0,1,2.047.375v2.094A2.814,2.814,0,0,0,34.881-6.3a2.275,2.275,0,0,0-1.684.621,2.317,2.317,0,0,0-.621,1.715A2.28,2.28,0,0,0,33.17-2.3,2.182,2.182,0,0,0,34.8-1.7a3.258,3.258,0,0,0,1.8-.578Zm2.869-8.977a1.442,1.442,0,0,1-1.023-.371,1.2,1.2,0,0,1-.4-.91,1.153,1.153,0,0,1,.4-.906,1.49,1.49,0,0,1,1.023-.352,1.486,1.486,0,0,1,1.027.352,1.158,1.158,0,0,1,.395.906,1.191,1.191,0,0,1-.395.922A1.466,1.466,0,0,1,39.476-9.266ZM40.695,0H38.226V-8h2.469Zm5.892.2A4.3,4.3,0,0,1,43.442-.926,4.064,4.064,0,0,1,42.3-3.969a4.065,4.065,0,0,1,1.188-3.105A4.487,4.487,0,0,1,46.7-8.2a4.249,4.249,0,0,1,3.125,1.121,3.985,3.985,0,0,1,1.133,2.965A4.23,4.23,0,0,1,49.786-.961,4.348,4.348,0,0,1,46.587.2Zm.063-6.5a1.647,1.647,0,0,0-1.359.6A2.653,2.653,0,0,0,44.806-4q0,2.3,1.859,2.3,1.773,0,1.773-2.367Q48.438-6.3,46.649-6.3ZM49.3-11.789,46.853-9.266H45.071L47.1-11.789ZM60.276,0H57.815V-4.445q0-1.859-1.328-1.859a1.318,1.318,0,0,0-1.055.492,1.875,1.875,0,0,0-.414,1.25V0H52.549V-8h2.469v1.266h.031A2.829,2.829,0,0,1,57.62-8.2q2.656,0,2.656,3.3Z" transform="translate(134.026 36)" fill="#212429"/>
      <g id="Grupo_1209593-4" data-name="Grupo 1209593" transform="translate(0)">
        <g id="Trazado_983382-4" data-name="Trazado 983382" transform="translate(0 0)" fill="#fff">
          <path d="M 30.00002861022949 59.49985885620117 C 26.0173282623291 59.49985885620117 22.15402793884277 58.7199592590332 18.5174388885498 57.18180847167969 C 15.00465869903564 55.69603729248047 11.8497486114502 53.56890869140625 9.140358924865723 50.85952758789062 C 6.430968761444092 48.150146484375 4.303838729858398 44.99524688720703 2.818058729171753 41.48247909545898 C 1.279918551445007 37.84589767456055 0.5000085830688477 33.98260879516602 0.5000085830688477 29.99992752075195 C 0.5000085830688477 26.01724815368652 1.279918551445007 22.15395736694336 2.818058729171753 18.51737785339355 C 4.303838729858398 15.00460720062256 6.430968761444092 11.84970760345459 9.140358924865723 9.140327453613281 C 11.8497486114502 6.430947303771973 15.00465869903564 4.303817749023438 18.5174388885498 2.818047523498535 C 22.15402793884277 1.279897570610046 26.0173282623291 0.4999975264072418 30.00002861022949 0.4999975264072418 C 33.98272705078125 0.4999975264072418 37.84602737426758 1.279897570610046 41.48262023925781 2.818047523498535 C 44.99539947509766 4.303817749023438 48.15031051635742 6.430947303771973 50.85969924926758 9.140327453613281 C 53.56908798217773 11.84971714019775 55.69622802734375 15.00460720062256 57.1820068359375 18.51737785339355 C 58.72014999389648 22.15395736694336 59.50005722045898 26.01724815368652 59.50005722045898 29.99992752075195 C 59.50005722045898 33.98260879516602 58.72014999389648 37.84589767456055 57.1820068359375 41.48247909545898 C 55.69622802734375 44.99524688720703 53.56908798217773 48.15013885498047 50.85969924926758 50.85952758789062 C 48.15031051635742 53.56890869140625 44.99539947509766 55.69603729248047 41.48262023925781 57.18180847167969 C 37.84602737426758 58.7199592590332 33.98272705078125 59.49985885620117 30.00002861022949 59.49985885620117 Z" stroke="none"/>
          <path d="M 30.00002861022949 0.9999961853027344 C 26.08460998535156 0.9999961853027344 22.28683853149414 1.766609191894531 18.71221923828125 3.278549194335938 C 15.25902938842773 4.739116668701172 12.15754699707031 6.830257415771484 9.493907928466797 9.493888854980469 C 6.830280303955078 12.15750885009766 4.739128112792969 15.25898742675781 3.278549194335938 18.712158203125 C 1.766616821289062 22.28676605224609 1 26.08451843261719 1 29.99992752075195 C 1 33.91533660888672 1.766616821289062 37.71308898925781 3.278549194335938 41.28769683837891 C 4.739128112792969 44.74086761474609 6.830280303955078 47.84234619140625 9.493907928466797 50.50596618652344 C 12.15754699707031 53.16959762573242 15.25902938842773 55.26073837280273 18.71221923828125 56.72130584716797 C 22.28683853149414 58.23324584960938 26.08460998535156 58.99985885620117 30.00002861022949 58.99985885620117 C 33.91545104980469 58.99985885620117 37.71321868896484 58.23324584960938 41.28783798217773 56.72130584716797 C 44.74102783203125 55.26073837280273 47.84250640869141 53.16959762573242 50.50613784790039 50.50596618652344 C 53.16977691650391 47.84234619140625 55.26091766357422 44.74086761474609 56.72150039672852 41.28769683837891 C 58.23342895507812 37.71308898925781 59.00004959106445 33.91533660888672 59.00004959106445 29.99992752075195 C 59.00004959106445 26.08451843261719 58.23342895507812 22.28676605224609 56.72150039672852 18.712158203125 C 55.26091766357422 15.25898742675781 53.16977691650391 12.15750885009766 50.50613784790039 9.493888854980469 C 47.84250640869141 6.830257415771484 44.74102783203125 4.739116668701172 41.28783798217773 3.278549194335938 C 37.71321868896484 1.766609191894531 33.91545104980469 0.9999961853027344 30.00002861022949 0.9999961853027344 M 30.00002861022949 -3.814697265625e-06 C 46.56858825683594 -3.814697265625e-06 60.00004959106445 13.43142700195312 60.00004959106445 29.99992752075195 C 60.00004959106445 46.56842803955078 46.56858825683594 59.99985885620117 30.00002861022949 59.99985885620117 C 13.43146896362305 59.99985885620117 0 46.56842803955078 0 29.99992752075195 C 0 13.43142700195312 13.43146896362305 -3.814697265625e-06 30.00002861022949 -3.814697265625e-06 Z" stroke="none" fill="#6a2c83"/>
        </g>
      </g>
    </g>
    <g id="_x36_5" transform="translate(482.025 4403.621)">
      <path id="Trazado_1077610" data-name="Trazado 1077610" d="M34.683,28.813l-.979.979-1.576-1.575a16.653,16.653,0,1,0-3.913,3.916l1.574,1.574-.978.978,8.54,8.539a4.151,4.151,0,0,0,5.871-5.871ZM18.607,30.6A11.989,11.989,0,1,1,30.6,18.613,12,12,0,0,1,18.607,30.6Z" fill="#f16e1c"/>
      <path id="Trazado_1077611" data-name="Trazado 1077611" d="M10.979,20h2.768v6.459H10.979Z" transform="translate(-0.695 -1.394)" fill="#f16e1c"/>
      <path id="Trazado_1077612" data-name="Trazado 1077612" d="M20.975,18h2.768v8.309H20.975Z" transform="translate(-1.469 -1.239)" fill="#f16e1c"/>
      <path id="Trazado_1077613" data-name="Trazado 1077613" d="M15.975,15h2.768V26.075H15.975Z" transform="translate(-1.082 -1.006)" fill="#f16e1c"/>
      <path id="Trazado_1077614" data-name="Trazado 1077614" d="M25.975,13h2.768V25.915H25.975Z" transform="translate(-1.856 -0.851)" fill="#f16e1c"/>
    </g>
    <g id="idea" transform="translate(484.025 4641.327)">
      <g id="Grupo_1209604" data-name="Grupo 1209604" transform="translate(0 14.506)">
        <g id="Grupo_1209603" data-name="Grupo 1209603">
          <path id="Trazado_1077615" data-name="Trazado 1077615" d="M3.6,180.985H1.2a1.2,1.2,0,0,0,0,2.4H3.6a1.2,1.2,0,0,0,0-2.4Z" transform="translate(0 -180.985)" fill="#f7a61d"/>
        </g>
      </g>
      <g id="Grupo_1209606" data-name="Grupo 1209606" transform="translate(0.432 6.45)">
        <g id="Grupo_1209605" data-name="Grupo 1209605">
          <path id="Trazado_1077616" data-name="Trazado 1077616" d="M9.144,82.431l-1.7-1.7a1.2,1.2,0,1,0-1.7,1.7l1.7,1.7a1.2,1.2,0,0,0,1.7-1.7Z" transform="translate(-5.395 -80.381)" fill="#f7a61d"/>
        </g>
      </g>
      <g id="Grupo_1209608" data-name="Grupo 1209608" transform="translate(0.432 20.864)">
        <g id="Grupo_1209607" data-name="Grupo 1209607">
          <path id="Trazado_1077617" data-name="Trazado 1077617" d="M9.144,260.732a1.2,1.2,0,0,0-1.7,0l-1.7,1.7a1.2,1.2,0,1,0,1.7,1.7l1.7-1.7A1.2,1.2,0,0,0,9.144,260.732Z" transform="translate(-5.395 -260.38)" fill="#f7a61d"/>
        </g>
      </g>
      <g id="Grupo_1209610" data-name="Grupo 1209610" transform="translate(36.195 14.506)">
        <g id="Grupo_1209609" data-name="Grupo 1209609">
          <path id="Trazado_1077618" data-name="Trazado 1077618" d="M455.6,180.985h-2.4a1.2,1.2,0,0,0,0,2.4h2.4a1.2,1.2,0,0,0,0-2.4Z" transform="translate(-452 -180.985)" fill="#f7a61d"/>
        </g>
      </g>
      <g id="Grupo_1209612" data-name="Grupo 1209612" transform="translate(36.467 6.45)">
        <g id="Grupo_1209611" data-name="Grupo 1209611">
          <path id="Trazado_1077619" data-name="Trazado 1077619" d="M459.144,80.732a1.2,1.2,0,0,0-1.7,0l-1.7,1.7a1.2,1.2,0,0,0,1.7,1.7l1.7-1.7A1.2,1.2,0,0,0,459.144,80.732Z" transform="translate(-455.395 -80.38)" fill="#f7a61d"/>
        </g>
      </g>
      <g id="Grupo_1209614" data-name="Grupo 1209614" transform="translate(36.467 20.864)">
        <g id="Grupo_1209613" data-name="Grupo 1209613">
          <path id="Trazado_1077620" data-name="Trazado 1077620" d="M459.144,262.431l-1.7-1.7a1.2,1.2,0,0,0-1.7,1.7l1.7,1.7a1.2,1.2,0,0,0,1.7-1.7Z" transform="translate(-455.395 -260.381)" fill="#f7a61d"/>
        </g>
      </g>
      <g id="Grupo_1209616" data-name="Grupo 1209616" transform="translate(6.086 0.014)">
        <g id="Grupo_1209615" data-name="Grupo 1209615">
          <path id="Trazado_1077621" data-name="Trazado 1077621" d="M99.5,3.236a14.441,14.441,0,0,0-19.86,20.833A9.238,9.238,0,0,1,81.9,28.92h3.718V18.11c0-.465,3.522-7.328,3.73-7.744a1.251,1.251,0,0,1,2.149,0c.218.436,3.73,7.3,3.73,7.744V28.92h3.722a9.618,9.618,0,0,1,2.319-4.93,14.378,14.378,0,0,0,3.568-9.484A14.522,14.522,0,0,0,99.5,3.236Z" transform="translate(-76.005 -0.014)" fill="#f7a61d"/>
        </g>
      </g>
      <g id="Grupo_1209618" data-name="Grupo 1209618" transform="translate(18.098 20.007)">
        <g id="Grupo_1209617" data-name="Grupo 1209617">
          <path id="Trazado_1077622" data-name="Trazado 1077622" d="M228.4,250.074a7.656,7.656,0,0,1-2.4-.4v8.914h4.8v-8.914A7.656,7.656,0,0,1,228.4,250.074Z" transform="translate(-226 -249.674)" fill="#f7a61d"/>
        </g>
      </g>
      <g id="Grupo_1209620" data-name="Grupo 1209620" transform="translate(12.092 31.323)">
        <g id="Grupo_1209619" data-name="Grupo 1209619">
          <path id="Trazado_1077623" data-name="Trazado 1077623" d="M151,390.986v1.2a3.608,3.608,0,0,0,3.6,3.6h9.609a3.608,3.608,0,0,0,3.6-3.6v-1.2Z" transform="translate(-151 -390.986)" fill="#f7a61d"/>
        </g>
      </g>
      <g id="Grupo_1209622" data-name="Grupo 1209622" transform="translate(18.515 13.589)">
        <g id="Grupo_1209621" data-name="Grupo 1209621">
          <path id="Trazado_1077624" data-name="Trazado 1077624" d="M233.2,169.53l-1.985,3.97a5.2,5.2,0,0,0,3.97,0Z" transform="translate(-231.211 -169.53)" fill="#f7a61d"/>
        </g>
      </g>
      <g id="Grupo_1209624" data-name="Grupo 1209624" transform="translate(14.715 38.53)">
        <g id="Grupo_1209623" data-name="Grupo 1209623">
          <path id="Trazado_1077625" data-name="Trazado 1077625" d="M183.763,480.986a3.671,3.671,0,0,0,3.382,2.482h4.8a3.671,3.671,0,0,0,3.382-2.482Z" transform="translate(-183.763 -480.986)" fill="#f7a61d"/>
        </g>
      </g>
    </g>
    <g id="desarrollo" transform="translate(653.933 4400.605)">
      <path id="Trazado_1077626" data-name="Trazado 1077626" d="M284.017,4.746l.583.583a1.39,1.39,0,1,0,1.966-1.966L283.61.406a1.392,1.392,0,0,0-1.967,0l-2.956,2.956a1.39,1.39,0,1,0,1.966,1.966l.583-.583V9.534a16.284,16.284,0,0,1,2.781,1.687V4.746Z" transform="translate(-199.178 0)" fill="#1cb1f1"/>
      <circle id="Elipse_12559" data-name="Elipse 12559" cx="1.39" cy="1.39" r="1.39" transform="translate(73.716 23.022)" fill="#1cb1f1"/>
      <path id="Trazado_1077627" data-name="Trazado 1077627" d="M95.052,110.537l-3.839-6.581a16.289,16.289,0,0,0-6.374-14.971v13.191a9.731,9.731,0,1,1-6.452-9.164,1.39,1.39,0,1,1-.939,2.617,6.952,6.952,0,1,0,4.611,6.546V87.3a16.287,16.287,0,0,0-18.631,26.116v10.34a1.39,1.39,0,0,0,1.383,1.39l13.689.076h.008a1.391,1.391,0,0,0,1.39-1.39v-2.05h5.5a3.616,3.616,0,0,0,3.613-3.61v-4.707h4.358A1.947,1.947,0,0,0,95.052,110.537Zm-19.946-4.19a4.171,4.171,0,1,1,4.171-4.171A4.176,4.176,0,0,1,75.107,106.347Z" transform="translate(0 -77.763)" fill="#1cb1f1"/>
    </g>
    <g id="Gear-Implementation-Project-Management-Arrow" transform="translate(703.248 4634.531)">
      <path id="Trazado_1077628" data-name="Trazado 1077628" d="M7.6,19.765A22,22,0,0,1,27.246,5.531l.807-.03V3l5.03,4.191-5.03,4.191V8.843l-.879.043A18.391,18.391,0,0,0,11.22,19.765Z" transform="translate(-0.744)" fill="#e5282a"/>
      <path id="Trazado_1077629" data-name="Trazado 1077629" d="M26,53.574l5.03-4.191v2.54l.879-.043A18.391,18.391,0,0,0,47.864,41h3.62A22,22,0,0,1,31.837,55.235l-.807.03v2.5Z" transform="translate(-3.72 -6.146)" fill="#e5282a"/>
      <path id="Trazado_1077630" data-name="Trazado 1077630" d="M49.383,28.054h2.54l-.043-.879A18.391,18.391,0,0,0,41,11.22V7.6A22.02,22.02,0,0,1,55.235,27.246l.03.807h2.5l-4.191,5.03Z" transform="translate(-6.146 -0.744)" fill="#e5282a"/>
      <path id="Trazado_1077631" data-name="Trazado 1077631" d="M18.927,51.148a21.849,21.849,0,0,1-13.4-19.31L5.5,31.03H3L7.191,26l4.191,5.03H8.844l.042.878A18.5,18.5,0,0,0,18.931,47.459Z" transform="translate(0 -3.72)" fill="#e5282a"/>
      <circle id="Elipse_12560" data-name="Elipse 12560" cx="3.353" cy="3.353" r="3.353" transform="translate(23.838 23.838)" fill="#e5282a"/>
      <path id="Trazado_1077632" data-name="Trazado 1077632" d="M40.795,31.574V28.221l-2.783-.394a8.215,8.215,0,0,0-.914-2.2l1.693-2.255L36.419,21,34.164,22.7a8.215,8.215,0,0,0-2.2-.914L31.574,19H28.221l-.394,2.783a8.215,8.215,0,0,0-2.2.914L23.376,21,21,23.376,22.7,25.631a8.215,8.215,0,0,0-.914,2.2L19,28.221v3.353l2.783.394a8.215,8.215,0,0,0,.914,2.2L21,36.419l2.372,2.372L25.631,37.1a8.215,8.215,0,0,0,2.2.914l.394,2.783h3.353l.394-2.783a8.215,8.215,0,0,0,2.2-.914l2.255,1.693,2.372-2.372L37.1,34.164a8.215,8.215,0,0,0,.914-2.2ZM29.9,34.927a5.03,5.03,0,1,1,5.03-5.03A5.03,5.03,0,0,1,29.9,34.927Z" transform="translate(-2.588 -2.588)" fill="#e5282a"/>
    </g>
    <g id="Enmascarar_grupo_1098884" data-name="Enmascarar grupo 1098884" transform="translate(-203 -60)" clip-path="url(#clip-path)">
      <g id="Grupo_1209995" data-name="Grupo 1209995" transform="translate(251.194 4439.952)">
        <path id="Trazado_1078220" data-name="Trazado 1078220" d="M519.292,132.052s28.813,42.059,23.936,53.44-13.654,5.852-13.654,5.852l-17.236-39.995S515.839,134.538,519.292,132.052Z" transform="translate(31.509 31.694)" fill="#fce8d4"/>
        <g id="Grupo_1209978" data-name="Grupo 1209978" transform="translate(493.912 86.884)">
          <g id="Grupo_1209965" data-name="Grupo 1209965" transform="translate(0 53.523)">
            <path id="Trazado_1078221" data-name="Trazado 1078221" d="M539.882,133.15s-29.175-5.471-56.889-.732c0,0,6.2,52.878,8.386,64.186,0,0,21.879,5.469,40.842-.368C532.221,196.239,540.244,143.36,539.882,133.15Z" transform="translate(-482.993 -109.812)" fill="#e1d8d1"/>
            <path id="Trazado_1078222" data-name="Trazado 1078222" d="M494.544,138.318c0,4.875,5.3,8.823,10.133,8.823h0c4.836,0,10.134-3.948,10.134-8.823v-11.16c0-4.874-5.3-8.822-10.134-8.822h0c-4.836,0-10.133,3.948-10.133,8.822Z" transform="translate(-474.888 -118.337)" fill="#d8826c"/>
            <g id="Grupo_1209963" data-name="Grupo 1209963" transform="translate(27.838 34.478)">
              <path id="Trazado_1078223" data-name="Trazado 1078223" d="M499.352,139.852a1.258,1.258,0,1,0,1.256-1.254A1.256,1.256,0,0,0,499.352,139.852Z" transform="translate(-499.352 -138.598)" fill="#fff"/>
              <path id="Trazado_1078224" data-name="Trazado 1078224" d="M499.352,147.538a1.258,1.258,0,1,0,1.256-1.258A1.257,1.257,0,0,0,499.352,147.538Z" transform="translate(-499.352 -133.208)" fill="#fff"/>
              <path id="Trazado_1078225" data-name="Trazado 1078225" d="M499.407,162.906a1.257,1.257,0,1,0,1.258-1.256A1.258,1.258,0,0,0,499.407,162.906Z" transform="translate(-499.313 -122.423)" fill="#fff"/>
              <path id="Trazado_1078226" data-name="Trazado 1078226" d="M499.352,155.192a1.258,1.258,0,1,0,1.256-1.258A1.259,1.259,0,0,0,499.352,155.192Z" transform="translate(-499.352 -127.837)" fill="#fff"/>
            </g>
            <g id="Grupo_1209964" data-name="Grupo 1209964" transform="translate(13.489 14.583)">
              <path id="Trazado_1078227" data-name="Trazado 1078227" d="M508.889,126.907l6.929,7.293-5.835,15.317-9.846-8.389S507.793,133.106,508.889,126.907Z" transform="translate(-484.453 -126.907)" fill="#fce8d4"/>
              <path id="Trazado_1078228" data-name="Trazado 1078228" d="M497.851,126.907,490.92,134.2l5.835,15.317,9.848-8.389S498.945,133.106,497.851,126.907Z" transform="translate(-490.92 -126.907)" fill="#fce8d4"/>
            </g>
          </g>
          <g id="Grupo_1209977" data-name="Grupo 1209977" transform="translate(1.184)">
            <g id="Grupo_1209966" data-name="Grupo 1209966" transform="translate(7.331 11.357)">
              <path id="Trazado_1078229" data-name="Trazado 1078229" d="M529.233,131.06c.054,6.938-7.353,12.569-12.262,15.194a14.938,14.938,0,0,1-9.211,1.771c-19.525-4.445-18.15-13.727-19.248-21.428a60.585,60.585,0,0,1,.63-19.593,13.354,13.354,0,0,1,1.064-3.249C493.228,97.445,500.377,95,500.377,95a27.129,27.129,0,0,1,13.573-1.007c6.4,1.178,11.435,4.487,13.057,11.046a55.59,55.59,0,0,1,1.077,6.439c.555,4.446.847,8.925,1.012,13.4Q529.209,127.968,529.233,131.06Z" transform="translate(-487.997 -93.558)" fill="#f5ae94"/>
            </g>
            <path id="Trazado_1078230" data-name="Trazado 1078230" d="M501.506,104.262s-1.5-1.312-1.44,3.771.7,10.413.7,10.413-3.512-1.744-2.2,1A4.91,4.91,0,0,0,502.3,121.9a3.065,3.065,0,0,0,3.085-1.145c.373-.415,2.321-2.673,1.615-3.289-.337-.3-2.117.585-2.575.733C504.421,118.2,503.965,102.968,501.506,104.262Z" transform="translate(-473.457 -74.797)" fill="#dd876c"/>
            <path id="Trazado_1078231" data-name="Trazado 1078231" d="M503.669,102.189s8.845-1.778,11.629,4.734c0,0-9.89-2.975-11.772-1.492Z" transform="translate(-469.769 -76.3)" fill="#0d0d0c"/>
            <path id="Trazado_1078232" data-name="Trazado 1078232" d="M502.264,102.7s-8.721-2.324-11.9,4c0,0,10.055-2.353,11.837-.759Z" transform="translate(-479.005 -76.079)" fill="#0d0d0c"/>
            <g id="Grupo_1209968" data-name="Grupo 1209968" transform="translate(33.846 32.027)">
              <path id="Trazado_1078233" data-name="Trazado 1078233" d="M512.181,114.2a5.159,5.159,0,0,1-3.174,1.351,4.93,4.93,0,1,1,4.761-5.262A4.84,4.84,0,0,1,512.181,114.2Z" transform="translate(-503.579 -105.705)" fill="#fff"/>
              <g id="Grupo_1209967" data-name="Grupo 1209967" transform="translate(2.687 2.402)">
                <path id="Trazado_1078234" data-name="Trazado 1078234" d="M511.526,111.457a5,5,0,0,1-.454,1.749,5.159,5.159,0,0,1-3.174,1.351,4.988,4.988,0,0,1-1.611-.143,4.469,4.469,0,0,1-1.111-3.46c.174-2.251,1.741-3.968,3.5-3.83a2.716,2.716,0,0,1,1.612.733,3.369,3.369,0,0,1,.67.866A4.7,4.7,0,0,1,511.526,111.457Z" transform="translate(-505.158 -107.116)" fill="#5c8696"/>
                <path id="Trazado_1078235" data-name="Trazado 1078235" d="M510.227,110.891c-.124,1.6-1.239,2.82-2.483,2.723s-2.158-1.479-2.032-3.075,1.239-2.816,2.484-2.719S510.353,109.293,510.227,110.891Z" transform="translate(-504.777 -106.627)" fill="#0d0d0c"/>
                <path id="Trazado_1078236" data-name="Trazado 1078236" d="M509.534,108.385c-.036.434-.584.749-1.23.7s-1.135-.448-1.1-.881.58-.749,1.224-.7S509.564,107.953,509.534,108.385Z" transform="translate(-503.722 -106.849)" fill="#fff"/>
              </g>
            </g>
            <g id="Grupo_1209970" data-name="Grupo 1209970" transform="translate(13.69 32.027)">
              <path id="Trazado_1078237" data-name="Trazado 1078237" d="M500.333,114.2a5.155,5.155,0,0,1-3.175,1.351,5,5,0,0,1-1.611-.143,4.94,4.94,0,0,1-3.8-4.436,5.1,5.1,0,0,1,10.174-.682A4.844,4.844,0,0,1,500.333,114.2Z" transform="translate(-491.734 -105.705)" fill="#fff"/>
              <g id="Grupo_1209969" data-name="Grupo 1209969" transform="translate(2.687 2.402)">
                <path id="Trazado_1078238" data-name="Trazado 1078238" d="M499.679,111.457a4.994,4.994,0,0,1-.454,1.749,5.155,5.155,0,0,1-3.175,1.351,5,5,0,0,1-1.611-.143,4.48,4.48,0,0,1-1.108-3.46c.174-2.251,1.739-3.968,3.5-3.83a2.74,2.74,0,0,1,1.611.733,3.488,3.488,0,0,1,.672.866A4.8,4.8,0,0,1,499.679,111.457Z" transform="translate(-493.313 -107.116)" fill="#5c8696"/>
                <path id="Trazado_1078239" data-name="Trazado 1078239" d="M498.381,110.891c-.126,1.6-1.237,2.82-2.486,2.723s-2.158-1.479-2.03-3.075,1.237-2.816,2.484-2.719S498.505,109.293,498.381,110.891Z" transform="translate(-492.934 -106.627)" fill="#0d0d0c"/>
                <path id="Trazado_1078240" data-name="Trazado 1078240" d="M497.686,108.385c-.032.434-.582.749-1.225.7s-1.135-.448-1.1-.881.584-.749,1.225-.7S497.72,107.953,497.686,108.385Z" transform="translate(-491.88 -106.849)" fill="#fff"/>
              </g>
            </g>
            <path id="Trazado_1078241" data-name="Trazado 1078241" d="M534.715,96.616a9.2,9.2,0,0,1-5.066,3.6c1.666-1.758,3.255-4.132,2.983-6.611a.184.184,0,0,0-.254-.145,4.751,4.751,0,0,0-.893.715c-1.518,1.385-4,1.336-5.825.687-3.2-1.144-5.827-3.381-8.7-5.122A18.381,18.381,0,0,0,506.62,86.9a19.387,19.387,0,0,0-5.827,1.191c-4.584,1.681-10.04,4.93-11.265,10.035a8.685,8.685,0,0,0-.228,2.148c.007.451.395,1.807.2,2.165-.109.175.111.369.243.271a.188.188,0,0,0,.187-.109,1.7,1.7,0,0,0,.071-.182c2.154-1.749,5.76,5.081,7.077,6.182,5.034,4.21,12.256,4.8,18.235,3.162,6.713-1.831,14.115-6.46,17.985-12.09a18.336,18.336,0,0,0,1.727-2.879A.18.18,0,0,0,534.715,96.616Z" transform="translate(-479.752 -86.884)" fill="#242422"/>
            <g id="Grupo_1209972" data-name="Grupo 1209972" transform="translate(47.41 29.388)">
              <g id="Grupo_1209971" data-name="Grupo 1209971">
                <path id="Trazado_1078242" data-name="Trazado 1078242" d="M511.9,109.126s4.268-9.657,7.79-2.056c2.8,6.056-1.87,11.99-5.646,11.571S511.9,109.126,511.9,109.126Z" transform="translate(-511.549 -104.154)" fill="#f0a98f"/>
                <path id="Trazado_1078243" data-name="Trazado 1078243" d="M512.082,109.79s3.163-6.194,4.805-3.967a9.886,9.886,0,0,1,1.627,5.28s-1.179-3.226-3.47-1.108c0,0,3.075,5.051-2.057,4A3.173,3.173,0,0,1,512.082,109.79Z" transform="translate(-511.47 -103.321)" fill="#d8826c"/>
              </g>
            </g>
            <path id="Trazado_1078244" data-name="Trazado 1078244" d="M497.02,95.583s.488,7.9-2.8,11.73-3.592,11.634-3.592,11.634S478.6,103.6,492.281,94.671A4.617,4.617,0,0,1,497.02,95.583Z" transform="translate(-482.247 -81.629)" fill="#242422"/>
            <path id="Trazado_1078245" data-name="Trazado 1078245" d="M507.949,98.691a40.3,40.3,0,0,1,6.745,18.053s7.84-11.67.364-21.516C515.059,95.226,506.855,91.761,507.949,98.691Z" transform="translate(-466.736 -81.638)" fill="#242422"/>
            <g id="Grupo_1209974" data-name="Grupo 1209974" transform="translate(0 30.845)">
              <g id="Grupo_1209973" data-name="Grupo 1209973">
                <path id="Trazado_1078246" data-name="Trazado 1078246" d="M492.334,109.987s-4.268-9.664-7.79-2.059c-2.8,6.056,1.867,11.988,5.646,11.573S492.334,109.987,492.334,109.987Z" transform="translate(-483.689 -105.01)" fill="#f0a98f"/>
                <path id="Trazado_1078247" data-name="Trazado 1078247" d="M491.269,110.651s-3.165-6.2-4.807-3.97a9.934,9.934,0,0,0-1.628,5.28s1.179-3.225,3.47-1.108c0,0-3.07,5.052,2.059,4A3.167,3.167,0,0,0,491.269,110.651Z" transform="translate(-482.886 -104.178)" fill="#d8826c"/>
              </g>
            </g>
            <g id="Grupo_1209976" data-name="Grupo 1209976" transform="translate(7.787 30.468)">
              <g id="Grupo_1209975" data-name="Grupo 1209975" transform="translate(3.797 2.416)">
                <path id="Trazado_1078248" data-name="Trazado 1078248" d="M499.983,106.6a28.179,28.179,0,0,0-5.222-.284,42.7,42.7,0,0,0-2.852,5.532,23.351,23.351,0,0,0-1.412,4.38,8.627,8.627,0,0,0,5.961,2C497.3,114.288,497.856,109.91,499.983,106.6Z" transform="translate(-490.496 -106.146)" fill="#eaeced" opacity="0.4"/>
                <path id="Trazado_1078249" data-name="Trazado 1078249" d="M512.674,106.247a28.229,28.229,0,0,0-5.224.223,42.837,42.837,0,0,0-2.3,5.784,23.4,23.4,0,0,0-.985,4.492,8.606,8.606,0,0,0,6.128,1.412C510.749,114.158,510.878,109.747,512.674,106.247Z" transform="translate(-480.908 -106.208)" fill="#eaeced" opacity="0.4"/>
              </g>
              <path id="Trazado_1078250" data-name="Trazado 1078250" d="M528.188,114.082c1.737-5.1,1.234-7.276,1.171-7.51l-.114-.414-.4-.158a21.469,21.469,0,0,0-15.729.6,16.7,16.7,0,0,0-2.45,1.363l.012-.151-2.956.112-.049-.129-.4-.211a20.287,20.287,0,0,0-2.673-1.237,21.654,21.654,0,0,0-15.8.42l-.39.184-.089.42c-.048.235-.412,2.437,1.649,7.419a6.875,6.875,0,0,0,4.15,3.853,12.4,12.4,0,0,0,5.049.682c5.794-.635,6.819-3.429,7.494-5.277.036-.1.075-.206.111-.3a15.134,15.134,0,0,0,.846-3.3,3.583,3.583,0,0,1,2.61.056,14.846,14.846,0,0,0,1.123,3.621c.043.094.087.194.131.291.791,1.8,1.993,4.525,7.816,4.789a12.382,12.382,0,0,0,4.993-1.006A6.861,6.861,0,0,0,528.188,114.082Zm-29.2,3.536a10.94,10.94,0,0,1-4.264-.584,5.222,5.222,0,0,1-3.167-2.9,16.961,16.961,0,0,1-1.569-6,20.22,20.22,0,0,1,14-.168,18.7,18.7,0,0,1,2.018.9,12.111,12.111,0,0,1-.844,4.275c-.037.1-.078.206-.119.313C504.416,115.165,503.708,117.1,498.989,117.618Zm24.594-.992a10.828,10.828,0,0,1-4.218.853c-4.743-.214-5.573-2.1-6.307-3.764-.049-.1-.092-.206-.14-.308a12.138,12.138,0,0,1-1.118-4.21,18.412,18.412,0,0,1,1.959-1.033,20.245,20.245,0,0,1,13.981-.728,17.184,17.184,0,0,1-1.184,6.09A5.206,5.206,0,0,1,523.583,116.626Z" transform="translate(-488.265 -104.789)" fill="#5c311e"/>
            </g>
            <path id="Trazado_1078251" data-name="Trazado 1078251" d="M497.242,117.178s8.927,12.329,13.983-1.3C511.225,115.876,507.387,123.682,497.242,117.178Z" transform="translate(-474.179 -66.539)" fill="#d5503b"/>
          </g>
        </g>
        <g id="Grupo_1209987" data-name="Grupo 1209987" transform="translate(496.097 224.072)">
          <g id="Grupo_1209982" data-name="Grupo 1209982" transform="translate(0 126.45)">
            <g id="Grupo_1209981" data-name="Grupo 1209981">
              <g id="Grupo_1209980" data-name="Grupo 1209980">
                <g id="Grupo_1209979" data-name="Grupo 1209979">
                  <path id="Trazado_1078252" data-name="Trazado 1078252" d="M484.492,264.358l19.329-2.187c-.919-1.484-1.387-5.66-1.623-8.941-.325-4.535-.2-10.033-.2-10.033s-12.763-3.117-12.763,0a41.469,41.469,0,0,1-1.613,10.033C486.245,258.455,484.492,264.358,484.492,264.358Z" transform="translate(-484.126 -241.812)" fill="#22272e"/>
                  <path id="Trazado_1078253" data-name="Trazado 1078253" d="M484.277,259.509c0,.1,0-.228.01-.134.043,1.06.32,1.009.79,2.568h20.284c.47-1.559.745-1.509.786-2.568.009-.094.01.02.01-.078,0-4.833-4.9-8.648-10.94-8.648S484.277,254.674,484.277,259.509Z" transform="translate(-484.277 -235.612)" fill="#22272e"/>
                </g>
                <path id="Trazado_1078254" data-name="Trazado 1078254" d="M500.908,254.111c-.325-4.678-.2-10.913-.2-10.913s-12.763-3.117-12.763,0-.73,6.237-1.613,10.913Z" transform="translate(-482.836 -241.811)" fill="#617085"/>
              </g>
              <path id="Trazado_1078255" data-name="Trazado 1078255" d="M484.283,255.911c.043,0,.32,1.559.79,1.559h20.284c.47,0,.745-1.559.786-1.559Z" transform="translate(-484.273 -231.919)" fill="#515d6e" stroke="#515d6e" stroke-miterlimit="10" stroke-width="1"/>
            </g>
            <path id="Trazado_1078256" data-name="Trazado 1078256" d="M488.571,252.125c1.508-2.1,5.11-1.363,6.8.049.257.214-.027.551-.293.5a22.046,22.046,0,0,0-3.009-.781c-1.181-.053-2.083.657-3.2.744A.346.346,0,0,1,488.571,252.125Z" transform="translate(-481.299 -235.494)" fill="#515d6e"/>
            <path id="Trazado_1078257" data-name="Trazado 1078257" d="M489,253.279c1.676-1.155,4.988-1.574,6.465.138a.327.327,0,0,1-.316.543,11.622,11.622,0,0,0-3.14-.4c-1.035.01-1.879.744-2.9.5A.429.429,0,0,1,489,253.279Z" transform="translate(-481.103 -234.473)" fill="#515d6e"/>
          </g>
          <g id="Grupo_1209985" data-name="Grupo 1209985" transform="translate(32.865 129.159)">
            <g id="Grupo_1209984" data-name="Grupo 1209984">
              <g id="Grupo_1209983" data-name="Grupo 1209983">
                <path id="Trazado_1078258" data-name="Trazado 1078258" d="M503.823,264.376a11.6,11.6,0,0,0,.57,2.794s30.809,1.317,32.977.354c.342-.153.242-.473-.179-.9a9.758,9.758,0,0,0-.395-1.181c-1.07-2.621-4.072-6.715-12.354-6.2-1.457-.74-2.668-1.351-3.361-1.715-1.05-.551-1.826-1.989-2.384-3.761a31.991,31.991,0,0,1-1.246-10.356l-13.069.168s-.456,4.819-.676,10.188A78.951,78.951,0,0,0,503.823,264.376Z" transform="translate(-503.59 -243.404)" fill="#22272e"/>
                <path id="Trazado_1078259" data-name="Trazado 1078259" d="M518.649,254.391c-1.229-6.237-1.446-9.642-1.246-10.755L504.335,244s-.456,4.154-.676,10.389h14.99Z" transform="translate(-503.542 -243.241)" fill="#617085"/>
              </g>
              <path id="Trazado_1078260" data-name="Trazado 1078260" d="M503.727,255.728a11.6,11.6,0,0,0,.57,2.794s30.809,1.317,32.977.354c.342-.153.242-.473-.179-.9a9.8,9.8,0,0,0-.395-1.181C531.337,256.824,512.009,256.848,503.727,255.728Z" transform="translate(-503.494 -234.756)" fill="#515d6e" stroke="#515d6e" stroke-miterlimit="10" stroke-width="1"/>
            </g>
            <path id="Trazado_1078261" data-name="Trazado 1078261" d="M513.955,253.782c.5-1.479,2.878-2.068,4.229-1.166a.2.2,0,0,1,0,.354c-.573.32-1.247.145-1.884.265-.687.134-.944.664-1.436,1.019C514.469,254.536,513.786,254.286,513.955,253.782Z" transform="translate(-496.336 -237.24)" fill="#515d6e"/>
            <path id="Trazado_1078262" data-name="Trazado 1078262" d="M511.31,252.808a3.466,3.466,0,0,1,2.774-1.885c.827-.08,2.6.225,2.364,1.271a.226.226,0,0,1-.219.145c-.538.039-1-.3-1.555-.293a2.771,2.771,0,0,0-1.686.762c-.4.366-.543.8-1.176.873C511.373,253.729,511.2,253.071,511.31,252.808Z" transform="translate(-498.195 -238.137)" fill="#515d6e"/>
          </g>
          <g id="Grupo_1209986" data-name="Grupo 1209986" transform="translate(2.443)">
            <path id="Trazado_1078263" data-name="Trazado 1078263" d="M532.156,304.36H515.238l-4.836-103.7a14.367,14.367,0,0,1-1.683.128l-6.031,102.848H485.81c-.106-12.984-.779-110.941,3.659-133.475l40.842-.364C529.955,170.869,532.411,263.832,532.156,304.36Z" transform="translate(-485.712 -165.895)" fill="#22272e"/>
            <path id="Trazado_1078264" data-name="Trazado 1078264" d="M492.418,175.946l-4.712-.083.364-5.837,4.7-.043C492.62,171.972,492.476,173.953,492.418,175.946Z" transform="translate(-484.314 -165.763)" fill="#8c4c09"/>
            <path id="Trazado_1078265" data-name="Trazado 1078265" d="M493.337,170.035l20.837-.182c-.063,2.21-.14,4.421-.192,6.63l-21.023-.371A26.452,26.452,0,0,0,493.337,170.035Z" transform="translate(-480.628 -165.854)" fill="#8c4c09"/>
            <path id="Trazado_1078266" data-name="Trazado 1078266" d="M508.64,169.845l5.993-.051v6.929l-6.577-.117A22.875,22.875,0,0,0,508.64,169.845Z" transform="translate(-470.034 -165.895)" fill="#8c4c09"/>
            <rect id="Rectángulo_418004" data-name="Rectángulo 418004" width="12.472" height="9.354" transform="translate(16.589)" fill="#c28c4b"/>
          </g>
        </g>
        <g id="Grupo_1209990" data-name="Grupo 1209990" transform="translate(467.432 163.181)">
          <g id="Grupo_1209989" data-name="Grupo 1209989" transform="translate(50.535 21.079)">
            <g id="Grupo_1209988" data-name="Grupo 1209988">
              <path id="Trazado_1078267" data-name="Trazado 1078267" d="M497.129,145.865l1.44-.737,1.994-1.021,2.757,5.391.507.98,12.923,25.233-2.4,1.227-1.024.524L500.4,152.234l-.505-.978Z" transform="translate(-497.129 -144.107)" fill="#243143"/>
              <path id="Trazado_1078268" data-name="Trazado 1078268" d="M506.644,164.43l1.024-.524,2.4-1.227.364,2.471.429,2.895-1.993-1.7-.362-.308Z" transform="translate(-490.452 -131.075)" fill="#f4be4f"/>
              <path id="Trazado_1078269" data-name="Trazado 1078269" d="M507.741,165.014c.056-.026.114-.056.172-.078.538-.248,1.143-.524,1.756-.8l.427,2.9-1.993-1.7Z" transform="translate(-489.683 -130.057)" fill="#243143"/>
            </g>
          </g>
          <path id="Trazado_1078270" data-name="Trazado 1078270" d="M493.91,131.72s-26.151,30.595-26.476,42.949,36.418,16.26,52.676,12.033l-.65-11.381s-31.539-4.877-31.539-6.5,11.7-14.954,11.054-19.833S493.91,131.72,493.91,131.72Z" transform="translate(-467.432 -131.72)" fill="#fce8d4"/>
          <path id="Trazado_1078271" data-name="Trazado 1078271" d="M515.638,162.81a5.159,5.159,0,0,0-.839-1.635.705.705,0,0,0,.019-.174c-.165-3.636-2.078-6.984-6.2-6.514-1.805.206-3.354,1.7-4.63,2.861-2.163,1.965-4.332,3.921-6.448,5.925-3.376,1.491-2.423,6.289,1.543,7.481a11.892,11.892,0,0,0,7.959-.475c3.6-1.4,6.5-4.128,10.613-3.626a.767.767,0,0,0,.774-.774A3.139,3.139,0,0,0,515.638,162.81Z" transform="translate(-447.749 -115.776)" fill="#f0a98f"/>
        </g>
        <g id="Grupo_1209994" data-name="Grupo 1209994" transform="translate(522.812 178.352)">
          <g id="Grupo_1209993" data-name="Grupo 1209993">
            <path id="Trazado_1078272" data-name="Trazado 1078272" d="M525.48,141.751s-9.739-3.349-15.935,16.234l29.914,2.239,2.927-13.995S534.909,139.791,525.48,141.751Z" transform="translate(-493.262 -140.113)" fill="#ab967b"/>
            <g id="Grupo_1209992" data-name="Grupo 1209992" transform="translate(0 7.449)">
              <g id="Grupo_1209991" data-name="Grupo 1209991" transform="translate(19.048)">
                <path id="Trazado_1078273" data-name="Trazado 1078273" d="M538.009,152.984l-26.839-.318c.5-1.067.71-.946,1.157-1.305,2.022-1.608,5.411-2.277,9.414-2.454,1.355-.058,2.787-.09,4.256-.065,1.44.026,2.82.066,4.087.167,3.849.3,6.735,1.087,7.651,2.7C537.936,152.063,538.227,151.947,538.009,152.984Z" transform="translate(-511.17 -142.333)" fill="#bcc1c6"/>
                <path id="Trazado_1078274" data-name="Trazado 1078274" d="M527.514,146.824a1.7,1.7,0,0,1-1.841-1.746l-2.534-.065a3.742,3.742,0,0,1-3.024,1.642c-.167-.007.128-.1-.47-.136l-3.015,8.973,8.394.1,3.1-8.891A1.613,1.613,0,0,1,527.514,146.824Zm-3.732.08c.961.022,1.511.711,1.222,1.547a2.465,2.465,0,0,1-2.261,1.477c-.961-.019-1.509-.713-1.222-1.549A2.433,2.433,0,0,1,523.782,146.9Z" transform="translate(-507.339 -145.013)" fill="#bcc1c6"/>
                <path id="Trazado_1078275" data-name="Trazado 1078275" d="M538.009,151.839l-26.839-.318c.5-1.067.747-1.064,1.079-1.057l25.4.337C537.977,150.8,538.227,150.8,538.009,151.839Z" transform="translate(-511.17 -141.189)" fill="#a9acb1"/>
              </g>
              <path id="Trazado_1078276" data-name="Trazado 1078276" d="M537.66,193.564a2.18,2.18,0,0,1-1.817,1.44l-34.82,1.618c-.8.027-1.206-.6-.987-1.389l13.084-44.565a2.148,2.148,0,0,1,1.926-1.475l36.736.648a.979.979,0,0,1,.9,1.446Z" transform="translate(-499.976 -142.081)" fill="#91a851"/>
            </g>
            <path id="Trazado_1078277" data-name="Trazado 1078277" d="M552.276,155.543l-24.71,1.625s-2.277-10.7-8.129-14.895a3.019,3.019,0,0,0-1.28-.538c13.957-.861,26.817-1.819,29.24-.3C550.976,143.674,552.276,155.543,552.276,155.543Z" transform="translate(-487.219 -140.635)" fill="#eddbc3"/>
          </g>
          <path id="Trazado_1078278" data-name="Trazado 1078278" d="M532.49,161.326a5.254,5.254,0,0,0-2.479-1.853,3.236,3.236,0,0,0-3.247.16c-2.4,1.874.9,2.182,2.205,2.842-1.894-.526-6.381-.136-7.006,2.059-.752,2.651,3.128,4.858,4.792,5.93-7.162.119-1.574,5.551,2.047,2.3C531.6,170.241,534.777,164.651,532.49,161.326Z" transform="translate(-484.615 -127.668)" fill="#f5ae94"/>
        </g>
      </g>
    </g>
  </g>
</svg>
