<svg xmlns="http://www.w3.org/2000/svg" xmlns:xlink="http://www.w3.org/1999/xlink" width="103" height="103" viewBox="0 0 103 103">
  <defs>
    <filter id="Trazado_978624" x="0" y="0" width="103" height="103" filterUnits="userSpaceOnUse">
      <feOffset dy="3" input="SourceAlpha"/>
      <feGaussianBlur stdDeviation="3" result="blur"/>
      <feFlood flood-opacity="0.161"/>
      <feComposite operator="in" in2="blur"/>
      <feComposite in="SourceGraphic"/>
    </filter>
  </defs>
  <g id="Grupo_1210982" data-name="Grupo 1210982" transform="translate(-164.789 -4852)">
    <g id="Grupo_1209507" data-name="Grupo 1209507" transform="translate(-0.711 3794)">
      <g id="Grupo_1178144" data-name="Grupo 1178144" transform="translate(-19.5 -2004)">
        <g id="Grupo_1177896" data-name="Grupo 1177896" transform="translate(14 196)">
          <g id="Grupo_1176881" data-name="Grupo 1176881">
            <g id="Grupo_1175148" data-name="Grupo 1175148" transform="translate(0 1580)">
              <g id="Grupo_1173798" data-name="Grupo 1173798" transform="translate(-3 -3520)">
                <g id="Grupo_1171925" data-name="Grupo 1171925" transform="translate(-22 -2246)">
                  <g id="Grupo_1164524" data-name="Grupo 1164524" transform="translate(205 7058)">
                    <g id="Grupo_1144123" data-name="Grupo 1144123">
                      <g transform="matrix(1, 0, 0, 1, -9, -6)" filter="url(#Trazado_978624)">
                        <g id="Trazado_978624-2" data-name="Trazado 978624" transform="translate(9 6)" fill="#f8ecfd">
                          <path d="M 42.5 83.5 C 36.96437835693359 83.5 31.59512901306152 82.41617584228516 26.54141235351562 80.27863311767578 C 21.65934181213379 78.21369171142578 17.27447128295898 75.25723266601562 13.50862312316895 71.49137878417969 C 9.742764472961426 67.72553253173828 6.786305904388428 63.34066009521484 4.721364498138428 58.45858764648438 C 2.583823442459106 53.40486907958984 1.5 48.03562164306641 1.5 42.5 C 1.5 36.96437835693359 2.583823442459106 31.59512901306152 4.721364498138428 26.54141235351562 C 6.786305904388428 21.65934181213379 9.742764472961426 17.27447128295898 13.50862312316895 13.50862312316895 C 17.27447128295898 9.742764472961426 21.65934181213379 6.786305904388428 26.54141235351562 4.721364498138428 C 31.59512901306152 2.583823442459106 36.96437835693359 1.5 42.5 1.5 C 48.03562164306641 1.5 53.40486907958984 2.583823442459106 58.45858764648438 4.721364498138428 C 63.34066009521484 6.786305904388428 67.72553253173828 9.742764472961426 71.49137878417969 13.50862312316895 C 75.25723266601562 17.27447128295898 78.21369171142578 21.65934181213379 80.27863311767578 26.54141235351562 C 82.41617584228516 31.59512901306152 83.5 36.96437835693359 83.5 42.5 C 83.5 48.03562164306641 82.41617584228516 53.40486907958984 80.27863311767578 58.45858764648438 C 78.21369171142578 63.34066009521484 75.25723266601562 67.72553253173828 71.49137878417969 71.49137878417969 C 67.72553253173828 75.25723266601562 63.34066009521484 78.21369171142578 58.45858764648438 80.27863311767578 C 53.40486907958984 82.41617584228516 48.03562164306641 83.5 42.5 83.5 Z" stroke="none"/>
                          <path d="M 42.5 3 C 37.16621398925781 3 31.99356079101562 4.043960571289062 27.125732421875 6.102882385253906 C 22.42246627807617 8.092185974121094 18.19785308837891 10.94070434570312 14.56928253173828 14.56928253173828 C 10.94070434570312 18.19785308837891 8.092185974121094 22.42246627807617 6.102882385253906 27.125732421875 C 4.043960571289062 31.99356079101562 3 37.16621398925781 3 42.5 C 3 47.83378601074219 4.043960571289062 53.00643920898438 6.102882385253906 57.87425231933594 C 8.092185974121094 62.57753372192383 10.94070434570312 66.80213165283203 14.56928253173828 70.43071746826172 C 18.19786834716797 74.05929565429688 22.42246627807617 76.90781402587891 27.125732421875 78.89711761474609 C 31.99356079101562 80.95603942871094 37.16621398925781 82 42.5 82 C 47.83378601074219 82 53.00642395019531 80.95603942871094 57.87425231933594 78.89711761474609 C 62.57753372192383 76.90781402587891 66.80213165283203 74.05929565429688 70.43071746826172 70.43071746826172 C 74.05929565429688 66.80213165283203 76.90781402587891 62.57753372192383 78.89711761474609 57.87425231933594 C 80.95603942871094 53.00642395019531 82 47.83378601074219 82 42.5 C 82 37.16621398925781 80.95603942871094 31.99356079101562 78.89711761474609 27.125732421875 C 76.90781402587891 22.42246627807617 74.05929565429688 18.19786834716797 70.43071746826172 14.56928253173828 C 66.80213165283203 10.94070434570312 62.57753372192383 8.092185974121094 57.87425231933594 6.102882385253906 C 53.00643920898438 4.043960571289062 47.83378601074219 3 42.5 3 M 42.5 0 C 65.97209167480469 0 85 19.02789306640625 85 42.5 C 85 65.97209167480469 65.97209167480469 85 42.5 85 C 19.02789306640625 85 0 65.97209167480469 0 42.5 C 0 19.02789306640625 19.02789306640625 0 42.5 0 Z" stroke="none" fill="#c252f0"/>
                        </g>
                      </g>
                    </g>
                  </g>
                </g>
              </g>
            </g>
          </g>
        </g>
      </g>
    </g>
    <g id="programador" transform="translate(155.622 4869.192)">
      <path id="Trazado_1079485" data-name="Trazado 1079485" d="M84.989,35.111A18.389,18.389,0,0,1,82.9,43.3c-3.018,5.073,1.55,7.384.14,12.09l35.861-.093c-1.322-4.641,3.164-6.957.166-12a18.446,18.446,0,0,1-2.087-8.243l.526-4.648V24.323c0-17.737-23.78-22.786-31.45-7.354-2.2,4.455-1.7,8.021-1.715,13.44l.643,4.7" transform="translate(-43.524 -6.652)" fill="#4c4846"/>
      <path id="Trazado_1079486" data-name="Trazado 1079486" d="M86.441,55.15c1.4-4.7-3.158-7.011-.143-12.081a18.385,18.385,0,0,0,2.084-8.189l-.643-4.7V24.092A16.585,16.585,0,0,1,102.625,7.6,16.587,16.587,0,0,0,84.368,23.244c-.039.763-.018.431-.023,6.934l.643,4.7A18.389,18.389,0,0,1,82.9,43.069c-3.018,5.073,1.55,7.384.14,12.09Z" transform="translate(-43.523 -6.421)" fill="#3d3938"/>
      <path id="Trazado_1079487" data-name="Trazado 1079487" d="M84.408,288.265a6.391,6.391,0,0,0-4.289-3.3L69.572,281.28a1.54,1.54,0,0,1-1.041-1.457v-3.23a13.216,13.216,0,0,1-12.037.057v3.173a1.54,1.54,0,0,1-1.041,1.457l-4.336,1.487h0c-6.945,2.461-8.136,2.578-9.544,4.11a6.126,6.126,0,0,0-1.489,3C36.7,306.835,36.78,306.019,36.886,307c.31,2.884,3.277,2.583,3.357,2.618H84.785c.092-.04,3.3.308,3.381-2.986C88.181,306.021,85.087,289.636,84.408,288.265Z" transform="translate(-5.045 -236.517)" fill="#6c7d87"/>
      <path id="Trazado_1079488" data-name="Trazado 1079488" d="M40.534,353.424c-.136-1.259.047-.857,3.205-18.619a5.954,5.954,0,0,1,2.625-3.917c-1.779.63-5.416,1.253-6.259,5.416-3.316,16.654-3.3,16.153-3.194,17.121.31,2.884,3.277,2.583,3.357,2.618h3.623C41.359,356.043,40.665,354.634,40.534,353.424Z" transform="translate(-5.07 -282.945)" fill="#566a75"/>
      <path id="Trazado_1079489" data-name="Trazado 1079489" d="M46.851,452.19H40.294c-.088-.03-3.3.27-3.381-2.985-.018-.75.043-.807,1.052-5.878h8.886v8.863Z" transform="translate(-5.095 -379.092)" fill="#eab883"/>
      <path id="Trazado_1079490" data-name="Trazado 1079490" d="M41.482,443.328h-3.54c-1.02,5.123-1.129,5.324-1.029,6.245.31,2.884,3.277,2.583,3.357,2.618h3.623c-2.533,0-3.227-1.409-3.357-2.618C40.408,448.389,40.71,447.937,41.482,443.328Z" transform="translate(-5.072 -379.093)" fill="#dda97a"/>
      <path id="Trazado_1079491" data-name="Trazado 1079491" d="M172.417,276.056c0,9.01,0,0,0,7.1h0v.217a3.354,3.354,0,0,0,2.288,3.181,12.212,12.212,0,0,0,7.454,0,3.354,3.354,0,0,0,2.288-3.181v-.217h0c0-1.412,0-6.342,0-7.1A12.6,12.6,0,0,1,172.417,276.056Z" transform="translate(-120.968 -236.057)" fill="#eab883"/>
      <path id="Trazado_1079492" data-name="Trazado 1079492" d="M176.045,284.357h0c0-7.543,0-6.479,0-7.006a13.2,13.2,0,0,1-3.623-1.3c0,9.01,0,0,0,7.1h0v.217a3.354,3.354,0,0,0,2.288,3.181,11.156,11.156,0,0,0,2.131.484A4.289,4.289,0,0,1,176.045,284.357Z" transform="translate(-120.968 -236.057)" fill="#dda97a"/>
      <path id="Trazado_1079493" data-name="Trazado 1079493" d="M233.454,479.817H198.265a2.659,2.659,0,0,1-2.658-2.659h0a1.524,1.524,0,0,1,1.524-1.523h37.459a1.524,1.524,0,0,1,1.524,1.523h0A2.658,2.658,0,0,1,233.454,479.817Z" transform="translate(-140.798 -406.719)" fill="#c6c6c6"/>
      <path id="Trazado_1079494" data-name="Trazado 1079494" d="M202.454,477.16h0a1.524,1.524,0,0,1,1.524-1.524h-6.847a1.524,1.524,0,0,0-1.524,1.524h0a2.658,2.658,0,0,0,2.658,2.658h6.847A2.658,2.658,0,0,1,202.454,477.16Z" transform="translate(-140.798 -406.72)" fill="#b7b7b7"/>
      <path id="Trazado_1079495" data-name="Trazado 1079495" d="M250.178,315.038H219.6a1.744,1.744,0,0,0-1.739,1.739v19.791a1.744,1.744,0,0,0,1.739,1.739h30.579a1.744,1.744,0,0,0,1.739-1.739V316.777A1.744,1.744,0,0,0,250.178,315.038Z" transform="translate(-159.827 -269.391)" fill="#ededed"/>
      <g id="Grupo_1210979" data-name="Grupo 1210979" transform="translate(58.033 45.647)">
        <path id="Trazado_1079496" data-name="Trazado 1079496" d="M221.483,336.568V316.777a1.744,1.744,0,0,1,1.739-1.739H219.6a1.744,1.744,0,0,0-1.739,1.739v19.791a1.744,1.744,0,0,0,1.739,1.739h3.623A1.744,1.744,0,0,1,221.483,336.568Z" transform="translate(-217.86 -315.038)" fill="#dadada"/>
        <circle id="Elipse_12574" data-name="Elipse 12574" cx="2.512" cy="2.512" r="2.512" transform="translate(14.516 9.123)" fill="#dadada"/>
      </g>
      <path id="Trazado_1079497" data-name="Trazado 1079497" d="M320.541,378.013a2.511,2.511,0,1,0,2.173,3.764A2.509,2.509,0,0,1,320.541,378.013Z" transform="translate(-245.478 -323.242)" fill="#c6c6c6"/>
      <path id="Trazado_1079498" data-name="Trazado 1079498" d="M148.569,115.935a2.187,2.187,0,0,0-2.439-2.169c-3.362.377-6.847-.231-9.133-2.764-.845-.934-.869-1.493-1.674-1.511-1.048.023-.812,1.033-2.768,2.517a9.123,9.123,0,0,1-3.967,1.666,14.426,14.426,0,0,1-4.071.092,2.187,2.187,0,0,0-2.439,2.169v.691h0c0,5.821-.014,5.628.043,6.359a13.247,13.247,0,0,0,26.453-1.057v-5.3h0v-.691Z" transform="translate(-77.919 -93.626)" fill="#f7cf9c"/>
      <g id="Grupo_1210980" data-name="Grupo 1210980" transform="translate(39.607 20.125)">
        <path id="Trazado_1079499" data-name="Trazado 1079499" d="M125.744,148.127c-.056-.707-.044-3.668-.043-9.127a11.569,11.569,0,0,1-1.184-.092,2.187,2.187,0,0,0-2.439,2.169v.691h0c0,5.821-.014,5.628.043,6.359A13.218,13.218,0,0,0,137.036,160.2,13.29,13.29,0,0,1,125.744,148.127Z" transform="translate(-117.526 -138.893)" fill="#eab883"/>
        <path id="Trazado_1079500" data-name="Trazado 1079500" d="M95.236,157.474c-2.181-.777-4.549.668-4.549,2.777s2.368,3.555,4.549,2.777Z" transform="translate(-90.687 -154.6)" fill="#eab883"/>
        <path id="Trazado_1079501" data-name="Trazado 1079501" d="M304.952,157.474c2.181-.777,4.549.668,4.549,2.777s-2.368,3.555-4.549,2.777Z" transform="translate(-273.907 -154.6)" fill="#eab883"/>
      </g>
      <g id="Grupo_1210981" data-name="Grupo 1210981" transform="translate(39.6 24.42)">
        <path id="Trazado_1079502" data-name="Trazado 1079502" d="M91.007,168.535c-1.375,2.42,1.318,5.156,4.187,4.134v-2.714A3.489,3.489,0,0,1,91.007,168.535Z" transform="translate(-90.637 -168.535)" fill="#dda97a"/>
        <path id="Trazado_1079503" data-name="Trazado 1079503" d="M304.952,169.957v2.714c2.859,1.019,5.566-1.706,4.186-4.134A3.938,3.938,0,0,1,304.952,169.957Z" transform="translate(-273.899 -168.537)" fill="#dda97a"/>
      </g>
      <path id="Trazado_1079504" data-name="Trazado 1079504" d="M312.527,370.5a3.6,3.6,0,1,0,3.6,3.6A3.6,3.6,0,0,0,312.527,370.5Zm0,5.024a1.425,1.425,0,1,1,1.425-1.425A1.427,1.427,0,0,1,312.527,375.521Z" transform="translate(-237.7 -316.815)"/>
      <path id="Trazado_1079505" data-name="Trazado 1079505" d="M93.557,67.829h-.693c.151-.634.049.347.079-20.443a2.829,2.829,0,0,0-2.826-2.826H76.848c.731-2.3,2.066-4.767-.135-8.468a16.889,16.889,0,0,1-1.9-7.1,3.868,3.868,0,0,0,.491-6.019c-.006-5.3.288-7.919-1.208-11.727a1.087,1.087,0,0,0-2.023.795c1.375,3.5,1,5.917,1.057,9.772A4.74,4.74,0,0,0,71.91,21.7a3.275,3.275,0,0,0-3.6-2.645c-3.488.386-6.948-.348-8.886-3.307a2.137,2.137,0,0,0-3.582,0c-1.918,2.931-5.416,3.708-8.9,3.306A3.275,3.275,0,0,0,43.359,21.7a4.734,4.734,0,0,0-1.221.108c.012-4.2-.161-5.69.6-8.4a15.576,15.576,0,0,1,8.444-9.827,15.919,15.919,0,0,1,13.526.3h0a15.452,15.452,0,0,1,4.943,4.007,1.087,1.087,0,1,0,1.68-1.379A17.615,17.615,0,0,0,57.531,0,17.669,17.669,0,0,0,39.965,17.671v5.3a3.874,3.874,0,0,0,.605,6.1,16.814,16.814,0,0,1-1.893,7.021c-3.133,5.268.874,7.869.176,11.6a7.186,7.186,0,0,0-4.659,5.458l-.929,4.665a1.087,1.087,0,0,0,2.132.425,52.986,52.986,0,0,1,1.145-5.452,4.848,4.848,0,0,1,1.549-2.189,5,5,0,0,1,1.675-.916,1.085,1.085,0,0,0,.552-.163c-.08.028.961-.331,10.273-3.589v1.1a5.025,5.025,0,0,0,3.7,4.843,12.44,12.44,0,0,0,2.423.4c.068,14.736-.1,14.806.076,15.554H56.1c-1.945,0-3.274,2.01-2.265,4.182H43.068V61.766a1.087,1.087,0,0,0-2.174,0V72.011h-5.47c-1.724,0-2.327-.733-2.294-2.108.015-.611.06-.439,1.277-6.687a1.087,1.087,0,0,0-2.132-.425c-1.337,6.718-1.338,6.465-1.318,7.347.055,2.351,1.523,4.046,4.468,4.046H61.175a1.087,1.087,0,1,0,0-2.174H57.233C55.713,72.011,55.212,70,56.1,70H93.557c.889,0,.38,2.008-1.135,2.008H66.248a1.087,1.087,0,1,0,0,2.174H92.422a3.75,3.75,0,0,0,3.745-3.745A2.613,2.613,0,0,0,93.557,67.829ZM74.845,37.2c1.808,3.039.46,4.654-.259,7.356H67.528L65.1,43.735a.453.453,0,0,1-.306-.429V40.72a14.286,14.286,0,0,0,3.294-2.614h0a14.287,14.287,0,0,0,3.794-8.259,4.658,4.658,0,0,0,.813-.032A18.023,18.023,0,0,0,74.845,37.2Zm-.5-11.427a2.119,2.119,0,0,1-2.376,1.9v-3.8A2.119,2.119,0,0,1,74.345,25.777ZM45.476,22.308a1.1,1.1,0,0,1,1.233-1.089c4.357.493,8.478-.6,10.927-4.234,2.407,3.626,6.591,4.725,10.926,4.234a1.1,1.1,0,0,1,.869.275c.505.451.329.979.366,1.573,0,4.958.077,6.112-.213,7.5a12.215,12.215,0,0,1-8.373,9.359,11.79,11.79,0,0,1-3.5.534h-.147a12.2,12.2,0,0,1-2.568-.286c-.6-.133-1.15-.317-1.139-.314a12.192,12.192,0,0,1-7.167-6.26c-1.459-3.365-1.212-4.026-1.212-10.6v-.691ZM43.3,23.878v3.8a2.119,2.119,0,0,1-2.376-1.9A2.119,2.119,0,0,1,43.3,23.878Zm6.982,19.857c-3.713,1.3-.393.086-9.17,3.2a10.8,10.8,0,0,0-.8-3.94c-2.1-6.039,1.545-4.281,2.38-13.166a4.664,4.664,0,0,0,.695.018,14.325,14.325,0,0,0,7.2,10.939v2.52A.453.453,0,0,1,50.282,43.735Zm4.576,6.038a2.847,2.847,0,0,1-2.093-2.745V41.786a14.432,14.432,0,0,0,4.913.849h.128a14.338,14.338,0,0,0,3.551-.487h0l.019-.005h0c.088-.026.371-.1.715-.214h0c.224-.073.359-.121.534-.186V44.56H59.538a2.829,2.829,0,0,0-2.826,2.826V50.1A10.224,10.224,0,0,1,54.858,49.773Zm4.68,18.056a.661.661,0,0,1-.652-.652V47.386a.661.661,0,0,1,.652-.652H90.117a.661.661,0,0,1,.652.652V67.177a.661.661,0,0,1-.652.652Z" transform="translate(0 0)"/>
    </g>
  </g>
</svg>
