<svg xmlns="http://www.w3.org/2000/svg" xmlns:xlink="http://www.w3.org/1999/xlink" width="111.51" height="111.51" viewBox="0 0 111.51 111.51">
  <defs>
    <filter id="Elipse_11513" x="0" y="0" width="111.51" height="111.51" filterUnits="userSpaceOnUse">
      <feOffset dy="3" input="SourceAlpha"/>
      <feGaussianBlur stdDeviation="3" result="blur"/>
      <feFlood flood-opacity="0.161"/>
      <feComposite operator="in" in2="blur"/>
      <feComposite in="SourceGraphic"/>
    </filter>
  </defs>
  <g id="Grupo_1210998" data-name="Grupo 1210998" transform="translate(-324.401 -5225.455)">
    <g id="Grupo_1209508" data-name="Grupo 1209508" transform="translate(-0.691 3363.245)">
      <g id="Grupo_1144092" data-name="Grupo 1144092" transform="translate(334.093 1868.211)">
        <g id="Grupo_1143593" data-name="Grupo 1143593" transform="translate(0 0)">
          <g id="Grupo_1143497" data-name="Grupo 1143497" transform="translate(0 0)">
            <g transform="matrix(1, 0, 0, 1, -9, -6)" filter="url(#Elipse_11513)">
              <g id="Elipse_11513-2" data-name="Elipse 11513" transform="translate(9 6)" fill="#fdf2d5" stroke="#f5c038" stroke-width="3">
                <circle cx="46.755" cy="46.755" r="46.755" stroke="none"/>
                <circle cx="46.755" cy="46.755" r="45.255" fill="none"/>
              </g>
            </g>
          </g>
        </g>
      </g>
    </g>
    <g id="Icons" transform="translate(334.82 5217.632)">
      <g id="Grupo_1210997" data-name="Grupo 1210997" transform="translate(5.169 17.957)">
        <g id="Grupo_1210985" data-name="Grupo 1210985" transform="translate(0.884 38.207)">
          <g id="Grupo_1210984" data-name="Grupo 1210984">
            <g id="Grupo_1210983" data-name="Grupo 1210983">
              <path id="Trazado_1079506" data-name="Trazado 1079506" d="M60.854,128.143V157.08H15.507V128.143a2.2,2.2,0,0,1,2.2-2.2H58.65a2.2,2.2,0,0,1,2.2,2.2Z" transform="translate(-12.733 -125.939)" fill="#72c2e9"/>
              <path id="Trazado_1079507" data-name="Trazado 1079507" d="M124.734,128.143v7.211c-.591-.336-1.168-.7-1.73-1.083l-.513.513a4.87,4.87,0,0,1-1.8,1.143v-5.944h-6.323A4.8,4.8,0,0,1,115.6,127.9l.517-.517c-.322-.471-.626-.948-.916-1.44h7.331A2.2,2.2,0,0,1,124.734,128.143Z" transform="translate(-76.613 -125.939)" fill="#4ba5c8"/>
              <path id="Trazado_1079508" data-name="Trazado 1079508" d="M26.927,137.369H64.189v23.056H26.927Z" transform="translate(-20.112 -133.325)" fill="#f0c020"/>
              <path id="Trazado_1079509" data-name="Trazado 1079509" d="M120.338,137.369v5.944a4.871,4.871,0,0,1-6.323-5.944Z" transform="translate(-76.261 -133.325)" fill="#e8a61e"/>
              <path id="Trazado_1079510" data-name="Trazado 1079510" d="M58.558,214.871v1.808a4.912,4.912,0,0,1-4.912,4.912H12.579a4.912,4.912,0,0,1-4.912-4.912v-1.808a.916.916,0,0,1,.916-.918h49.06A.916.916,0,0,1,58.558,214.871Z" transform="translate(-7.667 -182.811)" fill="#72c2e9"/>
              <path id="Trazado_1079511" data-name="Trazado 1079511" d="M75.364,213.953v1.923a1.7,1.7,0,0,1-1.7,1.7H66.855a1.7,1.7,0,0,1-1.7-1.7v-1.923Z" transform="translate(-44.812 -182.811)" fill="#6ea2c4"/>
            </g>
          </g>
        </g>
        <g id="Grupo_1210986" data-name="Grupo 1210986" transform="translate(15.449 51.42)">
          <circle id="Elipse_12575" data-name="Elipse 12575" cx="2.359" cy="2.359" r="2.359" transform="translate(0 0)" fill="#fc5d3d"/>
          <circle id="Elipse_12576" data-name="Elipse 12576" cx="2.359" cy="2.359" r="2.359" transform="translate(8.522 0)" fill="#f0c020"/>
          <circle id="Elipse_12577" data-name="Elipse 12577" cx="2.359" cy="2.359" r="2.359" transform="translate(17.044 0)" fill="#13bf6d"/>
        </g>
        <path id="Trazado_1079512" data-name="Trazado 1079512" d="M137.2,20.461a23.885,23.885,0,0,0-18.5,39l-2.031,2.031a2.4,2.4,0,1,0,3.388,3.388l2.031-2.031A23.886,23.886,0,1,0,137.2,20.461Z" transform="translate(-75.046 -19.575)" fill="#efefef"/>
        <path id="Trazado_1079513" data-name="Trazado 1079513" d="M162.884,50.181a7.345,7.345,0,0,0-4.947-8.145,7.33,7.33,0,0,0-11.479-2.292,7.334,7.334,0,0,0-11.484,2.292,7.345,7.345,0,0,0-4.947,8.145,7.358,7.358,0,0,0,0,10.854,7.346,7.346,0,0,0,4.947,8.145,7.327,7.327,0,0,0,11.481,2.289,7.327,7.327,0,0,0,11.481-2.289,7.346,7.346,0,0,0,4.947-8.145A7.358,7.358,0,0,0,162.884,50.181Z" transform="translate(-84.305 -30.835)" fill="#afafaf"/>
        <g id="Grupo_1210988" data-name="Grupo 1210988" transform="translate(23.124 22.866)">
          <path id="Trazado_1079514" data-name="Trazado 1079514" d="M79.08,86.994c-1.319-.435-2.35-.715-3.04-3.687a.942.942,0,0,0-1.833,0c-.675,2.906-1.616,3.217-3.04,3.688a.942.942,0,0,0,0,1.787c2.366.782,2.634,1.938,3.04,3.687a.941.941,0,0,0,1.834,0c.674-2.906,1.666-3.234,3.04-3.687A.942.942,0,0,0,79.08,86.994Z" transform="translate(-70.523 -82.581)"/>
          <g id="Grupo_1210987" data-name="Grupo 1210987" transform="translate(3.145 3.687)">
            <path id="Trazado_1079515" data-name="Trazado 1079515" d="M82.276,94.628A4.7,4.7,0,0,0,80.885,96.2a4.878,4.878,0,0,0-1.475-1.557A4.615,4.615,0,0,0,80.868,93,4.811,4.811,0,0,0,82.276,94.628Z" transform="translate(-79.41 -93)" fill="#f0c020"/>
          </g>
        </g>
        <g id="Grupo_1210990" data-name="Grupo 1210990" transform="translate(54.95 54.692)">
          <path id="Trazado_1079516" data-name="Trazado 1079516" d="M169.027,176.942c-1.319-.435-2.35-.715-3.04-3.687a.942.942,0,0,0-1.833,0c-.675,2.906-1.616,3.217-3.04,3.688a.942.942,0,0,0,0,1.787c2.366.782,2.634,1.938,3.04,3.687a.941.941,0,0,0,1.834,0c.674-2.906,1.666-3.234,3.04-3.687A.942.942,0,0,0,169.027,176.942Z" transform="translate(-160.47 -172.529)"/>
          <g id="Grupo_1210989" data-name="Grupo 1210989" transform="translate(3.145 3.686)">
            <path id="Trazado_1079517" data-name="Trazado 1079517" d="M172.224,184.575a4.7,4.7,0,0,0-1.391,1.571,4.878,4.878,0,0,0-1.475-1.557,4.615,4.615,0,0,0,1.458-1.642,4.8,4.8,0,0,0,1.408,1.628Z" transform="translate(-169.358 -182.947)" fill="#f0c020"/>
          </g>
        </g>
        <g id="Grupo_1210992" data-name="Grupo 1210992" transform="translate(45.812 9.529)">
          <g id="Grupo_1210991" data-name="Grupo 1210991">
            <path id="Trazado_1079518" data-name="Trazado 1079518" d="M141.371,48.688a4.863,4.863,0,0,0-3.911,7.034,4.863,4.863,0,0,0,0,8.821,4.863,4.863,0,0,0,3.911,7.034,4.865,4.865,0,0,0,9.612-1.067V49.756a4.865,4.865,0,0,0-9.612-1.068Z" transform="translate(-134.644 -44.889)" fill="#ffcbc3"/>
          </g>
        </g>
        <g id="Grupo_1210994" data-name="Grupo 1210994" transform="translate(62.151 9.529)">
          <g id="Grupo_1210993" data-name="Grupo 1210993">
            <path id="Trazado_1079519" data-name="Trazado 1079519" d="M190.432,48.688a4.863,4.863,0,0,1,3.911,7.034,4.863,4.863,0,0,1,0,8.821,4.863,4.863,0,0,1-3.911,7.034,4.865,4.865,0,0,1-9.612-1.067V49.756a4.865,4.865,0,0,1,9.612-1.068Z" transform="translate(-180.82 -44.889)" fill="#ffcbc3"/>
          </g>
        </g>
        <g id="Grupo_1210995" data-name="Grupo 1210995" transform="translate(10.352 60.884)">
          <path id="Trazado_1079520" data-name="Trazado 1079520" d="M65.5,191.8H39.911a.885.885,0,1,1,0-1.769H65.5a.885.885,0,1,1,0,1.769Zm-29.124,0H35.312a.885.885,0,1,1,0-1.769h1.061a.885.885,0,1,1,0,1.769Z" transform="translate(-34.427 -190.029)" fill="#f8e5b0"/>
        </g>
        <g id="Grupo_1210996" data-name="Grupo 1210996" transform="translate(10.352 44.905)">
          <path id="Trazado_1079521" data-name="Trazado 1079521" d="M59.928,146.638H58.866a.885.885,0,1,1,0-1.769h1.061a.885.885,0,1,1,0,1.769Zm-4.6,0H35.312a.885.885,0,1,1,0-1.769H55.328a.885.885,0,1,1,0,1.769Z" transform="translate(-34.427 -144.869)" fill="#f8e5b0"/>
        </g>
        <path id="Trazado_1079522" data-name="Trazado 1079522" d="M11.028,57.049h12.48a.885.885,0,1,0,0-1.769H11.028a3.1,3.1,0,0,0-3.085,3.089V86.42H6.97a1.807,1.807,0,0,0-1.8,1.8v1.808a5.8,5.8,0,0,0,5.8,5.8H39.646a.885.885,0,0,0,0-1.769H10.965a4.04,4.04,0,0,1-4.027-4.027V88.225a.033.033,0,0,1,.032-.035H25.507v1.04a2.591,2.591,0,0,0,2.59,2.587h6.8a2.59,2.59,0,0,0,2.586-2.587v-1.04H56.029a.033.033,0,0,1,.032.035v1.808a4.043,4.043,0,0,1-4.027,4.027H46.726a.885.885,0,1,0,0,1.769h5.307a5.8,5.8,0,0,0,5.8-5.8V88.225a1.811,1.811,0,0,0-1.8-1.8h-.969V64.247A24.832,24.832,0,0,0,67.32,67.5h.009a24.673,24.673,0,0,0,16.153-6,.883.883,0,0,0,.092-1.245.913.913,0,0,0-1.249-.1,23,23,0,0,1-15.006,5.569h-.006a23.041,23.041,0,0,1-14.544-5.189.885.885,0,0,0-1.186.059l-2.031,2.031A1.511,1.511,0,0,1,47.416,60.5l2.031-2.031a.885.885,0,0,0,.059-1.186A23,23,0,1,1,90.322,42.723s0,0,0,.005a22.948,22.948,0,0,1-3.56,12.3.885.885,0,0,0,1.5.945,24.692,24.692,0,0,0,3.832-13.235s0-.006,0-.008A24.772,24.772,0,1,0,45.965,55.28H30.585a.885.885,0,1,0,0,1.769H47.11c.173.243.348.485.529.723-.742.745-1.34,1.334-1.544,1.552H12.868a.884.884,0,0,0-.885.885V83.264a.884.884,0,0,0,.885.885H50.13a.884.884,0,0,0,.885-.885V63.674l1.264-1.264c.331.253.67.494,1.012.729V86.421H9.712V58.369a1.321,1.321,0,0,1,1.316-1.32ZM13.753,82.38V61.093H45.243a3.271,3.271,0,0,0,4,3.66V82.379H13.753Zm21.966,5.81v1.04a.82.82,0,0,1-.817.817H28.1a.823.823,0,0,1-.821-.817v-1.04Z" transform="translate(-5.169 -17.957)"/>
        <path id="Trazado_1079523" data-name="Trazado 1079523" d="M49.574,160.781a3.244,3.244,0,1,0,3.244,3.244A3.247,3.247,0,0,0,49.574,160.781Zm0,4.718a1.474,1.474,0,1,1,1.474-1.474A1.476,1.476,0,0,1,49.574,165.5Z" transform="translate(-31.767 -110.246)"/>
        <path id="Trazado_1079524" data-name="Trazado 1079524" d="M73.659,160.781a3.244,3.244,0,1,0,3.244,3.244A3.247,3.247,0,0,0,73.659,160.781Zm0,4.718a1.474,1.474,0,1,1,1.474-1.474A1.476,1.476,0,0,1,73.659,165.5Z" transform="translate(-47.33 -110.246)"/>
        <path id="Trazado_1079525" data-name="Trazado 1079525" d="M97.744,160.781a3.244,3.244,0,1,0,3.244,3.244A3.247,3.247,0,0,0,97.744,160.781Zm0,4.718a1.474,1.474,0,1,1,1.474-1.474A1.476,1.476,0,0,1,97.744,165.5Z" transform="translate(-62.893 -110.246)"/>
        <path id="Trazado_1079526" data-name="Trazado 1079526" d="M230.98,131.062s0,0,0,0a.881.881,0,0,0-.092-1.245.9.9,0,0,0-1.245.092.883.883,0,0,0,1.334,1.157Z" transform="translate(-150.08 -90.102)"/>
        <circle id="Elipse_12578" data-name="Elipse 12578" cx="0.885" cy="0.885" r="0.885" transform="translate(20.993 37.323)"/>
        <path id="Trazado_1079527" data-name="Trazado 1079527" d="M166.588,58.517a5.686,5.686,0,0,0-2.583-4.8,5.751,5.751,0,0,0-4.333-7.438,5.743,5.743,0,0,0-10.307-1.191,5.743,5.743,0,0,0-10.307,1.191,5.751,5.751,0,0,0-4.333,7.438,5.75,5.75,0,0,0,0,9.6,5.751,5.751,0,0,0,4.333,7.438,5.743,5.743,0,0,0,10.307,1.191,5.743,5.743,0,0,0,10.307-1.191,5.751,5.751,0,0,0,4.333-7.438A5.686,5.686,0,0,0,166.588,58.517ZM144.5,72.876a4.009,4.009,0,0,1-3.483-2.067,6.987,6.987,0,0,0,1.184-.256.885.885,0,1,0-.525-1.69,4.017,4.017,0,0,1-5.043-5.537h0a5.052,5.052,0,0,1,1.451-1.7.884.884,0,1,0-1.082-1.4,7.143,7.143,0,0,0-1.462,1.506,3.979,3.979,0,0,1,.005-6.429c.091.127.178.256.279.378a.885.885,0,1,0,1.364-1.127,4.018,4.018,0,0,1,4.446-6.394.885.885,0,0,0,.512-1.693,6.958,6.958,0,0,0-1.13-.24,3.977,3.977,0,0,1,7.465,1.914V52.67a5.325,5.325,0,0,0-3.594-1.308.885.885,0,0,0,0,1.769,3.439,3.439,0,0,1,3.594,3.435V68.894a3.987,3.987,0,0,1-3.982,3.982Zm18.693-11.147a7.134,7.134,0,0,0-1.462-1.506.884.884,0,1,0-1.082,1.4c4.056,3.135.977,8.659-3.592,7.239a.885.885,0,1,0-.525,1.69,6.982,6.982,0,0,0,1.184.256,3.977,3.977,0,0,1-7.465-1.914V63.378c0-3.859,4.038-3.862,4.073-3.877a.885.885,0,0,0,0-1.769,5.738,5.738,0,0,0-4.073,1.553V48.139a3.977,3.977,0,0,1,7.465-1.915,6.922,6.922,0,0,0-1.13.24.885.885,0,1,0,.513,1.693,4.018,4.018,0,0,1,4.446,6.394.885.885,0,1,0,1.364,1.127c.1-.122.189-.251.279-.378a3.985,3.985,0,0,1,.006,6.429Z" transform="translate(-87.214 -33.744)"/>
        <path id="Trazado_1079528" data-name="Trazado 1079528" d="M111.884,233.925a.883.883,0,1,0-.881.885A.884.884,0,0,0,111.884,233.925Z" transform="translate(-72.985 -156.937)"/>
      </g>
    </g>
  </g>
</svg>
