<svg xmlns="http://www.w3.org/2000/svg" xmlns:xlink="http://www.w3.org/1999/xlink" width="103" height="103" viewBox="0 0 103 103">
  <defs>
    <filter id="Trazado_978624" x="0" y="0" width="103" height="103" filterUnits="userSpaceOnUse">
      <feOffset dy="3" input="SourceAlpha"/>
      <feGaussianBlur stdDeviation="3" result="blur"/>
      <feFlood flood-opacity="0.161"/>
      <feComposite operator="in" in2="blur"/>
      <feComposite in="SourceGraphic"/>
    </filter>
  </defs>
  <g id="Grupo_1211008" data-name="Grupo 1211008" transform="translate(-612 -6922)">
    <g id="Grupo_1209518" data-name="Grupo 1209518" transform="translate(621 6928)">
      <g id="Grupo_1180764" data-name="Grupo 1180764" transform="translate(0 0)">
        <g id="Grupo_1179463" data-name="Grupo 1179463">
          <g id="Grupo_1144531" data-name="Grupo 1144531">
            <g transform="matrix(1, 0, 0, 1, -9, -6)" filter="url(#Trazado_978624)">
              <g id="Trazado_978624-2" data-name="Trazado 978624" transform="translate(9 6)" fill="#f8ecfd">
                <path d="M 42.5 83.5 C 36.96437835693359 83.5 31.59512901306152 82.41617584228516 26.54141235351562 80.27863311767578 C 21.65934181213379 78.21369171142578 17.27447128295898 75.25723266601562 13.50862312316895 71.49137878417969 C 9.742764472961426 67.72553253173828 6.786305904388428 63.34066009521484 4.721364498138428 58.45858764648438 C 2.583823442459106 53.40486907958984 1.5 48.03562164306641 1.5 42.5 C 1.5 36.96437835693359 2.583823442459106 31.59512901306152 4.721364498138428 26.54141235351562 C 6.786305904388428 21.65934181213379 9.742764472961426 17.27447128295898 13.50862312316895 13.50862312316895 C 17.27447128295898 9.742764472961426 21.65934181213379 6.786305904388428 26.54141235351562 4.721364498138428 C 31.59512901306152 2.583823442459106 36.96437835693359 1.5 42.5 1.5 C 48.03562164306641 1.5 53.40486907958984 2.583823442459106 58.45858764648438 4.721364498138428 C 63.34066009521484 6.786305904388428 67.72553253173828 9.742764472961426 71.49137878417969 13.50862312316895 C 75.25723266601562 17.27447128295898 78.21369171142578 21.65934181213379 80.27863311767578 26.54141235351562 C 82.41617584228516 31.59512901306152 83.5 36.96437835693359 83.5 42.5 C 83.5 48.03562164306641 82.41617584228516 53.40486907958984 80.27863311767578 58.45858764648438 C 78.21369171142578 63.34066009521484 75.25723266601562 67.72553253173828 71.49137878417969 71.49137878417969 C 67.72553253173828 75.25723266601562 63.34066009521484 78.21369171142578 58.45858764648438 80.27863311767578 C 53.40486907958984 82.41617584228516 48.03562164306641 83.5 42.5 83.5 Z" stroke="none"/>
                <path d="M 42.5 3 C 37.16621398925781 3 31.99356079101562 4.043960571289062 27.125732421875 6.102882385253906 C 22.42246627807617 8.092185974121094 18.19785308837891 10.94070434570312 14.56928253173828 14.56928253173828 C 10.94070434570312 18.19785308837891 8.092185974121094 22.42246627807617 6.102882385253906 27.125732421875 C 4.043960571289062 31.99356079101562 3 37.16621398925781 3 42.5 C 3 47.83378601074219 4.043960571289062 53.00643920898438 6.102882385253906 57.87425231933594 C 8.092185974121094 62.57753372192383 10.94070434570312 66.80213165283203 14.56928253173828 70.43071746826172 C 18.19786834716797 74.05929565429688 22.42246627807617 76.90781402587891 27.125732421875 78.89711761474609 C 31.99356079101562 80.95603942871094 37.16621398925781 82 42.5 82 C 47.83378601074219 82 53.00642395019531 80.95603942871094 57.87425231933594 78.89711761474609 C 62.57753372192383 76.90781402587891 66.80213165283203 74.05929565429688 70.43071746826172 70.43071746826172 C 74.05929565429688 66.80213165283203 76.90781402587891 62.57753372192383 78.89711761474609 57.87425231933594 C 80.95603942871094 53.00642395019531 82 47.83378601074219 82 42.5 C 82 37.16621398925781 80.95603942871094 31.99356079101562 78.89711761474609 27.125732421875 C 76.90781402587891 22.42246627807617 74.05929565429688 18.19786834716797 70.43071746826172 14.56928253173828 C 66.80213165283203 10.94070434570312 62.57753372192383 8.092185974121094 57.87425231933594 6.102882385253906 C 53.00643920898438 4.043960571289062 47.83378601074219 3 42.5 3 M 42.5 0 C 65.97209167480469 0 85 19.02789306640625 85 42.5 C 85 65.97209167480469 65.97209167480469 85 42.5 85 C 19.02789306640625 85 0 65.97209167480469 0 42.5 C 0 19.02789306640625 19.02789306640625 0 42.5 0 Z" stroke="none" fill="#c252f0"/>
              </g>
            </g>
          </g>
        </g>
      </g>
    </g>
    <g id="pensar" transform="translate(633.123 6944.515)">
      <g id="Grupo_1211006" data-name="Grupo 1211006" transform="translate(5.648 4.826)">
        <g id="Grupo_1211004" data-name="Grupo 1211004" transform="translate(7.381 11.467)">
          <path id="Trazado_1079529" data-name="Trazado 1079529" d="M119.013,349.428h.02a3.094,3.094,0,0,0,0-6.187H90.575a3.094,3.094,0,0,0,0,6.188h.02" transform="translate(-87.241 -324.693)" fill="#f1b986"/>
          <path id="Trazado_1079530" data-name="Trazado 1079530" d="M145.584,257.876a139.551,139.551,0,0,0-26.995,0,95.688,95.688,0,0,0-.617,16.784,7.918,7.918,0,0,0,7.541,7.507q6.573.31,13.146,0a7.918,7.918,0,0,0,7.541-7.507A95.7,95.7,0,0,0,145.584,257.876Z" transform="translate(-114.523 -247.405)" fill="#f1d0a5"/>
          <path id="Trazado_1079531" data-name="Trazado 1079531" d="M118.595,257.873q6.747-.654,13.5-.654a35.941,35.941,0,0,0-6.834.66q-.532,8.473-.313,16.945c.1,3.717,1.454,6.748,3.236,7.439q-1.331-.036-2.663-.1a7.919,7.919,0,0,1-7.542-7.507A95.816,95.816,0,0,1,118.595,257.873Z" transform="translate(-114.528 -247.403)" fill="#f1b986"/>
          <path id="Trazado_1079532" data-name="Trazado 1079532" d="M110.165,175.641c-5.172,2-12.519,1.117-16.221-2.586,0,0-.879,6.012-5.434,6.012l-1.986.668c-5.305-20.825,6.011-15.261,6.011-15.261a5.382,5.382,0,0,1,4.25-3.134c.143-.018.286-.031.43-.04l.035,0a9.435,9.435,0,0,1,3.335.5c.359.116.7.243,1.024.375a15.679,15.679,0,0,1,2.435,1.251l.039.026c1.165-1.541,2.275-2.935,3.5-2.935a1.274,1.274,0,0,1,1.08.5c.881,1.155.157,3.932.1,4.15l0,.01,0-.01.006-.016c.156-.394,1.906-4.633,5.044-4.633a2.452,2.452,0,0,1,.534.054c2.339.517.508,4.608.307,5.041l-.005.012-.011.022c.1-.127,4.017-5.1,5.758-2.819l0,0C122.148,165.146,115.334,173.644,110.165,175.641Z" transform="translate(-85.107 -160.518)" fill="#f4dd45"/>
          <g id="Grupo_1211003" data-name="Grupo 1211003" transform="translate(0 0)">
            <path id="Trazado_1079533" data-name="Trazado 1079533" d="M381.709,177.99h0c-.88-.879-3.929,3.271-5.76,2.822l.013-.025-.011.022C376.051,180.681,379.968,175.708,381.709,177.99Z" transform="translate(-346.425 -175.679)" fill="#ecc32e"/>
            <path id="Trazado_1079534" data-name="Trazado 1079534" d="M323.64,160.572c-1.322-.3-2.548,2.216-3.24,4a1.48,1.48,0,0,1-2.16.723l-.189-.117,0,0,0-.01h0l.006-.016c.156-.394,1.906-4.633,5.044-4.633A2.459,2.459,0,0,1,323.64,160.572Z" transform="translate(-294.405 -160.518)" fill="#ecc32e"/>
            <path id="Trazado_1079535" data-name="Trazado 1079535" d="M96.781,168.615c-3.784.667-5.214,9.342-2.84,11.715,0,0-.879,6.012-5.434,6.012l-1.986.668c-5.305-20.825,6.011-15.261,6.011-15.261a5.383,5.383,0,0,1,4.25-3.134Z" transform="translate(-85.104 -167.793)" fill="#ecc32e"/>
            <path id="Trazado_1079536" data-name="Trazado 1079536" d="M242.024,161.017c-1.33-1.33-2.216,5.49-5.21,6.582s-3.274-.3-3.274-.3h0c1.474-.545,2.718-2.268,3.907-3.841h0l.109-.144c.045-.061.092-.122.138-.182,1.076-1.406,2.115-2.609,3.25-2.609A1.274,1.274,0,0,1,242.024,161.017Z" transform="translate(-218.473 -160.518)" fill="#ecc32e"/>
          </g>
        </g>
        <circle id="Elipse_12579" data-name="Elipse 12579" cx="3.769" cy="3.769" r="3.769" transform="translate(40.195)" fill="#80b4fb"/>
        <path id="Trazado_1079537" data-name="Trazado 1079537" d="M415.491,56.661a3.769,3.769,0,1,1-5.07-5.07,3.77,3.77,0,0,0,5.07,5.07Z" transform="translate(-368.168 -51.181)" fill="#5490f9"/>
        <g id="Grupo_1211005" data-name="Grupo 1211005" transform="translate(0 6.817)">
          <circle id="Elipse_12580" data-name="Elipse 12580" cx="4.328" cy="4.328" r="4.328" fill="#f6f1f1"/>
        </g>
      </g>
      <g id="Grupo_1211007" data-name="Grupo 1211007" transform="translate(4.887 -0.001)">
        <path id="Trazado_1079538" data-name="Trazado 1079538" d="M225.77,410.17a3.983,3.983,0,0,0,3.582-2.265.761.761,0,1,0-1.376-.653,2.442,2.442,0,0,1-4.413,0,.761.761,0,1,0-1.376.653A3.983,3.983,0,0,0,225.77,410.17Z" transform="translate(-200.064 -365.522)"/>
        <path id="Trazado_1079539" data-name="Trazado 1079539" d="M183.165,346.095c0-1.055-.576-1.913-1.284-1.913s-1.284.858-1.284,1.913.576,1.913,1.284,1.913S183.165,347.149,183.165,346.095Z" transform="translate(-162.762 -309.245)"/>
        <path id="Trazado_1079540" data-name="Trazado 1079540" d="M312.933,346.095c0-1.055-.576-1.913-1.284-1.913s-1.284.858-1.284,1.913.576,1.913,1.284,1.913S312.933,347.149,312.933,346.095Z" transform="translate(-279.358 -309.245)"/>
        <path id="Trazado_1079541" data-name="Trazado 1079541" d="M112.593,154.736a4.919,4.919,0,0,0-2.994,1.413,3.254,3.254,0,0,0-.358-2.111,2.282,2.282,0,0,0-2.082-1.014,5.311,5.311,0,0,0-4.013,2.177,2.969,2.969,0,0,0-.529-1.377,2.035,2.035,0,0,0-1.687-.8c-1.416,0-2.549,1.224-3.686,2.69a17.1,17.1,0,0,0-2-.976c-.356-.146-.719-.279-1.08-.395a10.116,10.116,0,0,0-3.608-.538h-.041c-.159.01-.319.025-.48.044a5.987,5.987,0,0,0-4.486,2.933c-1.19-.424-3.722-1.033-5.647.529-2.6,2.11-2.895,7.3-.88,15.433a3.851,3.851,0,0,0,2.044,6.466q.03.936.076,1.866a8.624,8.624,0,0,0,.954,3.537.761.761,0,0,0,1.353-.7A7.11,7.11,0,0,1,82.667,181c-.135-2.631-.158-5.3-.071-7.954a5.785,5.785,0,0,0,4.363-3.365,10.972,10.972,0,0,0,.785-1.955,15.076,15.076,0,0,0,7,2.779,18.178,18.178,0,0,0,9.046-.888,17.409,17.409,0,0,0,5.18-3.457,95.208,95.208,0,0,1,.406,14.84,7.138,7.138,0,0,1-6.818,6.785c-4.338.205-8.737.205-13.074,0a7.1,7.1,0,0,1-4.325-1.714.761.761,0,0,0-.991,1.156,8.611,8.611,0,0,0,5.243,2.078c2.193.1,4.4.155,6.609.155s4.417-.052,6.609-.155a8.656,8.656,0,0,0,8.267-8.228q.048-.932.076-1.866a3.854,3.854,0,0,0-.059-7.583q-.161-3.425-.565-6.833a18.3,18.3,0,0,0,4.252-6.526,2.906,2.906,0,0,0-.255-2.637A2.16,2.16,0,0,0,112.593,154.736Zm-33.132,20.69a2.337,2.337,0,0,1,1.606-2.217c-.045,1.471-.057,2.948-.034,4.421a2.336,2.336,0,0,1-1.572-2.2Zm33.121,0a2.335,2.335,0,0,1-1.573,2.2q.033-2.208-.035-4.422A2.336,2.336,0,0,1,112.582,175.426Zm.554-17.57c-.883,3.127-5.936,8.811-9.895,10.34a16.872,16.872,0,0,1-8.276.8,12.693,12.693,0,0,1-7.132-3.216.762.762,0,0,0-1.291.427,9.855,9.855,0,0,1-.947,2.8,4.161,4.161,0,0,1-3.725,2.566h-.076a3.831,3.831,0,0,0-1.42.272c-2.136-8.922-.933-12.186.488-13.344,1.789-1.458,4.661-.088,4.688-.075a.762.762,0,0,0,1.013-.334,4.622,4.622,0,0,1,3.667-2.728c.123-.015.247-.027.37-.035l.05,0a8.627,8.627,0,0,1,3.053.468c.323.1.649.224.97.355a15.5,15.5,0,0,1,1.643.79c-.976,1.283-1.984,2.516-3.054,2.911a.761.761,0,0,0,.528,1.428c1.611-.595,2.864-2.256,4.075-3.862,1.063-1.41,2.163-2.868,3.066-2.868a.523.523,0,0,1,.475.2c.472.619.264,2.419-.033,3.5a.761.761,0,0,0,1.445.474c.016-.042,1.621-4.171,4.342-4.171.6,0,.741.219.793.3.445.706-.116,2.612-.656,3.739a.761.761,0,0,0,1.287.8c.8-1.021,2.817-3.125,4-3.125h0a.64.64,0,0,1,.55.3,1.647,1.647,0,0,1,0,1.3Z" transform="translate(-70.315 -137.49)"/>
        <path id="Trazado_1079542" data-name="Trazado 1079542" d="M59.511,6.408h2l1.436,5.333a.761.761,0,0,0,.72.563h.015a.761.761,0,0,0,.726-.534L67.611,1.524h4.548a.761.761,0,1,0,0-1.523H67.051a.761.761,0,0,0-.727.534L63.733,8.819l-.907-3.37a.761.761,0,0,0-.735-.563H59.511a.761.761,0,1,0,0,1.523Z" transform="translate(-53.282 -0.001)"/>
        <path id="Trazado_1079543" data-name="Trazado 1079543" d="M145.009,44.393c-1.276,1.823-2.038,2.821-2.447,3.357-.5.655-.687.9-.554,1.331a.8.8,0,0,0,.521.526,6.934,6.934,0,0,0,1.754.072c.611,0,1.447-.006,2.6-.02a.761.761,0,0,0-.009-1.523h-.01c-.934.012-1.928.018-2.693.018.454-.6,1.128-1.514,2.09-2.889a5.967,5.967,0,0,0,.973-2.011.764.764,0,0,0,.013-.075l.04-.311a.77.77,0,0,0,.006-.1,2.82,2.82,0,0,0-5.587-.546.761.761,0,1,0,1.494.293,1.3,1.3,0,0,1,2.57.209l-.028.217A4.587,4.587,0,0,1,145.009,44.393Z" transform="translate(-127.801 -35.896)"/>
        <path id="Trazado_1079544" data-name="Trazado 1079544" d="M395.663,29.074c2.248-2.864,2-3.787,1.523-4.267s-1.4-.726-4.269,1.523a4.522,4.522,0,0,0-1.812-.254.761.761,0,1,0,.1,1.519,3,3,0,0,1,2.658,1.279c-.6.708-1.285,1.453-2.009,2.178s-1.47,1.411-2.178,2.009a3,3,0,0,1-.593-4.387.761.761,0,0,0-1.17-.974,4.5,4.5,0,0,0-.786,4.423c-2.244,2.86-2,3.782-1.518,4.263a1.048,1.048,0,0,0,.787.323c.638,0,1.672-.426,3.481-1.846a4.529,4.529,0,0,0,5.787-5.788Zm.07-2.815a11.166,11.166,0,0,1-.9,1.389c-.075-.087-.153-.173-.235-.256s-.168-.16-.256-.235A11.152,11.152,0,0,1,395.734,26.259Zm-8.673,8.673a11.153,11.153,0,0,1,.9-1.389c.075.087.153.173.235.255s.169.16.256.235A11.163,11.163,0,0,1,387.06,34.933Zm6.463-2.21a3,3,0,0,1-2.15.879c.517-.463,1.042-.958,1.556-1.473s1.01-1.039,1.473-1.556A3,3,0,0,1,393.524,32.722Z" transform="translate(-346.672 -21.999)"/>
        <path id="Trazado_1079545" data-name="Trazado 1079545" d="M224.136,17.466a.762.762,0,0,0,.982-.44l.6-1.577h4.029l.594,1.575a.761.761,0,1,0,1.424-.538l-3.133-8.3-.008-.021a.949.949,0,0,0-.88-.59h0a.949.949,0,0,0-.88.592l-.007.017-3.162,8.3A.761.761,0,0,0,224.136,17.466Zm3.607-7.331,1.431,3.791H226.3Z" transform="translate(-201.44 -6.804)"/>
        <path id="Trazado_1079546" data-name="Trazado 1079546" d="M15.135,15.3a.761.761,0,0,0,1.077,0l.366-.366.366.366a.761.761,0,0,0,1.077-1.077l-.366-.366.366-.366a.761.761,0,0,0-1.077-1.077l-.366.366-.366-.366a.761.761,0,1,0-1.077,1.077l.366.366-.366.366A.761.761,0,0,0,15.135,15.3Z" transform="translate(-13.895 -10.956)"/>
        <path id="Trazado_1079547" data-name="Trazado 1079547" d="M475.285,144.334a.761.761,0,0,0-1.077,0l-.367.367-.367-.367a.761.761,0,1,0-1.076,1.077l.366.366-.366.366a.761.761,0,1,0,1.077,1.077l.367-.367.367.367a.761.761,0,1,0,1.077-1.077l-.366-.366.366-.366A.762.762,0,0,0,475.285,144.334Z" transform="translate(-424.742 -129.482)"/>
        <path id="Trazado_1079548" data-name="Trazado 1079548" d="M319.564,108.515a.761.761,0,0,0,1.077,0l.367-.367.367.367a.761.761,0,1,0,1.077-1.077l-.366-.366.366-.366a.761.761,0,1,0-1.077-1.077l-.367.367-.367-.367a.761.761,0,1,0-1.076,1.077l.366.366-.366.366A.761.761,0,0,0,319.564,108.515Z" transform="translate(-287.421 -94.706)"/>
        <path id="Trazado_1079549" data-name="Trazado 1079549" d="M18.674,287.974H17.207v-1.468a.761.761,0,1,0-1.523,0v1.468H14.216a.761.761,0,1,0,0,1.523h1.468v1.468a.761.761,0,0,0,1.523,0V289.5h1.468a.761.761,0,1,0,0-1.523Z" transform="translate(-12.585 -256.74)"/>
        <path id="Trazado_1079550" data-name="Trazado 1079550" d="M9.976,117.394a5.089,5.089,0,1,0-5.089-5.089A5.095,5.095,0,0,0,9.976,117.394Zm0-8.656a3.567,3.567,0,1,1-3.567,3.567A3.571,3.571,0,0,1,9.976,108.739Z" transform="translate(-4.887 -96.333)"/>
        <path id="Trazado_1079551" data-name="Trazado 1079551" d="M48.284,132.1h1.14a.761.761,0,0,0,0-1.523h-.378v-1.416a.761.761,0,0,0-1.523,0v2.177A.761.761,0,0,0,48.284,132.1Z" transform="translate(-43.195 -115.367)"/>
        <path id="Trazado_1079552" data-name="Trazado 1079552" d="M346.311,5.187h1.58l-1.237,2.574a.761.761,0,1,0,1.372.66l1.762-3.665a.761.761,0,0,0-.686-1.091h-1.58l1.237-2.574a.761.761,0,0,0-1.372-.66L345.625,4.1a.761.761,0,0,0,.686,1.091Z" transform="translate(-310.97 0.001)"/>
        <path id="Trazado_1079553" data-name="Trazado 1079553" d="M452,215.929a2.483,2.483,0,0,0-1.993-3.967h-2.176a.761.761,0,0,0-.761.761v7.49a.761.761,0,0,0,.761.761h0s2-.009,2.552-.009A2.776,2.776,0,0,0,452,215.929Zm-1.993-2.444a.962.962,0,0,1,0,1.924l-.794,0h-.621v-1.926Zm.38,5.958c-.328,0-1.166,0-1.794.006v-2.513l.626,0h1.169a1.255,1.255,0,1,1,0,2.509Z" transform="translate(-402.186 -190.446)"/>
      </g>
    </g>
  </g>
</svg>
