<svg xmlns="http://www.w3.org/2000/svg" xmlns:xlink="http://www.w3.org/1999/xlink" width="103" height="103" viewBox="0 0 103 103">
  <defs>
    <filter id="Trazado_978624" x="0" y="0" width="103" height="103" filterUnits="userSpaceOnUse">
      <feOffset dy="3" input="SourceAlpha"/>
      <feGaussianBlur stdDeviation="3" result="blur"/>
      <feFlood flood-opacity="0.161"/>
      <feComposite operator="in" in2="blur"/>
      <feComposite in="SourceGraphic"/>
    </filter>
  </defs>
  <g id="Grupo_1211018" data-name="Grupo 1211018" transform="translate(-192 -8380)">
    <g id="Grupo_1209554" data-name="Grupo 1209554" transform="translate(201 8386)">
      <g id="Grupo_1180764" data-name="Grupo 1180764" transform="translate(0 0)">
        <g id="Grupo_1179463" data-name="Grupo 1179463">
          <g id="Grupo_1144531" data-name="Grupo 1144531">
            <g transform="matrix(1, 0, 0, 1, -9, -6)" filter="url(#Trazado_978624)">
              <g id="Trazado_978624-2" data-name="Trazado 978624" transform="translate(9 6)" fill="#fef8e9">
                <path d="M 42.5 83.5 C 36.96437835693359 83.5 31.59512901306152 82.41617584228516 26.54141235351562 80.27863311767578 C 21.65934181213379 78.21369171142578 17.27447128295898 75.25723266601562 13.50862312316895 71.49137878417969 C 9.742764472961426 67.72553253173828 6.786305904388428 63.34066009521484 4.721364498138428 58.45858764648438 C 2.583823442459106 53.40486907958984 1.5 48.03562164306641 1.5 42.5 C 1.5 36.96437835693359 2.583823442459106 31.59512901306152 4.721364498138428 26.54141235351562 C 6.786305904388428 21.65934181213379 9.742764472961426 17.27447128295898 13.50862312316895 13.50862312316895 C 17.27447128295898 9.742764472961426 21.65934181213379 6.786305904388428 26.54141235351562 4.721364498138428 C 31.59512901306152 2.583823442459106 36.96437835693359 1.5 42.5 1.5 C 48.03562164306641 1.5 53.40486907958984 2.583823442459106 58.45858764648438 4.721364498138428 C 63.34066009521484 6.786305904388428 67.72553253173828 9.742764472961426 71.49137878417969 13.50862312316895 C 75.25723266601562 17.27447128295898 78.21369171142578 21.65934181213379 80.27863311767578 26.54141235351562 C 82.41617584228516 31.59512901306152 83.5 36.96437835693359 83.5 42.5 C 83.5 48.03562164306641 82.41617584228516 53.40486907958984 80.27863311767578 58.45858764648438 C 78.21369171142578 63.34066009521484 75.25723266601562 67.72553253173828 71.49137878417969 71.49137878417969 C 67.72553253173828 75.25723266601562 63.34066009521484 78.21369171142578 58.45858764648438 80.27863311767578 C 53.40486907958984 82.41617584228516 48.03562164306641 83.5 42.5 83.5 Z" stroke="none"/>
                <path d="M 42.5 3 C 37.16621398925781 3 31.99356079101562 4.043960571289062 27.125732421875 6.102882385253906 C 22.42246627807617 8.092185974121094 18.19785308837891 10.94070434570312 14.56928253173828 14.56928253173828 C 10.94070434570312 18.19785308837891 8.092185974121094 22.42246627807617 6.102882385253906 27.125732421875 C 4.043960571289062 31.99356079101562 3 37.16621398925781 3 42.5 C 3 47.83378601074219 4.043960571289062 53.00643920898438 6.102882385253906 57.87425231933594 C 8.092185974121094 62.57753372192383 10.94070434570312 66.80213165283203 14.56928253173828 70.43071746826172 C 18.19786834716797 74.05929565429688 22.42246627807617 76.90781402587891 27.125732421875 78.89711761474609 C 31.99356079101562 80.95603942871094 37.16621398925781 82 42.5 82 C 47.83378601074219 82 53.00642395019531 80.95603942871094 57.87425231933594 78.89711761474609 C 62.57753372192383 76.90781402587891 66.80213165283203 74.05929565429688 70.43071746826172 70.43071746826172 C 74.05929565429688 66.80213165283203 76.90781402587891 62.57753372192383 78.89711761474609 57.87425231933594 C 80.95603942871094 53.00642395019531 82 47.83378601074219 82 42.5 C 82 37.16621398925781 80.95603942871094 31.99356079101562 78.89711761474609 27.125732421875 C 76.90781402587891 22.42246627807617 74.05929565429688 18.19786834716797 70.43071746826172 14.56928253173828 C 66.80213165283203 10.94070434570312 62.57753372192383 8.092185974121094 57.87425231933594 6.102882385253906 C 53.00643920898438 4.043960571289062 47.83378601074219 3 42.5 3 M 42.5 0 C 65.97209167480469 0 85 19.02789306640625 85 42.5 C 85 65.97209167480469 65.97209167480469 85 42.5 85 C 19.02789306640625 85 0 65.97209167480469 0 42.5 C 0 19.02789306640625 19.02789306640625 0 42.5 0 Z" stroke="none" fill="#f8c234"/>
              </g>
            </g>
          </g>
        </g>
      </g>
    </g>
    <g id="bombilla" transform="translate(214.54 8399.54)">
      <path id="Trazado_1079555" data-name="Trazado 1079555" d="M231.966,459.663l-3.514-1.757-3.514,1.757a3.514,3.514,0,0,0,7.028,0Z" transform="translate(-199.492 -406.105)" fill="#8795de"/>
      <path id="Trazado_1079556" data-name="Trazado 1079556" d="M224.938,459.663a3.5,3.5,0,0,0,.436,1.7h6.155a3.5,3.5,0,0,0,.436-1.7l-3.514-1.757Z" transform="translate(-199.492 -406.105)" fill="#6c7fd8"/>
      <path id="Trazado_1079557" data-name="Trazado 1079557" d="M218.251,404.566H211.1a1.7,1.7,0,0,1-1.7-1.7v-5.331l5.271-1.757,5.271,1.757v5.331A1.7,1.7,0,0,1,218.251,404.566Z" transform="translate(-185.717 -351.008)" fill="#c8effe"/>
      <path id="Trazado_1079558" data-name="Trazado 1079558" d="M217.685,404.646v3.823a1.7,1.7,0,0,1-1.7,1.7h-6.583v.566a1.7,1.7,0,0,0,1.7,1.7h7.148a1.7,1.7,0,0,0,1.7-1.7V405.4Z" transform="translate(-185.717 -358.871)" fill="#99e6fc"/>
      <path id="Trazado_1079559" data-name="Trazado 1079559" d="M117.8,27.705A20.205,20.205,0,1,0,86.541,44.62a6.836,6.836,0,0,1,2.9,4.054l.7,2.793a2.262,2.262,0,0,0,2.195,1.714h10.523a2.263,2.263,0,0,0,2.195-1.714l.7-2.794a6.739,6.739,0,0,1,2.849-4.02,20.188,20.188,0,0,0,9.2-16.949Z" transform="translate(-68.636 -6.652)" fill="#ffe177"/>
      <path id="Trazado_1079560" data-name="Trazado 1079560" d="M208.73,48.835A20.209,20.209,0,0,1,204.2,78.711a6.738,6.738,0,0,0-2.849,4.02l-.7,2.794a2.263,2.263,0,0,1-2.195,1.714H188.124l.222.888a2.263,2.263,0,0,0,2.195,1.714h10.523a2.263,2.263,0,0,0,2.195-1.714l.7-2.794a6.739,6.739,0,0,1,2.849-4.02,20.209,20.209,0,0,0,1.923-32.478Z" transform="translate(-166.842 -43.311)" fill="#ffd15b"/>
      <path id="Trazado_1079561" data-name="Trazado 1079561" d="M90.943,0a21.1,21.1,0,0,0-10.7,2.9A.848.848,0,0,0,81.1,4.366a19.366,19.366,0,0,1,20.382,32.925,7.56,7.56,0,0,0-3.21,4.526l-.7,2.794A1.412,1.412,0,0,1,96.2,45.681h-.9V34.455a.284.284,0,0,1,.227-.277l3.452-.69a1.985,1.985,0,0,0,1.591-1.941V28.191a.848.848,0,0,0-1.7,0v3.355a.284.284,0,0,1-.227.277l-3.452.69a1.985,1.985,0,0,0-1.591,1.941V45.681H91.792V22.628l6.75-1.35a.283.283,0,0,1,.338.277v2.677a.848.848,0,0,0,1.7,0V21.555a1.98,1.98,0,0,0-2.368-1.941l-7.265,1.453-7.265-1.453a1.98,1.98,0,0,0-2.368,1.941v9.991A1.985,1.985,0,0,0,82.9,33.488l3.452.69a.284.284,0,0,1,.227.277V45.681h-.9A1.412,1.412,0,0,1,84.31,44.61l-.7-2.793a7.667,7.667,0,0,0-3.259-4.558A19.384,19.384,0,0,1,77.96,6.673a.848.848,0,1,0-1.137-1.26,21.081,21.081,0,0,0,2.6,33.265,5.975,5.975,0,0,1,2.542,3.55l.7,2.793a3.106,3.106,0,0,0,2.16,2.237V49.2h-.909a.848.848,0,0,0,0,1.7h.909v.969a2.55,2.55,0,0,0,1.82,2.44,4.363,4.363,0,0,0,8.6,0,2.55,2.55,0,0,0,1.82-2.44v-.969h.909a.848.848,0,1,0,0-1.7h-.909V47.258a3.107,3.107,0,0,0,2.16-2.237l.7-2.794a5.868,5.868,0,0,1,2.489-3.515A21.055,21.055,0,0,0,90.943,0ZM86.686,32.514l-3.452-.69a.284.284,0,0,1-.227-.277V21.555a.283.283,0,0,1,.338-.277l6.75,1.35V45.681H88.278V34.455A1.985,1.985,0,0,0,86.686,32.514Zm4.257,23.709a2.67,2.67,0,0,1-2.527-1.817H93.47a2.67,2.67,0,0,1-2.527,1.817Zm1.8-5.331h2.623v.969a.849.849,0,0,1-.848.848H87.369a.849.849,0,0,1-.848-.848v-.969h2.262a.848.848,0,1,0,0-1.7H86.52V47.378h8.845V49.2H92.742a.848.848,0,0,0,0,1.7Z" transform="translate(-61.983)"/>
      <path id="Trazado_1079562" data-name="Trazado 1079562" d="M202.588,209.8l1.757.351a.848.848,0,1,0,.333-1.664l-1.757-.351a.848.848,0,0,0-.333,1.664Z" transform="translate(-179.065 -184.574)"/>
      <path id="Trazado_1079563" data-name="Trazado 1079563" d="M204.677,245.762l-1.757-.351a.848.848,0,1,0-.333,1.664l1.757.351a.848.848,0,1,0,.333-1.664Z" transform="translate(-179.065 -217.633)"/>
      <path id="Trazado_1079564" data-name="Trazado 1079564" d="M283,208.8a.849.849,0,0,0-1-.666l-1.757.351a.848.848,0,1,0,.333,1.664l1.757-.351A.848.848,0,0,0,283,208.8Z" transform="translate(-247.936 -184.575)"/>
      <path id="Trazado_1079565" data-name="Trazado 1079565" d="M282,245.409l-1.757.351a.848.848,0,1,0,.333,1.664l1.757-.351a.848.848,0,1,0-.333-1.664Z" transform="translate(-247.936 -217.633)"/>
      <path id="Trazado_1079566" data-name="Trazado 1079566" d="M470.3,178.609h-3.514a.848.848,0,1,0,0,1.7H470.3a.848.848,0,1,0,0-1.7Z" transform="translate(-413.229 -158.404)"/>
      <path id="Trazado_1079567" data-name="Trazado 1079567" d="M451.254,81.11a.844.844,0,0,0,.423-.114l3.043-1.757a.848.848,0,1,0-.848-1.469l-3.043,1.757a.849.849,0,0,0,.425,1.583Z" transform="translate(-399.453 -68.871)"/>
      <path id="Trazado_1079568" data-name="Trazado 1079568" d="M454.722,265.9l-3.043-1.757a.848.848,0,1,0-.848,1.469l3.043,1.757a.848.848,0,1,0,.848-1.469Z" transform="translate(-399.454 -234.161)"/>
      <path id="Trazado_1079569" data-name="Trazado 1079569" d="M5.211,179.457a.848.848,0,0,0-.848-.848H.848a.848.848,0,1,0,0,1.7H4.362A.848.848,0,0,0,5.211,179.457Z" transform="translate(0 -158.404)"/>
      <path id="Trazado_1079570" data-name="Trazado 1079570" d="M24.007,79.525l-3.043-1.757a.848.848,0,0,0-.848,1.469l3.043,1.757a.848.848,0,0,0,.849-1.469Z" transform="translate(-17.463 -68.87)"/>
      <path id="Trazado_1079571" data-name="Trazado 1079571" d="M23.159,264.144,20.116,265.9a.848.848,0,1,0,.848,1.469l3.043-1.757a.848.848,0,1,0-.848-1.469Z" transform="translate(-17.464 -234.162)"/>
    </g>
  </g>
</svg>
