<svg xmlns="http://www.w3.org/2000/svg" xmlns:xlink="http://www.w3.org/1999/xlink" width="108" height="108" viewBox="0 0 108 108">
  <defs>
    <filter id="Trazado_904820" x="0" y="0" width="108" height="108" filterUnits="userSpaceOnUse">
      <feOffset dy="3" input="SourceAlpha"/>
      <feGaussianBlur stdDeviation="3" result="blur"/>
      <feFlood flood-opacity="0.161"/>
      <feComposite operator="in" in2="blur"/>
      <feComposite in="SourceGraphic"/>
    </filter>
  </defs>
  <g id="Grupo_1210059" data-name="Grupo 1210059" transform="translate(-195 -1693.5)">
    <g id="Grupo_1209299" data-name="Grupo 1209299" transform="translate(1 -3099.555)">
      <g id="Grupo_1208067" data-name="Grupo 1208067" transform="translate(203 4797.713)">
        <g id="Grupo_1206630" data-name="Grupo 1206630" transform="translate(0 1.342)">
          <g id="Grupo_1185091" data-name="Grupo 1185091" transform="translate(0 0)">
            <g id="Grupo_1179560" data-name="Grupo 1179560">
              <g id="Grupo_1173787" data-name="Grupo 1173787" transform="translate(0)">
                <g id="Grupo_1171910" data-name="Grupo 1171910">
                  <g id="Grupo_1167341" data-name="Grupo 1167341">
                    <g id="Grupo_1166792" data-name="Grupo 1166792">
                      <g transform="matrix(1, 0, 0, 1, -9, -6)" filter="url(#Trazado_904820)">
                        <g id="Trazado_904820-2" data-name="Trazado 904820" transform="translate(9 6)" fill="#fef8e9">
                          <path d="M 44.99999618530273 88.50006866455078 C 39.12687301635742 88.50006866455078 33.43022155761719 87.35014343261719 28.06829643249512 85.08222961425781 C 22.88852119445801 82.89136505126953 18.23629570007324 79.75465393066406 14.24084663391113 75.75919342041016 C 10.24540901184082 71.76374053955078 7.108683586120605 67.11151885986328 4.917821407318115 61.93174362182617 C 2.649921178817749 56.56980514526367 1.499996185302734 50.87315368652344 1.499996185302734 45.00003051757812 C 1.499996185302734 39.12690734863281 2.649921178817749 33.43025588989258 4.917821407318115 28.06831741333008 C 7.108683586120605 22.88854217529297 10.24540901184082 18.23631858825684 14.24084663391113 14.24086761474609 C 18.23629570007324 10.24541759490967 22.88852119445801 7.10869312286377 28.06829643249512 4.917842864990234 C 33.43022155761719 2.649930477142334 39.12687301635742 1.500005483627319 44.99999618530273 1.500005483627319 C 50.87311935424805 1.500005483627319 56.56977081298828 2.649930477142334 61.93169784545898 4.917842864990234 C 67.11147308349609 7.10869312286377 71.76369476318359 10.24541759490967 75.75914764404297 14.24086761474609 C 79.75458526611328 18.23631858825684 82.89131164550781 22.88854217529297 85.08216857910156 28.06831741333008 C 87.35007476806641 33.43025588989258 88.5 39.12690734863281 88.5 45.00003051757812 C 88.5 50.87315368652344 87.35007476806641 56.56980514526367 85.08216857910156 61.93174362182617 C 82.89131164550781 67.11151885986328 79.75458526611328 71.76374053955078 75.75914764404297 75.75919342041016 C 71.76369476318359 79.75465393066406 67.11147308349609 82.89136505126953 61.93169784545898 85.08222961425781 C 56.56977081298828 87.35014343261719 50.87311935424805 88.50006866455078 44.99999618530273 88.50006866455078 Z" stroke="none"/>
                          <path d="M 44.99999618530273 3 C 39.32870864868164 3 33.82865142822266 4.110061645507812 28.65262603759766 6.299346923828125 C 23.65165710449219 8.414573669433594 19.15968322753906 11.44334411621094 15.301513671875 15.30152893066406 C 11.44333648681641 19.15969848632812 8.414566040039062 23.65167236328125 6.299339294433594 28.65264511108398 C 4.110054016113281 33.82868576049805 2.999992370605469 39.32874298095703 2.999992370605469 45.00003051757812 C 2.999992370605469 50.67131805419922 4.110054016113281 56.1713752746582 6.299339294433594 61.34741592407227 C 8.414566040039062 66.348388671875 11.44333648681641 70.84036254882812 15.301513671875 74.69853210449219 C 19.15968322753906 78.55671691894531 23.65165710449219 81.58548736572266 28.65262603759766 83.70071411132812 C 33.82865142822266 85.88999938964844 39.32870864868164 87.00006103515625 44.99999618530273 87.00006103515625 C 50.67128372192383 87.00006103515625 56.17134094238281 85.88999938964844 61.34736633300781 83.70071411132812 C 66.34834289550781 81.58548736572266 70.84030914306641 78.55671691894531 74.69847869873047 74.69853210449219 C 78.55665588378906 70.84036254882812 81.58542633056641 66.348388671875 83.70065307617188 61.34741592407227 C 85.88993835449219 56.1713752746582 87 50.67131805419922 87 45.00003051757812 C 87 39.32874298095703 85.88993835449219 33.82868576049805 83.70065307617188 28.65264511108398 C 81.58542633056641 23.65167236328125 78.55665588378906 19.15969848632812 74.69847869873047 15.30152893066406 C 70.84030914306641 11.44334411621094 66.34834289550781 8.414573669433594 61.34736633300781 6.299346923828125 C 56.17134094238281 4.110061645507812 50.67128372192383 3 44.99999618530273 3 M 44.99999618530273 0 C 69.85281372070312 0 90 20.14720153808594 90 45.00003051757812 C 90 69.85285949707031 69.85281372070312 90.00006103515625 44.99999618530273 90.00006103515625 C 20.14717864990234 90.00006103515625 -7.62939453125e-06 69.85285949707031 -7.62939453125e-06 45.00003051757812 C -7.62939453125e-06 20.14720153808594 20.14717864990234 0 44.99999618530273 0 Z" stroke="none" fill="#f8c234"/>
                        </g>
                      </g>
                    </g>
                  </g>
                </g>
              </g>
            </g>
          </g>
        </g>
      </g>
    </g>
    <g id="aprendizaje-electronico" transform="translate(211.137 1706.637)">
      <g id="Grupo_1210057" data-name="Grupo 1210057" transform="translate(8.963 8.963)">
        <g id="Grupo_1210056" data-name="Grupo 1210056" transform="translate(0 0)">
          <path id="Trazado_1078507" data-name="Trazado 1078507" d="M73.8,106.89v29.863H16V106.89A2.891,2.891,0,0,1,18.89,104H70.909a2.891,2.891,0,0,1,2.89,2.89Z" transform="translate(-16 -93.404)" fill="#83d8f4"/>
          <path id="Trazado_1078508" data-name="Trazado 1078508" d="M73.8,376v2.89a2.891,2.891,0,0,1-2.89,2.89H18.89A2.891,2.891,0,0,1,16,378.89V376Z" transform="translate(-16 -332.651)" fill="#e0e0e2"/>
          <path id="Trazado_1078509" data-name="Trazado 1078509" d="M213.486,429.78H200l1.927-5.78h9.633Z" transform="translate(-177.844 -374.871)" fill="#57565c"/>
          <path id="Trazado_1078510" data-name="Trazado 1078510" d="M168,472h21.193v2.89H168Z" transform="translate(-149.697 -417.091)" fill="#e0e0e2"/>
          <path id="Trazado_1078511" data-name="Trazado 1078511" d="M195.266,80V91.56a25.046,25.046,0,0,1-19.266,0V80" transform="translate(-156.734 -72.293)" fill="#2d2d30"/>
          <circle id="Elipse_12565" data-name="Elipse 12565" cx="1.791" cy="1.791" r="1.791" transform="translate(39.325 21.419)" fill="#ffda44"/>
          <path id="Trazado_1078512" data-name="Trazado 1078512" d="M150.45,27.56,136,21.78,150.45,16l14.45,5.78Z" transform="translate(-121.55 -16)" fill="#3e3d42"/>
        </g>
        <path id="Trazado_1078513" data-name="Trazado 1078513" d="M80,248H99.266v11.56H80Z" transform="translate(-72.293 -220.064)" fill="#ffda44"/>
      </g>
      <g id="Grupo_1210058" data-name="Grupo 1210058" transform="translate(8 8)">
        <path id="Trazado_1078514" data-name="Trazado 1078514" d="M63.872,18.6H51.349v-2.43l1.321-.529a.963.963,0,0,0,0-1.789L38.22,8.069a.966.966,0,0,0-.715,0l-14.45,5.78a.963.963,0,0,0,0,1.789l4.211,1.685V18.6H11.853A3.857,3.857,0,0,0,8,22.45V55.2a3.857,3.857,0,0,0,3.853,3.853H31.71l-1.285,3.853H27.266a.963.963,0,0,0-.963.963v2.89a.963.963,0,0,0,.963.963H48.459a.963.963,0,0,0,.963-.963v-2.89a.963.963,0,0,0-.963-.963H45.3l-1.285-3.853H63.872A3.857,3.857,0,0,0,67.726,55.2V22.45A3.857,3.857,0,0,0,63.872,18.6ZM51.349,32.083a.963.963,0,1,1-.963-.963A.963.963,0,0,1,51.349,32.083ZM26.007,14.743,37.863,10l11.856,4.742L37.863,19.485Zm23.416,2.194V18.6h-.963V17.323Zm-2.89,1.156V27.57a24.12,24.12,0,0,1-17.34,0V18.093l8.312,3.325a.966.966,0,0,0,.715,0ZM47.5,64.836V65.8H28.23v-.963Zm-15.04-1.927,1.285-3.853h8.244l1.285,3.853ZM65.8,55.2a1.929,1.929,0,0,1-1.927,1.927H11.853A1.929,1.929,0,0,1,9.927,55.2V53.276H65.8Zm0-3.853H9.927V22.45a1.929,1.929,0,0,1,1.927-1.927H27.266V28.23a.964.964,0,0,0,.606.895,26.1,26.1,0,0,0,19.982,0,.964.964,0,0,0,.606-.895V20.523h.963v8.67a1.018,1.018,0,0,0,.014.161,2.89,2.89,0,1,0,1.9,0,1.018,1.018,0,0,0,.014-.161v-8.67H63.872A1.929,1.929,0,0,1,65.8,22.45Z" transform="translate(-8 -8)"/>
        <path id="Trazado_1078515" data-name="Trazado 1078515" d="M46.743,392h-5.78a.963.963,0,0,0,0,1.927h5.78a.963.963,0,0,0,0-1.927Z" transform="translate(-36.147 -345.761)"/>
        <path id="Trazado_1078516" data-name="Trazado 1078516" d="M113.927,392h-.963a.963.963,0,0,0,0,1.927h.963a.963.963,0,0,0,0-1.927Z" transform="translate(-99.477 -345.761)"/>
        <path id="Trazado_1078517" data-name="Trazado 1078517" d="M72.963,253.486H92.23a.963.963,0,0,0,.963-.963v-11.56A.963.963,0,0,0,92.23,240H72.963a.963.963,0,0,0-.963.963v11.56A.963.963,0,0,0,72.963,253.486Zm.963-11.56h17.34v9.633H73.927Z" transform="translate(-64.293 -212.064)"/>
        <path id="Trazado_1078518" data-name="Trazado 1078518" d="M72.963,217.927H80.67a.963.963,0,0,0,0-1.927H72.963a.963.963,0,0,0,0,1.927Z" transform="translate(-64.293 -190.954)"/>
        <path id="Trazado_1078519" data-name="Trazado 1078519" d="M72.963,193.927h2.89a.963.963,0,1,0,0-1.927h-2.89a.963.963,0,1,0,0,1.927Z" transform="translate(-64.293 -169.844)"/>
        <path id="Trazado_1078520" data-name="Trazado 1078520" d="M264.963,241.927H284.23a.963.963,0,0,0,0-1.927H264.963a.963.963,0,0,0,0,1.927Z" transform="translate(-233.174 -212.064)"/>
        <path id="Trazado_1078521" data-name="Trazado 1078521" d="M264.963,265.927H284.23a.963.963,0,0,0,0-1.927H264.963a.963.963,0,0,0,0,1.927Z" transform="translate(-233.174 -233.174)"/>
        <path id="Trazado_1078522" data-name="Trazado 1078522" d="M264.963,289.927h15.293a.963.963,0,0,0,0-1.927H264.963a.963.963,0,0,0,0,1.927Z" transform="translate(-233.174 -254.284)"/>
        <path id="Trazado_1078523" data-name="Trazado 1078523" d="M417.927,288h-.963a.963.963,0,0,0,0,1.927h.963a.963.963,0,0,0,0-1.927Z" transform="translate(-366.871 -254.284)"/>
        <path id="Trazado_1078524" data-name="Trazado 1078524" d="M264.963,313.927H284.23a.963.963,0,0,0,0-1.927H264.963a.963.963,0,0,0,0,1.927Z" transform="translate(-233.174 -275.394)"/>
        <path id="Trazado_1078525" data-name="Trazado 1078525" d="M264.963,337.927h15.293a.963.963,0,0,0,0-1.927H264.963a.963.963,0,1,0,0,1.927Z" transform="translate(-233.174 -296.504)"/>
        <path id="Trazado_1078526" data-name="Trazado 1078526" d="M417.927,336h-.963a.963.963,0,1,0,0,1.927h.963a.963.963,0,0,0,0-1.927Z" transform="translate(-366.871 -296.504)"/>
      </g>
    </g>
  </g>
</svg>
