<svg xmlns="http://www.w3.org/2000/svg" xmlns:xlink="http://www.w3.org/1999/xlink" width="103" height="103" viewBox="0 0 103 103">
  <defs>
    <filter id="Trazado_978624" x="0" y="0" width="103" height="103" filterUnits="userSpaceOnUse">
      <feOffset dy="3" input="SourceAlpha"/>
      <feGaussianBlur stdDeviation="3" result="blur"/>
      <feFlood flood-opacity="0.161"/>
      <feComposite operator="in" in2="blur"/>
      <feComposite in="SourceGraphic"/>
    </filter>
  </defs>
  <g id="Grupo_1210068" data-name="Grupo 1210068" transform="translate(-165.5 -2289.5)">
    <g id="Grupo_1208651" data-name="Grupo 1208651" transform="translate(0 1231.5)">
      <g id="Grupo_1178144" data-name="Grupo 1178144" transform="translate(-19.5 -2004)">
        <g id="Grupo_1177896" data-name="Grupo 1177896" transform="translate(14 196)">
          <g id="Grupo_1176881" data-name="Grupo 1176881">
            <g id="Grupo_1175148" data-name="Grupo 1175148" transform="translate(0 1580)">
              <g id="Grupo_1173798" data-name="Grupo 1173798" transform="translate(-3 -3520)">
                <g id="Grupo_1171925" data-name="Grupo 1171925" transform="translate(-22 -2246)">
                  <g id="Grupo_1164524" data-name="Grupo 1164524" transform="translate(205 7058)">
                    <g id="Grupo_1144123" data-name="Grupo 1144123">
                      <g transform="matrix(1, 0, 0, 1, -9, -6)" filter="url(#Trazado_978624)">
                        <g id="Trazado_978624-2" data-name="Trazado 978624" transform="translate(9 6)" fill="#f8ecfd">
                          <path d="M 42.5 83.5 C 36.96437835693359 83.5 31.59512901306152 82.41617584228516 26.54141235351562 80.27863311767578 C 21.65934181213379 78.21369171142578 17.27447128295898 75.25723266601562 13.50862312316895 71.49137878417969 C 9.742764472961426 67.72553253173828 6.786305904388428 63.34066009521484 4.721364498138428 58.45858764648438 C 2.583823442459106 53.40486907958984 1.5 48.03562164306641 1.5 42.5 C 1.5 36.96437835693359 2.583823442459106 31.59512901306152 4.721364498138428 26.54141235351562 C 6.786305904388428 21.65934181213379 9.742764472961426 17.27447128295898 13.50862312316895 13.50862312316895 C 17.27447128295898 9.742764472961426 21.65934181213379 6.786305904388428 26.54141235351562 4.721364498138428 C 31.59512901306152 2.583823442459106 36.96437835693359 1.5 42.5 1.5 C 48.03562164306641 1.5 53.40486907958984 2.583823442459106 58.45858764648438 4.721364498138428 C 63.34066009521484 6.786305904388428 67.72553253173828 9.742764472961426 71.49137878417969 13.50862312316895 C 75.25723266601562 17.27447128295898 78.21369171142578 21.65934181213379 80.27863311767578 26.54141235351562 C 82.41617584228516 31.59512901306152 83.5 36.96437835693359 83.5 42.5 C 83.5 48.03562164306641 82.41617584228516 53.40486907958984 80.27863311767578 58.45858764648438 C 78.21369171142578 63.34066009521484 75.25723266601562 67.72553253173828 71.49137878417969 71.49137878417969 C 67.72553253173828 75.25723266601562 63.34066009521484 78.21369171142578 58.45858764648438 80.27863311767578 C 53.40486907958984 82.41617584228516 48.03562164306641 83.5 42.5 83.5 Z" stroke="none"/>
                          <path d="M 42.5 3 C 37.16621398925781 3 31.99356079101562 4.043960571289062 27.125732421875 6.102882385253906 C 22.42246627807617 8.092185974121094 18.19785308837891 10.94070434570312 14.56928253173828 14.56928253173828 C 10.94070434570312 18.19785308837891 8.092185974121094 22.42246627807617 6.102882385253906 27.125732421875 C 4.043960571289062 31.99356079101562 3 37.16621398925781 3 42.5 C 3 47.83378601074219 4.043960571289062 53.00643920898438 6.102882385253906 57.87425231933594 C 8.092185974121094 62.57753372192383 10.94070434570312 66.80213165283203 14.56928253173828 70.43071746826172 C 18.19786834716797 74.05929565429688 22.42246627807617 76.90781402587891 27.125732421875 78.89711761474609 C 31.99356079101562 80.95603942871094 37.16621398925781 82 42.5 82 C 47.83378601074219 82 53.00642395019531 80.95603942871094 57.87425231933594 78.89711761474609 C 62.57753372192383 76.90781402587891 66.80213165283203 74.05929565429688 70.43071746826172 70.43071746826172 C 74.05929565429688 66.80213165283203 76.90781402587891 62.57753372192383 78.89711761474609 57.87425231933594 C 80.95603942871094 53.00642395019531 82 47.83378601074219 82 42.5 C 82 37.16621398925781 80.95603942871094 31.99356079101562 78.89711761474609 27.125732421875 C 76.90781402587891 22.42246627807617 74.05929565429688 18.19786834716797 70.43071746826172 14.56928253173828 C 66.80213165283203 10.94070434570312 62.57753372192383 8.092185974121094 57.87425231933594 6.102882385253906 C 53.00643920898438 4.043960571289062 47.83378601074219 3 42.5 3 M 42.5 0 C 65.97209167480469 0 85 19.02789306640625 85 42.5 C 85 65.97209167480469 65.97209167480469 85 42.5 85 C 19.02789306640625 85 0 65.97209167480469 0 42.5 C 0 19.02789306640625 19.02789306640625 0 42.5 0 Z" stroke="none" fill="#c252f0"/>
                        </g>
                      </g>
                    </g>
                  </g>
                </g>
              </g>
            </g>
          </g>
        </g>
      </g>
    </g>
    <g id="Page-1" transform="translate(187 2309.992)">
      <g id="_001---Chat-Bot" data-name="001---Chat-Bot">
        <path id="Shape" d="M53,35a26.625,26.625,0,0,1-.28,4C51.03,50.9,41.5,55,30,55S8.97,50.9,7.28,39A26.625,26.625,0,0,1,7,35a25.883,25.883,0,0,1,1.23-8A22.579,22.579,0,0,1,30,11,22.579,22.579,0,0,1,51.77,27,25.883,25.883,0,0,1,53,35Z" fill="#f5f5f5"/>
        <path id="Shape-2" data-name="Shape" d="M51.77,27A22.579,22.579,0,0,0,30,11c-.5,0-1,.028-1.5.059A22.552,22.552,0,0,1,48.77,27,25.883,25.883,0,0,1,50,35a26.625,26.625,0,0,1-.28,4C48.1,50.377,39.318,54.614,28.5,54.966c.5.016.994.034,1.5.034,11.5,0,21.03-4.1,22.72-16A26.625,26.625,0,0,0,53,35,25.883,25.883,0,0,0,51.77,27Z" fill="#cfd8dc"/>
        <rect id="Rectangle-path" width="38" height="22" rx="11" transform="translate(11 24)" fill="#607d8b"/>
        <path id="Shape-3" data-name="Shape" d="M38,24H35a11,11,0,0,1,0,22h3a11,11,0,0,0,0-22Z" fill="#37474f"/>
        <circle id="Oval" cx="3" cy="3" r="3" transform="translate(16 30)" fill="#00bcd4"/>
        <circle id="Oval-2" data-name="Oval" cx="3" cy="3" r="3" transform="translate(38 30)" fill="#00bcd4"/>
        <path id="Shape-4" data-name="Shape" d="M27,37h6a1,1,0,0,1,1,1,4,4,0,0,1-8,0A1,1,0,0,1,27,37Z" fill="#00bcd4"/>
        <path id="Shape-5" data-name="Shape" d="M7,35a26.625,26.625,0,0,0,.28,4H5a4,4,0,0,1-4-4V31a3.992,3.992,0,0,1,3-3.87A3.657,3.657,0,0,1,5,27H8.23A25.883,25.883,0,0,0,7,35Z" fill="#00bcd4"/>
        <path id="Shape-6" data-name="Shape" d="M59,31v4a4,4,0,0,1-4,4H52.72A26.625,26.625,0,0,0,53,35a25.883,25.883,0,0,0-1.23-8H55a3.657,3.657,0,0,1,1,.13A3.992,3.992,0,0,1,59,31Z" fill="#00bcd4"/>
        <path id="Shape-7" data-name="Shape" d="M56,27.13A3.657,3.657,0,0,0,55,27H52a3.657,3.657,0,0,1,1,.13A3.992,3.992,0,0,1,56,31v4a4,4,0,0,1-3.272,3.927A.231.231,0,0,1,52.72,39H55a4,4,0,0,0,4-4V31a3.992,3.992,0,0,0-3-3.87Z" fill="#00838f"/>
        <path id="Shape-8" data-name="Shape" d="M56,27v.13A3.657,3.657,0,0,0,55,27H52A22,22,0,0,0,8,27H5a3.657,3.657,0,0,0-1,.13V27a26,26,0,0,1,52,0Z" fill="#02a9f4"/>
        <path id="Shape-9" data-name="Shape" d="M4,27.13A3.657,3.657,0,0,1,5,27H4Z" fill="#0377bc"/>
        <path id="Shape-10" data-name="Shape" d="M48.38,8.62A25.882,25.882,0,0,0,30,1c-.5,0-1,.018-1.5.046A26.013,26.013,0,0,1,53,27h2a3.657,3.657,0,0,1,1,.13V27A25.882,25.882,0,0,0,48.38,8.62Z" fill="#0377bc"/>
        <g id="Grupo_1210067" data-name="Grupo 1210067">
          <path id="Shape-11" data-name="Shape" d="M19,29a4,4,0,1,0,4,4A4,4,0,0,0,19,29Zm0,6a2,2,0,1,1,2-2A2,2,0,0,1,19,35Z"/>
          <path id="Shape-12" data-name="Shape" d="M41,37a4,4,0,1,0-4-4A4,4,0,0,0,41,37Zm0-6a2,2,0,1,1-2,2A2,2,0,0,1,41,31Z"/>
          <path id="Shape-13" data-name="Shape" d="M30,43a5.006,5.006,0,0,0,5-5,2,2,0,0,0-2-2H27a2,2,0,0,0-2,2A5.006,5.006,0,0,0,30,43Zm3-5a3,3,0,0,1-6,0Z"/>
          <path id="Shape-14" data-name="Shape" d="M56.986,26.416a26.992,26.992,0,0,0-53.971,0A5,5,0,0,0,0,31v4a5.006,5.006,0,0,0,5,5H6.421C8.277,50.491,16.33,56,30,56s21.723-5.509,23.579-16H55a5.006,5.006,0,0,0,5-5V31a5.006,5.006,0,0,0-3.014-4.584ZM30,2A25.012,25.012,0,0,1,54.976,26H52.951A22.984,22.984,0,0,0,7.025,26h-2A25.027,25.027,0,0,1,30,2ZM50.139,21.034A23.346,23.346,0,0,0,30,10,23.344,23.344,0,0,0,9.887,20.992a21,21,0,0,1,40.252.042ZM5,38a3,3,0,0,1-3-3V31a3,3,0,0,1,3-3H6.886A27.757,27.757,0,0,0,6,35c0,1.042.064,2.033.159,3ZM30,54C16.16,54,8.8,48.244,8.072,36.9l2.393,1.368A12.014,12.014,0,0,0,22,47H38a12,12,0,0,0,0-24H22A12.013,12.013,0,0,0,10,35c0,.245.022.483.037.724L8.01,34.566C8.217,21.671,17.6,12,30,12c12.542,0,22,9.888,22,23C52,47.607,44.6,54,30,54ZM23,41H20.062a3,3,0,0,1-1.488-.4L12.2,36.958A9.993,9.993,0,0,1,22,25H38a10,10,0,0,1,0,20H22a10,10,0,0,1-8.718-5.117l4.3,2.458a5.008,5.008,0,0,0,2.48.659H23a1,1,0,0,0,0-2Zm35-6a3,3,0,0,1-3,3H53.841c.1-.967.159-1.958.159-3a27.757,27.757,0,0,0-.886-7H55a3,3,0,0,1,3,3Z"/>
          <path id="Shape-15" data-name="Shape" d="M33,19H27a1,1,0,0,0,0,2h6a1,1,0,0,0,0-2Z"/>
          <path id="Shape-16" data-name="Shape" d="M29,18h2a1,1,0,0,0,0-2H29a1,1,0,0,0,0,2Z"/>
        </g>
      </g>
    </g>
  </g>
</svg>
